<svg width="513" height="342" viewBox="0 0 513 342" fill="none" xmlns="http://www.w3.org/2000/svg">
<g clip-path="url(#clip0_392_5858)">
<path d="M0 0H513V342H0V0Z" fill="#009B3A"/>
<path d="M256.5 19.3L461.4 170.7L256.5 322L50.5996 170.7L256.5 19.3Z" fill="#FEDF00"/>
<path d="M256.5 251.4C300.903 251.4 336.9 215.404 336.9 171C336.9 126.596 300.903 90.6 256.5 90.6C212.096 90.6 176.1 126.596 176.1 171C176.1 215.404 212.096 251.4 256.5 251.4Z" fill="white"/>
<path d="M215.901 165.7C202.001 165.7 188.501 167.8 175.801 171.7C176.401 215.6 212.101 251 256.101 251C283.301 251 307.401 237.4 321.901 216.7C297.001 185.7 258.701 165.7 215.901 165.7V165.7ZM334.901 186C335.801 181 336.401 175.9 336.401 170.6C336.401 126.2 300.401 90.2 256.001 90.2C222.901 90.2 194.501 110.3 182.101 138.8C193.001 136.6 204.201 135.4 215.701 135.4C262.501 135.5 304.701 154.9 334.901 186V186Z" fill="#002776"/>
</g>
<defs>
<clipPath id="clip0_392_5858">
<rect width="513" height="342" fill="white"/>
</clipPath>
</defs>
</svg>
