<?xml version="1.0" encoding="UTF-8"?><svg id="Capa_2" xmlns="http://www.w3.org/2000/svg" viewBox="0 0 576.007030957975076 119.063314525423266"><defs><style>.cls-1{fill:#fff;}.cls-2{fill:#c1272d;}.cls-3{fill:none;stroke:#1d1d1b;stroke-width:2px;}.cls-4{fill:#ff0;}</style></defs><g id="Capa_1-2"><path class="cls-1" d="M11.000195020475076,56.480436931326039c20.07373046875-7.90667724609375,40.3173828125-15.13641357421875,60.693115234375-21.689208984375.000732421875,1.87957763671875.001708984375,3.75921630859375.002197265625,5.63873291015625-12.313720703125,3.92694091796875-24.578857421875,8.10125732421875-36.787841796875,12.522705078125.001953125,5.63336181640625.00341796875,11.26690673828125.0048828125,16.90020751953125,10.7177734375-3.79327392578125,21.47900390625-7.39617919921875,32.278564453125-10.80841064453125.000732421875,1.8756103515625.001220703125,3.7510986328125.001953125,5.62664794921875-10.799560546875,3.38348388671875-21.560791015625,6.95745849609375-32.27880859375,10.7218017578125.001953125,6.053955078125.00341796875,12.1080322265625.005126953125,18.16204833984375,12.208984375-4.18023681640625,24.47412109375-8.11322021484375,36.787353515625-11.79913330078125.00048828125,1.903564453125.0009765625,3.806884765625.001953125,5.71044921875-20.3759765625,6.04412841796875-40.61962890625,12.76495361328125-60.693115234375,20.16290283203125-.005126953125-17.049560546875-.010498046875-34.0992431640625-.015380859375-51.14874267578125Z"/><path class="cls-1" d="M87.233593457975076,45.844938884451039c5.66259765625-1.67767333984375,11.33447265625-3.30352783203125,17.015380859375-4.87725830078125.002685546875,11.12908935546875.005615234375,22.25836181640625.008544921875,33.3875732421875,7.853515625-2.05474853515625,15.7236328125-4.01031494140625,23.608154296875-5.86651611328125.000732421875,1.36761474609375.001708984375,2.73516845703125.002197265625,4.10302734375-13.587890625,3.1729736328125-27.1328125,6.6407470703125-40.623779296875,10.40338134765625-.00341796875-12.3834228515625-.00732421875-24.7667236328125-.010498046875-37.15020751953125Z"/><path class="cls-1" d="M171.859081739225076,8.218107829763539c12.46240234375-2.6204833984375,24.9501953125-4.995849609375,37.456298828125-7.12603759765625,26.419921875-4.46160888671875,37.96533203125,5.06402587890625,37.968017578125,22.79315185546875.0087890625,17.86517333984375-11.53173828125,29.54180908203125-37.952392578125,33.27935791015625-12.506103515625,1.823974609375-24.994384765625,3.893310546875-37.456298828125,6.20751953125-.005126953125-18.38470458984375-.010498046875-36.76934814453125-.015625-55.15399169921875ZM205.759716504850076,51.622770915701039c9.833251953125-1.4886474609375,15.947509765625-4.5673828125,15.942626953125-24.44781494140625-.00439453125-19.8663330078125-6.1220703125-21.16015625-15.954345703125-19.474853515625-3.172119140625.54376220703125-6.342529296875,1.10333251953125-9.51171875,1.6787109375.00390625,14.579833984375.0078125,29.1597900390625.01171875,43.73980712890625,3.169921875-.514404296875,6.33984375-1.01318359375,9.51171875-1.495849609375Z"/><path class="cls-1" d="M262.254345411100076,30.833830486013539c-.00244140625-12.46484375,9.40625-21.838623046875,28.62646484375-23.39324951171875,19.276611328125-1.49127197265625,28.690185546875,6.62225341796875,28.693603515625,19.429931640625.005615234375,12.87554931640625-9.405029296875,21.43878173828125-28.6826171875,22.54541015625-19.220947265625,1.17083740234375-28.635498046875-6.05096435546875-28.637451171875-18.58209228515625ZM301.749706739225076,27.682829509451039c-.0048828125-13.887939453125-2.95654296875-16.4888916015625-10.867919921875-15.890625-7.91015625.61358642578125-10.80908203125,3.63665771484375-10.803466796875,17.38897705078125.00439453125,13.8199462890625,2.90185546875,16.32421875,10.812255859375,15.82745361328125,7.910888671875-.48150634765625,10.863525390625-3.37042236328125,10.859130859375-17.3258056640625Z"/><path class="cls-1" d="M353.466503614225076,31.446135173513539c-1.48388671875.003173828125-2.966796875.0098876953125-4.45068359375.01995849609375.001220703125,5.17291259765625.002685546875,10.34576416015625.00390625,15.51861572265625-5.60009765625.001220703125-11.20263671875.05126953125-16.806640625.150390625-.00341796875-13.7862548828125-.00732421875-27.572509765625-.0107421875-41.35870361328125,8.77783203125-.305419921875,17.5517578125-.49072265625,26.31787109375-.55584716796875,12.90087890625-.10601806640625,23.00341796875,2.90069580078125,23.006103515625,13.37158203125.000732421875,5.837890625-3.939208984375,9.444091796875-10.15966796875,11.33380126953125,3.890380859375,5.8333740234375,7.779541015625,11.7178955078125,11.666015625,17.65362548828125-6.420166015625-.22637939453125-12.844970703125-.38812255859375-19.274658203125-.4852294921875-3.42919921875-5.2562255859375-6.85986328125-10.472412109375-10.29150390625-15.648193359375ZM357.135693067350076,26.859953532888539c5.00390625.0032958984375,7.45068359375-1.8406982421875,7.4482421875-8.48968505859375-.0009765625-6.871826171875-2.4462890625-8.7000732421875-7.452392578125-8.6658935546875-2.706298828125.01934814453125-5.413818359375.05010986328125-8.12158203125.09222412109375.001220703125,5.69952392578125.002685546875,11.39886474609375.00390625,17.0985107421875,2.707763671875-.02313232421875,5.415283203125-.03485107421875,8.121826171875-.03515625Z"/><path class="cls-1" d="M411.231640332975076,6.280302653982289c4.927001953125.23541259765625,9.850341796875.50909423828125,14.76904296875.82098388671875,7.022216796875,14.7677001953125,14.035400390625,29.7342529296875,21.0380859375,44.899658203125-6.11767578125-.63104248046875-12.2431640625-1.20257568359375-18.37548828125-1.71453857421875-1.67724609375-3.63671875-3.3544921875-7.2620849609375-5.032470703125-10.87579345703125-7.53662109375-.55755615234375-15.08349609375-1.02520751953125-22.637939453125-1.403076171875-1.606201171875,3.37799072265625-3.213134765625,6.75335693359375-4.820068359375,10.12591552734375-1.7373046875-.08526611328125-3.47509765625-.16583251953125-5.212646484375-.24163818359375,6.763671875-13.82635498046875,13.521484375-27.69683837890625,20.271484375-41.61151123046875ZM403.096630567350076,33.558317790701039c6.11328125.30792236328125,12.22119140625.67474365234375,18.322265625,1.10040283203125-3.11669921875-6.7066650390625-6.23486328125-13.373779296875-9.355224609375-20.001220703125-2.987548828125,6.3094482421875-5.976806640625,12.6097412109375-8.967041015625,18.90081787109375Z"/><path class="cls-1" d="M457.317089551725076,9.611723552419789c8.67578125.84149169921875,17.33447265625,1.80316162109375,25.972412109375,2.88494873046875,18.240478515625,2.3033447265625,26.123779296875,12.0286865234375,26.131591796875,25.85333251953125-.0009765625,13.890625-7.8818359375,20.761962890625-26.120849609375,18.10443115234375-8.637939453125-1.2318115234375-17.296630859375-2.343505859375-25.972412109375-3.33514404296875-.003662109375-14.5025634765625-.006591796875-29.005126953125-.0107421875-43.507568359375ZM480.832470411100076,51.345121989919789c6.796630859375.94281005859375,11.006591796875-.19927978515625,11.003173828125-15.7459716796875-.002685546875-15.541259765625-4.214111328125-17.8624267578125-11.0107421875-18.7080078125-2.192626953125-.27252197265625-4.386962890625-.53704833984375-6.58154296875-.7940673828125.002685546875,11.4547119140625.005126953125,22.909423828125.0078125,34.3643798828125,2.19482421875.2867431640625,4.388671875.581298828125,6.581298828125.8836669921875Z"/><path class="cls-1" d="M520.411816114225076,40.206511150076039c-.0107421875-13.849365234375,9.21337890625-21.5899658203125,27.861083984375-17.957763671875,18.690673828125,3.7109375,27.724365234375,15.27392578125,27.734130859375,29.46636962890625-.0029296875,14.25897216796875-9.0322265625,21.19024658203125-27.7236328125,17.09490966796875-18.6484375-4.01611328125-27.875-14.6878662109375-27.87158203125-28.603515625ZM558.801708692350076,47.710173259451039c-.005126953125-15.39776611328125-2.856201171875-19.09759521484375-10.52783203125-20.6343994140625-7.672119140625-1.52166748046875-10.497314453125,1.02166748046875-10.491455078125,16.28485107421875.00244140625,15.33721923828125,2.82666015625,18.92230224609375,10.5,20.5606689453125,7.671875,1.65338134765625,10.52197265625-.73883056640625,10.519287109375-16.21112060546875Z"/><path class="cls-2" d="M1.000195020475076,66.480436931326039c20.07373046875-7.90667724609375,40.3173828125-15.13641357421875,60.693115234375-21.689208984375.000732421875,1.87957763671875.001708984375,3.75921630859375.002197265625,5.63873291015625-12.313720703125,3.92694091796875-24.578857421875,8.10125732421875-36.787841796875,12.522705078125.001953125,5.63336181640625.00341796875,11.26690673828125.0048828125,16.90020751953125,10.7177734375-3.79327392578125,21.47900390625-7.39617919921875,32.278564453125-10.80841064453125.000732421875,1.8756103515625.001220703125,3.7510986328125.001953125,5.62664794921875-10.799560546875,3.38348388671875-21.560791015625,6.95745849609375-32.27880859375,10.7218017578125.001953125,6.053955078125.00341796875,12.1080322265625.005126953125,18.16204833984375,12.208984375-4.18023681640625,24.47412109375-8.11322021484375,36.787353515625-11.79913330078125.00048828125,1.903564453125.0009765625,3.806884765625.001953125,5.71044921875-20.3759765625,6.04412841796875-40.61962890625,12.76495361328125-60.693115234375,20.16290283203125-.005126953125-17.049560546875-.010498046875-34.0992431640625-.015380859375-51.14874267578125Z"/><path class="cls-2" d="M77.233593457975076,55.844938884451039c5.66259765625-1.67767333984375,11.33447265625-3.30352783203125,17.015380859375-4.87725830078125.002685546875,11.12908935546875.005615234375,22.25836181640625.008544921875,33.3875732421875,7.853515625-2.05474853515625,15.7236328125-4.01031494140625,23.608154296875-5.86651611328125.000732421875,1.36761474609375.001708984375,2.73516845703125.002197265625,4.10302734375-13.587890625,3.1729736328125-27.1328125,6.6407470703125-40.623779296875,10.40338134765625-.00341796875-12.3834228515625-.00732421875-24.7667236328125-.010498046875-37.15020751953125Z"/><path class="cls-2" d="M161.859081739225076,18.218107829763539c12.46240234375-2.6204833984375,24.9501953125-4.995849609375,37.456298828125-7.12603759765625,26.419921875-4.46160888671875,37.96533203125,5.06402587890625,37.968017578125,22.79315185546875.0087890625,17.86517333984375-11.53173828125,29.54180908203125-37.952392578125,33.27935791015625-12.506103515625,1.823974609375-24.994384765625,3.893310546875-37.456298828125,6.20751953125-.005126953125-18.38470458984375-.010498046875-36.76934814453125-.015625-55.15399169921875ZM195.759716504850076,61.622770915701039c9.833251953125-1.4886474609375,15.947509765625-4.5673828125,15.942626953125-24.44781494140625-.00439453125-19.8663330078125-6.1220703125-21.16015625-15.954345703125-19.474853515625-3.172119140625.54376220703125-6.342529296875,1.10333251953125-9.51171875,1.6787109375.00390625,14.579833984375.0078125,29.1597900390625.01171875,43.73980712890625,3.169921875-.514404296875,6.33984375-1.01318359375,9.51171875-1.495849609375Z"/><path class="cls-2" d="M252.254345411100076,40.833830486013539c-.00244140625-12.46484375,9.40625-21.838623046875,28.62646484375-23.39324951171875,19.276611328125-1.49127197265625,28.690185546875,6.62225341796875,28.693603515625,19.429931640625.005615234375,12.87554931640625-9.405029296875,21.43878173828125-28.6826171875,22.54541015625-19.220947265625,1.17083740234375-28.635498046875-6.05096435546875-28.637451171875-18.58209228515625ZM291.749706739225076,37.682829509451039c-.0048828125-13.887939453125-2.95654296875-16.4888916015625-10.867919921875-15.890625-7.91015625.61358642578125-10.80908203125,3.63665771484375-10.803466796875,17.38897705078125.00439453125,13.8199462890625,2.90185546875,16.32421875,10.812255859375,15.82745361328125,7.910888671875-.48150634765625,10.863525390625-3.37042236328125,10.859130859375-17.3258056640625Z"/><path class="cls-2" d="M343.466503614225076,41.446135173513539c-1.48388671875.003173828125-2.966796875.0098876953125-4.45068359375.01995849609375.001220703125,5.17291259765625.002685546875,10.34576416015625.00390625,15.51861572265625-5.60009765625.001220703125-11.20263671875.05126953125-16.806640625.150390625-.00341796875-13.7862548828125-.00732421875-27.572509765625-.0107421875-41.35870361328125,8.77783203125-.305419921875,17.5517578125-.49072265625,26.31787109375-.55584716796875,12.90087890625-.10601806640625,23.00341796875,2.90069580078125,23.006103515625,13.37158203125.000732421875,5.837890625-3.939208984375,9.444091796875-10.15966796875,11.33380126953125,3.890380859375,5.8333740234375,7.779541015625,11.7178955078125,11.666015625,17.65362548828125-6.420166015625-.22637939453125-12.844970703125-.38812255859375-19.274658203125-.4852294921875-3.42919921875-5.2562255859375-6.85986328125-10.472412109375-10.29150390625-15.648193359375ZM347.135693067350076,36.859953532888539c5.00390625.0032958984375,7.45068359375-1.8406982421875,7.4482421875-8.48968505859375-.0009765625-6.871826171875-2.4462890625-8.7000732421875-7.452392578125-8.6658935546875-2.706298828125.01934814453125-5.413818359375.05010986328125-8.12158203125.09222412109375.001220703125,5.69952392578125.002685546875,11.39886474609375.00390625,17.0985107421875,2.707763671875-.02313232421875,5.415283203125-.03485107421875,8.121826171875-.03515625Z"/><path class="cls-2" d="M401.231640332975076,16.280302653982289c4.927001953125.23541259765625,9.850341796875.50909423828125,14.76904296875.82098388671875,7.022216796875,14.7677001953125,14.035400390625,29.7342529296875,21.0380859375,44.899658203125-6.11767578125-.63104248046875-12.2431640625-1.20257568359375-18.37548828125-1.71453857421875-1.67724609375-3.63671875-3.3544921875-7.2620849609375-5.032470703125-10.87579345703125-7.53662109375-.55755615234375-15.08349609375-1.02520751953125-22.637939453125-1.403076171875-1.606201171875,3.37799072265625-3.213134765625,6.75335693359375-4.820068359375,10.12591552734375-1.7373046875-.08526611328125-3.47509765625-.16583251953125-5.212646484375-.24163818359375,6.763671875-13.82635498046875,13.521484375-27.69683837890625,20.271484375-41.61151123046875ZM393.096630567350076,43.558317790701039c6.11328125.30792236328125,12.22119140625.67474365234375,18.322265625,1.10040283203125-3.11669921875-6.7066650390625-6.23486328125-13.373779296875-9.355224609375-20.001220703125-2.987548828125,6.3094482421875-5.976806640625,12.6097412109375-8.967041015625,18.90081787109375Z"/><path class="cls-2" d="M447.317089551725076,19.611723552419789c8.67578125.84149169921875,17.33447265625,1.80316162109375,25.972412109375,2.88494873046875,18.240478515625,2.3033447265625,26.123779296875,12.0286865234375,26.131591796875,25.85333251953125-.0009765625,13.890625-7.8818359375,20.761962890625-26.120849609375,18.10443115234375-8.637939453125-1.2318115234375-17.296630859375-2.343505859375-25.972412109375-3.33514404296875-.003662109375-14.5025634765625-.006591796875-29.005126953125-.0107421875-43.507568359375ZM470.832470411100076,61.345121989919789c6.796630859375.94281005859375,11.006591796875-.19927978515625,11.003173828125-15.7459716796875-.002685546875-15.541259765625-4.214111328125-17.8624267578125-11.0107421875-18.7080078125-2.192626953125-.27252197265625-4.386962890625-.53704833984375-6.58154296875-.7940673828125.002685546875,11.4547119140625.005126953125,22.909423828125.0078125,34.3643798828125,2.19482421875.2867431640625,4.388671875.581298828125,6.581298828125.8836669921875Z"/><path class="cls-2" d="M510.411816114225076,50.206511150076039c-.0107421875-13.849365234375,9.21337890625-21.5899658203125,27.861083984375-17.957763671875,18.690673828125,3.7109375,27.724365234375,15.27392578125,27.734130859375,29.46636962890625-.0029296875,14.25897216796875-9.0322265625,21.19024658203125-27.7236328125,17.09490966796875-18.6484375-4.01611328125-27.875-14.6878662109375-27.87158203125-28.603515625ZM548.801708692350076,57.710173259451039c-.005126953125-15.39776611328125-2.856201171875-19.09759521484375-10.52783203125-20.6343994140625-7.672119140625-1.52166748046875-10.497314453125,1.02166748046875-10.491455078125,16.28485107421875.00244140625,15.33721923828125,2.82666015625,18.92230224609375,10.5,20.5606689453125,7.671875,1.65338134765625,10.52197265625-.73883056640625,10.519287109375-16.21112060546875Z"/><path class="cls-3" d="M1.000195020475076,66.480436931326039c20.07373046875-7.90667724609375,40.3173828125-15.13641357421875,60.693115234375-21.689208984375.000732421875,1.87957763671875.001708984375,3.75921630859375.002197265625,5.63873291015625-12.313720703125,3.92694091796875-24.578857421875,8.10125732421875-36.787841796875,12.522705078125.001953125,5.63336181640625.00341796875,11.26690673828125.0048828125,16.90020751953125,10.7177734375-3.79327392578125,21.47900390625-7.39617919921875,32.278564453125-10.80841064453125.000732421875,1.8756103515625.001220703125,3.7510986328125.001953125,5.62664794921875-10.799560546875,3.38348388671875-21.560791015625,6.95745849609375-32.27880859375,10.7218017578125.001953125,6.053955078125.00341796875,12.1080322265625.005126953125,18.16204833984375,12.208984375-4.18023681640625,24.47412109375-8.11322021484375,36.787353515625-11.79913330078125.00048828125,1.903564453125.0009765625,3.806884765625.001953125,5.71044921875-20.3759765625,6.04412841796875-40.61962890625,12.76495361328125-60.693115234375,20.16290283203125-.005126953125-17.049560546875-.010498046875-34.0992431640625-.015380859375-51.14874267578125Z"/><path class="cls-3" d="M77.233593457975076,55.844938884451039c5.66259765625-1.67767333984375,11.33447265625-3.30352783203125,17.015380859375-4.87725830078125.002685546875,11.12908935546875.005615234375,22.25836181640625.008544921875,33.3875732421875,7.853515625-2.05474853515625,15.7236328125-4.01031494140625,23.608154296875-5.86651611328125.000732421875,1.36761474609375.001708984375,2.73516845703125.002197265625,4.10302734375-13.587890625,3.1729736328125-27.1328125,6.6407470703125-40.623779296875,10.40338134765625-.00341796875-12.3834228515625-.00732421875-24.7667236328125-.010498046875-37.15020751953125Z"/><path class="cls-3" d="M161.859081739225076,18.218107829763539c12.46240234375-2.6204833984375,24.9501953125-4.995849609375,37.456298828125-7.12603759765625,26.419921875-4.46160888671875,37.96533203125,5.06402587890625,37.968017578125,22.79315185546875.0087890625,17.86517333984375-11.53173828125,29.54180908203125-37.952392578125,33.27935791015625-12.506103515625,1.823974609375-24.994384765625,3.893310546875-37.456298828125,6.20751953125-.005126953125-18.38470458984375-.010498046875-36.76934814453125-.015625-55.15399169921875ZM195.759716504850076,61.622770915701039c9.833251953125-1.4886474609375,15.947509765625-4.5673828125,15.942626953125-24.44781494140625-.00439453125-19.8663330078125-6.1220703125-21.16015625-15.954345703125-19.474853515625-3.172119140625.54376220703125-6.342529296875,1.10333251953125-9.51171875,1.6787109375.00390625,14.579833984375.0078125,29.1597900390625.01171875,43.73980712890625,3.169921875-.514404296875,6.33984375-1.01318359375,9.51171875-1.495849609375Z"/><path class="cls-3" d="M252.254345411100076,40.833830486013539c-.00244140625-12.46484375,9.40625-21.838623046875,28.62646484375-23.39324951171875,19.276611328125-1.49127197265625,28.690185546875,6.62225341796875,28.693603515625,19.429931640625.005615234375,12.87554931640625-9.405029296875,21.43878173828125-28.6826171875,22.54541015625-19.220947265625,1.17083740234375-28.635498046875-6.05096435546875-28.637451171875-18.58209228515625ZM291.749706739225076,37.682829509451039c-.0048828125-13.887939453125-2.95654296875-16.4888916015625-10.867919921875-15.890625-7.91015625.61358642578125-10.80908203125,3.63665771484375-10.803466796875,17.38897705078125.00439453125,13.8199462890625,2.90185546875,16.32421875,10.812255859375,15.82745361328125,7.910888671875-.48150634765625,10.863525390625-3.37042236328125,10.859130859375-17.3258056640625Z"/><path class="cls-3" d="M343.466503614225076,41.446135173513539c-1.48388671875.003173828125-2.966796875.0098876953125-4.45068359375.01995849609375.001220703125,5.17291259765625.002685546875,10.34576416015625.00390625,15.51861572265625-5.60009765625.001220703125-11.20263671875.05126953125-16.806640625.150390625-.00341796875-13.7862548828125-.00732421875-27.572509765625-.0107421875-41.35870361328125,8.77783203125-.305419921875,17.5517578125-.49072265625,26.31787109375-.55584716796875,12.90087890625-.10601806640625,23.00341796875,2.90069580078125,23.006103515625,13.37158203125.000732421875,5.837890625-3.939208984375,9.444091796875-10.15966796875,11.33380126953125,3.890380859375,5.8333740234375,7.779541015625,11.7178955078125,11.666015625,17.65362548828125-6.420166015625-.22637939453125-12.844970703125-.38812255859375-19.274658203125-.4852294921875-3.42919921875-5.2562255859375-6.85986328125-10.472412109375-10.29150390625-15.648193359375ZM347.135693067350076,36.859953532888539c5.00390625.0032958984375,7.45068359375-1.8406982421875,7.4482421875-8.48968505859375-.0009765625-6.871826171875-2.4462890625-8.7000732421875-7.452392578125-8.6658935546875-2.706298828125.01934814453125-5.413818359375.05010986328125-8.12158203125.09222412109375.001220703125,5.69952392578125.002685546875,11.39886474609375.00390625,17.0985107421875,2.707763671875-.02313232421875,5.415283203125-.03485107421875,8.121826171875-.03515625Z"/><path class="cls-3" d="M401.231640332975076,16.280302653982289c4.927001953125.23541259765625,9.850341796875.50909423828125,14.76904296875.82098388671875,7.022216796875,14.7677001953125,14.035400390625,29.7342529296875,21.0380859375,44.899658203125-6.11767578125-.63104248046875-12.2431640625-1.20257568359375-18.37548828125-1.71453857421875-1.67724609375-3.63671875-3.3544921875-7.2620849609375-5.032470703125-10.87579345703125-7.53662109375-.55755615234375-15.08349609375-1.02520751953125-22.637939453125-1.403076171875-1.606201171875,3.37799072265625-3.213134765625,6.75335693359375-4.820068359375,10.12591552734375-1.7373046875-.08526611328125-3.47509765625-.16583251953125-5.212646484375-.24163818359375,6.763671875-13.82635498046875,13.521484375-27.69683837890625,20.271484375-41.61151123046875ZM393.096630567350076,43.558317790701039c6.11328125.30792236328125,12.22119140625.67474365234375,18.322265625,1.10040283203125-3.11669921875-6.7066650390625-6.23486328125-13.373779296875-9.355224609375-20.001220703125-2.987548828125,6.3094482421875-5.976806640625,12.6097412109375-8.967041015625,18.90081787109375Z"/><path class="cls-3" d="M447.317089551725076,19.611723552419789c8.67578125.84149169921875,17.33447265625,1.80316162109375,25.972412109375,2.88494873046875,18.240478515625,2.3033447265625,26.123779296875,12.0286865234375,26.131591796875,25.85333251953125-.0009765625,13.890625-7.8818359375,20.761962890625-26.120849609375,18.10443115234375-8.637939453125-1.2318115234375-17.296630859375-2.343505859375-25.972412109375-3.33514404296875-.003662109375-14.5025634765625-.006591796875-29.005126953125-.0107421875-43.507568359375ZM470.832470411100076,61.345121989919789c6.796630859375.94281005859375,11.006591796875-.19927978515625,11.003173828125-15.7459716796875-.002685546875-15.541259765625-4.214111328125-17.8624267578125-11.0107421875-18.7080078125-2.192626953125-.27252197265625-4.386962890625-.53704833984375-6.58154296875-.7940673828125.002685546875,11.4547119140625.005126953125,22.909423828125.0078125,34.3643798828125,2.19482421875.2867431640625,4.388671875.581298828125,6.581298828125.8836669921875Z"/><path class="cls-3" d="M510.411816114225076,50.206511150076039c-.0107421875-13.849365234375,9.21337890625-21.5899658203125,27.861083984375-17.957763671875,18.690673828125,3.7109375,27.724365234375,15.27392578125,27.734130859375,29.46636962890625-.0029296875,14.25897216796875-9.0322265625,21.19024658203125-27.7236328125,17.09490966796875-18.6484375-4.01611328125-27.875-14.6878662109375-27.87158203125-28.603515625ZM548.801708692350076,57.710173259451039c-.005126953125-15.39776611328125-2.856201171875-19.09759521484375-10.52783203125-20.6343994140625-7.672119140625-1.52166748046875-10.497314453125,1.02166748046875-10.491455078125,16.28485107421875.00244140625,15.33721923828125,2.82666015625,18.92230224609375,10.5,20.5606689453125,7.671875,1.65338134765625,10.52197265625-.73883056640625,10.519287109375-16.21112060546875Z"/><path class="cls-4" d="M11.000195020475076,56.480436931326039c20.07373046875-7.90667724609375,40.3173828125-15.13641357421875,60.693115234375-21.689208984375.000732421875,1.87957763671875.001708984375,3.75921630859375.002197265625,5.63873291015625-12.313720703125,3.92694091796875-24.578857421875,8.10125732421875-36.787841796875,12.522705078125.001953125,5.63336181640625.00341796875,11.26690673828125.0048828125,16.90020751953125,10.7177734375-3.79327392578125,21.47900390625-7.39617919921875,32.278564453125-10.80841064453125.000732421875,1.8756103515625.001220703125,3.7510986328125.001953125,5.62664794921875-10.799560546875,3.38348388671875-21.560791015625,6.95745849609375-32.27880859375,10.7218017578125.001953125,6.053955078125.00341796875,12.1080322265625.005126953125,18.16204833984375,12.208984375-4.18023681640625,24.47412109375-8.11322021484375,36.787353515625-11.79913330078125.00048828125,1.903564453125.0009765625,3.806884765625.001953125,5.71044921875-20.3759765625,6.04412841796875-40.61962890625,12.76495361328125-60.693115234375,20.16290283203125-.005126953125-17.049560546875-.010498046875-34.0992431640625-.015380859375-51.14874267578125Z"/><path class="cls-4" d="M87.233593457975076,45.844938884451039c5.66259765625-1.67767333984375,11.33447265625-3.30352783203125,17.015380859375-4.87725830078125.002685546875,11.12908935546875.005615234375,22.25836181640625.008544921875,33.3875732421875,7.853515625-2.05474853515625,15.7236328125-4.01031494140625,23.608154296875-5.86651611328125.000732421875,1.36761474609375.001708984375,2.73516845703125.002197265625,4.10302734375-13.587890625,3.1729736328125-27.1328125,6.6407470703125-40.623779296875,10.40338134765625-.00341796875-12.3834228515625-.00732421875-24.7667236328125-.010498046875-37.15020751953125Z"/><path class="cls-4" d="M171.859081739225076,8.218107829763539c12.46240234375-2.6204833984375,24.9501953125-4.995849609375,37.456298828125-7.12603759765625,26.419921875-4.46160888671875,37.96533203125,5.06402587890625,37.968017578125,22.79315185546875.0087890625,17.86517333984375-11.53173828125,29.54180908203125-37.952392578125,33.27935791015625-12.506103515625,1.823974609375-24.994384765625,3.893310546875-37.456298828125,6.20751953125-.005126953125-18.38470458984375-.010498046875-36.76934814453125-.015625-55.15399169921875ZM205.759716504850076,51.622770915701039c9.833251953125-1.4886474609375,15.947509765625-4.5673828125,15.942626953125-24.44781494140625-.00439453125-19.8663330078125-6.1220703125-21.16015625-15.954345703125-19.474853515625-3.172119140625.54376220703125-6.342529296875,1.10333251953125-9.51171875,1.6787109375.00390625,14.579833984375.0078125,29.1597900390625.01171875,43.73980712890625,3.169921875-.514404296875,6.33984375-1.01318359375,9.51171875-1.495849609375Z"/><path class="cls-4" d="M262.254345411100076,30.833830486013539c-.00244140625-12.46484375,9.40625-21.838623046875,28.62646484375-23.39324951171875,19.276611328125-1.49127197265625,28.690185546875,6.62225341796875,28.693603515625,19.429931640625.005615234375,12.87554931640625-9.405029296875,21.43878173828125-28.6826171875,22.54541015625-19.220947265625,1.17083740234375-28.635498046875-6.05096435546875-28.637451171875-18.58209228515625ZM301.749706739225076,27.682829509451039c-.0048828125-13.887939453125-2.95654296875-16.4888916015625-10.867919921875-15.890625-7.91015625.61358642578125-10.80908203125,3.63665771484375-10.803466796875,17.38897705078125.00439453125,13.8199462890625,2.90185546875,16.32421875,10.812255859375,15.82745361328125,7.910888671875-.48150634765625,10.863525390625-3.37042236328125,10.859130859375-17.3258056640625Z"/><path class="cls-4" d="M353.466503614225076,31.446135173513539c-1.48388671875.003173828125-2.966796875.0098876953125-4.45068359375.01995849609375.001220703125,5.17291259765625.002685546875,10.34576416015625.00390625,15.51861572265625-5.60009765625.001220703125-11.20263671875.05126953125-16.806640625.150390625-.00341796875-13.7862548828125-.00732421875-27.572509765625-.0107421875-41.35870361328125,8.77783203125-.305419921875,17.5517578125-.49072265625,26.31787109375-.55584716796875,12.90087890625-.10601806640625,23.00341796875,2.90069580078125,23.006103515625,13.37158203125.000732421875,5.837890625-3.939208984375,9.444091796875-10.15966796875,11.33380126953125,3.890380859375,5.8333740234375,7.779541015625,11.7178955078125,11.666015625,17.65362548828125-6.420166015625-.22637939453125-12.844970703125-.38812255859375-19.274658203125-.4852294921875-3.42919921875-5.2562255859375-6.85986328125-10.472412109375-10.29150390625-15.648193359375ZM357.135693067350076,26.859953532888539c5.00390625.0032958984375,7.45068359375-1.8406982421875,7.4482421875-8.48968505859375-.0009765625-6.871826171875-2.4462890625-8.7000732421875-7.452392578125-8.6658935546875-2.706298828125.01934814453125-5.413818359375.05010986328125-8.12158203125.09222412109375.001220703125,5.69952392578125.002685546875,11.39886474609375.00390625,17.0985107421875,2.707763671875-.02313232421875,5.415283203125-.03485107421875,8.121826171875-.03515625Z"/><path class="cls-4" d="M411.231640332975076,6.280302653982289c4.927001953125.23541259765625,9.850341796875.50909423828125,14.76904296875.82098388671875,7.022216796875,14.7677001953125,14.035400390625,29.7342529296875,21.0380859375,44.899658203125-6.11767578125-.63104248046875-12.2431640625-1.20257568359375-18.37548828125-1.71453857421875-1.67724609375-3.63671875-3.3544921875-7.2620849609375-5.032470703125-10.87579345703125-7.53662109375-.55755615234375-15.08349609375-1.02520751953125-22.637939453125-1.403076171875-1.606201171875,3.37799072265625-3.213134765625,6.75335693359375-4.820068359375,10.12591552734375-1.7373046875-.08526611328125-3.47509765625-.16583251953125-5.212646484375-.24163818359375,6.763671875-13.82635498046875,13.521484375-27.69683837890625,20.271484375-41.61151123046875ZM403.096630567350076,33.558317790701039c6.11328125.30792236328125,12.22119140625.67474365234375,18.322265625,1.10040283203125-3.11669921875-6.7066650390625-6.23486328125-13.373779296875-9.355224609375-20.001220703125-2.987548828125,6.3094482421875-5.976806640625,12.6097412109375-8.967041015625,18.90081787109375Z"/><path class="cls-4" d="M457.317089551725076,9.611723552419789c8.67578125.84149169921875,17.33447265625,1.80316162109375,25.972412109375,2.88494873046875,18.240478515625,2.3033447265625,26.123779296875,12.0286865234375,26.131591796875,25.85333251953125-.0009765625,13.890625-7.8818359375,20.761962890625-26.120849609375,18.10443115234375-8.637939453125-1.2318115234375-17.296630859375-2.343505859375-25.972412109375-3.33514404296875-.003662109375-14.5025634765625-.006591796875-29.005126953125-.0107421875-43.507568359375ZM480.832470411100076,51.345121989919789c6.796630859375.94281005859375,11.006591796875-.19927978515625,11.003173828125-15.7459716796875-.002685546875-15.541259765625-4.214111328125-17.8624267578125-11.0107421875-18.7080078125-2.192626953125-.27252197265625-4.386962890625-.53704833984375-6.58154296875-.7940673828125.002685546875,11.4547119140625.005126953125,22.909423828125.0078125,34.3643798828125,2.19482421875.2867431640625,4.388671875.581298828125,6.581298828125.8836669921875Z"/><path class="cls-4" d="M520.411816114225076,40.206511150076039c-.0107421875-13.849365234375,9.21337890625-21.5899658203125,27.861083984375-17.957763671875,18.690673828125,3.7109375,27.724365234375,15.27392578125,27.734130859375,29.46636962890625-.0029296875,14.25897216796875-9.0322265625,21.19024658203125-27.7236328125,17.09490966796875-18.6484375-4.01611328125-27.875-14.6878662109375-27.87158203125-28.603515625ZM558.801708692350076,47.710173259451039c-.005126953125-15.39776611328125-2.856201171875-19.09759521484375-10.52783203125-20.6343994140625-7.672119140625-1.52166748046875-10.497314453125,1.02166748046875-10.491455078125,16.28485107421875.00244140625,15.33721923828125,2.82666015625,18.92230224609375,10.5,20.5606689453125,7.671875,1.65338134765625,10.52197265625-.73883056640625,10.519287109375-16.21112060546875Z"/></g></svg>