<?xml version="1.0" encoding="UTF-8"?><svg id="Capa_2" xmlns="http://www.w3.org/2000/svg" viewBox="0 0 423.475053787231445 147.013628005981445"><defs><style>.cls-1{fill:#fff;}.cls-2{stroke:#ff0;stroke-width:3px;}.cls-2,.cls-3{fill:none;stroke-linejoin:round;}.cls-4{fill:#ff1d25;}.cls-3{stroke:#1d1d1b;stroke-width:18.456499099731445px;}</style></defs><g id="Capa_1-2"><path class="cls-1" d="M9.228249549865723,78.851174354553223V25.126564979553223c2.85498046875-.452392578125,5.71142578125-.89501953125,8.5693359375-1.327880859375v44.326171875c6.4736328125-.9810791015625,12.953125-1.9124755859375,19.4375-2.7945556640625v9.3984375c-9.34619140625,1.271484375-18.68310546875,2.645751953125-28.0068359375,4.1224365234375Z"/><path class="cls-1" d="M40.790749549865723,74.249978065490723c4.9423828125-18.5667724609375,9.8876953125-37.1046142578125,14.83642578125-55.6138916015625,3.33642578125-.4053955078125,6.67333984375-.7977294921875,10.0126953125-1.1768798828125,4.9521484375,17.345703125,9.90625,34.72021484375,14.8623046875,52.1234130859375-2.9375.299560546875-5.875.60888671875-8.81103515625.9283447265625-.94140625-3.421630859375-1.8828125-6.84228515625-2.82421875-10.2618408203125-5.669921875.6297607421875-11.3369140625,1.2969970703125-17.00048828125,2.001708984375-.91748046875,3.637939453125-1.83544921875,7.277587890625-2.7529296875,10.91796875-2.775390625.3511962890625-5.5498046875.7115478515625-8.32275390625,1.0811767578125ZM54.217019081115723,53.031838417053223c4.09716796875-.5023193359375,8.19580078125-.9849853515625,12.29638671875-1.4478759765625-1.5458984375-5.8037109375-3.091796875-11.6044921875-4.63720703125-17.4024658203125-.2275390625-.9132080078125-.447265625-1.9307861328125-.67236328125-3.053466796875-.22900390625-1.1219482421875-.44970703125-2.4791259765625-.6708984375-4.0726318359375-.08984375.0106201171875-.1796875.0211181640625-.26953125.03173828125-.2685546875,1.7540283203125-.50390625,3.2208251953125-.70556640625,4.3909912109375-.201171875,1.173583984375-.4130859375,2.190673828125-.63818359375,3.05126953125-1.56787109375,6.16455078125-3.13525390625,12.33203125-4.70263671875,18.50244140625Z"/><path class="cls-1" d="M115.926003456115723,67.403298377990723c-2.83154296875.2103271484375-5.45947265625-.2115478515625-7.884765625-1.26953125-2.42578125-1.057373046875-4.3837890625-2.76025390625-5.861328125-5.1151123046875-1.4833984375-2.3531494140625-2.2255859375-5.3565673828125-2.22265625-9.011474609375-.00048828125-.313232421875.01025390625-.62841796875.033203125-.9432373046875.02294921875-.314453125.03369140625-.57666015625.033203125-.7862548828125,2.98681640625-.2587890625,5.97314453125-.5068359375,8.96044921875-.7447509765625,0,.052490234375-.0087890625.2236328125-.033203125.512451171875-.02099609375.2899169921875-.03564453125.5382080078125-.0341796875.745849609375-.00537109375,2.5595703125.65380859375,4.567626953125,1.95458984375,6.0333251953125,1.302734375,1.4649658203125,3.123046875,2.1072998046875,5.45947265625,1.9345703125,2.60400390625-.1925048828125,4.42626953125-.9866943359375,5.4599609375-2.3890380859375,1.03076171875-1.4041748046875,1.55126953125-2.8865966796875,1.55126953125-4.4537353515625.0009765625-1.827392578125-.4091796875-3.261962890625-1.21484375-4.302001953125-.81005859375-1.039794921875-1.87744140625-1.865478515625-3.20166015625-2.47607421875-1.32373046875-.6094970703125-2.78759765625-1.1409912109375-4.3818359375-1.596435546875-1.595703125-.453369140625-3.2021484375-.981201171875-4.818359375-1.585205078125-1.61767578125-.603271484375-3.08935546875-1.4365234375-4.4130859375-2.5030517578125-1.32666015625-1.065185546875-2.39208984375-2.50244140625-3.2001953125-4.31298828125-.80615234375-1.8116455078125-1.21142578125-4.1766357421875-1.2119140625-7.1014404296875.00146484375-3.3922119140625.71826171875-6.2620849609375,2.1552734375-8.6024169921875,1.4375-2.3385009765625,3.333984375-4.1553955078125,5.693359375-5.440673828125,2.3583984375-1.284423828125,4.884765625-2.02734375,7.58203125-2.2271728515625,2.7392578125-.2027587890625,5.248046875.1693115234375,7.5166015625,1.1109619140625,2.26708984375.9423828125,4.09033203125,2.535400390625,5.4619140625,4.769775390625,1.369140625,2.237548828125,2.0546875,5.209228515625,2.05712890625,8.9163818359375v.939453125c-2.94580078125.18310546875-5.89013671875.376220703125-8.833984375.579833984375v-.705078125c.00341796875-2.2972412109375-.55126953125-4.0728759765625-1.6513671875-5.3272705078125-1.10498046875-1.2528076171875-2.64306640625-1.8099365234375-4.6181640625-1.6639404296875-2.068359375.1529541015625-3.6630859375.8123779296875-4.78515625,1.9683837890625-1.123046875,1.1575927734375-1.6826171875,2.5738525390625-1.68505859375,4.2432861328125,0,1.56689453125.404296875,2.786865234375,1.21337890625,3.6644287109375.81103515625.8756103515625,1.87548828125,1.5765380859375,3.201171875,2.1029052734375,1.3271484375.52783203125,2.7958984375,1.004638671875,4.4150390625,1.4366455078125,1.61865234375.4310302734375,3.22314453125.9583740234375,4.8203125,1.580322265625,1.59716796875.62158203125,3.05810546875,1.4775390625,4.38330078125,2.5662841796875,1.3251953125,1.08837890625,2.392578125,2.53662109375,3.203125,4.337890625.8076171875,1.803955078125,1.212890625,4.115478515625,1.2138671875,6.9345703125.00048828125,4.125-.69775390625,7.46923828125-2.09033203125,10.0364990234375-1.3955078125,2.568115234375-3.3173828125,4.507568359375-5.76611328125,5.8204345703125-2.451171875,1.3131103515625-5.2705078125,2.0860595703125-8.46044921875,2.3226318359375Z"/><path class="cls-1" d="M156.803444862365723,65.018898963928223c-4.951171875.210205078125-8.83203125-1.097900390625-11.642578125-3.9559326171875-2.814453125-2.8558349609375-4.21484375-7.2022705078125-4.21630859375-13.05029296875V11.125954627990723c2.87841796875-.1580810546875,5.75830078125-.3055419921875,8.63720703125-.4442138671875v36.5732421875c-.0009765625,3.0814208984375.62890625,5.4000244140625,1.888671875,6.95947265625,1.26025390625,1.560302734375,3.03369140625,2.28759765625,5.3330078125,2.190185546875,2.29541015625-.0977783203125,4.08642578125-.9764404296875,5.3662109375-2.6444091796875,1.2841796875-1.6669921875,1.9208984375-4.040771484375,1.923828125-7.1212158203125V10.065773963928223c2.880859375-.106201171875,5.76171875-.202392578125,8.64208984375-.289306640625v36.88671875c0,5.8486328125-1.4140625,10.31298828125-4.25390625,13.4095458984375-2.83154296875,3.097412109375-6.72705078125,4.736572265625-11.67822265625,4.9461669921875Z"/><path class="cls-1" d="M182.864480018615723,63.235451698303223V9.510842323303223c5.51513671875-.123046875,11.03076171875-.2109375,16.54638671875-.2633056640625,3.1962890625-.031005859375,5.8720703125.64794921875,8.03759765625,2.0235595703125,2.16064453125,1.376953125,3.78564453125,3.2822265625,4.86376953125,5.7098388671875,1.07958984375,2.4281005859375,1.61962890625,5.2093505859375,1.62109375,8.342529296875-.0009765625,3.3416748046875-.6064453125,6.2767333984375-1.82421875,8.8087158203125-1.216796875,2.532958984375-2.9033203125,4.491455078125-5.0654296875,5.8824462890625-2.16064453125,1.391845703125-4.70458984375,2.096923828125-7.6328125,2.12548828125-2.63427734375.0250244140625-5.26806640625.0582275390625-7.90185546875.099365234375-.00048828125,6.9439697265625-.00048828125,13.8880615234375,0,20.83203125-2.88330078125.0450439453125-5.76318359375.0997314453125-8.64453125.1639404296875ZM191.509011268615723,33.389870643615723c2.34130859375-.03662109375,4.68310546875-.06689453125,7.02392578125-.0908203125,2.1181640625-.0213623046875,3.7275390625-.7388916015625,4.82958984375-2.155517578125,1.099609375-1.4161376953125,1.65234375-3.3487548828125,1.65478515625-5.804443359375,0-2.19140625-.56640625-3.93896484375-1.68896484375-5.2371826171875-1.123046875-1.29736328125-2.7265625-1.939208984375-4.79541015625-1.9180908203125-2.3408203125.02392578125-4.6826171875.05419921875-7.02392578125.0908203125-.00048828125,5.0384521484375-.00048828125,10.0767822265625,0,15.115234375Z"/><path class="cls-1" d="M221.834694862365723,62.952858924865723V9.228249549865723c9.83837890625.0765380859375,19.67724609375.2655029296875,29.51220703125.566650390625v8.927734375c-6.95458984375-.212890625-13.90966796875-.36962890625-20.86669921875-.4703369140625v12.84375c5.966796875.0863037109375,11.931640625.2139892578125,17.8955078125.3828125v8.927734375c-5.96435546875-.1688232421875-11.92919921875-.2965087890625-17.8955078125-.3828125v14.09765625c7.09130859375.1026611328125,14.18212890625.2635498046875,21.27099609375.4827880859375v8.927734375c-9.9697265625-.3082275390625-19.943359375-.5013427734375-29.91650390625-.5791015625Z"/><path class="cls-1" d="M260.798562049865723,63.843361854553223V10.118752479553223c6.4580078125.2447509765625,12.9150390625.5382080078125,19.3701171875.8800048828125,4.67626953125.2481689453125,8.20751953125,1.9066162109375,10.5908203125,4.9508056640625,2.38623046875,3.0423583984375,3.57666015625,6.7894287109375,3.57568359375,11.2265625-.00146484375,3.23828125-.69775390625,6.01220703125-2.091796875,8.3260498046875-1.39501953125,2.31591796875-3.28369140625,3.97509765625-5.66552734375,4.9854736328125,2.96923828125,8.3687744140625,5.93603515625,16.7481689453125,8.9033203125,25.13720703125-3.12451171875-.20263671875-6.24951171875-.3935546875-9.37548828125-.5736083984375-2.56396484375-7.6136474609375-5.12744140625-15.2196044921875-7.69189453125-22.818115234375-2.9912109375-.154052734375-5.982421875-.298095703125-8.974609375-.4315185546875v22.3984375c-2.880859375-.128662109375-5.759765625-.24755859375-8.640625-.356689453125ZM269.439187049865723,32.952004432678223c3.171875.1414794921875,6.34375.2945556640625,9.51513671875.4595947265625,2.1142578125.1103515625,3.6552734375-.431884765625,4.62158203125-1.63134765625.966796875-1.19970703125,1.44921875-2.91943359375,1.45068359375-5.16552734375-.00341796875-1.9832763671875-.46435546875-3.5758056640625-1.38330078125-4.7769775390625-.9208984375-1.1990966796875-2.3759765625-1.8546142578125-4.3515625-1.9573974609375-3.28369140625-.171630859375-6.56884765625-.33056640625-9.8525390625-.4771728515625v13.548828125Z"/><path class="cls-1" d="M298.717019081115723,65.838723182678223c4.9677734375-17.5738525390625,9.93359375-35.1185302734375,14.8974609375-52.635009765625,3.34619140625.26416015625,6.69287109375.54150390625,10.0380859375.831787109375,4.96240234375,18.3387451171875,9.92138671875,36.7061767578125,14.87890625,55.102294921875-2.9375-.2889404296875-5.8779296875-.5682373046875-8.8173828125-.83740234375-.943359375-3.6103515625-1.8857421875-7.2197265625-2.82861328125-10.8280029296875-5.67919921875-.507080078125-11.36083984375-.9765625-17.044921875-1.40869140625-.92138671875,3.4541015625-1.84228515625,6.9091796875-2.763671875,10.365234375-2.78662109375-.205810546875-5.57275390625-.402587890625-8.35986328125-.5902099609375ZM312.198952674865723,47.316506385803223c4.111328125.3199462890625,8.220703125.6593017578125,12.32861328125,1.018798828125-1.548828125-6.1136474609375-3.09765625-12.2244873046875-4.64697265625-18.33251953125-.22265625-.9581298828125-.451171875-2.0218505859375-.673828125-3.188232421875-.2236328125-1.166748046875-.447265625-2.5693359375-.673828125-4.207275390625-.08984375-.0074462890625-.1796875-.0147705078125-.26953125-.022216796875-.27197265625,1.700439453125-.50244140625,3.119140625-.70703125,4.2493896484375-.203125,1.13134765625-.416015625,2.107666015625-.64013671875,2.9232177734375-1.57275390625,5.849853515625-3.14501953125,11.703125-4.71728515625,17.558837890625Z"/><path class="cls-1" d="M344.654519081115723,69.755105018615723c-.00048828125-17.908203125-.00048828125-35.81640625,0-53.724609375,5.494140625.567138671875,10.9853515625,1.16943359375,16.4736328125,1.8070068359375,3.1806640625.3699951171875,5.8447265625,1.3829345703125,7.9951171875,3.029296875,2.14794921875,1.6468505859375,3.76220703125,3.7554931640625,4.8349609375,6.318359375,1.0751953125,2.5628662109375,1.6103515625,5.4136962890625,1.61181640625,8.5452880859375-.00244140625,3.3426513671875-.60107421875,6.2005615234375-1.8134765625,8.58056640625-1.20849609375,2.3814697265625-2.88427734375,4.1282958984375-5.0361328125,5.248779296875-2.14697265625,1.121826171875-4.68310546875,1.509765625-7.59228515625,1.1702880859375-2.62109375-.304443359375-5.2421875-.600830078125-7.86474609375-.8892822265625v20.83203125c-2.86865234375-.3153076171875-5.73876953125-.6214599609375-8.60888671875-.917724609375ZM353.263405799865723,40.991189002990723c2.33056640625.25634765625,4.66064453125.51904296875,6.9912109375.7882080078125,2.1064453125.2435302734375,3.7080078125-.2716064453125,4.8046875-1.55126953125,1.0966796875-1.2783203125,1.6484375-3.1416015625,1.64599609375-5.5975341796875.00048828125-2.1925048828125-.56201171875-4.0091552734375-1.68017578125-5.4486083984375-1.1171875-1.4376220703125-2.7099609375-2.2801513671875-4.7705078125-2.517822265625-2.330078125-.2691650390625-4.66015625-.5318603515625-6.9912109375-.7882080078125v15.115234375Z"/><path class="cls-1" d="M383.422585487365723,74.348610877990723V20.624001502990723c5.47900390625.733154296875,10.95556640625,1.50146484375,16.4267578125,2.30517578125,3.1728515625.4654541015625,5.8291015625,1.5609130859375,7.970703125,3.271240234375,2.1455078125,1.71240234375,3.748046875,3.86865234375,4.8203125,6.4647216796875,1.07177734375,2.59619140625,1.60400390625,5.4609375,1.6064453125,8.59423828125,0,3.342041015625-.603515625,6.182861328125-1.8076171875,8.5255126953125-1.20458984375,2.3441162109375-2.87646484375,4.0418701171875-5.0205078125,5.0963134765625-2.142578125,1.056396484375-4.6640625,1.36669921875-7.5693359375.9405517578125-2.61279296875-.3837890625-5.22607421875-.759521484375-7.84130859375-1.127197265625.00048828125,6.9439697265625.00048828125,13.8880615234375,0,20.83203125-2.86083984375-.4024658203125-5.72314453125-.7947998046875-8.58544921875-1.177978515625ZM392.008034706115723,45.844948768615723c2.32421875.3270263671875,4.6484375.6600341796875,6.970703125.9996337890625,2.099609375.307373046875,3.6953125-.159423828125,4.79052734375-1.4058837890625,1.0947265625-1.2449951171875,1.6396484375-3.0928955078125,1.640625-5.5477294921875-.00048828125-2.1923828125-.56201171875-4.02587890625-1.6748046875-5.499267578125-1.1162109375-1.47216796875-2.7021484375-2.362060546875-4.75634765625-2.662353515625-2.3232421875-.339599609375-4.6474609375-.672607421875-6.970703125-.9996337890625.00048828125,5.0384521484375.00048828125,10.0767822265625,0,15.115234375Z"/><path class="cls-1" d="M34.182839393615723,137.785378456115723v-53.724609375c4.98486328125-.6903076171875,9.97216796875-1.3514404296875,14.96337890625-1.983154296875,5.7353515625-.7255859375,10.2412109375.922119140625,13.5361328125,4.8978271484375,3.29052734375,3.9794921875,4.94091796875,10.3125,4.9404296875,18.9769287109375.00146484375,9.18994140625-1.64794921875,16.2763671875-4.9404296875,21.2779541015625-3.29736328125,5.00244140625-7.80615234375,7.847412109375-13.5361328125,8.5718994140625-4.99072265625.6318359375-9.97900390625,1.29296875-14.96337890625,1.983154296875ZM42.769753456115723,127.697854042053223c1.85693359375-.244384765625,3.71435546875-.484619140625,5.5712890625-.7210693359375,3.177734375-.4044189453125,5.7080078125-2.1116943359375,7.58837890625-5.1331787109375,1.88134765625-3.0203857421875,2.82275390625-7.3204345703125,2.8212890625-12.9083251953125v-3.916015625c0-5.0628662109375-.939453125-8.7515869140625-2.8212890625-11.0565185546875-1.880859375-2.3035888671875-4.41015625-3.2591552734375-7.58837890625-2.8551025390625-1.85693359375.236572265625-3.71435546875.476806640625-5.5712890625.7210693359375-.00048828125,11.95654296875-.00048828125,23.912841796875,0,35.869140625Z"/><path class="cls-1" d="M75.960183143615723,132.691262245178223v-53.724609375c9.7978515625-1.033447265625,19.60546875-1.95458984375,29.4189453125-2.763671875v8.927734375c-6.939453125.5718994140625-13.875,1.2000732421875-20.806640625,1.8843994140625v12.84375c5.94482421875-.586669921875,11.89208984375-1.13232421875,17.8427734375-1.636474609375-.00048828125,2.9759521484375-.00048828125,5.9517822265625,0,8.927734375-5.95068359375.504150390625-11.89794921875,1.0498046875-17.8427734375,1.636474609375v14.09765625c7.06591796875-.6973876953125,14.13623046875-1.3367919921875,21.21044921875-1.9176025390625v8.927734375c-9.947265625.81689453125-19.890625,1.749267578125-29.82275390625,2.796875Z"/><path class="cls-1" d="M114.813210487365723,129.184670448303223v-53.724609375c2.8759765625-.2158203125,5.7529296875-.42236328125,8.62939453125-.6190185546875v44.326171875c6.517578125-.445556640625,13.0380859375-.841796875,19.560546875-1.1885986328125v9.3984375c-9.40185546875.5-18.79833984375,1.1025390625-28.18994140625,1.8076171875Z"/><path class="cls-1" d="M167.097878456115723,126.320900917053223v-53.724609375c5.01953125-.1728515625,10.0380859375-.31689453125,15.0576171875-.4317626953125,5.76123046875-.1318359375,10.30029296875,1.98388671875,13.6083984375,6.299560546875,3.31298828125,4.3204345703125,4.96337890625,10.8231201171875,4.96484375,19.48828125-.00439453125,9.1904296875-1.65478515625,16.105224609375-4.96484375,20.7666015625-3.31005859375,4.660888671875-7.84521484375,7.039794921875-13.6083984375,7.170166015625-5.01904296875.1148681640625-10.03857421875.2586669921875-15.0576171875.4317626953125ZM175.740456581115723,117.123879432678223c1.86865234375-.052001953125,3.73681640625-.099853515625,5.60498046875-.1436767578125,3.1962890625-.0748291015625,5.740234375-1.5201416015625,7.630859375-4.34716796875,1.892578125-2.8255615234375,2.8369140625-7.0291748046875,2.8369140625-12.6160888671875v-3.916015625c.0009765625-5.0634765625-.9423828125-8.848388671875-2.8369140625-11.3487548828125-1.89208984375-2.4976806640625-4.43115234375-3.7164306640625-7.630859375-3.64111328125-1.8681640625.0439453125-3.736328125.091552734375-5.60498046875.1436767578125v35.869140625Z"/><path class="cls-1" d="M208.428444862365723,125.555397987365723v-53.724609375c2.88134765625-.0074462890625,5.76318359375-.0052490234375,8.64453125.0067138671875v53.724609375c-2.88134765625-.0120849609375-5.76318359375-.0142822265625-8.64453125-.0067138671875Z"/><path class="cls-1" d="M226.528542518615723,125.635598182678223c.00048828125-17.908203125.00048828125-35.81640625,0-53.724609375,2.5439453125.029052734375,5.087890625.065673828125,7.63232421875.1097412109375,4.7724609375,9.9505615234375,9.5439453125,19.9273681640625,14.31591796875,29.9306640625.267578125.4256591796875.5634765625,1.0477294921875.87841796875,1.8651123046875.3134765625.819091796875.71875,1.888671875,1.21484375,3.207763671875.06787109375-.0760498046875.13525390625-.1522216796875.20263671875-.228271484375-.00048828125-1.2540283203125-.00830078125-2.2437744140625-.03369140625-2.9775390625-.02490234375-.7314453125-.03466796875-1.22705078125-.033203125-1.4893798828125v-29.916015625c2.56494140625.0771484375,5.13037109375.162109375,7.69580078125.2547607421875v53.724609375c-2.5654296875-.0926513671875-5.130859375-.1776123046875-7.69580078125-.2547607421875-4.77197265625-10.0113525390625-9.54443359375-19.9964599609375-14.31640625-29.9554443359375-.1796875-.3670654296875-.4384765625-.9605712890625-.77685546875-1.776123046875-.33642578125-.8153076171875-.77783203125-1.9071044921875-1.3173828125-3.274658203125-.08984375.076904296875-.1796875.15380859375-.26953125.2305908203125.04541015625,1.0970458984375.07568359375,1.9989013671875.1005859375,2.7039794921875.02490234375.7056884765625.03662109375,1.2923583984375.03466796875,1.7623291015625v29.9169921875c-2.54443359375-.0440673828125-5.08837890625-.0806884765625-7.63232421875-.1097412109375Z"/><path class="cls-1" d="M268.527565956115723,126.797341346740723v-53.724609375c9.83154296875.4317626953125,19.65966796875.9757080078125,29.482421875,1.6317138671875v8.927734375c-6.94580078125-.4637451171875-13.89404296875-.8714599609375-20.84423828125-1.2235107421875v12.84375c5.9609375.3017578125,11.919921875.64453125,17.876953125,1.0286865234375v8.927734375c-5.95703125-.3841552734375-11.916015625-.7269287109375-17.876953125-1.0286865234375v14.09765625c7.08447265625.3585205078125,14.16845703125.7752685546875,21.248046875,1.25048828125.00048828125,2.975830078125.00048828125,5.951904296875,0,8.927734375-9.95751953125-.66796875-19.91943359375-1.22119140625-29.88623046875-1.65869140625Z"/><path class="cls-1" d="M307.446999549865723,129.094094276428223c-.00048828125-17.908203125-.00048828125-35.81640625,0-53.724609375,6.44970703125.4779052734375,12.89404296875,1.0042724609375,19.3369140625,1.5792236328125,4.6708984375.4168701171875,8.189453125,2.2039794921875,10.5693359375,5.33349609375,2.37841796875,3.1295166015625,3.56689453125,6.9185791015625,3.5673828125,11.3555908203125.0009765625,3.2392578125-.6943359375,5.98681640625-2.08642578125,8.25048828125-1.3916015625,2.2662353515625-3.2763671875,3.8572998046875-5.65380859375,4.7808837890625,2.9619140625,8.47607421875,5.9228515625,16.96240234375,8.88427734375,25.458984375-3.11865234375-.3155517578125-6.23681640625-.6197509765625-9.35546875-.912353515625-2.55810546875-7.7064208984375-5.11767578125-15.4051513671875-7.67626953125-23.095947265625-2.98583984375-.26220703125-5.97216796875-.51416015625-8.958984375-.7557373046875v22.3984375c-2.87451171875-.2325439453125-5.75048828125-.4554443359375-8.626953125-.66845703125ZM316.073952674865723,98.514504432678223c3.1669921875.2559814453125,6.3330078125.5238037109375,9.498046875.8033447265625,2.10986328125.186767578125,3.64501953125-.30029296875,4.61279296875-1.464599609375.96484375-1.1644287109375,1.4462890625-2.8692626953125,1.4482421875-5.1131591796875.00048828125-1.98388671875-.46142578125-3.593017578125-1.380859375-4.826904296875-.921875-1.23193359375-2.37109375-1.940185546875-4.3427734375-2.114501953125-3.27783203125-.2901611328125-6.55615234375-.5677490234375-9.83544921875-.8330078125v13.548828125Z"/><path class="cls-1" d="M366.738991737365723,135.803566932678223c-5.9560546875-.718017578125-10.6416015625-3.513916015625-14.0458984375-8.4296875-3.4072265625-4.9144287109375-5.109375-12.0865478515625-5.1123046875-21.5379638671875-.0009765625-9.5001220703125,1.705078125-16.3343505859375,5.1123046875-20.4786376953125,3.4072265625-4.141357421875,8.0908203125-5.876220703125,14.0458984375-5.158203125,5.95458984375.7197265625,10.63232421875,3.5810546875,14.03369140625,8.5447998046875,3.40087890625,4.9659423828125,5.10205078125,12.2088623046875,5.099609375,21.710205078125.00146484375,9.450927734375-1.70166015625,16.21337890625-5.099609375,20.306396484375-3.39990234375,4.0946044921875-8.07763671875,5.7628173828125-14.03369140625,5.0430908203125ZM366.738991737365723,127.189309120178223c3.447265625.416015625,6.0224609375-.787353515625,7.72412109375-3.626953125,1.69921875-2.837646484375,2.5498046875-6.943359375,2.55126953125-12.321533203125v-3.916015625c.0009765625-5.3770751953125-.8525390625-9.7034912109375-2.55126953125-12.974365234375-1.70166015625-3.2698974609375-4.27587890625-5.1202392578125-7.72412109375-5.5361328125-3.40234375-.4105224609375-5.9697265625.8209228515625-7.69287109375,3.676513671875-1.7265625,2.8568115234375-2.5888671875,6.9766845703125-2.58837890625,12.354736328125v3.916015625c-.0048828125,5.37841796875.8642578125,9.689697265625,2.58837890625,12.941162109375,1.7255859375,3.2520751953125,4.2900390625,5.0760498046875,7.69287109375,5.486572265625Z"/><path class="cls-3" d="M9.228249549865723,78.851174354553223V25.126564979553223c2.85498046875-.452392578125,5.71142578125-.89501953125,8.5693359375-1.327880859375v44.326171875c6.4736328125-.9810791015625,12.953125-1.9124755859375,19.4375-2.7945556640625v9.3984375c-9.34619140625,1.271484375-18.68310546875,2.645751953125-28.0068359375,4.1224365234375Z"/><path class="cls-3" d="M40.790749549865723,74.249978065490723c4.9423828125-18.5667724609375,9.8876953125-37.1046142578125,14.83642578125-55.6138916015625,3.33642578125-.4053955078125,6.67333984375-.7977294921875,10.0126953125-1.1768798828125,4.9521484375,17.345703125,9.90625,34.72021484375,14.8623046875,52.1234130859375-2.9375.299560546875-5.875.60888671875-8.81103515625.9283447265625-.94140625-3.421630859375-1.8828125-6.84228515625-2.82421875-10.2618408203125-5.669921875.6297607421875-11.3369140625,1.2969970703125-17.00048828125,2.001708984375-.91748046875,3.637939453125-1.83544921875,7.277587890625-2.7529296875,10.91796875-2.775390625.3511962890625-5.5498046875.7115478515625-8.32275390625,1.0811767578125ZM54.217019081115723,53.031838417053223c4.09716796875-.5023193359375,8.19580078125-.9849853515625,12.29638671875-1.4478759765625-1.5458984375-5.8037109375-3.091796875-11.6044921875-4.63720703125-17.4024658203125-.2275390625-.9132080078125-.447265625-1.9307861328125-.67236328125-3.053466796875-.22900390625-1.1219482421875-.44970703125-2.4791259765625-.6708984375-4.0726318359375-.08984375.0106201171875-.1796875.0211181640625-.26953125.03173828125-.2685546875,1.7540283203125-.50390625,3.2208251953125-.70556640625,4.3909912109375-.201171875,1.173583984375-.4130859375,2.190673828125-.63818359375,3.05126953125-1.56787109375,6.16455078125-3.13525390625,12.33203125-4.70263671875,18.50244140625Z"/><path class="cls-3" d="M115.926003456115723,67.403298377990723c-2.83154296875.2103271484375-5.45947265625-.2115478515625-7.884765625-1.26953125-2.42578125-1.057373046875-4.3837890625-2.76025390625-5.861328125-5.1151123046875-1.4833984375-2.3531494140625-2.2255859375-5.3565673828125-2.22265625-9.011474609375-.00048828125-.313232421875.01025390625-.62841796875.033203125-.9432373046875.02294921875-.314453125.03369140625-.57666015625.033203125-.7862548828125,2.98681640625-.2587890625,5.97314453125-.5068359375,8.96044921875-.7447509765625,0,.052490234375-.0087890625.2236328125-.033203125.512451171875-.02099609375.2899169921875-.03564453125.5382080078125-.0341796875.745849609375-.00537109375,2.5595703125.65380859375,4.567626953125,1.95458984375,6.0333251953125,1.302734375,1.4649658203125,3.123046875,2.1072998046875,5.45947265625,1.9345703125,2.60400390625-.1925048828125,4.42626953125-.9866943359375,5.4599609375-2.3890380859375,1.03076171875-1.4041748046875,1.55126953125-2.8865966796875,1.55126953125-4.4537353515625.0009765625-1.827392578125-.4091796875-3.261962890625-1.21484375-4.302001953125-.81005859375-1.039794921875-1.87744140625-1.865478515625-3.20166015625-2.47607421875-1.32373046875-.6094970703125-2.78759765625-1.1409912109375-4.3818359375-1.596435546875-1.595703125-.453369140625-3.2021484375-.981201171875-4.818359375-1.585205078125-1.61767578125-.603271484375-3.08935546875-1.4365234375-4.4130859375-2.5030517578125-1.32666015625-1.065185546875-2.39208984375-2.50244140625-3.2001953125-4.31298828125-.80615234375-1.8116455078125-1.21142578125-4.1766357421875-1.2119140625-7.1014404296875.00146484375-3.3922119140625.71826171875-6.2620849609375,2.1552734375-8.6024169921875,1.4375-2.3385009765625,3.333984375-4.1553955078125,5.693359375-5.440673828125,2.3583984375-1.284423828125,4.884765625-2.02734375,7.58203125-2.2271728515625,2.7392578125-.2027587890625,5.248046875.1693115234375,7.5166015625,1.1109619140625,2.26708984375.9423828125,4.09033203125,2.535400390625,5.4619140625,4.769775390625,1.369140625,2.237548828125,2.0546875,5.209228515625,2.05712890625,8.9163818359375v.939453125c-2.94580078125.18310546875-5.89013671875.376220703125-8.833984375.579833984375v-.705078125c.00341796875-2.2972412109375-.55126953125-4.0728759765625-1.6513671875-5.3272705078125-1.10498046875-1.2528076171875-2.64306640625-1.8099365234375-4.6181640625-1.6639404296875-2.068359375.1529541015625-3.6630859375.8123779296875-4.78515625,1.9683837890625-1.123046875,1.1575927734375-1.6826171875,2.5738525390625-1.68505859375,4.2432861328125,0,1.56689453125.404296875,2.786865234375,1.21337890625,3.6644287109375.81103515625.8756103515625,1.87548828125,1.5765380859375,3.201171875,2.1029052734375,1.3271484375.52783203125,2.7958984375,1.004638671875,4.4150390625,1.4366455078125,1.61865234375.4310302734375,3.22314453125.9583740234375,4.8203125,1.580322265625,1.59716796875.62158203125,3.05810546875,1.4775390625,4.38330078125,2.5662841796875,1.3251953125,1.08837890625,2.392578125,2.53662109375,3.203125,4.337890625.8076171875,1.803955078125,1.212890625,4.115478515625,1.2138671875,6.9345703125.00048828125,4.125-.69775390625,7.46923828125-2.09033203125,10.0364990234375-1.3955078125,2.568115234375-3.3173828125,4.507568359375-5.76611328125,5.8204345703125-2.451171875,1.3131103515625-5.2705078125,2.0860595703125-8.46044921875,2.3226318359375Z"/><path class="cls-3" d="M156.803444862365723,65.018898963928223c-4.951171875.210205078125-8.83203125-1.097900390625-11.642578125-3.9559326171875-2.814453125-2.8558349609375-4.21484375-7.2022705078125-4.21630859375-13.05029296875V11.125954627990723c2.87841796875-.1580810546875,5.75830078125-.3055419921875,8.63720703125-.4442138671875v36.5732421875c-.0009765625,3.0814208984375.62890625,5.4000244140625,1.888671875,6.95947265625,1.26025390625,1.560302734375,3.03369140625,2.28759765625,5.3330078125,2.190185546875,2.29541015625-.0977783203125,4.08642578125-.9764404296875,5.3662109375-2.6444091796875,1.2841796875-1.6669921875,1.9208984375-4.040771484375,1.923828125-7.1212158203125V10.065773963928223c2.880859375-.106201171875,5.76171875-.202392578125,8.64208984375-.289306640625v36.88671875c0,5.8486328125-1.4140625,10.31298828125-4.25390625,13.4095458984375-2.83154296875,3.097412109375-6.72705078125,4.736572265625-11.67822265625,4.9461669921875Z"/><path class="cls-3" d="M182.864480018615723,63.235451698303223V9.510842323303223c5.51513671875-.123046875,11.03076171875-.2109375,16.54638671875-.2633056640625,3.1962890625-.031005859375,5.8720703125.64794921875,8.03759765625,2.0235595703125,2.16064453125,1.376953125,3.78564453125,3.2822265625,4.86376953125,5.7098388671875,1.07958984375,2.4281005859375,1.61962890625,5.2093505859375,1.62109375,8.342529296875-.0009765625,3.3416748046875-.6064453125,6.2767333984375-1.82421875,8.8087158203125-1.216796875,2.532958984375-2.9033203125,4.491455078125-5.0654296875,5.8824462890625-2.16064453125,1.391845703125-4.70458984375,2.096923828125-7.6328125,2.12548828125-2.63427734375.0250244140625-5.26806640625.0582275390625-7.90185546875.099365234375-.00048828125,6.9439697265625-.00048828125,13.8880615234375,0,20.83203125-2.88330078125.0450439453125-5.76318359375.0997314453125-8.64453125.1639404296875ZM191.509011268615723,33.389870643615723c2.34130859375-.03662109375,4.68310546875-.06689453125,7.02392578125-.0908203125,2.1181640625-.0213623046875,3.7275390625-.7388916015625,4.82958984375-2.155517578125,1.099609375-1.4161376953125,1.65234375-3.3487548828125,1.65478515625-5.804443359375,0-2.19140625-.56640625-3.93896484375-1.68896484375-5.2371826171875-1.123046875-1.29736328125-2.7265625-1.939208984375-4.79541015625-1.9180908203125-2.3408203125.02392578125-4.6826171875.05419921875-7.02392578125.0908203125-.00048828125,5.0384521484375-.00048828125,10.0767822265625,0,15.115234375Z"/><path class="cls-3" d="M221.834694862365723,62.952858924865723V9.228249549865723c9.83837890625.0765380859375,19.67724609375.2655029296875,29.51220703125.566650390625v8.927734375c-6.95458984375-.212890625-13.90966796875-.36962890625-20.86669921875-.4703369140625v12.84375c5.966796875.0863037109375,11.931640625.2139892578125,17.8955078125.3828125v8.927734375c-5.96435546875-.1688232421875-11.92919921875-.2965087890625-17.8955078125-.3828125v14.09765625c7.09130859375.1026611328125,14.18212890625.2635498046875,21.27099609375.4827880859375v8.927734375c-9.9697265625-.3082275390625-19.943359375-.5013427734375-29.91650390625-.5791015625Z"/><path class="cls-3" d="M260.798562049865723,63.843361854553223V10.118752479553223c6.4580078125.2447509765625,12.9150390625.5382080078125,19.3701171875.8800048828125,4.67626953125.2481689453125,8.20751953125,1.9066162109375,10.5908203125,4.9508056640625,2.38623046875,3.0423583984375,3.57666015625,6.7894287109375,3.57568359375,11.2265625-.00146484375,3.23828125-.69775390625,6.01220703125-2.091796875,8.3260498046875-1.39501953125,2.31591796875-3.28369140625,3.97509765625-5.66552734375,4.9854736328125,2.96923828125,8.3687744140625,5.93603515625,16.7481689453125,8.9033203125,25.13720703125-3.12451171875-.20263671875-6.24951171875-.3935546875-9.37548828125-.5736083984375-2.56396484375-7.6136474609375-5.12744140625-15.2196044921875-7.69189453125-22.818115234375-2.9912109375-.154052734375-5.982421875-.298095703125-8.974609375-.4315185546875v22.3984375c-2.880859375-.128662109375-5.759765625-.24755859375-8.640625-.356689453125ZM269.439187049865723,32.952004432678223c3.171875.1414794921875,6.34375.2945556640625,9.51513671875.4595947265625,2.1142578125.1103515625,3.6552734375-.431884765625,4.62158203125-1.63134765625.966796875-1.19970703125,1.44921875-2.91943359375,1.45068359375-5.16552734375-.00341796875-1.9832763671875-.46435546875-3.5758056640625-1.38330078125-4.7769775390625-.9208984375-1.1990966796875-2.3759765625-1.8546142578125-4.3515625-1.9573974609375-3.28369140625-.171630859375-6.56884765625-.33056640625-9.8525390625-.4771728515625v13.548828125Z"/><path class="cls-3" d="M298.717019081115723,65.838723182678223c4.9677734375-17.5738525390625,9.93359375-35.1185302734375,14.8974609375-52.635009765625,3.34619140625.26416015625,6.69287109375.54150390625,10.0380859375.831787109375,4.96240234375,18.3387451171875,9.92138671875,36.7061767578125,14.87890625,55.102294921875-2.9375-.2889404296875-5.8779296875-.5682373046875-8.8173828125-.83740234375-.943359375-3.6103515625-1.8857421875-7.2197265625-2.82861328125-10.8280029296875-5.67919921875-.507080078125-11.36083984375-.9765625-17.044921875-1.40869140625-.92138671875,3.4541015625-1.84228515625,6.9091796875-2.763671875,10.365234375-2.78662109375-.205810546875-5.57275390625-.402587890625-8.35986328125-.5902099609375ZM312.198952674865723,47.316506385803223c4.111328125.3199462890625,8.220703125.6593017578125,12.32861328125,1.018798828125-1.548828125-6.1136474609375-3.09765625-12.2244873046875-4.64697265625-18.33251953125-.22265625-.9581298828125-.451171875-2.0218505859375-.673828125-3.188232421875-.2236328125-1.166748046875-.447265625-2.5693359375-.673828125-4.207275390625-.08984375-.0074462890625-.1796875-.0147705078125-.26953125-.022216796875-.27197265625,1.700439453125-.50244140625,3.119140625-.70703125,4.2493896484375-.203125,1.13134765625-.416015625,2.107666015625-.64013671875,2.9232177734375-1.57275390625,5.849853515625-3.14501953125,11.703125-4.71728515625,17.558837890625Z"/><path class="cls-3" d="M344.654519081115723,69.755105018615723c-.00048828125-17.908203125-.00048828125-35.81640625,0-53.724609375,5.494140625.567138671875,10.9853515625,1.16943359375,16.4736328125,1.8070068359375,3.1806640625.3699951171875,5.8447265625,1.3829345703125,7.9951171875,3.029296875,2.14794921875,1.6468505859375,3.76220703125,3.7554931640625,4.8349609375,6.318359375,1.0751953125,2.5628662109375,1.6103515625,5.4136962890625,1.61181640625,8.5452880859375-.00244140625,3.3426513671875-.60107421875,6.2005615234375-1.8134765625,8.58056640625-1.20849609375,2.3814697265625-2.88427734375,4.1282958984375-5.0361328125,5.248779296875-2.14697265625,1.121826171875-4.68310546875,1.509765625-7.59228515625,1.1702880859375-2.62109375-.304443359375-5.2421875-.600830078125-7.86474609375-.8892822265625v20.83203125c-2.86865234375-.3153076171875-5.73876953125-.6214599609375-8.60888671875-.917724609375ZM353.263405799865723,40.991189002990723c2.33056640625.25634765625,4.66064453125.51904296875,6.9912109375.7882080078125,2.1064453125.2435302734375,3.7080078125-.2716064453125,4.8046875-1.55126953125,1.0966796875-1.2783203125,1.6484375-3.1416015625,1.64599609375-5.5975341796875.00048828125-2.1925048828125-.56201171875-4.0091552734375-1.68017578125-5.4486083984375-1.1171875-1.4376220703125-2.7099609375-2.2801513671875-4.7705078125-2.517822265625-2.330078125-.2691650390625-4.66015625-.5318603515625-6.9912109375-.7882080078125v15.115234375Z"/><path class="cls-3" d="M383.422585487365723,74.348610877990723V20.624001502990723c5.47900390625.733154296875,10.95556640625,1.50146484375,16.4267578125,2.30517578125,3.1728515625.4654541015625,5.8291015625,1.5609130859375,7.970703125,3.271240234375,2.1455078125,1.71240234375,3.748046875,3.86865234375,4.8203125,6.4647216796875,1.07177734375,2.59619140625,1.60400390625,5.4609375,1.6064453125,8.59423828125,0,3.342041015625-.603515625,6.182861328125-1.8076171875,8.5255126953125-1.20458984375,2.3441162109375-2.87646484375,4.0418701171875-5.0205078125,5.0963134765625-2.142578125,1.056396484375-4.6640625,1.36669921875-7.5693359375.9405517578125-2.61279296875-.3837890625-5.22607421875-.759521484375-7.84130859375-1.127197265625.00048828125,6.9439697265625.00048828125,13.8880615234375,0,20.83203125-2.86083984375-.4024658203125-5.72314453125-.7947998046875-8.58544921875-1.177978515625ZM392.008034706115723,45.844948768615723c2.32421875.3270263671875,4.6484375.6600341796875,6.970703125.9996337890625,2.099609375.307373046875,3.6953125-.159423828125,4.79052734375-1.4058837890625,1.0947265625-1.2449951171875,1.6396484375-3.0928955078125,1.640625-5.5477294921875-.00048828125-2.1923828125-.56201171875-4.02587890625-1.6748046875-5.499267578125-1.1162109375-1.47216796875-2.7021484375-2.362060546875-4.75634765625-2.662353515625-2.3232421875-.339599609375-4.6474609375-.672607421875-6.970703125-.9996337890625.00048828125,5.0384521484375.00048828125,10.0767822265625,0,15.115234375Z"/><path class="cls-3" d="M34.182839393615723,137.785378456115723v-53.724609375c4.98486328125-.6903076171875,9.97216796875-1.3514404296875,14.96337890625-1.983154296875,5.7353515625-.7255859375,10.2412109375.922119140625,13.5361328125,4.8978271484375,3.29052734375,3.9794921875,4.94091796875,10.3125,4.9404296875,18.9769287109375.00146484375,9.18994140625-1.64794921875,16.2763671875-4.9404296875,21.2779541015625-3.29736328125,5.00244140625-7.80615234375,7.847412109375-13.5361328125,8.5718994140625-4.99072265625.6318359375-9.97900390625,1.29296875-14.96337890625,1.983154296875ZM42.769753456115723,127.697854042053223c1.85693359375-.244384765625,3.71435546875-.484619140625,5.5712890625-.7210693359375,3.177734375-.4044189453125,5.7080078125-2.1116943359375,7.58837890625-5.1331787109375,1.88134765625-3.0203857421875,2.82275390625-7.3204345703125,2.8212890625-12.9083251953125v-3.916015625c0-5.0628662109375-.939453125-8.7515869140625-2.8212890625-11.0565185546875-1.880859375-2.3035888671875-4.41015625-3.2591552734375-7.58837890625-2.8551025390625-1.85693359375.236572265625-3.71435546875.476806640625-5.5712890625.7210693359375-.00048828125,11.95654296875-.00048828125,23.912841796875,0,35.869140625Z"/><path class="cls-3" d="M75.960183143615723,132.691262245178223v-53.724609375c9.7978515625-1.033447265625,19.60546875-1.95458984375,29.4189453125-2.763671875v8.927734375c-6.939453125.5718994140625-13.875,1.2000732421875-20.806640625,1.8843994140625v12.84375c5.94482421875-.586669921875,11.89208984375-1.13232421875,17.8427734375-1.636474609375-.00048828125,2.9759521484375-.00048828125,5.9517822265625,0,8.927734375-5.95068359375.504150390625-11.89794921875,1.0498046875-17.8427734375,1.636474609375v14.09765625c7.06591796875-.6973876953125,14.13623046875-1.3367919921875,21.21044921875-1.9176025390625v8.927734375c-9.947265625.81689453125-19.890625,1.749267578125-29.82275390625,2.796875Z"/><path class="cls-3" d="M114.813210487365723,129.184670448303223v-53.724609375c2.8759765625-.2158203125,5.7529296875-.42236328125,8.62939453125-.6190185546875v44.326171875c6.517578125-.445556640625,13.0380859375-.841796875,19.560546875-1.1885986328125v9.3984375c-9.40185546875.5-18.79833984375,1.1025390625-28.18994140625,1.8076171875Z"/><path class="cls-3" d="M167.097878456115723,126.320900917053223v-53.724609375c5.01953125-.1728515625,10.0380859375-.31689453125,15.0576171875-.4317626953125,5.76123046875-.1318359375,10.30029296875,1.98388671875,13.6083984375,6.299560546875,3.31298828125,4.3204345703125,4.96337890625,10.8231201171875,4.96484375,19.48828125-.00439453125,9.1904296875-1.65478515625,16.105224609375-4.96484375,20.7666015625-3.31005859375,4.660888671875-7.84521484375,7.039794921875-13.6083984375,7.170166015625-5.01904296875.1148681640625-10.03857421875.2586669921875-15.0576171875.4317626953125ZM175.740456581115723,117.123879432678223c1.86865234375-.052001953125,3.73681640625-.099853515625,5.60498046875-.1436767578125,3.1962890625-.0748291015625,5.740234375-1.5201416015625,7.630859375-4.34716796875,1.892578125-2.8255615234375,2.8369140625-7.0291748046875,2.8369140625-12.6160888671875v-3.916015625c.0009765625-5.0634765625-.9423828125-8.848388671875-2.8369140625-11.3487548828125-1.89208984375-2.4976806640625-4.43115234375-3.7164306640625-7.630859375-3.64111328125-1.8681640625.0439453125-3.736328125.091552734375-5.60498046875.1436767578125v35.869140625Z"/><path class="cls-3" d="M208.428444862365723,125.555397987365723v-53.724609375c2.88134765625-.0074462890625,5.76318359375-.0052490234375,8.64453125.0067138671875v53.724609375c-2.88134765625-.0120849609375-5.76318359375-.0142822265625-8.64453125-.0067138671875Z"/><path class="cls-3" d="M226.528542518615723,125.635598182678223c.00048828125-17.908203125.00048828125-35.81640625,0-53.724609375,2.5439453125.029052734375,5.087890625.065673828125,7.63232421875.1097412109375,4.7724609375,9.9505615234375,9.5439453125,19.9273681640625,14.31591796875,29.9306640625.267578125.4256591796875.5634765625,1.0477294921875.87841796875,1.8651123046875.3134765625.819091796875.71875,1.888671875,1.21484375,3.207763671875.06787109375-.0760498046875.13525390625-.1522216796875.20263671875-.228271484375-.00048828125-1.2540283203125-.00830078125-2.2437744140625-.03369140625-2.9775390625-.02490234375-.7314453125-.03466796875-1.22705078125-.033203125-1.4893798828125v-29.916015625c2.56494140625.0771484375,5.13037109375.162109375,7.69580078125.2547607421875v53.724609375c-2.5654296875-.0926513671875-5.130859375-.1776123046875-7.69580078125-.2547607421875-4.77197265625-10.0113525390625-9.54443359375-19.9964599609375-14.31640625-29.9554443359375-.1796875-.3670654296875-.4384765625-.9605712890625-.77685546875-1.776123046875-.33642578125-.8153076171875-.77783203125-1.9071044921875-1.3173828125-3.274658203125-.08984375.076904296875-.1796875.15380859375-.26953125.2305908203125.04541015625,1.0970458984375.07568359375,1.9989013671875.1005859375,2.7039794921875.02490234375.7056884765625.03662109375,1.2923583984375.03466796875,1.7623291015625v29.9169921875c-2.54443359375-.0440673828125-5.08837890625-.0806884765625-7.63232421875-.1097412109375Z"/><path class="cls-3" d="M268.527565956115723,126.797341346740723v-53.724609375c9.83154296875.4317626953125,19.65966796875.9757080078125,29.482421875,1.6317138671875v8.927734375c-6.94580078125-.4637451171875-13.89404296875-.8714599609375-20.84423828125-1.2235107421875v12.84375c5.9609375.3017578125,11.919921875.64453125,17.876953125,1.0286865234375v8.927734375c-5.95703125-.3841552734375-11.916015625-.7269287109375-17.876953125-1.0286865234375v14.09765625c7.08447265625.3585205078125,14.16845703125.7752685546875,21.248046875,1.25048828125.00048828125,2.975830078125.00048828125,5.951904296875,0,8.927734375-9.95751953125-.66796875-19.91943359375-1.22119140625-29.88623046875-1.65869140625Z"/><path class="cls-3" d="M307.446999549865723,129.094094276428223c-.00048828125-17.908203125-.00048828125-35.81640625,0-53.724609375,6.44970703125.4779052734375,12.89404296875,1.0042724609375,19.3369140625,1.5792236328125,4.6708984375.4168701171875,8.189453125,2.2039794921875,10.5693359375,5.33349609375,2.37841796875,3.1295166015625,3.56689453125,6.9185791015625,3.5673828125,11.3555908203125.0009765625,3.2392578125-.6943359375,5.98681640625-2.08642578125,8.25048828125-1.3916015625,2.2662353515625-3.2763671875,3.8572998046875-5.65380859375,4.7808837890625,2.9619140625,8.47607421875,5.9228515625,16.96240234375,8.88427734375,25.458984375-3.11865234375-.3155517578125-6.23681640625-.6197509765625-9.35546875-.912353515625-2.55810546875-7.7064208984375-5.11767578125-15.4051513671875-7.67626953125-23.095947265625-2.98583984375-.26220703125-5.97216796875-.51416015625-8.958984375-.7557373046875v22.3984375c-2.87451171875-.2325439453125-5.75048828125-.4554443359375-8.626953125-.66845703125ZM316.073952674865723,98.514504432678223c3.1669921875.2559814453125,6.3330078125.5238037109375,9.498046875.8033447265625,2.10986328125.186767578125,3.64501953125-.30029296875,4.61279296875-1.464599609375.96484375-1.1644287109375,1.4462890625-2.8692626953125,1.4482421875-5.1131591796875.00048828125-1.98388671875-.46142578125-3.593017578125-1.380859375-4.826904296875-.921875-1.23193359375-2.37109375-1.940185546875-4.3427734375-2.114501953125-3.27783203125-.2901611328125-6.55615234375-.5677490234375-9.83544921875-.8330078125v13.548828125Z"/><path class="cls-3" d="M366.738991737365723,135.803566932678223c-5.9560546875-.718017578125-10.6416015625-3.513916015625-14.0458984375-8.4296875-3.4072265625-4.9144287109375-5.109375-12.0865478515625-5.1123046875-21.5379638671875-.0009765625-9.5001220703125,1.705078125-16.3343505859375,5.1123046875-20.4786376953125,3.4072265625-4.141357421875,8.0908203125-5.876220703125,14.0458984375-5.158203125,5.95458984375.7197265625,10.63232421875,3.5810546875,14.03369140625,8.5447998046875,3.40087890625,4.9659423828125,5.10205078125,12.2088623046875,5.099609375,21.710205078125.00146484375,9.450927734375-1.70166015625,16.21337890625-5.099609375,20.306396484375-3.39990234375,4.0946044921875-8.07763671875,5.7628173828125-14.03369140625,5.0430908203125ZM366.738991737365723,127.189309120178223c3.447265625.416015625,6.0224609375-.787353515625,7.72412109375-3.626953125,1.69921875-2.837646484375,2.5498046875-6.943359375,2.55126953125-12.321533203125v-3.916015625c.0009765625-5.3770751953125-.8525390625-9.7034912109375-2.55126953125-12.974365234375-1.70166015625-3.2698974609375-4.27587890625-5.1202392578125-7.72412109375-5.5361328125-3.40234375-.4105224609375-5.9697265625.8209228515625-7.69287109375,3.676513671875-1.7265625,2.8568115234375-2.5888671875,6.9766845703125-2.58837890625,12.354736328125v3.916015625c-.0048828125,5.37841796875.8642578125,9.689697265625,2.58837890625,12.941162109375,1.7255859375,3.2520751953125,4.2900390625,5.0760498046875,7.69287109375,5.486572265625Z"/><path class="cls-2" d="M9.228249549865723,78.851174354553223V25.126564979553223c2.85498046875-.452392578125,5.71142578125-.89501953125,8.5693359375-1.327880859375v44.326171875c6.4736328125-.9810791015625,12.953125-1.9124755859375,19.4375-2.7945556640625v9.3984375c-9.34619140625,1.271484375-18.68310546875,2.645751953125-28.0068359375,4.1224365234375Z"/><path class="cls-2" d="M40.790749549865723,74.249978065490723c4.9423828125-18.5667724609375,9.8876953125-37.1046142578125,14.83642578125-55.6138916015625,3.33642578125-.4053955078125,6.67333984375-.7977294921875,10.0126953125-1.1768798828125,4.9521484375,17.345703125,9.90625,34.72021484375,14.8623046875,52.1234130859375-2.9375.299560546875-5.875.60888671875-8.81103515625.9283447265625-.94140625-3.421630859375-1.8828125-6.84228515625-2.82421875-10.2618408203125-5.669921875.6297607421875-11.3369140625,1.2969970703125-17.00048828125,2.001708984375-.91748046875,3.637939453125-1.83544921875,7.277587890625-2.7529296875,10.91796875-2.775390625.3511962890625-5.5498046875.7115478515625-8.32275390625,1.0811767578125ZM54.217019081115723,53.031838417053223c4.09716796875-.5023193359375,8.19580078125-.9849853515625,12.29638671875-1.4478759765625-1.5458984375-5.8037109375-3.091796875-11.6044921875-4.63720703125-17.4024658203125-.2275390625-.9132080078125-.447265625-1.9307861328125-.67236328125-3.053466796875-.22900390625-1.1219482421875-.44970703125-2.4791259765625-.6708984375-4.0726318359375-.08984375.0106201171875-.1796875.0211181640625-.26953125.03173828125-.2685546875,1.7540283203125-.50390625,3.2208251953125-.70556640625,4.3909912109375-.201171875,1.173583984375-.4130859375,2.190673828125-.63818359375,3.05126953125-1.56787109375,6.16455078125-3.13525390625,12.33203125-4.70263671875,18.50244140625Z"/><path class="cls-2" d="M115.926003456115723,67.403298377990723c-2.83154296875.2103271484375-5.45947265625-.2115478515625-7.884765625-1.26953125-2.42578125-1.057373046875-4.3837890625-2.76025390625-5.861328125-5.1151123046875-1.4833984375-2.3531494140625-2.2255859375-5.3565673828125-2.22265625-9.011474609375-.00048828125-.313232421875.01025390625-.62841796875.033203125-.9432373046875.02294921875-.314453125.03369140625-.57666015625.033203125-.7862548828125,2.98681640625-.2587890625,5.97314453125-.5068359375,8.96044921875-.7447509765625,0,.052490234375-.0087890625.2236328125-.033203125.512451171875-.02099609375.2899169921875-.03564453125.5382080078125-.0341796875.745849609375-.00537109375,2.5595703125.65380859375,4.567626953125,1.95458984375,6.0333251953125,1.302734375,1.4649658203125,3.123046875,2.1072998046875,5.45947265625,1.9345703125,2.60400390625-.1925048828125,4.42626953125-.9866943359375,5.4599609375-2.3890380859375,1.03076171875-1.4041748046875,1.55126953125-2.8865966796875,1.55126953125-4.4537353515625.0009765625-1.827392578125-.4091796875-3.261962890625-1.21484375-4.302001953125-.81005859375-1.039794921875-1.87744140625-1.865478515625-3.20166015625-2.47607421875-1.32373046875-.6094970703125-2.78759765625-1.1409912109375-4.3818359375-1.596435546875-1.595703125-.453369140625-3.2021484375-.981201171875-4.818359375-1.585205078125-1.61767578125-.603271484375-3.08935546875-1.4365234375-4.4130859375-2.5030517578125-1.32666015625-1.065185546875-2.39208984375-2.50244140625-3.2001953125-4.31298828125-.80615234375-1.8116455078125-1.21142578125-4.1766357421875-1.2119140625-7.1014404296875.00146484375-3.3922119140625.71826171875-6.2620849609375,2.1552734375-8.6024169921875,1.4375-2.3385009765625,3.333984375-4.1553955078125,5.693359375-5.440673828125,2.3583984375-1.284423828125,4.884765625-2.02734375,7.58203125-2.2271728515625,2.7392578125-.2027587890625,5.248046875.1693115234375,7.5166015625,1.1109619140625,2.26708984375.9423828125,4.09033203125,2.535400390625,5.4619140625,4.769775390625,1.369140625,2.237548828125,2.0546875,5.209228515625,2.05712890625,8.9163818359375v.939453125c-2.94580078125.18310546875-5.89013671875.376220703125-8.833984375.579833984375v-.705078125c.00341796875-2.2972412109375-.55126953125-4.0728759765625-1.6513671875-5.3272705078125-1.10498046875-1.2528076171875-2.64306640625-1.8099365234375-4.6181640625-1.6639404296875-2.068359375.1529541015625-3.6630859375.8123779296875-4.78515625,1.9683837890625-1.123046875,1.1575927734375-1.6826171875,2.5738525390625-1.68505859375,4.2432861328125,0,1.56689453125.404296875,2.786865234375,1.21337890625,3.6644287109375.81103515625.8756103515625,1.87548828125,1.5765380859375,3.201171875,2.1029052734375,1.3271484375.52783203125,2.7958984375,1.004638671875,4.4150390625,1.4366455078125,1.61865234375.4310302734375,3.22314453125.9583740234375,4.8203125,1.580322265625,1.59716796875.62158203125,3.05810546875,1.4775390625,4.38330078125,2.5662841796875,1.3251953125,1.08837890625,2.392578125,2.53662109375,3.203125,4.337890625.8076171875,1.803955078125,1.212890625,4.115478515625,1.2138671875,6.9345703125.00048828125,4.125-.69775390625,7.46923828125-2.09033203125,10.0364990234375-1.3955078125,2.568115234375-3.3173828125,4.507568359375-5.76611328125,5.8204345703125-2.451171875,1.3131103515625-5.2705078125,2.0860595703125-8.46044921875,2.3226318359375Z"/><path class="cls-2" d="M156.803444862365723,65.018898963928223c-4.951171875.210205078125-8.83203125-1.097900390625-11.642578125-3.9559326171875-2.814453125-2.8558349609375-4.21484375-7.2022705078125-4.21630859375-13.05029296875V11.125954627990723c2.87841796875-.1580810546875,5.75830078125-.3055419921875,8.63720703125-.4442138671875v36.5732421875c-.0009765625,3.0814208984375.62890625,5.4000244140625,1.888671875,6.95947265625,1.26025390625,1.560302734375,3.03369140625,2.28759765625,5.3330078125,2.190185546875,2.29541015625-.0977783203125,4.08642578125-.9764404296875,5.3662109375-2.6444091796875,1.2841796875-1.6669921875,1.9208984375-4.040771484375,1.923828125-7.1212158203125V10.065773963928223c2.880859375-.106201171875,5.76171875-.202392578125,8.64208984375-.289306640625v36.88671875c0,5.8486328125-1.4140625,10.31298828125-4.25390625,13.4095458984375-2.83154296875,3.097412109375-6.72705078125,4.736572265625-11.67822265625,4.9461669921875Z"/><path class="cls-2" d="M182.864480018615723,63.235451698303223V9.510842323303223c5.51513671875-.123046875,11.03076171875-.2109375,16.54638671875-.2633056640625,3.1962890625-.031005859375,5.8720703125.64794921875,8.03759765625,2.0235595703125,2.16064453125,1.376953125,3.78564453125,3.2822265625,4.86376953125,5.7098388671875,1.07958984375,2.4281005859375,1.61962890625,5.2093505859375,1.62109375,8.342529296875-.0009765625,3.3416748046875-.6064453125,6.2767333984375-1.82421875,8.8087158203125-1.216796875,2.532958984375-2.9033203125,4.491455078125-5.0654296875,5.8824462890625-2.16064453125,1.391845703125-4.70458984375,2.096923828125-7.6328125,2.12548828125-2.63427734375.0250244140625-5.26806640625.0582275390625-7.90185546875.099365234375-.00048828125,6.9439697265625-.00048828125,13.8880615234375,0,20.83203125-2.88330078125.0450439453125-5.76318359375.0997314453125-8.64453125.1639404296875ZM191.509011268615723,33.389870643615723c2.34130859375-.03662109375,4.68310546875-.06689453125,7.02392578125-.0908203125,2.1181640625-.0213623046875,3.7275390625-.7388916015625,4.82958984375-2.155517578125,1.099609375-1.4161376953125,1.65234375-3.3487548828125,1.65478515625-5.804443359375,0-2.19140625-.56640625-3.93896484375-1.68896484375-5.2371826171875-1.123046875-1.29736328125-2.7265625-1.939208984375-4.79541015625-1.9180908203125-2.3408203125.02392578125-4.6826171875.05419921875-7.02392578125.0908203125-.00048828125,5.0384521484375-.00048828125,10.0767822265625,0,15.115234375Z"/><path class="cls-2" d="M221.834694862365723,62.952858924865723V9.228249549865723c9.83837890625.0765380859375,19.67724609375.2655029296875,29.51220703125.566650390625v8.927734375c-6.95458984375-.212890625-13.90966796875-.36962890625-20.86669921875-.4703369140625v12.84375c5.966796875.0863037109375,11.931640625.2139892578125,17.8955078125.3828125v8.927734375c-5.96435546875-.1688232421875-11.92919921875-.2965087890625-17.8955078125-.3828125v14.09765625c7.09130859375.1026611328125,14.18212890625.2635498046875,21.27099609375.4827880859375v8.927734375c-9.9697265625-.3082275390625-19.943359375-.5013427734375-29.91650390625-.5791015625Z"/><path class="cls-2" d="M260.798562049865723,63.843361854553223V10.118752479553223c6.4580078125.2447509765625,12.9150390625.5382080078125,19.3701171875.8800048828125,4.67626953125.2481689453125,8.20751953125,1.9066162109375,10.5908203125,4.9508056640625,2.38623046875,3.0423583984375,3.57666015625,6.7894287109375,3.57568359375,11.2265625-.00146484375,3.23828125-.69775390625,6.01220703125-2.091796875,8.3260498046875-1.39501953125,2.31591796875-3.28369140625,3.97509765625-5.66552734375,4.9854736328125,2.96923828125,8.3687744140625,5.93603515625,16.7481689453125,8.9033203125,25.13720703125-3.12451171875-.20263671875-6.24951171875-.3935546875-9.37548828125-.5736083984375-2.56396484375-7.6136474609375-5.12744140625-15.2196044921875-7.69189453125-22.818115234375-2.9912109375-.154052734375-5.982421875-.298095703125-8.974609375-.4315185546875v22.3984375c-2.880859375-.128662109375-5.759765625-.24755859375-8.640625-.356689453125ZM269.439187049865723,32.952004432678223c3.171875.1414794921875,6.34375.2945556640625,9.51513671875.4595947265625,2.1142578125.1103515625,3.6552734375-.431884765625,4.62158203125-1.63134765625.966796875-1.19970703125,1.44921875-2.91943359375,1.45068359375-5.16552734375-.00341796875-1.9832763671875-.46435546875-3.5758056640625-1.38330078125-4.7769775390625-.9208984375-1.1990966796875-2.3759765625-1.8546142578125-4.3515625-1.9573974609375-3.28369140625-.171630859375-6.56884765625-.33056640625-9.8525390625-.4771728515625v13.548828125Z"/><path class="cls-2" d="M298.717019081115723,65.838723182678223c4.9677734375-17.5738525390625,9.93359375-35.1185302734375,14.8974609375-52.635009765625,3.34619140625.26416015625,6.69287109375.54150390625,10.0380859375.831787109375,4.96240234375,18.3387451171875,9.92138671875,36.7061767578125,14.87890625,55.102294921875-2.9375-.2889404296875-5.8779296875-.5682373046875-8.8173828125-.83740234375-.943359375-3.6103515625-1.8857421875-7.2197265625-2.82861328125-10.8280029296875-5.67919921875-.507080078125-11.36083984375-.9765625-17.044921875-1.40869140625-.92138671875,3.4541015625-1.84228515625,6.9091796875-2.763671875,10.365234375-2.78662109375-.205810546875-5.57275390625-.402587890625-8.35986328125-.5902099609375ZM312.198952674865723,47.316506385803223c4.111328125.3199462890625,8.220703125.6593017578125,12.32861328125,1.018798828125-1.548828125-6.1136474609375-3.09765625-12.2244873046875-4.64697265625-18.33251953125-.22265625-.9581298828125-.451171875-2.0218505859375-.673828125-3.188232421875-.2236328125-1.166748046875-.447265625-2.5693359375-.673828125-4.207275390625-.08984375-.0074462890625-.1796875-.0147705078125-.26953125-.022216796875-.27197265625,1.700439453125-.50244140625,3.119140625-.70703125,4.2493896484375-.203125,1.13134765625-.416015625,2.107666015625-.64013671875,2.9232177734375-1.57275390625,5.849853515625-3.14501953125,11.703125-4.71728515625,17.558837890625Z"/><path class="cls-2" d="M344.654519081115723,69.755105018615723c-.00048828125-17.908203125-.00048828125-35.81640625,0-53.724609375,5.494140625.567138671875,10.9853515625,1.16943359375,16.4736328125,1.8070068359375,3.1806640625.3699951171875,5.8447265625,1.3829345703125,7.9951171875,3.029296875,2.14794921875,1.6468505859375,3.76220703125,3.7554931640625,4.8349609375,6.318359375,1.0751953125,2.5628662109375,1.6103515625,5.4136962890625,1.61181640625,8.5452880859375-.00244140625,3.3426513671875-.60107421875,6.2005615234375-1.8134765625,8.58056640625-1.20849609375,2.3814697265625-2.88427734375,4.1282958984375-5.0361328125,5.248779296875-2.14697265625,1.121826171875-4.68310546875,1.509765625-7.59228515625,1.1702880859375-2.62109375-.304443359375-5.2421875-.600830078125-7.86474609375-.8892822265625v20.83203125c-2.86865234375-.3153076171875-5.73876953125-.6214599609375-8.60888671875-.917724609375ZM353.263405799865723,40.991189002990723c2.33056640625.25634765625,4.66064453125.51904296875,6.9912109375.7882080078125,2.1064453125.2435302734375,3.7080078125-.2716064453125,4.8046875-1.55126953125,1.0966796875-1.2783203125,1.6484375-3.1416015625,1.64599609375-5.5975341796875.00048828125-2.1925048828125-.56201171875-4.0091552734375-1.68017578125-5.4486083984375-1.1171875-1.4376220703125-2.7099609375-2.2801513671875-4.7705078125-2.517822265625-2.330078125-.2691650390625-4.66015625-.5318603515625-6.9912109375-.7882080078125v15.115234375Z"/><path class="cls-2" d="M383.422585487365723,74.348610877990723V20.624001502990723c5.47900390625.733154296875,10.95556640625,1.50146484375,16.4267578125,2.30517578125,3.1728515625.4654541015625,5.8291015625,1.5609130859375,7.970703125,3.271240234375,2.1455078125,1.71240234375,3.748046875,3.86865234375,4.8203125,6.4647216796875,1.07177734375,2.59619140625,1.60400390625,5.4609375,1.6064453125,8.59423828125,0,3.342041015625-.603515625,6.182861328125-1.8076171875,8.5255126953125-1.20458984375,2.3441162109375-2.87646484375,4.0418701171875-5.0205078125,5.0963134765625-2.142578125,1.056396484375-4.6640625,1.36669921875-7.5693359375.9405517578125-2.61279296875-.3837890625-5.22607421875-.759521484375-7.84130859375-1.127197265625.00048828125,6.9439697265625.00048828125,13.8880615234375,0,20.83203125-2.86083984375-.4024658203125-5.72314453125-.7947998046875-8.58544921875-1.177978515625ZM392.008034706115723,45.844948768615723c2.32421875.3270263671875,4.6484375.6600341796875,6.970703125.9996337890625,2.099609375.307373046875,3.6953125-.159423828125,4.79052734375-1.4058837890625,1.0947265625-1.2449951171875,1.6396484375-3.0928955078125,1.640625-5.5477294921875-.00048828125-2.1923828125-.56201171875-4.02587890625-1.6748046875-5.499267578125-1.1162109375-1.47216796875-2.7021484375-2.362060546875-4.75634765625-2.662353515625-2.3232421875-.339599609375-4.6474609375-.672607421875-6.970703125-.9996337890625.00048828125,5.0384521484375.00048828125,10.0767822265625,0,15.115234375Z"/><path class="cls-2" d="M34.182839393615723,137.785378456115723v-53.724609375c4.98486328125-.6903076171875,9.97216796875-1.3514404296875,14.96337890625-1.983154296875,5.7353515625-.7255859375,10.2412109375.922119140625,13.5361328125,4.8978271484375,3.29052734375,3.9794921875,4.94091796875,10.3125,4.9404296875,18.9769287109375.00146484375,9.18994140625-1.64794921875,16.2763671875-4.9404296875,21.2779541015625-3.29736328125,5.00244140625-7.80615234375,7.847412109375-13.5361328125,8.5718994140625-4.99072265625.6318359375-9.97900390625,1.29296875-14.96337890625,1.983154296875ZM42.769753456115723,127.697854042053223c1.85693359375-.244384765625,3.71435546875-.484619140625,5.5712890625-.7210693359375,3.177734375-.4044189453125,5.7080078125-2.1116943359375,7.58837890625-5.1331787109375,1.88134765625-3.0203857421875,2.82275390625-7.3204345703125,2.8212890625-12.9083251953125v-3.916015625c0-5.0628662109375-.939453125-8.7515869140625-2.8212890625-11.0565185546875-1.880859375-2.3035888671875-4.41015625-3.2591552734375-7.58837890625-2.8551025390625-1.85693359375.236572265625-3.71435546875.476806640625-5.5712890625.7210693359375-.00048828125,11.95654296875-.00048828125,23.912841796875,0,35.869140625Z"/><path class="cls-2" d="M75.960183143615723,132.691262245178223v-53.724609375c9.7978515625-1.033447265625,19.60546875-1.95458984375,29.4189453125-2.763671875v8.927734375c-6.939453125.5718994140625-13.875,1.2000732421875-20.806640625,1.8843994140625v12.84375c5.94482421875-.586669921875,11.89208984375-1.13232421875,17.8427734375-1.636474609375-.00048828125,2.9759521484375-.00048828125,5.9517822265625,0,8.927734375-5.95068359375.504150390625-11.89794921875,1.0498046875-17.8427734375,1.636474609375v14.09765625c7.06591796875-.6973876953125,14.13623046875-1.3367919921875,21.21044921875-1.9176025390625v8.927734375c-9.947265625.81689453125-19.890625,1.749267578125-29.82275390625,2.796875Z"/><path class="cls-2" d="M114.813210487365723,129.184670448303223v-53.724609375c2.8759765625-.2158203125,5.7529296875-.42236328125,8.62939453125-.6190185546875v44.326171875c6.517578125-.445556640625,13.0380859375-.841796875,19.560546875-1.1885986328125v9.3984375c-9.40185546875.5-18.79833984375,1.1025390625-28.18994140625,1.8076171875Z"/><path class="cls-2" d="M167.097878456115723,126.320900917053223v-53.724609375c5.01953125-.1728515625,10.0380859375-.31689453125,15.0576171875-.4317626953125,5.76123046875-.1318359375,10.30029296875,1.98388671875,13.6083984375,6.299560546875,3.31298828125,4.3204345703125,4.96337890625,10.8231201171875,4.96484375,19.48828125-.00439453125,9.1904296875-1.65478515625,16.105224609375-4.96484375,20.7666015625-3.31005859375,4.660888671875-7.84521484375,7.039794921875-13.6083984375,7.170166015625-5.01904296875.1148681640625-10.03857421875.2586669921875-15.0576171875.4317626953125ZM175.740456581115723,117.123879432678223c1.86865234375-.052001953125,3.73681640625-.099853515625,5.60498046875-.1436767578125,3.1962890625-.0748291015625,5.740234375-1.5201416015625,7.630859375-4.34716796875,1.892578125-2.8255615234375,2.8369140625-7.0291748046875,2.8369140625-12.6160888671875v-3.916015625c.0009765625-5.0634765625-.9423828125-8.848388671875-2.8369140625-11.3487548828125-1.89208984375-2.4976806640625-4.43115234375-3.7164306640625-7.630859375-3.64111328125-1.8681640625.0439453125-3.736328125.091552734375-5.60498046875.1436767578125v35.869140625Z"/><path class="cls-2" d="M208.428444862365723,125.555397987365723v-53.724609375c2.88134765625-.0074462890625,5.76318359375-.0052490234375,8.64453125.0067138671875v53.724609375c-2.88134765625-.0120849609375-5.76318359375-.0142822265625-8.64453125-.0067138671875Z"/><path class="cls-2" d="M226.528542518615723,125.635598182678223c.00048828125-17.908203125.00048828125-35.81640625,0-53.724609375,2.5439453125.029052734375,5.087890625.065673828125,7.63232421875.1097412109375,4.7724609375,9.9505615234375,9.5439453125,19.9273681640625,14.31591796875,29.9306640625.267578125.4256591796875.5634765625,1.0477294921875.87841796875,1.8651123046875.3134765625.819091796875.71875,1.888671875,1.21484375,3.207763671875.06787109375-.0760498046875.13525390625-.1522216796875.20263671875-.228271484375-.00048828125-1.2540283203125-.00830078125-2.2437744140625-.03369140625-2.9775390625-.02490234375-.7314453125-.03466796875-1.22705078125-.033203125-1.4893798828125v-29.916015625c2.56494140625.0771484375,5.13037109375.162109375,7.69580078125.2547607421875v53.724609375c-2.5654296875-.0926513671875-5.130859375-.1776123046875-7.69580078125-.2547607421875-4.77197265625-10.0113525390625-9.54443359375-19.9964599609375-14.31640625-29.9554443359375-.1796875-.3670654296875-.4384765625-.9605712890625-.77685546875-1.776123046875-.33642578125-.8153076171875-.77783203125-1.9071044921875-1.3173828125-3.274658203125-.08984375.076904296875-.1796875.15380859375-.26953125.2305908203125.04541015625,1.0970458984375.07568359375,1.9989013671875.1005859375,2.7039794921875.02490234375.7056884765625.03662109375,1.2923583984375.03466796875,1.7623291015625v29.9169921875c-2.54443359375-.0440673828125-5.08837890625-.0806884765625-7.63232421875-.1097412109375Z"/><path class="cls-2" d="M268.527565956115723,126.797341346740723v-53.724609375c9.83154296875.4317626953125,19.65966796875.9757080078125,29.482421875,1.6317138671875v8.927734375c-6.94580078125-.4637451171875-13.89404296875-.8714599609375-20.84423828125-1.2235107421875v12.84375c5.9609375.3017578125,11.919921875.64453125,17.876953125,1.0286865234375v8.927734375c-5.95703125-.3841552734375-11.916015625-.7269287109375-17.876953125-1.0286865234375v14.09765625c7.08447265625.3585205078125,14.16845703125.7752685546875,21.248046875,1.25048828125.00048828125,2.975830078125.00048828125,5.951904296875,0,8.927734375-9.95751953125-.66796875-19.91943359375-1.22119140625-29.88623046875-1.65869140625Z"/><path class="cls-2" d="M307.446999549865723,129.094094276428223c-.00048828125-17.908203125-.00048828125-35.81640625,0-53.724609375,6.44970703125.4779052734375,12.89404296875,1.0042724609375,19.3369140625,1.5792236328125,4.6708984375.4168701171875,8.189453125,2.2039794921875,10.5693359375,5.33349609375,2.37841796875,3.1295166015625,3.56689453125,6.9185791015625,3.5673828125,11.3555908203125.0009765625,3.2392578125-.6943359375,5.98681640625-2.08642578125,8.25048828125-1.3916015625,2.2662353515625-3.2763671875,3.8572998046875-5.65380859375,4.7808837890625,2.9619140625,8.47607421875,5.9228515625,16.96240234375,8.88427734375,25.458984375-3.11865234375-.3155517578125-6.23681640625-.6197509765625-9.35546875-.912353515625-2.55810546875-7.7064208984375-5.11767578125-15.4051513671875-7.67626953125-23.095947265625-2.98583984375-.26220703125-5.97216796875-.51416015625-8.958984375-.7557373046875v22.3984375c-2.87451171875-.2325439453125-5.75048828125-.4554443359375-8.626953125-.66845703125ZM316.073952674865723,98.514504432678223c3.1669921875.2559814453125,6.3330078125.5238037109375,9.498046875.8033447265625,2.10986328125.186767578125,3.64501953125-.30029296875,4.61279296875-1.464599609375.96484375-1.1644287109375,1.4462890625-2.8692626953125,1.4482421875-5.1131591796875.00048828125-1.98388671875-.46142578125-3.593017578125-1.380859375-4.826904296875-.921875-1.23193359375-2.37109375-1.940185546875-4.3427734375-2.114501953125-3.27783203125-.2901611328125-6.55615234375-.5677490234375-9.83544921875-.8330078125v13.548828125Z"/><path class="cls-2" d="M366.738991737365723,135.803566932678223c-5.9560546875-.718017578125-10.6416015625-3.513916015625-14.0458984375-8.4296875-3.4072265625-4.9144287109375-5.109375-12.0865478515625-5.1123046875-21.5379638671875-.0009765625-9.5001220703125,1.705078125-16.3343505859375,5.1123046875-20.4786376953125,3.4072265625-4.141357421875,8.0908203125-5.876220703125,14.0458984375-5.158203125,5.95458984375.7197265625,10.63232421875,3.5810546875,14.03369140625,8.5447998046875,3.40087890625,4.9659423828125,5.10205078125,12.2088623046875,5.099609375,21.710205078125.00146484375,9.450927734375-1.70166015625,16.21337890625-5.099609375,20.306396484375-3.39990234375,4.0946044921875-8.07763671875,5.7628173828125-14.03369140625,5.0430908203125ZM366.738991737365723,127.189309120178223c3.447265625.416015625,6.0224609375-.787353515625,7.72412109375-3.626953125,1.69921875-2.837646484375,2.5498046875-6.943359375,2.55126953125-12.321533203125v-3.916015625c.0009765625-5.3770751953125-.8525390625-9.7034912109375-2.55126953125-12.974365234375-1.70166015625-3.2698974609375-4.27587890625-5.1202392578125-7.72412109375-5.5361328125-3.40234375-.4105224609375-5.9697265625.8209228515625-7.69287109375,3.676513671875-1.7265625,2.8568115234375-2.5888671875,6.9766845703125-2.58837890625,12.354736328125v3.916015625c-.0048828125,5.37841796875.8642578125,9.689697265625,2.58837890625,12.941162109375,1.7255859375,3.2520751953125,4.2900390625,5.0760498046875,7.69287109375,5.486572265625Z"/><path class="cls-4" d="M9.228249549865723,78.851174354553223V25.126564979553223c2.85498046875-.452392578125,5.71142578125-.89501953125,8.5693359375-1.327880859375v44.326171875c6.4736328125-.9810791015625,12.953125-1.9124755859375,19.4375-2.7945556640625v9.3984375c-9.34619140625,1.271484375-18.68310546875,2.645751953125-28.0068359375,4.1224365234375Z"/><path class="cls-4" d="M40.790749549865723,74.249978065490723c4.9423828125-18.5667724609375,9.8876953125-37.1046142578125,14.83642578125-55.6138916015625,3.33642578125-.4053955078125,6.67333984375-.7977294921875,10.0126953125-1.1768798828125,4.9521484375,17.345703125,9.90625,34.72021484375,14.8623046875,52.1234130859375-2.9375.299560546875-5.875.60888671875-8.81103515625.9283447265625-.94140625-3.421630859375-1.8828125-6.84228515625-2.82421875-10.2618408203125-5.669921875.6297607421875-11.3369140625,1.2969970703125-17.00048828125,2.001708984375-.91748046875,3.637939453125-1.83544921875,7.277587890625-2.7529296875,10.91796875-2.775390625.3511962890625-5.5498046875.7115478515625-8.32275390625,1.0811767578125ZM54.217019081115723,53.031838417053223c4.09716796875-.5023193359375,8.19580078125-.9849853515625,12.29638671875-1.4478759765625-1.5458984375-5.8037109375-3.091796875-11.6044921875-4.63720703125-17.4024658203125-.2275390625-.9132080078125-.447265625-1.9307861328125-.67236328125-3.053466796875-.22900390625-1.1219482421875-.44970703125-2.4791259765625-.6708984375-4.0726318359375-.08984375.0106201171875-.1796875.0211181640625-.26953125.03173828125-.2685546875,1.7540283203125-.50390625,3.2208251953125-.70556640625,4.3909912109375-.201171875,1.173583984375-.4130859375,2.190673828125-.63818359375,3.05126953125-1.56787109375,6.16455078125-3.13525390625,12.33203125-4.70263671875,18.50244140625Z"/><path class="cls-4" d="M115.926003456115723,67.403298377990723c-2.83154296875.2103271484375-5.45947265625-.2115478515625-7.884765625-1.26953125-2.42578125-1.057373046875-4.3837890625-2.76025390625-5.861328125-5.1151123046875-1.4833984375-2.3531494140625-2.2255859375-5.3565673828125-2.22265625-9.011474609375-.00048828125-.313232421875.01025390625-.62841796875.033203125-.9432373046875.02294921875-.314453125.03369140625-.57666015625.033203125-.7862548828125,2.98681640625-.2587890625,5.97314453125-.5068359375,8.96044921875-.7447509765625,0,.052490234375-.0087890625.2236328125-.033203125.512451171875-.02099609375.2899169921875-.03564453125.5382080078125-.0341796875.745849609375-.00537109375,2.5595703125.65380859375,4.567626953125,1.95458984375,6.0333251953125,1.302734375,1.4649658203125,3.123046875,2.1072998046875,5.45947265625,1.9345703125,2.60400390625-.1925048828125,4.42626953125-.9866943359375,5.4599609375-2.3890380859375,1.03076171875-1.4041748046875,1.55126953125-2.8865966796875,1.55126953125-4.4537353515625.0009765625-1.827392578125-.4091796875-3.261962890625-1.21484375-4.302001953125-.81005859375-1.039794921875-1.87744140625-1.865478515625-3.20166015625-2.47607421875-1.32373046875-.6094970703125-2.78759765625-1.1409912109375-4.3818359375-1.596435546875-1.595703125-.453369140625-3.2021484375-.981201171875-4.818359375-1.585205078125-1.61767578125-.603271484375-3.08935546875-1.4365234375-4.4130859375-2.5030517578125-1.32666015625-1.065185546875-2.39208984375-2.50244140625-3.2001953125-4.31298828125-.80615234375-1.8116455078125-1.21142578125-4.1766357421875-1.2119140625-7.1014404296875.00146484375-3.3922119140625.71826171875-6.2620849609375,2.1552734375-8.6024169921875,1.4375-2.3385009765625,3.333984375-4.1553955078125,5.693359375-5.440673828125,2.3583984375-1.284423828125,4.884765625-2.02734375,7.58203125-2.2271728515625,2.7392578125-.2027587890625,5.248046875.1693115234375,7.5166015625,1.1109619140625,2.26708984375.9423828125,4.09033203125,2.535400390625,5.4619140625,4.769775390625,1.369140625,2.237548828125,2.0546875,5.209228515625,2.05712890625,8.9163818359375v.939453125c-2.94580078125.18310546875-5.89013671875.376220703125-8.833984375.579833984375v-.705078125c.00341796875-2.2972412109375-.55126953125-4.0728759765625-1.6513671875-5.3272705078125-1.10498046875-1.2528076171875-2.64306640625-1.8099365234375-4.6181640625-1.6639404296875-2.068359375.1529541015625-3.6630859375.8123779296875-4.78515625,1.9683837890625-1.123046875,1.1575927734375-1.6826171875,2.5738525390625-1.68505859375,4.2432861328125,0,1.56689453125.404296875,2.786865234375,1.21337890625,3.6644287109375.81103515625.8756103515625,1.87548828125,1.5765380859375,3.201171875,2.1029052734375,1.3271484375.52783203125,2.7958984375,1.004638671875,4.4150390625,1.4366455078125,1.61865234375.4310302734375,3.22314453125.9583740234375,4.8203125,1.580322265625,1.59716796875.62158203125,3.05810546875,1.4775390625,4.38330078125,2.5662841796875,1.3251953125,1.08837890625,2.392578125,2.53662109375,3.203125,4.337890625.8076171875,1.803955078125,1.212890625,4.115478515625,1.2138671875,6.9345703125.00048828125,4.125-.69775390625,7.46923828125-2.09033203125,10.0364990234375-1.3955078125,2.568115234375-3.3173828125,4.507568359375-5.76611328125,5.8204345703125-2.451171875,1.3131103515625-5.2705078125,2.0860595703125-8.46044921875,2.3226318359375Z"/><path class="cls-4" d="M156.803444862365723,65.018898963928223c-4.951171875.210205078125-8.83203125-1.097900390625-11.642578125-3.9559326171875-2.814453125-2.8558349609375-4.21484375-7.2022705078125-4.21630859375-13.05029296875V11.125954627990723c2.87841796875-.1580810546875,5.75830078125-.3055419921875,8.63720703125-.4442138671875v36.5732421875c-.0009765625,3.0814208984375.62890625,5.4000244140625,1.888671875,6.95947265625,1.26025390625,1.560302734375,3.03369140625,2.28759765625,5.3330078125,2.190185546875,2.29541015625-.0977783203125,4.08642578125-.9764404296875,5.3662109375-2.6444091796875,1.2841796875-1.6669921875,1.9208984375-4.040771484375,1.923828125-7.1212158203125V10.065773963928223c2.880859375-.106201171875,5.76171875-.202392578125,8.64208984375-.289306640625v36.88671875c0,5.8486328125-1.4140625,10.31298828125-4.25390625,13.4095458984375-2.83154296875,3.097412109375-6.72705078125,4.736572265625-11.67822265625,4.9461669921875Z"/><path class="cls-4" d="M182.864480018615723,63.235451698303223V9.510842323303223c5.51513671875-.123046875,11.03076171875-.2109375,16.54638671875-.2633056640625,3.1962890625-.031005859375,5.8720703125.64794921875,8.03759765625,2.0235595703125,2.16064453125,1.376953125,3.78564453125,3.2822265625,4.86376953125,5.7098388671875,1.07958984375,2.4281005859375,1.61962890625,5.2093505859375,1.62109375,8.342529296875-.0009765625,3.3416748046875-.6064453125,6.2767333984375-1.82421875,8.8087158203125-1.216796875,2.532958984375-2.9033203125,4.491455078125-5.0654296875,5.8824462890625-2.16064453125,1.391845703125-4.70458984375,2.096923828125-7.6328125,2.12548828125-2.63427734375.0250244140625-5.26806640625.0582275390625-7.90185546875.099365234375-.00048828125,6.9439697265625-.00048828125,13.8880615234375,0,20.83203125-2.88330078125.0450439453125-5.76318359375.0997314453125-8.64453125.1639404296875ZM191.509011268615723,33.389870643615723c2.34130859375-.03662109375,4.68310546875-.06689453125,7.02392578125-.0908203125,2.1181640625-.0213623046875,3.7275390625-.7388916015625,4.82958984375-2.155517578125,1.099609375-1.4161376953125,1.65234375-3.3487548828125,1.65478515625-5.804443359375,0-2.19140625-.56640625-3.93896484375-1.68896484375-5.2371826171875-1.123046875-1.29736328125-2.7265625-1.939208984375-4.79541015625-1.9180908203125-2.3408203125.02392578125-4.6826171875.05419921875-7.02392578125.0908203125-.00048828125,5.0384521484375-.00048828125,10.0767822265625,0,15.115234375Z"/><path class="cls-4" d="M221.834694862365723,62.952858924865723V9.228249549865723c9.83837890625.0765380859375,19.67724609375.2655029296875,29.51220703125.566650390625v8.927734375c-6.95458984375-.212890625-13.90966796875-.36962890625-20.86669921875-.4703369140625v12.84375c5.966796875.0863037109375,11.931640625.2139892578125,17.8955078125.3828125v8.927734375c-5.96435546875-.1688232421875-11.92919921875-.2965087890625-17.8955078125-.3828125v14.09765625c7.09130859375.1026611328125,14.18212890625.2635498046875,21.27099609375.4827880859375v8.927734375c-9.9697265625-.3082275390625-19.943359375-.5013427734375-29.91650390625-.5791015625Z"/><path class="cls-4" d="M260.798562049865723,63.843361854553223V10.118752479553223c6.4580078125.2447509765625,12.9150390625.5382080078125,19.3701171875.8800048828125,4.67626953125.2481689453125,8.20751953125,1.9066162109375,10.5908203125,4.9508056640625,2.38623046875,3.0423583984375,3.57666015625,6.7894287109375,3.57568359375,11.2265625-.00146484375,3.23828125-.69775390625,6.01220703125-2.091796875,8.3260498046875-1.39501953125,2.31591796875-3.28369140625,3.97509765625-5.66552734375,4.9854736328125,2.96923828125,8.3687744140625,5.93603515625,16.7481689453125,8.9033203125,25.13720703125-3.12451171875-.20263671875-6.24951171875-.3935546875-9.37548828125-.5736083984375-2.56396484375-7.6136474609375-5.12744140625-15.2196044921875-7.69189453125-22.818115234375-2.9912109375-.154052734375-5.982421875-.298095703125-8.974609375-.4315185546875v22.3984375c-2.880859375-.128662109375-5.759765625-.24755859375-8.640625-.356689453125ZM269.439187049865723,32.952004432678223c3.171875.1414794921875,6.34375.2945556640625,9.51513671875.4595947265625,2.1142578125.1103515625,3.6552734375-.431884765625,4.62158203125-1.63134765625.966796875-1.19970703125,1.44921875-2.91943359375,1.45068359375-5.16552734375-.00341796875-1.9832763671875-.46435546875-3.5758056640625-1.38330078125-4.7769775390625-.9208984375-1.1990966796875-2.3759765625-1.8546142578125-4.3515625-1.9573974609375-3.28369140625-.171630859375-6.56884765625-.33056640625-9.8525390625-.4771728515625v13.548828125Z"/><path class="cls-4" d="M298.717019081115723,65.838723182678223c4.9677734375-17.5738525390625,9.93359375-35.1185302734375,14.8974609375-52.635009765625,3.34619140625.26416015625,6.69287109375.54150390625,10.0380859375.831787109375,4.96240234375,18.3387451171875,9.92138671875,36.7061767578125,14.87890625,55.102294921875-2.9375-.2889404296875-5.8779296875-.5682373046875-8.8173828125-.83740234375-.943359375-3.6103515625-1.8857421875-7.2197265625-2.82861328125-10.8280029296875-5.67919921875-.507080078125-11.36083984375-.9765625-17.044921875-1.40869140625-.92138671875,3.4541015625-1.84228515625,6.9091796875-2.763671875,10.365234375-2.78662109375-.205810546875-5.57275390625-.402587890625-8.35986328125-.5902099609375ZM312.198952674865723,47.316506385803223c4.111328125.3199462890625,8.220703125.6593017578125,12.32861328125,1.018798828125-1.548828125-6.1136474609375-3.09765625-12.2244873046875-4.64697265625-18.33251953125-.22265625-.9581298828125-.451171875-2.0218505859375-.673828125-3.188232421875-.2236328125-1.166748046875-.447265625-2.5693359375-.673828125-4.207275390625-.08984375-.0074462890625-.1796875-.0147705078125-.26953125-.022216796875-.27197265625,1.700439453125-.50244140625,3.119140625-.70703125,4.2493896484375-.203125,1.13134765625-.416015625,2.107666015625-.64013671875,2.9232177734375-1.57275390625,5.849853515625-3.14501953125,11.703125-4.71728515625,17.558837890625Z"/><path class="cls-4" d="M344.654519081115723,69.755105018615723c-.00048828125-17.908203125-.00048828125-35.81640625,0-53.724609375,5.494140625.567138671875,10.9853515625,1.16943359375,16.4736328125,1.8070068359375,3.1806640625.3699951171875,5.8447265625,1.3829345703125,7.9951171875,3.029296875,2.14794921875,1.6468505859375,3.76220703125,3.7554931640625,4.8349609375,6.318359375,1.0751953125,2.5628662109375,1.6103515625,5.4136962890625,1.61181640625,8.5452880859375-.00244140625,3.3426513671875-.60107421875,6.2005615234375-1.8134765625,8.58056640625-1.20849609375,2.3814697265625-2.88427734375,4.1282958984375-5.0361328125,5.248779296875-2.14697265625,1.121826171875-4.68310546875,1.509765625-7.59228515625,1.1702880859375-2.62109375-.304443359375-5.2421875-.600830078125-7.86474609375-.8892822265625v20.83203125c-2.86865234375-.3153076171875-5.73876953125-.6214599609375-8.60888671875-.917724609375ZM353.263405799865723,40.991189002990723c2.33056640625.25634765625,4.66064453125.51904296875,6.9912109375.7882080078125,2.1064453125.2435302734375,3.7080078125-.2716064453125,4.8046875-1.55126953125,1.0966796875-1.2783203125,1.6484375-3.1416015625,1.64599609375-5.5975341796875.00048828125-2.1925048828125-.56201171875-4.0091552734375-1.68017578125-5.4486083984375-1.1171875-1.4376220703125-2.7099609375-2.2801513671875-4.7705078125-2.517822265625-2.330078125-.2691650390625-4.66015625-.5318603515625-6.9912109375-.7882080078125v15.115234375Z"/><path class="cls-4" d="M383.422585487365723,74.348610877990723V20.624001502990723c5.47900390625.733154296875,10.95556640625,1.50146484375,16.4267578125,2.30517578125,3.1728515625.4654541015625,5.8291015625,1.5609130859375,7.970703125,3.271240234375,2.1455078125,1.71240234375,3.748046875,3.86865234375,4.8203125,6.4647216796875,1.07177734375,2.59619140625,1.60400390625,5.4609375,1.6064453125,8.59423828125,0,3.342041015625-.603515625,6.182861328125-1.8076171875,8.5255126953125-1.20458984375,2.3441162109375-2.87646484375,4.0418701171875-5.0205078125,5.0963134765625-2.142578125,1.056396484375-4.6640625,1.36669921875-7.5693359375.9405517578125-2.61279296875-.3837890625-5.22607421875-.759521484375-7.84130859375-1.127197265625.00048828125,6.9439697265625.00048828125,13.8880615234375,0,20.83203125-2.86083984375-.4024658203125-5.72314453125-.7947998046875-8.58544921875-1.177978515625ZM392.008034706115723,45.844948768615723c2.32421875.3270263671875,4.6484375.6600341796875,6.970703125.9996337890625,2.099609375.307373046875,3.6953125-.159423828125,4.79052734375-1.4058837890625,1.0947265625-1.2449951171875,1.6396484375-3.0928955078125,1.640625-5.5477294921875-.00048828125-2.1923828125-.56201171875-4.02587890625-1.6748046875-5.499267578125-1.1162109375-1.47216796875-2.7021484375-2.362060546875-4.75634765625-2.662353515625-2.3232421875-.339599609375-4.6474609375-.672607421875-6.970703125-.9996337890625.00048828125,5.0384521484375.00048828125,10.0767822265625,0,15.115234375Z"/><path class="cls-4" d="M34.182839393615723,137.785378456115723v-53.724609375c4.98486328125-.6903076171875,9.97216796875-1.3514404296875,14.96337890625-1.983154296875,5.7353515625-.7255859375,10.2412109375.922119140625,13.5361328125,4.8978271484375,3.29052734375,3.9794921875,4.94091796875,10.3125,4.9404296875,18.9769287109375.00146484375,9.18994140625-1.64794921875,16.2763671875-4.9404296875,21.2779541015625-3.29736328125,5.00244140625-7.80615234375,7.847412109375-13.5361328125,8.5718994140625-4.99072265625.6318359375-9.97900390625,1.29296875-14.96337890625,1.983154296875ZM42.769753456115723,127.697854042053223c1.85693359375-.244384765625,3.71435546875-.484619140625,5.5712890625-.7210693359375,3.177734375-.4044189453125,5.7080078125-2.1116943359375,7.58837890625-5.1331787109375,1.88134765625-3.0203857421875,2.82275390625-7.3204345703125,2.8212890625-12.9083251953125v-3.916015625c0-5.0628662109375-.939453125-8.7515869140625-2.8212890625-11.0565185546875-1.880859375-2.3035888671875-4.41015625-3.2591552734375-7.58837890625-2.8551025390625-1.85693359375.236572265625-3.71435546875.476806640625-5.5712890625.7210693359375-.00048828125,11.95654296875-.00048828125,23.912841796875,0,35.869140625Z"/><path class="cls-4" d="M75.960183143615723,132.691262245178223v-53.724609375c9.7978515625-1.033447265625,19.60546875-1.95458984375,29.4189453125-2.763671875v8.927734375c-6.939453125.5718994140625-13.875,1.2000732421875-20.806640625,1.8843994140625v12.84375c5.94482421875-.586669921875,11.89208984375-1.13232421875,17.8427734375-1.636474609375-.00048828125,2.9759521484375-.00048828125,5.9517822265625,0,8.927734375-5.95068359375.504150390625-11.89794921875,1.0498046875-17.8427734375,1.636474609375v14.09765625c7.06591796875-.6973876953125,14.13623046875-1.3367919921875,21.21044921875-1.9176025390625v8.927734375c-9.947265625.81689453125-19.890625,1.749267578125-29.82275390625,2.796875Z"/><path class="cls-4" d="M114.813210487365723,129.184670448303223v-53.724609375c2.8759765625-.2158203125,5.7529296875-.42236328125,8.62939453125-.6190185546875v44.326171875c6.517578125-.445556640625,13.0380859375-.841796875,19.560546875-1.1885986328125v9.3984375c-9.40185546875.5-18.79833984375,1.1025390625-28.18994140625,1.8076171875Z"/><path class="cls-4" d="M167.097878456115723,126.320900917053223v-53.724609375c5.01953125-.1728515625,10.0380859375-.31689453125,15.0576171875-.4317626953125,5.76123046875-.1318359375,10.30029296875,1.98388671875,13.6083984375,6.299560546875,3.31298828125,4.3204345703125,4.96337890625,10.8231201171875,4.96484375,19.48828125-.00439453125,9.1904296875-1.65478515625,16.105224609375-4.96484375,20.7666015625-3.31005859375,4.660888671875-7.84521484375,7.039794921875-13.6083984375,7.170166015625-5.01904296875.1148681640625-10.03857421875.2586669921875-15.0576171875.4317626953125ZM175.740456581115723,117.123879432678223c1.86865234375-.052001953125,3.73681640625-.099853515625,5.60498046875-.1436767578125,3.1962890625-.0748291015625,5.740234375-1.5201416015625,7.630859375-4.34716796875,1.892578125-2.8255615234375,2.8369140625-7.0291748046875,2.8369140625-12.6160888671875v-3.916015625c.0009765625-5.0634765625-.9423828125-8.848388671875-2.8369140625-11.3487548828125-1.89208984375-2.4976806640625-4.43115234375-3.7164306640625-7.630859375-3.64111328125-1.8681640625.0439453125-3.736328125.091552734375-5.60498046875.1436767578125v35.869140625Z"/><path class="cls-4" d="M208.428444862365723,125.555397987365723v-53.724609375c2.88134765625-.0074462890625,5.76318359375-.0052490234375,8.64453125.0067138671875v53.724609375c-2.88134765625-.0120849609375-5.76318359375-.0142822265625-8.64453125-.0067138671875Z"/><path class="cls-4" d="M226.528542518615723,125.635598182678223c.00048828125-17.908203125.00048828125-35.81640625,0-53.724609375,2.5439453125.029052734375,5.087890625.065673828125,7.63232421875.1097412109375,4.7724609375,9.9505615234375,9.5439453125,19.9273681640625,14.31591796875,29.9306640625.267578125.4256591796875.5634765625,1.0477294921875.87841796875,1.8651123046875.3134765625.819091796875.71875,1.888671875,1.21484375,3.207763671875.06787109375-.0760498046875.13525390625-.1522216796875.20263671875-.228271484375-.00048828125-1.2540283203125-.00830078125-2.2437744140625-.03369140625-2.9775390625-.02490234375-.7314453125-.03466796875-1.22705078125-.033203125-1.4893798828125v-29.916015625c2.56494140625.0771484375,5.13037109375.162109375,7.69580078125.2547607421875v53.724609375c-2.5654296875-.0926513671875-5.130859375-.1776123046875-7.69580078125-.2547607421875-4.77197265625-10.0113525390625-9.54443359375-19.9964599609375-14.31640625-29.9554443359375-.1796875-.3670654296875-.4384765625-.9605712890625-.77685546875-1.776123046875-.33642578125-.8153076171875-.77783203125-1.9071044921875-1.3173828125-3.274658203125-.08984375.076904296875-.1796875.15380859375-.26953125.2305908203125.04541015625,1.0970458984375.07568359375,1.9989013671875.1005859375,2.7039794921875.02490234375.7056884765625.03662109375,1.2923583984375.03466796875,1.7623291015625v29.9169921875c-2.54443359375-.0440673828125-5.08837890625-.0806884765625-7.63232421875-.1097412109375Z"/><path class="cls-4" d="M268.527565956115723,126.797341346740723v-53.724609375c9.83154296875.4317626953125,19.65966796875.9757080078125,29.482421875,1.6317138671875v8.927734375c-6.94580078125-.4637451171875-13.89404296875-.8714599609375-20.84423828125-1.2235107421875v12.84375c5.9609375.3017578125,11.919921875.64453125,17.876953125,1.0286865234375v8.927734375c-5.95703125-.3841552734375-11.916015625-.7269287109375-17.876953125-1.0286865234375v14.09765625c7.08447265625.3585205078125,14.16845703125.7752685546875,21.248046875,1.25048828125.00048828125,2.975830078125.00048828125,5.951904296875,0,8.927734375-9.95751953125-.66796875-19.91943359375-1.22119140625-29.88623046875-1.65869140625Z"/><path class="cls-4" d="M307.446999549865723,129.094094276428223c-.00048828125-17.908203125-.00048828125-35.81640625,0-53.724609375,6.44970703125.4779052734375,12.89404296875,1.0042724609375,19.3369140625,1.5792236328125,4.6708984375.4168701171875,8.189453125,2.2039794921875,10.5693359375,5.33349609375,2.37841796875,3.1295166015625,3.56689453125,6.9185791015625,3.5673828125,11.3555908203125.0009765625,3.2392578125-.6943359375,5.98681640625-2.08642578125,8.25048828125-1.3916015625,2.2662353515625-3.2763671875,3.8572998046875-5.65380859375,4.7808837890625,2.9619140625,8.47607421875,5.9228515625,16.96240234375,8.88427734375,25.458984375-3.11865234375-.3155517578125-6.23681640625-.6197509765625-9.35546875-.912353515625-2.55810546875-7.7064208984375-5.11767578125-15.4051513671875-7.67626953125-23.095947265625-2.98583984375-.26220703125-5.97216796875-.51416015625-8.958984375-.7557373046875v22.3984375c-2.87451171875-.2325439453125-5.75048828125-.4554443359375-8.626953125-.66845703125ZM316.073952674865723,98.514504432678223c3.1669921875.2559814453125,6.3330078125.5238037109375,9.498046875.8033447265625,2.10986328125.186767578125,3.64501953125-.30029296875,4.61279296875-1.464599609375.96484375-1.1644287109375,1.4462890625-2.8692626953125,1.4482421875-5.1131591796875.00048828125-1.98388671875-.46142578125-3.593017578125-1.380859375-4.826904296875-.921875-1.23193359375-2.37109375-1.940185546875-4.3427734375-2.114501953125-3.27783203125-.2901611328125-6.55615234375-.5677490234375-9.83544921875-.8330078125v13.548828125Z"/><path class="cls-4" d="M366.738991737365723,135.803566932678223c-5.9560546875-.718017578125-10.6416015625-3.513916015625-14.0458984375-8.4296875-3.4072265625-4.9144287109375-5.109375-12.0865478515625-5.1123046875-21.5379638671875-.0009765625-9.5001220703125,1.705078125-16.3343505859375,5.1123046875-20.4786376953125,3.4072265625-4.141357421875,8.0908203125-5.876220703125,14.0458984375-5.158203125,5.95458984375.7197265625,10.63232421875,3.5810546875,14.03369140625,8.5447998046875,3.40087890625,4.9659423828125,5.10205078125,12.2088623046875,5.099609375,21.710205078125.00146484375,9.450927734375-1.70166015625,16.21337890625-5.099609375,20.306396484375-3.39990234375,4.0946044921875-8.07763671875,5.7628173828125-14.03369140625,5.0430908203125ZM366.738991737365723,127.189309120178223c3.447265625.416015625,6.0224609375-.787353515625,7.72412109375-3.626953125,1.69921875-2.837646484375,2.5498046875-6.943359375,2.55126953125-12.321533203125v-3.916015625c.0009765625-5.3770751953125-.8525390625-9.7034912109375-2.55126953125-12.974365234375-1.70166015625-3.2698974609375-4.27587890625-5.1202392578125-7.72412109375-5.5361328125-3.40234375-.4105224609375-5.9697265625.8209228515625-7.69287109375,3.676513671875-1.7265625,2.8568115234375-2.5888671875,6.9766845703125-2.58837890625,12.354736328125v3.916015625c-.0048828125,5.37841796875.8642578125,9.689697265625,2.58837890625,12.941162109375,1.7255859375,3.2520751953125,4.2900390625,5.0760498046875,7.69287109375,5.486572265625Z"/></g></svg>