<svg width="156" height="40" viewBox="0 0 156 40" fill="none" xmlns="http://www.w3.org/2000/svg">
<g clip-path="url(#clip0_23_94)">
<path d="M37.0709 0H2.9012C1.29891 0 0 1.29982 0 2.90323V37.0968C0 38.7002 1.29891 40 2.9012 40H37.0709C38.6732 40 39.9721 38.7002 39.9721 37.0968V2.90323C39.9721 1.29982 38.6732 0 37.0709 0Z" fill="#FFFF00"/>
<path d="M12.3967 29.3546H10.5593V31.1933H12.3967V29.3546Z" fill="black"/>
<path d="M14.234 22.0007V23.8393V25.6779H16.0708H17.9082V23.8393V22.0007V20.1626V18.324V16.4854V14.6473H16.0708H14.234V16.4854H12.3967H10.5593V18.324H12.3967H14.234V20.1626H12.3967H10.5593V22.0007H12.3967H14.234Z" fill="black"/>
<path d="M27.0943 10.97V9.13142H25.257H23.4202H21.5823H19.7455H17.9082H16.0708H14.234H12.3967H10.5593V10.97H12.3967H14.234V12.8087H16.0708H17.9082H19.7455V14.6473V16.4854V18.324V20.1626V22.0007V23.8393V25.6779H21.5823V23.8393V22.0007V20.1626V18.324V16.4854V14.6473V12.8087H23.4202H25.257V14.6473V16.4854V18.324V20.1626V22.0007V23.8393V25.6779V27.5166H27.0943V25.6779H28.9317V23.8393V22.0007V20.1626V18.324V16.4854V14.6473V12.8087V10.97H27.0943Z" fill="black"/>
<path d="M21.5823 27.5166H19.7455H17.9082H16.0708H14.234H12.3967V29.3546H14.234H16.0708V31.1933H17.9082H19.7455H21.5823H23.4202V29.3546H25.257V27.5166H23.4202H21.5823Z" fill="black"/>
<path d="M52.8975 12.0751H65.6353V15.1884H57.1212V18.3235H63.5459V21.3458H57.1212V24.9127H65.6353V27.98H52.8975V12.0751Z" fill="white"/>
<path d="M66.7019 12.0751H70.7438V27.98H66.7019V12.0751Z" fill="white"/>
<path d="M76.7152 12.0751H83.2757C88.2035 12.0751 91.4723 14.9605 91.4723 20.0495C91.4723 25.0946 88.1586 27.98 83.1859 27.98H76.7152V12.0751ZM80.9377 15.2563V24.8438H83.072C85.6597 24.8438 87.1588 23.3216 87.1588 20.0725C87.1588 16.7554 85.6597 15.2563 83.072 15.2563H80.9377Z" fill="white"/>
<path d="M92.3352 21.6866C92.3352 17.528 94.9688 15.0514 99.0107 15.0514C103.029 15.0514 105.663 17.528 105.663 21.6866C105.663 25.8442 103.052 28.3208 99.0107 28.3208C94.9688 28.3208 92.3352 25.8442 92.3352 21.6866ZM101.689 21.6866C101.689 19.1191 100.668 17.8688 99.0107 17.8688C97.3528 17.8688 96.3311 19.1191 96.3311 21.6866C96.3311 24.2541 97.3528 25.5034 99.0107 25.5034C100.668 25.5034 101.689 24.2541 101.689 21.6866Z" fill="white"/>
<path d="M106.662 15.3922H110.703V17.437C111.543 15.9599 112.883 15.1424 114.677 15.1424H114.881V18.6643C114.518 18.5734 114.154 18.5504 113.768 18.5504C112.519 18.5504 111.339 19.0051 110.703 19.8457V27.98H106.662V15.3922Z" fill="white"/>
<path d="M115.086 24.7308C115.086 22.1633 117.742 21.4357 120.443 20.6642C122.442 20.0955 123.26 19.6418 123.26 18.8682C123.26 18.1866 122.624 17.7099 121.465 17.7099C120.058 17.7099 119.195 18.5054 118.991 19.8237H115.312C115.721 17.0053 118.196 15.0744 121.625 15.0744C125.234 15.0744 127.233 16.7335 127.233 19.8007V27.98H123.26V26.7077C122.328 27.6852 120.966 28.2079 119.377 28.2079C116.766 28.2079 115.086 26.8217 115.086 24.7308ZM120.671 25.7303C121.647 25.7303 122.647 25.3665 123.26 24.7308V22.8679L123.283 21.8225C122.805 22.1633 122.146 22.3682 121.352 22.64C119.921 23.1178 118.991 23.5265 118.991 24.503C118.991 25.2306 119.603 25.7303 120.671 25.7303Z" fill="white"/>
<path d="M128.231 21.6866C128.231 17.6869 130.411 15.1194 133.725 15.1194C135.361 15.1194 136.701 15.824 137.608 17.1412V12.0751H141.65V27.98H137.608V26.23C136.701 27.5482 135.361 28.2528 133.725 28.2528C130.389 28.2528 128.231 25.7533 128.231 21.6866ZM137.631 21.6866C137.631 19.1191 136.587 17.8688 134.906 17.8688C133.249 17.8688 132.227 19.1191 132.227 21.6636C132.227 24.2541 133.249 25.5034 134.906 25.5034C136.587 25.5034 137.631 24.2541 137.631 21.6866Z" fill="white"/>
<path d="M142.671 21.6866C142.671 17.528 145.305 15.0514 149.346 15.0514C153.365 15.0514 156 17.528 156 21.6866C156 25.8442 153.388 28.3208 149.346 28.3208C145.305 28.3208 142.671 25.8442 142.671 21.6866ZM152.026 21.6866C152.026 19.1191 151.004 17.8688 149.346 17.8688C147.689 17.8688 146.667 19.1191 146.667 21.6866C146.667 24.2541 147.689 25.5034 149.346 25.5034C151.004 25.5034 152.026 24.2541 152.026 21.6866Z" fill="white"/>
</g>
<defs>
<clipPath id="clip0_23_94">
<rect width="156" height="40" fill="white"/>
</clipPath>
</defs>
</svg>
