<svg width="25" height="24" viewBox="0 0 25 24" fill="none" xmlns="http://www.w3.org/2000/svg">
<path d="M0.5 12C0.5 5.37258 5.87258 0 12.5 0C19.1274 0 24.5 5.37258 24.5 12C24.5 18.6274 19.1274 24 12.5 24C5.87258 24 0.5 18.6274 0.5 12Z" fill="#F2F2F2"/>
<path d="M12.5 3.40137L7.13672 12.3021L12.5 9.90083V3.40137Z" fill="#8C8C8C"/>
<path d="M7.13616 12.3017L7.13281 12.3078L12.4994 15.5194V9.90039L7.13616 12.3017Z" fill="#353535"/>
<path d="M7.12891 13.0605L12.5001 20.598V16.2426L7.12891 13.0605Z" fill="#8C8C8C"/>
<path d="M17.863 12.3021L12.5 3.40137V9.90083L17.863 12.3021Z" fill="#303030"/>
<path d="M17.863 12.3017L12.5 9.90039V15.5194L17.8666 12.3078L17.863 12.3017Z" fill="#0C0C0C"/>
<path d="M12.5 16.2426V20.598L17.8709 13.0605L12.5 16.2426Z" fill="#303030"/>
</svg>
