<svg width="24" height="24" viewBox="0 0 24 24" fill="none" xmlns="http://www.w3.org/2000/svg">
<path d="M0 12C0 5.37258 5.37258 0 12 0C18.6274 0 24 5.37258 24 12C24 18.6274 18.6274 24 12 24C5.37258 24 0 18.6274 0 12Z" fill="#2775CA"/>
<path d="M15.3004 13.9001C15.3004 12.1501 14.2504 11.5501 12.1504 11.3002C10.6504 11.1001 10.3504 10.7002 10.3504 10.0001C10.3504 9.30002 10.8505 8.85014 11.8504 8.85014C12.7504 8.85014 13.2505 9.15014 13.5004 9.90014C13.5505 10.0501 13.7005 10.1501 13.8505 10.1501H14.6504C14.8504 10.1501 15.0004 10.0001 15.0004 9.80018V9.75014C14.8004 8.6501 13.9004 7.80014 12.7504 7.70018V6.50018C12.7504 6.30014 12.6004 6.15014 12.3505 6.1001H11.6005C11.4004 6.1001 11.2504 6.2501 11.2004 6.50018V7.65014C9.70038 7.85018 8.75046 8.85014 8.75046 10.1002C8.75046 11.7502 9.75042 12.4001 11.8504 12.6502C13.2505 12.9001 13.7005 13.2001 13.7005 14.0002C13.7005 14.8002 13.0004 15.3502 12.0505 15.3502C10.7504 15.3502 10.3004 14.8001 10.1504 14.0501C10.1005 13.8502 9.95046 13.7501 9.80046 13.7501H8.95038C8.75046 13.7501 8.60046 13.9001 8.60046 14.1001V14.1502C8.80038 15.4001 9.60042 16.3001 11.2504 16.5502V17.7502C11.2504 17.9501 11.4004 18.1001 11.6504 18.1501H12.4004C12.6004 18.1501 12.7504 18.0001 12.8005 17.7502V16.5502C14.3005 16.3001 15.3004 15.2501 15.3004 13.9001Z" fill="black"/>
<path d="M9.45098 19.1499C5.55098 17.75 3.55094 13.4 5.00102 9.54992C5.75102 7.44992 7.40102 5.84996 9.45098 5.09996C9.65102 5 9.75098 4.85 9.75098 4.59992V3.89996C9.75098 3.69992 9.65102 3.54992 9.45098 3.5C9.40094 3.5 9.30098 3.5 9.25094 3.54992C4.50098 5.04992 1.90093 10.1 3.40093 14.85C4.30094 17.6499 6.45098 19.8 9.25094 20.7C9.45098 20.7999 9.65102 20.7 9.70094 20.4999C9.75098 20.45 9.75098 20.4 9.75098 20.3V19.5999C9.75098 19.4499 9.60098 19.25 9.45098 19.1499ZM14.751 3.54992C14.551 3.44996 14.3509 3.54992 14.301 3.74996C14.251 3.8 14.251 3.84992 14.251 3.95V4.64996C14.251 4.85 14.401 5.04992 14.551 5.15C18.451 6.54992 20.451 10.8999 19.0009 14.75C18.2509 16.85 16.6009 18.45 14.551 19.2C14.3509 19.2999 14.251 19.4499 14.251 19.7V20.4C14.251 20.6 14.3509 20.75 14.551 20.7999C14.601 20.7999 14.701 20.7999 14.751 20.75C19.501 19.25 22.101 14.1999 20.601 9.44996C19.701 6.59996 17.5009 4.44992 14.751 3.54992Z" fill="black"/>
</svg>
