<svg width="1788" height="300" viewBox="0 0 1788 300" fill="none" xmlns="http://www.w3.org/2000/svg">
<rect x="2.5" y="2.5" width="668" height="295" rx="17.5" fill="black" stroke="white" stroke-width="5"/>
<rect x="1117.5" y="2.5" width="668" height="295" rx="17.5" fill="black" stroke="white" stroke-width="5"/>
<path d="M336.158 146.432L264.639 221.361C265.442 224.208 266.885 226.833 268.858 229.036C270.831 231.239 273.282 232.961 276.023 234.072C278.763 235.183 281.722 235.652 284.672 235.444C287.622 235.236 290.486 234.357 293.044 232.873L373.516 187.041L336.158 146.432Z" fill="#EA4335"/>
<path d="M408.484 133.695L373.684 113.763L334.514 148.137L373.844 186.934L408.377 167.216C411.437 165.614 414 163.205 415.788 160.251C417.576 157.296 418.521 153.909 418.521 150.455C418.521 147.002 417.576 143.614 415.788 140.66C414 137.705 411.437 135.296 408.377 133.695H408.484Z" fill="#FBBC04"/>
<path d="M264.64 79.1757C264.207 80.7739 263.992 82.423 264 84.0787V216.458C264.005 218.113 264.219 219.76 264.64 221.361L338.61 148.35L264.64 79.1757Z" fill="#4285F4"/>
<path d="M336.691 150.269L373.676 113.763L293.31 67.718C290.287 65.9473 286.848 65.0095 283.344 65C279.113 64.9917 274.995 66.3671 271.618 68.9168C268.24 71.4665 265.79 75.0506 264.639 79.1226L336.691 150.269Z" fill="#34A853"/>
<path d="M1528.45 112.659C1527.28 113.519 1506.69 124.538 1506.69 149.039C1506.69 177.379 1532.89 187.405 1533.67 187.653C1533.55 188.264 1529.51 201.384 1519.86 214.752C1511.26 226.516 1502.27 238.26 1488.6 238.26C1474.93 238.26 1471.41 230.717 1455.63 230.717C1440.25 230.717 1434.78 238.509 1422.27 238.509C1409.77 238.509 1401.04 227.623 1391.01 214.255C1379.39 198.558 1370 174.171 1370 151.025C1370 113.901 1395.41 94.2115 1420.42 94.2115C1433.71 94.2115 1444.79 102.5 1453.13 102.5C1461.07 102.5 1473.46 93.715 1488.58 93.715C1494.31 93.715 1514.89 94.2115 1528.45 112.659ZM1481.4 77.9982C1487.65 70.9513 1492.08 61.1737 1492.08 51.396C1492.08 50.0401 1491.96 48.6651 1491.69 47.5575C1481.52 47.9203 1469.42 53.9932 1462.12 62.033C1456.39 68.2205 1451.04 77.9982 1451.04 87.9095C1451.04 89.3991 1451.3 90.8886 1451.42 91.3661C1452.07 91.4806 1453.11 91.6143 1454.16 91.6143C1463.29 91.6143 1474.77 85.8088 1481.4 77.9982Z" fill="white"/>
<rect x="746.5" y="2.5" width="295" height="295" rx="17.5" fill="black"/>
<rect x="746.5" y="2.5" width="295" height="295" rx="17.5" stroke="white" stroke-width="5"/>
<path d="M771 28V39.6667V51.3333V63V74.6667V86.3333V98V109.667H782.667H794.333H806H817.667H829.333H841H852.667V98V86.3333V74.6667V63V51.3333V39.6667V28H841H829.333H817.667H806H794.333H782.667H771ZM864.333 28V39.6667V51.3333H876V39.6667H887.667V28H876H864.333ZM887.667 39.6667V51.3333H899.333V39.6667H887.667ZM899.333 51.3333V63H911H922.667V51.3333V39.6667V28H911V39.6667V51.3333H899.333ZM899.333 63H887.667H876H864.333V74.6667H876H887.667V86.3333H876V98H887.667V109.667H899.333V98H911V109.667H899.333V121.333H887.667V133H899.333H911V144.667H922.667V133V121.333V109.667V98V86.3333H911V74.6667H899.333V63ZM911 144.667H899.333V156.333H887.667V168V179.667H899.333V191.333V203H887.667H876V191.333H887.667V179.667H876V168V156.333H864.333V144.667H876V156.333H887.667V144.667V133H876H864.333V121.333H852.667H841H829.333V133H817.667V144.667H806V133H817.667V121.333H806H794.333V133H782.667V144.667V156.333V168H794.333V156.333H806H817.667H829.333V144.667H841V133H852.667V144.667H841V156.333H852.667V168H841V179.667H852.667H864.333V191.333V203V214.667H876V226.333H887.667H899.333H911V238H899.333H887.667H876V226.333H864.333V238V249.667H876V261.333H864.333V273H876H887.667V261.333H899.333V273H911H922.667H934.333H946V261.333H957.667V273H969.333H981H992.667V261.333H981H969.333V249.667H957.667V238H946V249.667H934.333H922.667V261.333H911V249.667H922.667V238V226.333V214.667H934.333V203H922.667H911V191.333H922.667V179.667V168V156.333H911V144.667ZM946 238V226.333H934.333V238H946ZM969.333 249.667H981H992.667V238H981H969.333V249.667ZM992.667 238H1004.33V226.333V214.667V203V191.333H992.667H981H969.333V179.667H957.667V191.333H946V203V214.667H957.667V203H969.333V214.667V226.333H981H992.667V238ZM957.667 179.667V168H946H934.333V179.667H946H957.667ZM969.333 179.667H981V168V156.333V144.667H992.667V156.333H1004.33V168H1016V156.333V144.667H1004.33V133H1016V121.333H1004.33H992.667V133H981V121.333H969.333V133H957.667V144.667H969.333V156.333V168V179.667ZM957.667 144.667H946V156.333H957.667V144.667ZM1004.33 168H992.667V179.667H1004.33V168ZM841 168V156.333H829.333V168H841ZM829.333 168H817.667H806H794.333V179.667H806H817.667H829.333V168ZM782.667 168H771V179.667H782.667V168ZM782.667 133V121.333H771V133H782.667ZM864.333 121.333H876V109.667V98H864.333V109.667V121.333ZM934.333 28V39.6667V51.3333V63V74.6667V86.3333V98V109.667H946H957.667H969.333H981H992.667H1004.33H1016V98V86.3333V74.6667V63V51.3333V39.6667V28H1004.33H992.667H981H969.333H957.667H946H934.333ZM782.667 39.6667H794.333H806H817.667H829.333H841V51.3333V63V74.6667V86.3333V98H829.333H817.667H806H794.333H782.667V86.3333V74.6667V63V51.3333V39.6667ZM946 39.6667H957.667H969.333H981H992.667H1004.33V51.3333V63V74.6667V86.3333V98H992.667H981H969.333H957.667H946V86.3333V74.6667V63V51.3333V39.6667ZM794.333 51.3333V63V74.6667V86.3333H806H817.667H829.333V74.6667V63V51.3333H817.667H806H794.333ZM957.667 51.3333V63V74.6667V86.3333H969.333H981H992.667V74.6667V63V51.3333H981H969.333H957.667ZM934.333 121.333V133H946V121.333H934.333ZM771 191.333V203V214.667V226.333V238V249.667V261.333V273H782.667H794.333H806H817.667H829.333H841H852.667V261.333V249.667V238V226.333V214.667V203V191.333H841H829.333H817.667H806H794.333H782.667H771ZM782.667 203H794.333H806H817.667H829.333H841V214.667V226.333V238V249.667V261.333H829.333H817.667H806H794.333H782.667V249.667V238V226.333V214.667V203ZM794.333 214.667V226.333V238V249.667H806H817.667H829.333V238V226.333V214.667H817.667H806H794.333ZM1004.33 249.667V261.333H1016V249.667H1004.33Z" fill="white"/>
</svg>
