<svg width="306" height="306" viewBox="0 0 306 306" fill="none" xmlns="http://www.w3.org/2000/svg">
<path d="M22.1541 2.54489H283.09C293.912 2.54489 302.699 11.3315 302.699 22.1541V283.085C302.699 293.91 293.91 302.699 283.085 302.699H22.1541C11.3315 302.699 2.54492 293.912 2.54492 283.09V22.1541C2.54492 11.3315 11.3315 2.54489 22.1541 2.54489Z" fill="black"/>
<path d="M283.086 5.08735C292.497 5.08735 300.154 12.7438 300.154 22.1547V283.086C300.154 292.497 292.497 300.154 283.086 300.154H22.1547C12.7438 300.154 5.08735 292.497 5.08735 283.086V22.1547C5.08735 12.7438 12.7438 5.08735 22.1547 5.08735H283.086ZM283.086 0H22.1547C9.91885 0 0 9.91885 0 22.1547V283.086C0 295.322 9.91885 305.241 22.1547 305.241H283.086C295.322 305.241 305.241 295.322 305.241 283.086V22.1547C305.241 9.91885 295.322 0 283.086 0Z" fill="white"/>
<path d="M229.918 119.659C228.752 120.519 208.165 131.538 208.165 156.039C208.165 184.379 234.361 194.405 235.145 194.653C235.024 195.264 230.983 208.384 221.333 221.752C212.728 233.516 203.742 245.26 190.07 245.26C176.399 245.26 172.881 237.717 157.099 237.717C141.718 237.717 136.25 245.509 123.745 245.509C111.24 245.509 102.514 234.623 92.4821 221.255C80.8616 205.558 71.4727 181.171 71.4727 158.025C71.4727 120.901 96.885 101.211 121.895 101.211C135.184 101.211 146.262 109.5 154.606 109.5C162.547 109.5 174.931 100.715 190.05 100.715C195.78 100.715 216.367 101.211 229.918 119.659ZM182.873 84.9981C189.125 77.9513 193.548 68.1736 193.548 58.396C193.548 57.0401 193.428 55.6651 193.166 54.5575C182.993 54.9203 170.89 60.9932 163.592 69.033C157.863 75.2204 152.515 84.9981 152.515 94.9095C152.515 96.399 152.776 97.8886 152.897 98.366C153.54 98.4806 154.586 98.6143 155.631 98.6143C164.758 98.6143 176.238 92.8088 182.873 84.9981Z" fill="white"/>
</svg>
