<svg width="673" height="300" viewBox="0 0 673 300" fill="none" xmlns="http://www.w3.org/2000/svg">
<rect x="2.5" y="2.5" width="668" height="295" rx="17.5" fill="black" stroke="white" stroke-width="5"/>
<path d="M413.445 112.659C412.279 113.519 391.692 124.538 391.692 149.039C391.692 177.379 417.888 187.405 418.672 187.653C418.552 188.264 414.511 201.384 404.86 214.752C396.256 226.516 387.269 238.26 373.598 238.26C359.926 238.26 356.408 230.717 340.626 230.717C325.246 230.717 319.777 238.509 307.272 238.509C294.767 238.509 286.042 227.623 276.009 214.255C264.389 198.558 255 174.171 255 151.025C255 113.901 280.412 94.2115 305.423 94.2115C318.712 94.2115 329.79 102.5 338.133 102.5C346.074 102.5 358.459 93.715 373.578 93.715C379.307 93.715 399.895 94.2115 413.445 112.659ZM366.4 77.9981C372.653 70.9513 377.076 61.1737 377.076 51.396C377.076 50.0401 376.955 48.6651 376.694 47.5575C366.521 47.9203 354.418 53.9932 347.12 62.033C341.39 68.2205 336.042 77.9982 336.042 87.9095C336.042 89.3991 336.303 90.8886 336.424 91.3661C337.067 91.4806 338.113 91.6143 339.158 91.6143C348.286 91.6143 359.766 85.8088 366.4 77.9981Z" fill="white"/>
</svg>
