<svg width="673" height="300" viewBox="0 0 673 300" fill="none" xmlns="http://www.w3.org/2000/svg">
<rect x="2.5" y="2.5" width="668" height="295" rx="17.5" fill="black" stroke="white" stroke-width="5"/>
<path d="M336.158 146.432L264.639 221.361C265.442 224.208 266.885 226.833 268.858 229.036C270.831 231.239 273.282 232.961 276.023 234.072C278.763 235.183 281.722 235.652 284.672 235.444C287.622 235.236 290.486 234.357 293.044 232.873L373.516 187.041L336.158 146.432Z" fill="#EA4335"/>
<path d="M408.484 133.695L373.684 113.763L334.514 148.137L373.844 186.934L408.377 167.216C411.437 165.614 414 163.205 415.788 160.251C417.576 157.296 418.521 153.909 418.521 150.455C418.521 147.002 417.576 143.614 415.788 140.66C414 137.705 411.437 135.296 408.377 133.695H408.484Z" fill="#FBBC04"/>
<path d="M264.64 79.1757C264.207 80.7739 263.992 82.423 264 84.0787V216.458C264.005 218.113 264.219 219.76 264.64 221.361L338.61 148.35L264.64 79.1757Z" fill="#4285F4"/>
<path d="M336.691 150.269L373.676 113.763L293.31 67.718C290.287 65.9473 286.848 65.0095 283.344 65C279.113 64.9917 274.995 66.3671 271.618 68.9168C268.24 71.4665 265.79 75.0506 264.639 79.1226L336.691 150.269Z" fill="#34A853"/>
</svg>
