<svg width="306" height="306" viewBox="0 0 306 306" fill="none" xmlns="http://www.w3.org/2000/svg">
<path d="M22.1521 2.54489H283.088C293.91 2.54489 302.697 11.3315 302.697 22.1541V283.085C302.697 293.91 293.908 302.699 283.083 302.699H22.1521C11.3295 302.699 2.54297 293.912 2.54297 283.09V22.1541C2.54297 11.3315 11.3295 2.54489 22.1521 2.54489Z" fill="black"/>
<path d="M283.086 5.08735C292.497 5.08735 300.154 12.7438 300.154 22.1547V283.086C300.154 292.497 292.497 300.154 283.086 300.154H22.1547C12.7438 300.154 5.08735 292.497 5.08735 283.086V22.1547C5.08735 12.7438 12.7438 5.08735 22.1547 5.08735H283.086ZM283.086 0H22.1547C9.91885 0 0 9.91885 0 22.1547V283.086C0 295.322 9.91885 305.241 22.1547 305.241H283.086C295.322 305.241 305.241 295.322 305.241 283.086V22.1547C305.241 9.91885 295.322 0 283.086 0Z" fill="white"/>
<path d="M152.568 149.628L81.0488 224.558C81.8519 227.404 83.2951 230.029 85.2682 232.232C87.2412 234.435 89.6918 236.158 92.4327 237.269C95.1736 238.379 98.1322 238.849 101.082 238.641C104.032 238.433 106.896 237.553 109.454 236.069L189.926 190.237L152.568 149.628Z" fill="#EA4335"/>
<path d="M224.894 136.891L190.094 116.96L150.924 151.334L190.254 190.131L224.788 170.412C227.847 168.811 230.41 166.402 232.198 163.447C233.986 160.493 234.931 157.105 234.931 153.652C234.931 150.198 233.986 146.811 232.198 143.856C230.41 140.902 227.847 138.493 224.788 136.891H224.894Z" fill="#FBBC04"/>
<path d="M81.0499 82.3723C80.6176 83.9705 80.4025 85.6196 80.4104 87.2752V219.655C80.4147 221.309 80.6296 222.957 81.0499 224.557L155.02 151.546L81.0499 82.3723Z" fill="#4285F4"/>
<path d="M153.101 153.465L190.086 116.96L109.72 70.9146C106.697 69.1439 103.258 68.2061 99.7546 68.1967C95.523 68.1883 91.4048 69.5638 88.0277 72.1135C84.6505 74.6632 82.1997 78.2472 81.0488 82.3193L153.101 153.465Z" fill="#34A853"/>
</svg>
