<svg width="125" height="43" viewBox="0 0 125 43" fill="none" xmlns="http://www.w3.org/2000/svg">
<path d="M62.5 0L67.6962 9H57.3038L62.5 0Z" fill="#333333" fill-opacity="0.6"/>
<rect y="9" width="125" height="34" rx="5" fill="#333333" fill-opacity="0.6"/>
<path d="M17.952 31.756C16.9173 31.756 16.0053 31.5213 15.216 31.052C14.4267 30.572 13.808 29.8947 13.36 29.02C12.912 28.1347 12.688 27.0733 12.688 25.836C12.688 24.62 12.9067 23.5693 13.344 22.684C13.7813 21.788 14.3947 21.1 15.184 20.62C15.9733 20.1293 16.9013 19.884 17.968 19.884C19.4187 19.884 20.544 20.2467 21.344 20.972C22.144 21.6867 22.6667 22.6893 22.912 23.98L20.736 24.092C20.5973 23.3453 20.2987 22.7587 19.84 22.332C19.3813 21.9053 18.7573 21.692 17.968 21.692C17.328 21.692 16.7733 21.8627 16.304 22.204C15.8347 22.5453 15.472 23.0253 15.216 23.644C14.96 24.2627 14.832 24.9933 14.832 25.836C14.832 26.6893 14.96 27.4253 15.216 28.044C15.4827 28.652 15.8507 29.1213 16.32 29.452C16.7893 29.7827 17.3333 29.948 17.952 29.948C18.7947 29.948 19.4453 29.7187 19.904 29.26C20.3733 28.7907 20.672 28.1507 20.8 27.34L22.976 27.452C22.8267 28.3373 22.5387 29.1053 22.112 29.756C21.6853 30.396 21.12 30.892 20.416 31.244C19.7227 31.5853 18.9013 31.756 17.952 31.756ZM27.2954 31.692C26.4314 31.692 25.7434 31.4093 25.2314 30.844C24.73 30.268 24.4794 29.4733 24.4794 28.46V22.956H26.5274V27.948C26.5274 28.6627 26.6447 29.1907 26.8794 29.532C27.1247 29.8627 27.4927 30.028 27.9834 30.028C28.538 30.028 28.9647 29.8467 29.2634 29.484C29.5727 29.1107 29.7274 28.572 29.7274 27.868V22.956H31.7754V31.5H29.9034L29.8554 29.148L30.1114 29.228C29.9834 30.0387 29.6794 30.652 29.1994 31.068C28.7194 31.484 28.0847 31.692 27.2954 31.692ZM37.566 31.692C36.7127 31.692 35.9713 31.5107 35.342 31.148C34.7127 30.7747 34.2273 30.252 33.886 29.58C33.5447 28.908 33.374 28.124 33.374 27.228C33.374 26.332 33.5447 25.5533 33.886 24.892C34.2273 24.22 34.7073 23.6973 35.326 23.324C35.9553 22.9507 36.686 22.764 37.518 22.764C38.3287 22.764 39.038 22.9453 39.646 23.308C40.2647 23.6707 40.7393 24.1933 41.07 24.876C41.4007 25.5587 41.566 26.38 41.566 27.34V27.804H35.502C35.5447 28.5507 35.7473 29.116 36.11 29.5C36.4833 29.8733 36.974 30.06 37.582 30.06C38.0407 30.06 38.4193 29.9587 38.718 29.756C39.0273 29.5427 39.2407 29.2493 39.358 28.876L41.454 29.004C41.2193 29.836 40.7553 30.492 40.062 30.972C39.3793 31.452 38.5473 31.692 37.566 31.692ZM35.502 26.428H39.454C39.4113 25.7347 39.214 25.2227 38.862 24.892C38.51 24.5507 38.062 24.38 37.518 24.38C36.974 24.38 36.5207 24.556 36.158 24.908C35.806 25.26 35.5873 25.7667 35.502 26.428ZM43.1669 31.5V22.956H45.0229L45.1029 25.356L44.8629 25.26C44.9482 24.6627 45.1242 24.1827 45.3909 23.82C45.6575 23.4573 45.9829 23.1907 46.3669 23.02C46.7509 22.8493 47.1722 22.764 47.6309 22.764C48.2602 22.764 48.7882 22.9027 49.2149 23.18C49.6522 23.4573 49.9829 23.8413 50.2069 24.332C50.4309 24.812 50.5429 25.372 50.5429 26.012V31.5H48.4949V26.668C48.4949 26.188 48.4469 25.7827 48.3509 25.452C48.2549 25.1213 48.0949 24.8707 47.8709 24.7C47.6575 24.5187 47.3695 24.428 47.0069 24.428C46.4629 24.428 46.0255 24.62 45.6949 25.004C45.3749 25.388 45.2149 25.9427 45.2149 26.668V31.5H43.1669ZM55.6065 31.5C54.7532 31.5 54.1238 31.3027 53.7185 30.908C53.3238 30.5133 53.1265 29.8947 53.1265 29.052V20.956H55.1745V28.86C55.1745 29.2547 55.2598 29.532 55.4305 29.692C55.6012 29.8413 55.8678 29.916 56.2305 29.916H57.4305V31.5H55.6065ZM51.7825 24.54V22.956H57.4305V24.54H51.7825ZM61.3656 31.692C60.4696 31.692 59.7496 31.4893 59.2056 31.084C58.6616 30.668 58.3896 30.092 58.3896 29.356C58.3896 28.62 58.619 28.044 59.0776 27.628C59.5363 27.212 60.235 26.9133 61.1736 26.732L64.0056 26.172C64.0056 25.564 63.867 25.1107 63.5896 24.812C63.3123 24.5027 62.9016 24.348 62.3576 24.348C61.867 24.348 61.4776 24.4653 61.1896 24.7C60.9123 24.924 60.7203 25.2493 60.6136 25.676L58.5336 25.58C58.7043 24.6733 59.1203 23.98 59.7816 23.5C60.443 23.0093 61.3016 22.764 62.3576 22.764C63.5736 22.764 64.491 23.0733 65.1096 23.692C65.739 24.3 66.0536 25.1747 66.0536 26.316V29.42C66.0536 29.644 66.091 29.7987 66.1656 29.884C66.251 29.9693 66.3736 30.012 66.5336 30.012H66.8056V31.5C66.7416 31.5213 66.635 31.5373 66.4856 31.548C66.347 31.5587 66.203 31.564 66.0536 31.564C65.7016 31.564 65.387 31.5107 65.1096 31.404C64.8323 31.2867 64.619 31.0893 64.4696 30.812C64.3203 30.524 64.2456 30.1347 64.2456 29.644L64.4216 29.772C64.3363 30.1453 64.1496 30.4813 63.8616 30.78C63.5843 31.068 63.2323 31.292 62.8056 31.452C62.379 31.612 61.899 31.692 61.3656 31.692ZM61.7816 30.204C62.2403 30.204 62.635 30.1133 62.9656 29.932C63.2963 29.7507 63.5523 29.5 63.7336 29.18C63.915 28.86 64.0056 28.4813 64.0056 28.044V27.564L61.7976 28.012C61.339 28.108 61.0083 28.252 60.8056 28.444C60.6136 28.6253 60.5176 28.8653 60.5176 29.164C60.5176 29.4947 60.6243 29.7507 60.8376 29.932C61.0616 30.1133 61.3763 30.204 61.7816 30.204ZM71.5139 31.692C70.6712 31.692 69.9619 31.5693 69.3859 31.324C68.8205 31.0787 68.3832 30.7373 68.0739 30.3C67.7645 29.8627 67.5885 29.3667 67.5459 28.812L69.6419 28.716C69.7165 29.164 69.9032 29.5107 70.2019 29.756C70.5005 30.0013 70.9432 30.124 71.5299 30.124C72.0099 30.124 72.3832 30.0493 72.6499 29.9C72.9272 29.74 73.0659 29.4947 73.0659 29.164C73.0659 28.972 73.0179 28.812 72.9219 28.684C72.8259 28.556 72.6445 28.444 72.3779 28.348C72.1112 28.252 71.7165 28.156 71.1939 28.06C70.3192 27.9107 69.6312 27.7293 69.1299 27.516C68.6285 27.292 68.2712 27.0147 68.0579 26.684C67.8552 26.3533 67.7539 25.9427 67.7539 25.452C67.7539 24.652 68.0579 24.0067 68.6659 23.516C69.2845 23.0147 70.1859 22.764 71.3699 22.764C72.1379 22.764 72.7832 22.892 73.3059 23.148C73.8285 23.3933 74.2339 23.7347 74.5219 24.172C74.8205 24.5987 75.0072 25.0893 75.0819 25.644L73.0179 25.74C72.9645 25.452 72.8685 25.2013 72.7299 24.988C72.5912 24.7747 72.4045 24.6147 72.1699 24.508C71.9352 24.3907 71.6579 24.332 71.3379 24.332C70.8579 24.332 70.4952 24.428 70.2499 24.62C70.0045 24.812 69.8819 25.068 69.8819 25.388C69.8819 25.612 69.9352 25.7987 70.0419 25.948C70.1592 26.0973 70.3459 26.22 70.6019 26.316C70.8579 26.4013 71.1992 26.4813 71.6259 26.556C72.5219 26.6947 73.2259 26.876 73.7379 27.1C74.2605 27.3133 74.6285 27.5907 74.8419 27.932C75.0659 28.2627 75.1779 28.6627 75.1779 29.132C75.1779 29.676 75.0232 30.14 74.7139 30.524C74.4152 30.908 73.9885 31.2013 73.4339 31.404C72.8899 31.596 72.2499 31.692 71.5139 31.692ZM85.1778 31.756C84.2604 31.756 83.4551 31.58 82.7618 31.228C82.0791 30.876 81.5511 30.38 81.1778 29.74C80.8151 29.0893 80.6338 28.3213 80.6338 27.436V20.124H82.7138V27.436C82.7138 28.236 82.9271 28.8547 83.3538 29.292C83.7804 29.7293 84.3884 29.948 85.1778 29.948C85.9671 29.948 86.5751 29.7293 87.0018 29.292C87.4391 28.8547 87.6578 28.236 87.6578 27.436V20.124H89.7378V27.436C89.7378 28.3213 89.5511 29.0893 89.1778 29.74C88.8044 30.38 88.2764 30.876 87.5938 31.228C86.9218 31.58 86.1164 31.756 85.1778 31.756ZM96.3493 31.756C95.4106 31.756 94.5999 31.5907 93.9173 31.26C93.2346 30.9293 92.6959 30.4707 92.3013 29.884C91.9173 29.2867 91.6933 28.5933 91.6293 27.804L93.7413 27.676C93.8053 28.1667 93.9439 28.5827 94.1573 28.924C94.3813 29.2653 94.6746 29.5267 95.0373 29.708C95.4106 29.8787 95.8586 29.964 96.3813 29.964C96.8293 29.964 97.2079 29.9107 97.5173 29.804C97.8373 29.6867 98.0773 29.5213 98.2373 29.308C98.4079 29.084 98.4933 28.812 98.4933 28.492C98.4933 28.204 98.4239 27.948 98.2853 27.724C98.1466 27.4893 97.8799 27.2813 97.4853 27.1C97.0906 26.908 96.5039 26.7213 95.7253 26.54C94.7866 26.3267 94.0346 26.0867 93.4693 25.82C92.9039 25.5427 92.4933 25.2013 92.2373 24.796C91.9813 24.38 91.8533 23.8627 91.8533 23.244C91.8533 22.5827 92.0186 22.0013 92.3493 21.5C92.6799 20.988 93.1493 20.5933 93.7573 20.316C94.3653 20.028 95.0959 19.884 95.9493 19.884C96.8559 19.884 97.6239 20.0493 98.2533 20.38C98.8826 20.7 99.3786 21.1427 99.7413 21.708C100.104 22.2733 100.328 22.924 100.413 23.66L98.3173 23.756C98.2639 23.34 98.1359 22.9773 97.9333 22.668C97.7413 22.3587 97.4746 22.1187 97.1333 21.948C96.8026 21.7667 96.3973 21.676 95.9173 21.676C95.3199 21.676 94.8453 21.8147 94.4933 22.092C94.1519 22.3587 93.9813 22.716 93.9813 23.164C93.9813 23.4733 94.0506 23.7293 94.1893 23.932C94.3386 24.1347 94.5999 24.3107 94.9733 24.46C95.3466 24.5987 95.8693 24.748 96.5413 24.908C97.5546 25.1213 98.3599 25.3933 98.9573 25.724C99.5546 26.0547 99.9813 26.4387 100.237 26.876C100.493 27.3133 100.621 27.8147 100.621 28.38C100.621 29.0733 100.445 29.676 100.093 30.188C99.7413 30.6893 99.2453 31.0787 98.6053 31.356C97.9653 31.6227 97.2133 31.756 96.3493 31.756ZM102.499 31.5V20.14H106.275C108.088 20.14 109.48 20.636 110.451 21.628C111.432 22.6093 111.923 24.012 111.923 25.836C111.923 27.6493 111.443 29.0467 110.483 30.028C109.523 31.0093 108.152 31.5 106.371 31.5H102.499ZM104.579 29.692H106.275C107.459 29.692 108.339 29.372 108.915 28.732C109.491 28.092 109.779 27.1267 109.779 25.836C109.779 24.524 109.491 23.548 108.915 22.908C108.339 22.268 107.459 21.948 106.275 21.948H104.579V29.692Z" fill="white"/>
</svg>
