<svg width="77" height="43" viewBox="0 0 77 43" fill="none" xmlns="http://www.w3.org/2000/svg">
<path d="M38.5 0L43.6962 9H33.3038L38.5 0Z" fill="#333333" fill-opacity="0.6"/>
<rect x="2.5" y="9" width="72" height="34" rx="5" fill="#333333" fill-opacity="0.6"/>
<path d="M20.452 31.756C19.4173 31.756 18.5053 31.5213 17.716 31.052C16.9267 30.572 16.308 29.8947 15.86 29.02C15.412 28.1347 15.188 27.0733 15.188 25.836C15.188 24.62 15.4067 23.5693 15.844 22.684C16.2813 21.788 16.8947 21.1 17.684 20.62C18.4733 20.1293 19.4013 19.884 20.468 19.884C21.9187 19.884 23.044 20.2467 23.844 20.972C24.644 21.6867 25.1667 22.6893 25.412 23.98L23.236 24.092C23.0973 23.3453 22.7987 22.7587 22.34 22.332C21.8813 21.9053 21.2573 21.692 20.468 21.692C19.828 21.692 19.2733 21.8627 18.804 22.204C18.3347 22.5453 17.972 23.0253 17.716 23.644C17.46 24.2627 17.332 24.9933 17.332 25.836C17.332 26.6893 17.46 27.4253 17.716 28.044C17.9827 28.652 18.3507 29.1213 18.82 29.452C19.2893 29.7827 19.8333 29.948 20.452 29.948C21.2947 29.948 21.9453 29.7187 22.404 29.26C22.8733 28.7907 23.172 28.1507 23.3 27.34L25.476 27.452C25.3267 28.3373 25.0387 29.1053 24.612 29.756C24.1853 30.396 23.62 30.892 22.916 31.244C22.2227 31.5853 21.4013 31.756 20.452 31.756ZM27.0575 31.5V22.956H28.9775L29.0575 25.324L28.8815 25.292C29.0095 24.4707 29.2495 23.8787 29.6015 23.516C29.9642 23.1427 30.4548 22.956 31.0735 22.956H31.8575V24.716H31.0575C30.6202 24.716 30.2575 24.78 29.9695 24.908C29.6815 25.036 29.4628 25.2387 29.3135 25.516C29.1748 25.7827 29.1055 26.1347 29.1055 26.572V31.5H27.0575ZM33.1825 31.5V22.956H35.2305V31.5H33.1825ZM33.1505 21.82V19.996H35.2785V21.82H33.1505ZM37.6044 33.9V22.956H39.5724L39.6204 24.78L39.4124 24.684C39.6257 24.0547 39.9724 23.58 40.4524 23.26C40.943 22.9293 41.5137 22.764 42.1644 22.764C42.975 22.764 43.647 22.9667 44.1804 23.372C44.7244 23.7773 45.1297 24.316 45.3964 24.988C45.663 25.66 45.7964 26.4067 45.7964 27.228C45.7964 28.0493 45.6577 28.796 45.3804 29.468C45.1137 30.14 44.7084 30.6787 44.1644 31.084C43.631 31.4893 42.959 31.692 42.1484 31.692C41.7217 31.692 41.3217 31.6173 40.9484 31.468C40.5857 31.3187 40.271 31.1053 40.0044 30.828C39.7484 30.5507 39.567 30.2253 39.4604 29.852L39.6524 29.692V33.9H37.6044ZM41.6684 30.028C42.287 30.028 42.7724 29.7827 43.1244 29.292C43.487 28.7907 43.6684 28.1027 43.6684 27.228C43.6684 26.3533 43.487 25.6707 43.1244 25.18C42.7724 24.6787 42.287 24.428 41.6684 24.428C41.2524 24.428 40.895 24.5347 40.5964 24.748C40.2977 24.9507 40.063 25.26 39.8924 25.676C39.7324 26.092 39.6524 26.6093 39.6524 27.228C39.6524 27.8467 39.7324 28.364 39.8924 28.78C40.0524 29.196 40.2817 29.5107 40.5804 29.724C40.8897 29.9267 41.2524 30.028 41.6684 30.028ZM50.5128 31.5C49.6594 31.5 49.0301 31.3027 48.6248 30.908C48.2301 30.5133 48.0328 29.8947 48.0328 29.052V20.956H50.0807V28.86C50.0807 29.2547 50.1661 29.532 50.3368 29.692C50.5074 29.8413 50.7741 29.916 51.1368 29.916H52.3368V31.5H50.5128ZM46.6888 24.54V22.956H52.3368V24.54H46.6888ZM57.4101 31.692C56.5675 31.692 55.8261 31.5107 55.1861 31.148C54.5568 30.7747 54.0661 30.252 53.7141 29.58C53.3728 28.908 53.2021 28.124 53.2021 27.228C53.2021 26.3213 53.3728 25.5373 53.7141 24.876C54.0661 24.204 54.5568 23.6867 55.1861 23.324C55.8261 22.9507 56.5675 22.764 57.4101 22.764C58.2528 22.764 58.9888 22.9507 59.6181 23.324C60.2475 23.6867 60.7328 24.204 61.0741 24.876C61.4261 25.5373 61.6021 26.3213 61.6021 27.228C61.6021 28.124 61.4261 28.908 61.0741 29.58C60.7328 30.252 60.2475 30.7747 59.6181 31.148C58.9888 31.5107 58.2528 31.692 57.4101 31.692ZM57.4101 30.028C58.0715 30.028 58.5781 29.7827 58.9301 29.292C59.2928 28.8013 59.4741 28.1133 59.4741 27.228C59.4741 26.3533 59.2928 25.6707 58.9301 25.18C58.5781 24.6787 58.0715 24.428 57.4101 24.428C56.7488 24.428 56.2368 24.6787 55.8741 25.18C55.5115 25.6707 55.3301 26.3533 55.3301 27.228C55.3301 28.1133 55.5115 28.8013 55.8741 29.292C56.2368 29.7827 56.7488 30.028 57.4101 30.028Z" fill="white"/>
</svg>
