<svg width="77" height="43" viewBox="0 0 77 43" fill="none" xmlns="http://www.w3.org/2000/svg">
<path d="M38.5 0L43.6962 9H33.3038L38.5 0Z" fill="#333333" fill-opacity="0.6"/>
<rect x="10.5" y="9" width="56" height="34" rx="5" fill="#333333" fill-opacity="0.6"/>
<path d="M23.78 31.5V20.14H28.18C29.5133 20.14 30.5533 20.46 31.3 21.1C32.0467 21.74 32.42 22.6253 32.42 23.756C32.42 24.5133 32.2493 25.1693 31.908 25.724C31.5667 26.268 31.0813 26.684 30.452 26.972C29.8227 27.26 29.0653 27.404 28.18 27.404H25.86V31.5H23.78ZM25.86 25.596H28.084C28.788 25.596 29.3267 25.4413 29.7 25.132C30.084 24.8227 30.276 24.364 30.276 23.756C30.276 23.1587 30.084 22.7107 29.7 22.412C29.3267 22.1027 28.788 21.948 28.084 21.948H25.86V25.596ZM34.069 31.5C34.069 30.5827 34.197 29.7827 34.453 29.1C34.709 28.4067 35.141 27.7773 35.749 27.212C36.357 26.636 37.1783 26.076 38.213 25.532C38.725 25.2547 39.1357 25.0093 39.445 24.796C39.7543 24.5827 39.9783 24.364 40.117 24.14C40.2557 23.9053 40.325 23.628 40.325 23.308C40.325 22.988 40.2557 22.7107 40.117 22.476C39.9783 22.2307 39.7703 22.0387 39.493 21.9C39.2263 21.7613 38.8903 21.692 38.485 21.692C37.8343 21.692 37.317 21.8787 36.933 22.252C36.5597 22.6147 36.3303 23.1373 36.245 23.82L34.101 23.692C34.2077 22.508 34.6397 21.58 35.397 20.908C36.165 20.2253 37.1943 19.884 38.485 19.884C39.317 19.884 40.0317 20.028 40.629 20.316C41.2263 20.5933 41.6797 20.988 41.989 21.5C42.309 22.012 42.469 22.604 42.469 23.276C42.469 23.852 42.3677 24.348 42.165 24.764C41.973 25.18 41.653 25.564 41.205 25.916C40.7677 26.2573 40.1757 26.6253 39.429 27.02C38.4903 27.5213 37.7863 28.0067 37.317 28.476C36.8477 28.9347 36.597 29.34 36.565 29.692H42.469V31.5H34.069ZM44.6706 31.5V20.14H49.0706C50.404 20.14 51.444 20.46 52.1906 21.1C52.9373 21.74 53.3106 22.6253 53.3106 23.756C53.3106 24.5133 53.14 25.1693 52.7986 25.724C52.4573 26.268 51.972 26.684 51.3426 26.972C50.7133 27.26 49.956 27.404 49.0706 27.404H46.7506V31.5H44.6706ZM46.7506 25.596H48.9746C49.6786 25.596 50.2173 25.4413 50.5906 25.132C50.9746 24.8227 51.1666 24.364 51.1666 23.756C51.1666 23.1587 50.9746 22.7107 50.5906 22.412C50.2173 22.1027 49.6786 21.948 48.9746 21.948H46.7506V25.596Z" fill="white"/>
</svg>
