<svg width="182" height="43" viewBox="0 0 182 43" fill="none" xmlns="http://www.w3.org/2000/svg">
<path d="M91 0L96.1962 9H85.8038L91 0Z" fill="#333333" fill-opacity="0.6"/>
<rect y="9" width="182" height="34" rx="5" fill="#333333" fill-opacity="0.6"/>
<path d="M13.28 31.5V20.14H20.928V21.948H15.36V24.908H20.736V26.7H15.36V29.692H21.056V31.5H13.28ZM25.2719 31.692C24.3759 31.692 23.6559 31.4893 23.1119 31.084C22.5679 30.668 22.2959 30.092 22.2959 29.356C22.2959 28.62 22.5252 28.044 22.9839 27.628C23.4425 27.212 24.1412 26.9133 25.0799 26.732L27.9119 26.172C27.9119 25.564 27.7732 25.1107 27.4959 24.812C27.2185 24.5027 26.8079 24.348 26.2639 24.348C25.7732 24.348 25.3839 24.4653 25.0959 24.7C24.8185 24.924 24.6265 25.2493 24.5199 25.676L22.4399 25.58C22.6105 24.6733 23.0265 23.98 23.6879 23.5C24.3492 23.0093 25.2079 22.764 26.2639 22.764C27.4799 22.764 28.3972 23.0733 29.0159 23.692C29.6452 24.3 29.9599 25.1747 29.9599 26.316V29.42C29.9599 29.644 29.9972 29.7987 30.0719 29.884C30.1572 29.9693 30.2799 30.012 30.4399 30.012H30.7119V31.5C30.6479 31.5213 30.5412 31.5373 30.3919 31.548C30.2532 31.5587 30.1092 31.564 29.9599 31.564C29.6079 31.564 29.2932 31.5107 29.0159 31.404C28.7385 31.2867 28.5252 31.0893 28.3759 30.812C28.2265 30.524 28.1519 30.1347 28.1519 29.644L28.3279 29.772C28.2425 30.1453 28.0559 30.4813 27.7679 30.78C27.4905 31.068 27.1385 31.292 26.7119 31.452C26.2852 31.612 25.8052 31.692 25.2719 31.692ZM25.6879 30.204C26.1465 30.204 26.5412 30.1133 26.8719 29.932C27.2025 29.7507 27.4585 29.5 27.6399 29.18C27.8212 28.86 27.9119 28.4813 27.9119 28.044V27.564L25.7039 28.012C25.2452 28.108 24.9145 28.252 24.7119 28.444C24.5199 28.6253 24.4239 28.8653 24.4239 29.164C24.4239 29.4947 24.5305 29.7507 24.7439 29.932C24.9679 30.1133 25.2825 30.204 25.6879 30.204ZM32.0419 31.5V22.956H33.9619L34.0419 25.324L33.8659 25.292C33.9939 24.4707 34.2339 23.8787 34.5859 23.516C34.9485 23.1427 35.4392 22.956 36.0579 22.956H36.8419V24.716H36.0419C35.6045 24.716 35.2419 24.78 34.9539 24.908C34.6659 25.036 34.4472 25.2387 34.2979 25.516C34.1592 25.7827 34.0899 26.1347 34.0899 26.572V31.5H32.0419ZM38.0731 31.5V22.956H39.9291L40.0091 25.356L39.7691 25.26C39.8545 24.6627 40.0305 24.1827 40.2971 23.82C40.5638 23.4573 40.8891 23.1907 41.2731 23.02C41.6571 22.8493 42.0785 22.764 42.5371 22.764C43.1665 22.764 43.6945 22.9027 44.1211 23.18C44.5585 23.4573 44.8891 23.8413 45.1131 24.332C45.3371 24.812 45.4491 25.372 45.4491 26.012V31.5H43.4011V26.668C43.4011 26.188 43.3531 25.7827 43.2571 25.452C43.1611 25.1213 43.0011 24.8707 42.7771 24.7C42.5638 24.5187 42.2758 24.428 41.9131 24.428C41.3691 24.428 40.9318 24.62 40.6011 25.004C40.2811 25.388 40.1211 25.9427 40.1211 26.668V31.5H38.0731ZM53.2238 33.26C51.7624 31.0093 51.0318 28.716 51.0318 26.38C51.0318 24.044 51.7624 21.7507 53.2238 19.5H55.0318C53.7198 21.7933 53.0638 24.0867 53.0638 26.38C53.0638 27.5213 53.2291 28.668 53.5598 29.82C53.8904 30.9613 54.3811 32.108 55.0318 33.26H53.2238ZM56.3544 33.9V22.956H58.3224L58.3704 24.78L58.1624 24.684C58.3757 24.0547 58.7224 23.58 59.2024 23.26C59.693 22.9293 60.2637 22.764 60.9144 22.764C61.725 22.764 62.397 22.9667 62.9304 23.372C63.4744 23.7773 63.8797 24.316 64.1464 24.988C64.413 25.66 64.5464 26.4067 64.5464 27.228C64.5464 28.0493 64.4077 28.796 64.1304 29.468C63.8637 30.14 63.4584 30.6787 62.9144 31.084C62.381 31.4893 61.709 31.692 60.8984 31.692C60.4717 31.692 60.0717 31.6173 59.6984 31.468C59.3357 31.3187 59.021 31.1053 58.7544 30.828C58.4984 30.5507 58.317 30.2253 58.2104 29.852L58.4024 29.692V33.9H56.3544ZM60.4184 30.028C61.037 30.028 61.5224 29.7827 61.8744 29.292C62.237 28.7907 62.4184 28.1027 62.4184 27.228C62.4184 26.3533 62.237 25.6707 61.8744 25.18C61.5224 24.6787 61.037 24.428 60.4184 24.428C60.0024 24.428 59.645 24.5347 59.3464 24.748C59.0477 24.9507 58.813 25.26 58.6424 25.676C58.4824 26.092 58.4024 26.6093 58.4024 27.228C58.4024 27.8467 58.4824 28.364 58.6424 28.78C58.8024 29.196 59.0317 29.5107 59.3304 29.724C59.6397 29.9267 60.0024 30.028 60.4184 30.028ZM66.1356 31.5V22.956H68.0556L68.1356 25.324L67.9596 25.292C68.0876 24.4707 68.3276 23.8787 68.6796 23.516C69.0423 23.1427 69.533 22.956 70.1516 22.956H70.9356V24.716H70.1356C69.6983 24.716 69.3356 24.78 69.0476 24.908C68.7596 25.036 68.541 25.2387 68.3916 25.516C68.253 25.7827 68.1836 26.1347 68.1836 26.572V31.5H66.1356ZM75.7539 31.692C74.9112 31.692 74.1699 31.5107 73.5299 31.148C72.9005 30.7747 72.4099 30.252 72.0579 29.58C71.7165 28.908 71.5459 28.124 71.5459 27.228C71.5459 26.3213 71.7165 25.5373 72.0579 24.876C72.4099 24.204 72.9005 23.6867 73.5299 23.324C74.1699 22.9507 74.9112 22.764 75.7539 22.764C76.5965 22.764 77.3325 22.9507 77.9619 23.324C78.5912 23.6867 79.0765 24.204 79.4179 24.876C79.7699 25.5373 79.9459 26.3213 79.9459 27.228C79.9459 28.124 79.7699 28.908 79.4179 29.58C79.0765 30.252 78.5912 30.7747 77.9619 31.148C77.3325 31.5107 76.5965 31.692 75.7539 31.692ZM75.7539 30.028C76.4152 30.028 76.9219 29.7827 77.2739 29.292C77.6365 28.8013 77.8179 28.1133 77.8179 27.228C77.8179 26.3533 77.6365 25.6707 77.2739 25.18C76.9219 24.6787 76.4152 24.428 75.7539 24.428C75.0925 24.428 74.5805 24.6787 74.2179 25.18C73.8552 25.6707 73.6739 26.3533 73.6739 27.228C73.6739 28.1133 73.8552 28.8013 74.2179 29.292C74.5805 29.7827 75.0925 30.028 75.7539 30.028ZM74.8259 21.996L75.8019 19.756H77.8659L76.4259 21.996H74.8259ZM80.361 31.5L83.433 27.148L80.473 22.956H82.697L84.649 25.868L86.569 22.956H88.825L85.881 27.164L88.937 31.5H86.713L84.681 28.428L82.633 31.5H80.361ZM89.995 31.5V22.956H92.043V31.5H89.995ZM89.963 21.82V19.996H92.091V21.82H89.963ZM94.4169 31.5V22.956H96.2729L96.3369 25.052L96.1449 24.956C96.2409 24.4973 96.4062 24.108 96.6409 23.788C96.8862 23.4573 97.1795 23.2067 97.5209 23.036C97.8729 22.8547 98.2569 22.764 98.6729 22.764C99.3982 22.764 99.9849 22.972 100.433 23.388C100.881 23.7933 101.164 24.3533 101.281 25.068H101.009C101.105 24.5667 101.27 24.1507 101.505 23.82C101.74 23.4787 102.033 23.2173 102.385 23.036C102.748 22.8547 103.153 22.764 103.601 22.764C104.188 22.764 104.694 22.892 105.121 23.148C105.548 23.3933 105.873 23.756 106.097 24.236C106.332 24.716 106.449 25.308 106.449 26.012V31.5H104.401V26.54C104.401 25.836 104.278 25.308 104.033 24.956C103.798 24.604 103.436 24.428 102.945 24.428C102.614 24.428 102.332 24.5133 102.097 24.684C101.862 24.8547 101.681 25.1053 101.553 25.436C101.436 25.756 101.377 26.1453 101.377 26.604V31.5H99.4729V26.604C99.4729 25.9 99.3662 25.3613 99.1529 24.988C98.9395 24.6147 98.5715 24.428 98.0489 24.428C97.7182 24.428 97.4355 24.5133 97.2009 24.684C96.9769 24.8547 96.7955 25.1053 96.6569 25.436C96.5289 25.756 96.4649 26.1453 96.4649 26.604V31.5H94.4169ZM110.975 31.692C110.079 31.692 109.359 31.4893 108.815 31.084C108.271 30.668 107.999 30.092 107.999 29.356C107.999 28.62 108.228 28.044 108.687 27.628C109.146 27.212 109.844 26.9133 110.783 26.732L113.615 26.172C113.615 25.564 113.476 25.1107 113.199 24.812C112.922 24.5027 112.511 24.348 111.967 24.348C111.476 24.348 111.087 24.4653 110.799 24.7C110.522 24.924 110.33 25.2493 110.223 25.676L108.143 25.58C108.314 24.6733 108.73 23.98 109.391 23.5C110.052 23.0093 110.911 22.764 111.967 22.764C113.183 22.764 114.1 23.0733 114.719 23.692C115.348 24.3 115.663 25.1747 115.663 26.316V29.42C115.663 29.644 115.7 29.7987 115.775 29.884C115.86 29.9693 115.983 30.012 116.143 30.012H116.415V31.5C116.351 31.5213 116.244 31.5373 116.095 31.548C115.956 31.5587 115.812 31.564 115.663 31.564C115.311 31.564 114.996 31.5107 114.719 31.404C114.442 31.2867 114.228 31.0893 114.079 30.812C113.93 30.524 113.855 30.1347 113.855 29.644L114.031 29.772C113.946 30.1453 113.759 30.4813 113.471 30.78C113.194 31.068 112.842 31.292 112.415 31.452C111.988 31.612 111.508 31.692 110.975 31.692ZM111.391 30.204C111.85 30.204 112.244 30.1133 112.575 29.932C112.906 29.7507 113.162 29.5 113.343 29.18C113.524 28.86 113.615 28.4813 113.615 28.044V27.564L111.407 28.012C110.948 28.108 110.618 28.252 110.415 28.444C110.223 28.6253 110.127 28.8653 110.127 29.164C110.127 29.4947 110.234 29.7507 110.447 29.932C110.671 30.1133 110.986 30.204 111.391 30.204ZM117.745 31.5V22.956H119.601L119.665 25.052L119.473 24.956C119.569 24.4973 119.734 24.108 119.969 23.788C120.214 23.4573 120.508 23.2067 120.849 23.036C121.201 22.8547 121.585 22.764 122.001 22.764C122.726 22.764 123.313 22.972 123.761 23.388C124.209 23.7933 124.492 24.3533 124.609 25.068H124.337C124.433 24.5667 124.598 24.1507 124.833 23.82C125.068 23.4787 125.361 23.2173 125.713 23.036C126.076 22.8547 126.481 22.764 126.929 22.764C127.516 22.764 128.022 22.892 128.449 23.148C128.876 23.3933 129.201 23.756 129.425 24.236C129.66 24.716 129.777 25.308 129.777 26.012V31.5H127.729V26.54C127.729 25.836 127.606 25.308 127.361 24.956C127.126 24.604 126.764 24.428 126.273 24.428C125.942 24.428 125.66 24.5133 125.425 24.684C125.19 24.8547 125.009 25.1053 124.881 25.436C124.764 25.756 124.705 26.1453 124.705 26.604V31.5H122.801V26.604C122.801 25.9 122.694 25.3613 122.481 24.988C122.268 24.6147 121.9 24.428 121.377 24.428C121.046 24.428 120.764 24.5133 120.529 24.684C120.305 24.8547 120.124 25.1053 119.985 25.436C119.857 25.756 119.793 26.1453 119.793 26.604V31.5H117.745ZM135.504 31.692C134.65 31.692 133.909 31.5107 133.28 31.148C132.65 30.7747 132.165 30.252 131.824 29.58C131.482 28.908 131.312 28.124 131.312 27.228C131.312 26.332 131.482 25.5533 131.824 24.892C132.165 24.22 132.645 23.6973 133.264 23.324C133.893 22.9507 134.624 22.764 135.456 22.764C136.266 22.764 136.976 22.9453 137.584 23.308C138.202 23.6707 138.677 24.1933 139.008 24.876C139.338 25.5587 139.503 26.38 139.503 27.34V27.804H133.44C133.482 28.5507 133.685 29.116 134.048 29.5C134.421 29.8733 134.912 30.06 135.52 30.06C135.978 30.06 136.357 29.9587 136.656 29.756C136.965 29.5427 137.178 29.2493 137.296 28.876L139.392 29.004C139.157 29.836 138.693 30.492 138 30.972C137.317 31.452 136.485 31.692 135.504 31.692ZM133.44 26.428H137.392C137.349 25.7347 137.152 25.2227 136.8 24.892C136.448 24.5507 136 24.38 135.456 24.38C134.912 24.38 134.458 24.556 134.096 24.908C133.744 25.26 133.525 25.7667 133.44 26.428ZM141.104 31.5V22.956H142.96L143.04 25.356L142.8 25.26C142.886 24.6627 143.062 24.1827 143.328 23.82C143.595 23.4573 143.92 23.1907 144.304 23.02C144.688 22.8493 145.11 22.764 145.568 22.764C146.198 22.764 146.726 22.9027 147.152 23.18C147.59 23.4573 147.92 23.8413 148.144 24.332C148.368 24.812 148.48 25.372 148.48 26.012V31.5H146.432V26.668C146.432 26.188 146.384 25.7827 146.288 25.452C146.192 25.1213 146.032 24.8707 145.808 24.7C145.595 24.5187 145.307 24.428 144.944 24.428C144.4 24.428 143.963 24.62 143.632 25.004C143.312 25.388 143.152 25.9427 143.152 26.668V31.5H141.104ZM153.544 31.5C152.691 31.5 152.061 31.3027 151.656 30.908C151.261 30.5133 151.064 29.8947 151.064 29.052V20.956H153.112V28.86C153.112 29.2547 153.197 29.532 153.368 29.692C153.539 29.8413 153.805 29.916 154.168 29.916H155.368V31.5H153.544ZM149.72 24.54V22.956H155.368V24.54H149.72ZM160.425 31.692C159.572 31.692 158.831 31.5107 158.201 31.148C157.572 30.7747 157.087 30.252 156.745 29.58C156.404 28.908 156.233 28.124 156.233 27.228C156.233 26.332 156.404 25.5533 156.745 24.892C157.087 24.22 157.567 23.6973 158.185 23.324C158.815 22.9507 159.545 22.764 160.377 22.764C161.188 22.764 161.897 22.9453 162.505 23.308C163.124 23.6707 163.599 24.1933 163.929 24.876C164.26 25.5587 164.425 26.38 164.425 27.34V27.804H158.361C158.404 28.5507 158.607 29.116 158.969 29.5C159.343 29.8733 159.833 30.06 160.441 30.06C160.9 30.06 161.279 29.9587 161.577 29.756C161.887 29.5427 162.1 29.2493 162.217 28.876L164.313 29.004C164.079 29.836 163.615 30.492 162.921 30.972C162.239 31.452 161.407 31.692 160.425 31.692ZM158.361 26.428H162.313C162.271 25.7347 162.073 25.2227 161.721 24.892C161.369 24.5507 160.921 24.38 160.377 24.38C159.833 24.38 159.38 24.556 159.017 24.908C158.665 25.26 158.447 25.7667 158.361 26.428ZM167.095 33.26H165.271C165.921 32.108 166.412 30.9613 166.743 29.82C167.073 28.668 167.239 27.5213 167.239 26.38C167.239 24.0867 166.583 21.7933 165.271 19.5H167.095C168.545 21.7507 169.271 24.044 169.271 26.38C169.271 28.716 168.545 31.0093 167.095 33.26Z" fill="white"/>
</svg>
