<svg width="201" height="42" viewBox="0 0 201 42" fill="none" xmlns="http://www.w3.org/2000/svg">
<path d="M100.5 0L105.696 9H95.3038L100.5 0Z" fill="#333333" fill-opacity="0.6"/>
<rect y="9" width="201" height="33" rx="5" fill="#333333" fill-opacity="0.6"/>
<path d="M15.9992 31V21.448H12.5432V19.64H21.5192V21.448H18.0792V31H15.9992ZM24.1859 31.192C23.2899 31.192 22.5699 30.9893 22.0259 30.584C21.4819 30.168 21.2099 29.592 21.2099 28.856C21.2099 28.12 21.4393 27.544 21.8979 27.128C22.3566 26.712 23.0553 26.4133 23.9939 26.232L26.8259 25.672C26.8259 25.064 26.6873 24.6107 26.4099 24.312C26.1326 24.0027 25.7219 23.848 25.1779 23.848C24.6873 23.848 24.2979 23.9653 24.0099 24.2C23.7326 24.424 23.5406 24.7493 23.4339 25.176L21.3539 25.08C21.5246 24.1733 21.9406 23.48 22.6019 23C23.2633 22.5093 24.1219 22.264 25.1779 22.264C26.3939 22.264 27.3113 22.5733 27.9299 23.192C28.5593 23.8 28.8739 24.6747 28.8739 25.816V28.92C28.8739 29.144 28.9113 29.2987 28.9859 29.384C29.0713 29.4693 29.1939 29.512 29.3539 29.512H29.6259V31C29.5619 31.0213 29.4553 31.0373 29.3059 31.048C29.1673 31.0587 29.0233 31.064 28.8739 31.064C28.5219 31.064 28.2073 31.0107 27.9299 30.904C27.6526 30.7867 27.4393 30.5893 27.2899 30.312C27.1406 30.024 27.0659 29.6347 27.0659 29.144L27.2419 29.272C27.1566 29.6453 26.9699 29.9813 26.6819 30.28C26.4046 30.568 26.0526 30.792 25.6259 30.952C25.1993 31.112 24.7193 31.192 24.1859 31.192ZM24.6019 29.704C25.0606 29.704 25.4553 29.6133 25.7859 29.432C26.1166 29.2507 26.3726 29 26.5539 28.68C26.7353 28.36 26.8259 27.9813 26.8259 27.544V27.064L24.6179 27.512C24.1593 27.608 23.8286 27.752 23.6259 27.944C23.4339 28.1253 23.3379 28.3653 23.3379 28.664C23.3379 28.9947 23.4446 29.2507 23.6579 29.432C23.8819 29.6133 24.1966 29.704 24.6019 29.704ZM30.9559 31V22.456H32.8759L32.9559 24.824L32.7799 24.792C32.9079 23.9707 33.1479 23.3787 33.4999 23.016C33.8626 22.6427 34.3533 22.456 34.9719 22.456H35.7559V24.216H34.9559C34.5186 24.216 34.1559 24.28 33.8679 24.408C33.5799 24.536 33.3613 24.7387 33.2119 25.016C33.0733 25.2827 33.0039 25.6347 33.0039 26.072V31H30.9559ZM35.4442 33.4V31.816H36.2922C36.5909 31.816 36.8202 31.7467 36.9802 31.608C37.1509 31.48 37.2362 31.2347 37.2362 30.872V22.456H39.2842V30.936C39.2842 31.8107 39.0869 32.44 38.6922 32.824C38.2975 33.208 37.6202 33.4 36.6602 33.4H35.4442ZM37.2042 21.32V19.496H39.3322V21.32H37.2042ZM45.0738 31.192C44.2205 31.192 43.4791 31.0107 42.8498 30.648C42.2205 30.2747 41.7351 29.752 41.3938 29.08C41.0525 28.408 40.8818 27.624 40.8818 26.728C40.8818 25.832 41.0525 25.0533 41.3938 24.392C41.7351 23.72 42.2151 23.1973 42.8338 22.824C43.4631 22.4507 44.1938 22.264 45.0258 22.264C45.8365 22.264 46.5458 22.4453 47.1538 22.808C47.7725 23.1707 48.2471 23.6933 48.5778 24.376C48.9085 25.0587 49.0738 25.88 49.0738 26.84V27.304H43.0098C43.0525 28.0507 43.2551 28.616 43.6178 29C43.9911 29.3733 44.4818 29.56 45.0898 29.56C45.5485 29.56 45.9271 29.4587 46.2258 29.256C46.5351 29.0427 46.7485 28.7493 46.8658 28.376L48.9618 28.504C48.7271 29.336 48.2631 29.992 47.5698 30.472C46.8871 30.952 46.0551 31.192 45.0738 31.192ZM43.0098 25.928H46.9618C46.9191 25.2347 46.7218 24.7227 46.3698 24.392C46.0178 24.0507 45.5698 23.88 45.0258 23.88C44.4818 23.88 44.0285 24.056 43.6658 24.408C43.3138 24.76 43.0951 25.2667 43.0098 25.928ZM53.8018 31C52.9485 31 52.3191 30.8027 51.9138 30.408C51.5191 30.0133 51.3218 29.3947 51.3218 28.552V20.456H53.3698V28.36C53.3698 28.7547 53.4551 29.032 53.6258 29.192C53.7965 29.3413 54.0631 29.416 54.4258 29.416H55.6258V31H53.8018ZM49.9778 24.04V22.456H55.6258V24.04H49.9778ZM59.5609 31.192C58.6649 31.192 57.9449 30.9893 57.4009 30.584C56.8569 30.168 56.5849 29.592 56.5849 28.856C56.5849 28.12 56.8143 27.544 57.2729 27.128C57.7316 26.712 58.4303 26.4133 59.3689 26.232L62.2009 25.672C62.2009 25.064 62.0623 24.6107 61.7849 24.312C61.5076 24.0027 61.0969 23.848 60.5529 23.848C60.0623 23.848 59.6729 23.9653 59.3849 24.2C59.1076 24.424 58.9156 24.7493 58.8089 25.176L56.7289 25.08C56.8996 24.1733 57.3156 23.48 57.9769 23C58.6383 22.5093 59.4969 22.264 60.5529 22.264C61.7689 22.264 62.6863 22.5733 63.3049 23.192C63.9343 23.8 64.2489 24.6747 64.2489 25.816V28.92C64.2489 29.144 64.2863 29.2987 64.3609 29.384C64.4463 29.4693 64.5689 29.512 64.7289 29.512H65.0009V31C64.9369 31.0213 64.8303 31.0373 64.6809 31.048C64.5423 31.0587 64.3983 31.064 64.2489 31.064C63.8969 31.064 63.5823 31.0107 63.3049 30.904C63.0276 30.7867 62.8143 30.5893 62.6649 30.312C62.5156 30.024 62.4409 29.6347 62.4409 29.144L62.6169 29.272C62.5316 29.6453 62.3449 29.9813 62.0569 30.28C61.7796 30.568 61.4276 30.792 61.0009 30.952C60.5743 31.112 60.0943 31.192 59.5609 31.192ZM59.9769 29.704C60.4356 29.704 60.8303 29.6133 61.1609 29.432C61.4916 29.2507 61.7476 29 61.9289 28.68C62.1103 28.36 62.2009 27.9813 62.2009 27.544V27.064L59.9929 27.512C59.5343 27.608 59.2036 27.752 59.0009 27.944C58.8089 28.1253 58.7129 28.3653 58.7129 28.664C58.7129 28.9947 58.8196 29.2507 59.0329 29.432C59.2569 29.6133 59.5716 29.704 59.9769 29.704ZM71.9034 32.76C70.4421 30.5093 69.7114 28.216 69.7114 25.88C69.7114 23.544 70.4421 21.2507 71.9034 19H73.7114C72.3994 21.2933 71.7434 23.5867 71.7434 25.88C71.7434 27.0213 71.9088 28.168 72.2394 29.32C72.5701 30.4613 73.0608 31.608 73.7114 32.76H71.9034ZM75.0341 33.4V22.456H77.0021L77.0501 24.28L76.8421 24.184C77.0554 23.5547 77.4021 23.08 77.8821 22.76C78.3727 22.4293 78.9434 22.264 79.5941 22.264C80.4047 22.264 81.0767 22.4667 81.6101 22.872C82.1541 23.2773 82.5594 23.816 82.8261 24.488C83.0927 25.16 83.2261 25.9067 83.2261 26.728C83.2261 27.5493 83.0874 28.296 82.8101 28.968C82.5434 29.64 82.1381 30.1787 81.5941 30.584C81.0607 30.9893 80.3887 31.192 79.5781 31.192C79.1514 31.192 78.7514 31.1173 78.3781 30.968C78.0154 30.8187 77.7007 30.6053 77.4341 30.328C77.1781 30.0507 76.9967 29.7253 76.8901 29.352L77.0821 29.192V33.4H75.0341ZM79.0981 29.528C79.7167 29.528 80.2021 29.2827 80.5541 28.792C80.9167 28.2907 81.0981 27.6027 81.0981 26.728C81.0981 25.8533 80.9167 25.1707 80.5541 24.68C80.2021 24.1787 79.7167 23.928 79.0981 23.928C78.6821 23.928 78.3247 24.0347 78.0261 24.248C77.7274 24.4507 77.4927 24.76 77.3221 25.176C77.1621 25.592 77.0821 26.1093 77.0821 26.728C77.0821 27.3467 77.1621 27.864 77.3221 28.28C77.4821 28.696 77.7114 29.0107 78.0101 29.224C78.3194 29.4267 78.6821 29.528 79.0981 29.528ZM84.8153 31V22.456H86.7353L86.8153 24.824L86.6393 24.792C86.7673 23.9707 87.0073 23.3787 87.3593 23.016C87.722 22.6427 88.2126 22.456 88.8313 22.456H89.6153V24.216H88.8153C88.378 24.216 88.0153 24.28 87.7273 24.408C87.4393 24.536 87.2206 24.7387 87.0713 25.016C86.9326 25.2827 86.8633 25.6347 86.8633 26.072V31H84.8153ZM94.4336 31.192C93.5909 31.192 92.8496 31.0107 92.2096 30.648C91.5802 30.2747 91.0896 29.752 90.7376 29.08C90.3962 28.408 90.2256 27.624 90.2256 26.728C90.2256 25.8213 90.3962 25.0373 90.7376 24.376C91.0896 23.704 91.5802 23.1867 92.2096 22.824C92.8496 22.4507 93.5909 22.264 94.4336 22.264C95.2762 22.264 96.0122 22.4507 96.6416 22.824C97.2709 23.1867 97.7562 23.704 98.0976 24.376C98.4496 25.0373 98.6256 25.8213 98.6256 26.728C98.6256 27.624 98.4496 28.408 98.0976 29.08C97.7562 29.752 97.2709 30.2747 96.6416 30.648C96.0122 31.0107 95.2762 31.192 94.4336 31.192ZM94.4336 29.528C95.0949 29.528 95.6016 29.2827 95.9536 28.792C96.3162 28.3013 96.4976 27.6133 96.4976 26.728C96.4976 25.8533 96.3162 25.1707 95.9536 24.68C95.6016 24.1787 95.0949 23.928 94.4336 23.928C93.7722 23.928 93.2602 24.1787 92.8976 24.68C92.5349 25.1707 92.3536 25.8533 92.3536 26.728C92.3536 27.6133 92.5349 28.3013 92.8976 28.792C93.2602 29.2827 93.7722 29.528 94.4336 29.528ZM93.5056 21.496L94.4816 19.256H96.5456L95.1056 21.496H93.5056ZM99.0407 31L102.113 26.648L99.1527 22.456H101.377L103.329 25.368L105.249 22.456H107.505L104.561 26.664L107.617 31H105.393L103.361 27.928L101.313 31H99.0407ZM108.675 31V22.456H110.723V31H108.675ZM108.643 21.32V19.496H110.771V21.32H108.643ZM113.097 31V22.456H114.953L115.017 24.552L114.825 24.456C114.921 23.9973 115.086 23.608 115.321 23.288C115.566 22.9573 115.859 22.7067 116.201 22.536C116.553 22.3547 116.937 22.264 117.353 22.264C118.078 22.264 118.665 22.472 119.113 22.888C119.561 23.2933 119.843 23.8533 119.961 24.568H119.689C119.785 24.0667 119.95 23.6507 120.185 23.32C120.419 22.9787 120.713 22.7173 121.065 22.536C121.427 22.3547 121.833 22.264 122.281 22.264C122.867 22.264 123.374 22.392 123.801 22.648C124.227 22.8933 124.553 23.256 124.777 23.736C125.011 24.216 125.129 24.808 125.129 25.512V31H123.081V26.04C123.081 25.336 122.958 24.808 122.713 24.456C122.478 24.104 122.115 23.928 121.625 23.928C121.294 23.928 121.011 24.0133 120.777 24.184C120.542 24.3547 120.361 24.6053 120.233 24.936C120.115 25.256 120.057 25.6453 120.057 26.104V31H118.153V26.104C118.153 25.4 118.046 24.8613 117.833 24.488C117.619 24.1147 117.251 23.928 116.729 23.928C116.398 23.928 116.115 24.0133 115.881 24.184C115.657 24.3547 115.475 24.6053 115.337 24.936C115.209 25.256 115.145 25.6453 115.145 26.104V31H113.097ZM129.655 31.192C128.759 31.192 128.039 30.9893 127.495 30.584C126.951 30.168 126.679 29.592 126.679 28.856C126.679 28.12 126.908 27.544 127.367 27.128C127.825 26.712 128.524 26.4133 129.463 26.232L132.295 25.672C132.295 25.064 132.156 24.6107 131.879 24.312C131.601 24.0027 131.191 23.848 130.647 23.848C130.156 23.848 129.767 23.9653 129.479 24.2C129.201 24.424 129.009 24.7493 128.903 25.176L126.823 25.08C126.993 24.1733 127.409 23.48 128.071 23C128.732 22.5093 129.591 22.264 130.647 22.264C131.863 22.264 132.78 22.5733 133.399 23.192C134.028 23.8 134.343 24.6747 134.343 25.816V28.92C134.343 29.144 134.38 29.2987 134.455 29.384C134.54 29.4693 134.663 29.512 134.823 29.512H135.095V31C135.031 31.0213 134.924 31.0373 134.775 31.048C134.636 31.0587 134.492 31.064 134.343 31.064C133.991 31.064 133.676 31.0107 133.399 30.904C133.121 30.7867 132.908 30.5893 132.759 30.312C132.609 30.024 132.535 29.6347 132.535 29.144L132.711 29.272C132.625 29.6453 132.439 29.9813 132.151 30.28C131.873 30.568 131.521 30.792 131.095 30.952C130.668 31.112 130.188 31.192 129.655 31.192ZM130.071 29.704C130.529 29.704 130.924 29.6133 131.255 29.432C131.585 29.2507 131.841 29 132.023 28.68C132.204 28.36 132.295 27.9813 132.295 27.544V27.064L130.087 27.512C129.628 27.608 129.297 27.752 129.095 27.944C128.903 28.1253 128.807 28.3653 128.807 28.664C128.807 28.9947 128.913 29.2507 129.127 29.432C129.351 29.6133 129.665 29.704 130.071 29.704ZM136.425 31V22.456H138.281L138.345 24.552L138.153 24.456C138.249 23.9973 138.414 23.608 138.649 23.288C138.894 22.9573 139.187 22.7067 139.529 22.536C139.881 22.3547 140.265 22.264 140.681 22.264C141.406 22.264 141.993 22.472 142.441 22.888C142.889 23.2933 143.171 23.8533 143.289 24.568H143.017C143.113 24.0667 143.278 23.6507 143.513 23.32C143.747 22.9787 144.041 22.7173 144.393 22.536C144.755 22.3547 145.161 22.264 145.609 22.264C146.195 22.264 146.702 22.392 147.129 22.648C147.555 22.8933 147.881 23.256 148.105 23.736C148.339 24.216 148.457 24.808 148.457 25.512V31H146.409V26.04C146.409 25.336 146.286 24.808 146.041 24.456C145.806 24.104 145.443 23.928 144.953 23.928C144.622 23.928 144.339 24.0133 144.105 24.184C143.87 24.3547 143.689 24.6053 143.561 24.936C143.443 25.256 143.385 25.6453 143.385 26.104V31H141.481V26.104C141.481 25.4 141.374 24.8613 141.161 24.488C140.947 24.1147 140.579 23.928 140.057 23.928C139.726 23.928 139.443 24.0133 139.209 24.184C138.985 24.3547 138.803 24.6053 138.665 24.936C138.537 25.256 138.473 25.6453 138.473 26.104V31H136.425ZM154.183 31.192C153.33 31.192 152.589 31.0107 151.959 30.648C151.33 30.2747 150.845 29.752 150.503 29.08C150.162 28.408 149.991 27.624 149.991 26.728C149.991 25.832 150.162 25.0533 150.503 24.392C150.845 23.72 151.325 23.1973 151.943 22.824C152.573 22.4507 153.303 22.264 154.135 22.264C154.946 22.264 155.655 22.4453 156.263 22.808C156.882 23.1707 157.357 23.6933 157.687 24.376C158.018 25.0587 158.183 25.88 158.183 26.84V27.304H152.119C152.162 28.0507 152.365 28.616 152.727 29C153.101 29.3733 153.591 29.56 154.199 29.56C154.658 29.56 155.037 29.4587 155.335 29.256C155.645 29.0427 155.858 28.7493 155.975 28.376L158.071 28.504C157.837 29.336 157.373 29.992 156.679 30.472C155.997 30.952 155.165 31.192 154.183 31.192ZM152.119 25.928H156.071C156.029 25.2347 155.831 24.7227 155.479 24.392C155.127 24.0507 154.679 23.88 154.135 23.88C153.591 23.88 153.138 24.056 152.775 24.408C152.423 24.76 152.205 25.2667 152.119 25.928ZM159.784 31V22.456H161.64L161.72 24.856L161.48 24.76C161.565 24.1627 161.741 23.6827 162.008 23.32C162.275 22.9573 162.6 22.6907 162.984 22.52C163.368 22.3493 163.789 22.264 164.248 22.264C164.877 22.264 165.405 22.4027 165.832 22.68C166.269 22.9573 166.6 23.3413 166.824 23.832C167.048 24.312 167.16 24.872 167.16 25.512V31H165.112V26.168C165.112 25.688 165.064 25.2827 164.968 24.952C164.872 24.6213 164.712 24.3707 164.488 24.2C164.275 24.0187 163.987 23.928 163.624 23.928C163.08 23.928 162.643 24.12 162.312 24.504C161.992 24.888 161.832 25.4427 161.832 26.168V31H159.784ZM172.224 31C171.37 31 170.741 30.8027 170.336 30.408C169.941 30.0133 169.744 29.3947 169.744 28.552V20.456H171.792V28.36C171.792 28.7547 171.877 29.032 172.048 29.192C172.218 29.3413 172.485 29.416 172.848 29.416H174.048V31H172.224ZM168.4 24.04V22.456H174.048V24.04H168.4ZM179.105 31.192C178.252 31.192 177.51 31.0107 176.881 30.648C176.252 30.2747 175.766 29.752 175.425 29.08C175.084 28.408 174.913 27.624 174.913 26.728C174.913 25.832 175.084 25.0533 175.425 24.392C175.766 23.72 176.246 23.1973 176.865 22.824C177.494 22.4507 178.225 22.264 179.057 22.264C179.868 22.264 180.577 22.4453 181.185 22.808C181.804 23.1707 182.278 23.6933 182.609 24.376C182.94 25.0587 183.105 25.88 183.105 26.84V27.304H177.041C177.084 28.0507 177.286 28.616 177.649 29C178.022 29.3733 178.513 29.56 179.121 29.56C179.58 29.56 179.958 29.4587 180.257 29.256C180.566 29.0427 180.78 28.7493 180.897 28.376L182.993 28.504C182.758 29.336 182.294 29.992 181.601 30.472C180.918 30.952 180.086 31.192 179.105 31.192ZM177.041 25.928H180.993C180.95 25.2347 180.753 24.7227 180.401 24.392C180.049 24.0507 179.601 23.88 179.057 23.88C178.513 23.88 178.06 24.056 177.697 24.408C177.345 24.76 177.126 25.2667 177.041 25.928ZM185.774 32.76H183.95C184.601 31.608 185.092 30.4613 185.422 29.32C185.753 28.168 185.918 27.0213 185.918 25.88C185.918 23.5867 185.262 21.2933 183.95 19H185.774C187.225 21.2507 187.95 23.544 187.95 25.88C187.95 28.216 187.225 30.5093 185.774 32.76Z" fill="white"/>
</svg>
