<svg width="100" height="27" viewBox="0 0 100 27" fill="none" xmlns="http://www.w3.org/2000/svg">
<g clip-path="url(#clip0_247_978)">
<path fill-rule="evenodd" clip-rule="evenodd" d="M63.9598 6.92967H70.0335V26.0414H63.9598V6.92967ZM63.9598 0.536621H70.0335V4.91526H63.9598V0.536621ZM56.0451 16.3629C56.0451 19.4357 55.9695 22.3683 53.6811 22.3683C51.8823 22.3683 51.5085 20.3185 51.5085 16.6105C51.5085 13.2187 51.6579 10.6051 53.7201 10.6051C55.9323 10.6051 56.0451 12.9008 56.0451 16.3629ZM51.6189 0.820257H45.5457V26.0414H51.3957V23.7097H51.4713C51.9207 25.0186 53.1585 26.5366 55.8561 26.5366C59.9439 26.5366 62.1171 23.7818 62.1171 16.6472C62.1171 10.7097 61.2183 6.43626 56.2317 6.43626C54.5451 6.43626 52.7085 6.96453 51.6951 9.0138H51.6189V0.820257ZM23.3811 6.92908H17.5335V26.0414H23.6049V13.5366C23.6049 11.6646 24.6189 10.8161 25.7805 10.8161C26.9024 10.8161 27.5409 11.6298 27.5409 13.0066V26.042H33.6146V13.5366C33.6146 11.6646 34.6287 10.8161 35.7896 10.8161C36.9165 10.8161 37.5524 11.6298 37.5524 13.0066V26.042H43.6256V11.7343C43.6256 8.06126 41.7902 6.43685 38.3384 6.43685C36.0896 6.43685 34.7409 7.14239 33.3152 9.36953C32.4165 6.75594 30.0915 6.43685 28.3287 6.43685C26.0823 6.43685 24.3171 7.49576 23.4555 9.19167H23.3817L23.3811 6.92908ZM71.0835 10.8864H73.5951V21.0955C73.5951 25.5486 74.7939 26.2542 78.9921 26.2542C80.1575 26.2536 81.3218 26.1826 82.4781 26.0414V22.2271C82.2177 22.262 81.8793 22.2969 81.6183 22.2969C80.1945 22.2969 79.6671 21.8732 79.6671 20.5312V10.8864H82.4781V6.92908H79.6671V1.31485H73.5951V6.92908H71.0835V10.8864ZM91.5915 10.1797C89.7921 10.1797 89.2665 11.8419 89.2665 16.4693C89.2665 21.1328 89.7921 22.792 91.5915 22.792C93.4671 22.792 93.8402 21.2025 93.8402 16.5059C93.8402 11.7698 93.4671 10.1797 91.5915 10.1797ZM83.1927 16.5408C83.1927 10.8149 84.5427 6.43626 91.5524 6.43626C98.9787 6.43626 99.9159 10.7097 99.9159 16.4327C99.9159 22.1556 98.5659 26.5372 91.5524 26.5372C84.1305 26.5372 83.1927 22.262 83.1927 16.5408ZM7.61707 22.5752C8.89329 22.5752 10.0543 21.8673 10.0543 19.9592C10.0543 19.0232 10.0683 18.2952 10.0793 17.696C10.0872 17.2765 10.0939 16.9196 10.0939 16.5987C9.368 16.9634 8.61608 17.2771 7.8439 17.5377C7.37805 17.7002 7.05488 17.813 6.79024 18.0122C6.15427 18.4743 5.85183 19.074 5.85183 20.1353C5.85183 21.6545 6.49024 22.5752 7.61707 22.5752ZM15.722 12.0747V21.9021C15.722 23.3522 15.722 25.1893 16.4341 26.0397H10.5817C10.3561 25.3672 10.2805 24.5896 10.2433 23.8492H10.1677C9.34268 25.5451 7.42988 26.5349 5.40305 26.5349C1.98841 26.5349 0 24.8389 0 20.702C0 18.4743 0.975 16.5987 2.47683 15.8211C3.60549 15.2367 5.15976 14.8916 6.57927 14.576C7.04634 14.472 7.49878 14.3716 7.91646 14.267C9.75732 13.8061 10.0933 13.523 10.0933 12.0747C10.0933 10.9077 9.53171 10.1649 8.17866 10.1649C6.49024 10.1649 6.00427 11.1186 5.96524 12.7808H0.562195C0.60061 10.1649 1.42561 8.57358 2.85183 7.65589C3.71341 7.09867 4.69024 6.76362 5.88232 6.58458L7.95305 1.22267H13.8067L9.97744 6.47171C13.9384 6.78135 15.7213 8.45953 15.7213 12.0753L15.722 12.0747Z" fill="#0994DC"/>
</g>
<defs>
<clipPath id="clip0_247_978">
<rect width="100" height="26" fill="white" transform="translate(0 0.536621)"/>
</clipPath>
</defs>
</svg>
