<svg fill="none" height="25" viewBox="0 0 183 25" width="183" xmlns="http://www.w3.org/2000/svg"><path clip-rule="evenodd" d="M66.246.966a.91.91 0 0 1 .912-.911h3.501a.91.91 0 0 1 .913.911V3.82a.91.91 0 0 0 .912.912h2.76a.913.913 0 0 1 .911.91V18.5a.91.91 0 0 1-.911.911h-2.76a.91.91 0 0 0-.912.913v2.853a.91.91 0 0 1-.913.911h-3.502a.91.91 0 0 1-.91-.911v-3.505a.91.91 0 0 1 .91-.912h2.764a.91.91 0 0 0 .912-.911V6.292a.91.91 0 0 0-.912-.913h-2.764a.91.91 0 0 1-.91-.911zM40.835.966a.91.91 0 0 0-.912-.911h-3.507a.913.913 0 0 0-.911.911V3.82a.91.91 0 0 1-.912.912h-2.76a.913.913 0 0 0-.911.91V18.5a.91.91 0 0 0 .911.911h2.76a.91.91 0 0 1 .912.913v2.853a.913.913 0 0 0 .911.911h3.507a.91.91 0 0 0 .911-.911v-3.505a.91.91 0 0 0-.91-.912H37.16a.91.91 0 0 1-.911-.911V6.292a.91.91 0 0 1 .911-.913h2.762a.91.91 0 0 0 .911-.911zM50.29 6.36a.76.76 0 0 1 .76-.76h7.695a.76.76 0 0 1 .695.458l1.248 2.882a.76.76 0 0 0 .694.46h2.58a.76.76 0 0 1 .76.758v8.507a.76.76 0 0 1-.76.76h-3.266a.76.76 0 0 1-.76-.76v-7.899a.76.76 0 0 0-.758-.76h-3.344a.76.76 0 0 0-.759.76v7.899a.76.76 0 0 1-.76.76h-3.266a.76.76 0 0 1-.76-.76z" fill="#1760FA" fill-rule="evenodd"></path><path d="M42.547 6.36a.76.76 0 0 1 .76-.76h3.266a.76.76 0 0 1 .76.76v12.305a.76.76 0 0 1-.76.76h-3.266a.76.76 0 0 1-.76-.76z" fill="#1760FA"></path><path d="M10.2 12.174v.08a3.5 3.5 0 0 1 1.633 1.177c.438.59.663 1.31.639 2.045a3.73 3.73 0 0 1-1.238 2.87A4.27 4.27 0 0 1 8.24 19.46H.563V5.63h7.43q1.754 0 2.93 1.013A3.32 3.32 0 0 1 12.1 9.285a3.1 3.1 0 0 1-.52 1.736c-.343.506-.82.906-1.38 1.153M7.313 8.665H3.97v2.457h3.343a1.22 1.22 0 0 0 .929-.372c.233-.229.367-.54.371-.868 0-.317-.124-.621-.347-.847a1.25 1.25 0 0 0-.953-.37M3.97 16.446H7.6a1.31 1.31 0 0 0 .992-.411c.248-.246.389-.58.392-.93a1.08 1.08 0 0 0-.392-.825 1.4 1.4 0 0 0-.992-.372H3.97zM24.865 19.46h-10.78V5.63h10.78v3.3H17.49v1.984h6.333v3.097H17.49v2.147h7.375zM91.279 13.685h3.486a6.52 6.52 0 0 1-2.193 4.354q-1.92 1.712-4.86 1.712-3.218 0-5.198-2.063-1.98-2.062-1.983-5.117 0-3.07 1.981-5.156 1.98-2.088 5.2-2.104 2.868 0 4.786 1.69a6.44 6.44 0 0 1 2.225 4.23h-3.526a3.35 3.35 0 0 0-1.229-1.877 3.52 3.52 0 0 0-2.29-.695q-1.713.021-2.703 1.136a4.03 4.03 0 0 0-.968 2.743 4.06 4.06 0 0 0 .99 2.763q.978 1.108 2.714 1.108a3.74 3.74 0 0 0 2.332-.722 3.43 3.43 0 0 0 1.236-2.002M99.295 19.44H95.89V5.62h7.136q2.229 0 3.549 1.009t1.34 2.847q0 1.961-1.361 2.93v.082q1.774.434 1.774 2.66v4.29h-3.404v-3.692q0-.763-.783-.762h-4.847zm0-10.519v3.052h3.444c.467.025.926-.122 1.292-.413a1.41 1.41 0 0 0 .496-1.154 1.3 1.3 0 0 0-.496-1.092 2 2 0 0 0-1.278-.393zM117.903 5.621h3.776l-5.406 8.786v5.035h-3.403v-5.014l-5.425-8.807h3.858l3.298 5.567zM129.586 5.625a4.7 4.7 0 0 1 3.472 1.4q1.404 1.38 1.403 3.473 0 2.145-1.424 3.529a4.72 4.72 0 0 1-3.444 1.38h-3.741v4.043h-3.403V5.625zm-3.734 6.557h3.425c.448.011.884-.151 1.215-.454a1.55 1.55 0 0 0 .495-1.215 1.41 1.41 0 0 0-.521-1.133 1.7 1.7 0 0 0-1.196-.454h-3.418zM134.805 5.621h12.357V8.92h-4.478v10.518h-3.402V8.921h-4.477zM159.591 17.688q-2.02 2.059-5.301 2.063-3.282.003-5.299-2.063-2.022-2.083-2.022-5.117 0-3.035 2.022-5.156 2.019-2.104 5.299-2.104 3.279-.001 5.301 2.104 2.02 2.103 2.021 5.156 0 3.051-2.021 5.117m-5.301-1.28q1.755 0 2.805-1.135a3.89 3.89 0 0 0 1.052-2.742 3.84 3.84 0 0 0-1.052-2.743q-1.032-1.137-2.805-1.136-1.774.003-2.827 1.136a3.89 3.89 0 0 0-1.031 2.743 3.93 3.93 0 0 0 1.031 2.742q1.053 1.136 2.827 1.136" fill="#0E1620"></path></svg>