<svg width="171" height="46" viewBox="0 0 171 46" fill="none" xmlns="http://www.w3.org/2000/svg">
<path d="M1.65616 4.92303C0.673828 6.85097 0.673828 9.37479 0.673828 14.4224V24.8117C0.673828 29.8593 0.673828 32.3831 1.65616 34.3111C2.52025 36.007 3.89903 37.3857 5.5949 38.2498C6.73504 38.8308 8.08357 39.0681 10.0392 39.1651V45.979L19.8222 39.2322H25.4836C30.5312 39.2322 33.055 39.2322 34.983 38.2498C36.6788 37.3857 38.0576 36.007 38.9217 34.3111C39.904 32.3831 39.904 29.8593 39.904 24.8117V14.4224C39.904 9.37479 39.904 6.85097 38.9217 4.92303C38.0576 3.22716 36.6788 1.84838 34.983 0.984289C33.055 0.00195312 30.5312 0.00195312 25.4836 0.00195312H15.0943C10.0467 0.00195312 7.52284 0.00195312 5.5949 0.984289C3.89903 1.84838 2.52025 3.22716 1.65616 4.92303Z" fill="#FF9500"/>
<path d="M30.6112 16.8179C31.0726 13.7265 28.72 12.0648 25.5019 10.9554L26.5467 6.76657L23.998 6.13059L22.9819 10.2071C22.3124 10.0397 21.6238 9.8819 20.94 9.7265L21.9633 5.62133L19.4146 4.98535L18.3698 9.17181C17.7649 9.03314 13.2294 7.89746 13.2294 7.89746L12.5504 10.6207C12.5504 10.6207 14.4464 11.0917 14.4009 11.0797C15.4338 11.338 15.7183 12.0409 15.5892 12.5621L12.7273 24.0336C12.646 24.3588 12.2802 24.8178 11.5582 24.6385C11.6108 24.6505 9.70521 24.1771 9.70521 24.1771L8.44043 27.094L13.5761 28.3898L12.5217 32.6265L15.068 33.2625L16.1128 29.0712C16.8086 29.2601 17.4828 29.4346 18.1451 29.5996L17.105 33.7717L19.6537 34.4077L20.7081 30.1806C25.0548 31.0031 28.3231 30.6707 29.7003 26.7401C30.8096 23.5746 29.6453 21.7479 27.3572 20.5573C29.0236 20.1723 30.2765 19.0773 30.6112 16.8155V16.8179ZM24.787 24.9852C23.998 28.1507 18.6687 26.4389 16.9401 26.0109L18.3411 20.3995C20.0697 20.8298 25.6094 21.6834 24.787 24.9852ZM25.576 16.7725C24.8563 19.6511 20.4212 18.1879 18.9819 17.8292L20.2515 12.739C21.6908 13.0977 26.3243 13.7671 25.576 16.7701V16.7725Z" fill="white"/>
<path d="M70.1396 24.9619C71.2396 24.9619 72.2225 25.2182 73.0879 25.7314C73.968 26.2302 74.6507 26.9343 75.1348 27.8438C75.6334 28.7384 75.8828 29.7506 75.8828 30.8799V31.21H65.123C65.1524 32.134 65.3872 32.9629 65.8271 33.6963C66.2819 34.415 66.8838 34.9799 67.6318 35.3906C68.3798 35.8012 69.2235 36.0068 70.1621 36.0068C71.1741 36.0068 72.1054 35.7273 72.9561 35.1699C73.8067 34.6126 74.4009 33.9015 74.7383 33.0361L75.5742 33.2783C75.1929 34.3342 74.4962 35.1994 73.4844 35.874C72.487 36.534 71.3795 36.8642 70.1621 36.8643C69.0327 36.8643 68.0129 36.6081 67.1035 36.0947C66.1941 35.5813 65.4831 34.8694 64.9697 33.96C64.4711 33.0506 64.2217 32.0239 64.2217 30.8799C64.2217 29.7505 64.471 28.7385 64.9697 27.8438C65.4831 26.9344 66.1873 26.2301 67.082 25.7314C67.9913 25.2182 69.0105 24.9619 70.1396 24.9619ZM99.4229 24.9619C100.728 24.962 101.776 25.2991 102.568 25.9736C103.375 26.6337 103.772 27.5142 103.757 28.6143H102.877C102.892 27.7635 102.576 27.0808 101.931 26.5674C101.3 26.0541 100.456 25.7979 99.4004 25.7979C98.4471 25.7979 97.6775 26.0034 97.0908 26.4141C96.5042 26.8101 96.21 27.3303 96.21 27.9756C96.21 28.5623 96.357 29.0171 96.6504 29.3398C96.9584 29.6479 97.3324 29.868 97.7725 30C98.2124 30.1173 98.8283 30.2342 99.6201 30.3516C100.588 30.4982 101.366 30.6599 101.953 30.8359C102.54 31.012 103.039 31.3276 103.449 31.7822C103.874 32.2222 104.087 32.8528 104.087 33.6738C104.087 34.6419 103.691 35.4201 102.898 36.0068C102.106 36.5787 101.08 36.8643 99.8184 36.8643C98.8797 36.8642 98.0507 36.7035 97.332 36.3809C96.6134 36.0435 96.0562 35.5808 95.6602 34.9941C95.2642 34.3928 95.0664 33.7031 95.0664 32.9258H95.9463C95.961 33.8498 96.3205 34.5979 97.0244 35.1699C97.7431 35.7419 98.6744 36.0283 99.8184 36.0283C100.801 36.0283 101.609 35.8228 102.239 35.4121C102.884 34.9869 103.207 34.4224 103.207 33.7188C103.207 33.1028 103.06 32.6332 102.767 32.3105C102.473 31.9879 102.107 31.7599 101.667 31.6279C101.227 31.4959 100.625 31.3712 99.8623 31.2539L99.4229 31.1885C98.5869 31.0711 97.8826 30.924 97.3105 30.748C96.7533 30.5574 96.2837 30.2495 95.9023 29.8242C95.521 29.3989 95.3301 28.8046 95.3301 28.042C95.3301 27.1326 95.7041 26.3914 96.4521 25.8193C97.2149 25.2473 98.2054 24.9619 99.4229 24.9619ZM60.6768 35.2148H60.8301V21.001H61.7539V36.4248H60.3682L51.3691 22.2334H51.2158V36.4248H50.291V21.001H51.6777L60.6768 35.2148ZM81.3789 35.4785H81.5332L84.79 25.4014H86.0879L89.4102 35.4785H89.542L93.0186 25.4014H93.9648L90.1357 36.4248H88.7939L85.5156 26.4141H85.3613L82.127 36.4248H80.7852L76.957 25.4014H77.9033L81.3789 35.4785ZM70.1182 25.8193C69.2088 25.8193 68.3867 26.0102 67.6533 26.3916C66.9347 26.773 66.3482 27.3087 65.8936 27.998C65.4537 28.6873 65.2042 29.4717 65.1455 30.3516H74.958C74.8846 29.4718 74.6283 28.6873 74.1885 27.998C73.7631 27.3087 73.1982 26.773 72.4941 26.3916C71.7902 26.0103 70.9981 25.8194 70.1182 25.8193ZM74.168 5.38379H76.7422V7.75977H74.168V12.8867C74.168 13.3706 74.2995 13.7595 74.5635 14.0527C74.8422 14.3314 75.2094 14.4707 75.6641 14.4707C76.0014 14.4707 76.3902 14.419 76.8301 14.3164V16.6484C76.5221 16.7511 76.1626 16.832 75.752 16.8906C75.3413 16.9639 74.9672 17.001 74.6299 17.001C73.5005 17.001 72.5985 16.6337 71.9238 15.9004C71.2491 15.167 70.9112 14.2065 70.9111 13.0186V7.75977H69.3271V5.38379H70.999L71.6377 1.81934H74.1895L74.168 5.38379ZM83.5342 5.03125C84.5461 5.0313 85.4629 5.21539 86.2842 5.58203C87.1201 5.93403 87.8021 6.4397 88.3301 7.09961C88.8581 7.75967 89.1805 8.53008 89.2979 9.41016L86.2617 9.80566C86.115 9.18979 85.7848 8.69085 85.2715 8.30957C84.773 7.91383 84.2085 7.7159 83.5781 7.71582C82.7421 7.71582 82.0447 8.02361 81.4873 8.63965C80.9446 9.2557 80.6738 10.0485 80.6738 11.0166C80.6739 11.9845 80.9447 12.7766 81.4873 13.3926C82.03 14.0086 82.7196 14.3164 83.5557 14.3164C84.201 14.3164 84.7728 14.1254 85.2715 13.7441C85.7702 13.3481 86.1004 12.8494 86.2617 12.248L89.3203 12.6221C89.1883 13.5021 88.8512 14.2726 88.3086 14.9326C87.7805 15.5927 87.0978 16.106 86.2617 16.4727C85.4405 16.8246 84.5313 17.0009 83.5342 17.001C82.3461 17.001 81.2893 16.7516 80.3652 16.2529C79.4413 15.7543 78.7155 15.0499 78.1875 14.1406C77.6742 13.2313 77.4171 12.1898 77.417 11.0166C77.417 9.8285 77.6741 8.78635 78.1875 7.8916C78.7009 6.98233 79.4198 6.27795 80.3438 5.7793C81.2677 5.28073 82.3316 5.03125 83.5342 5.03125ZM96.4775 5.03125C97.7094 5.03131 98.7948 5.28069 99.7334 5.7793C100.687 6.26334 101.42 6.9607 101.934 7.87012C102.462 8.76482 102.726 9.81393 102.726 11.0166C102.726 12.2192 102.462 13.2753 101.934 14.1846C101.42 15.0792 100.687 15.7757 99.7334 16.2744C98.7948 16.7584 97.7094 17.0009 96.4775 17.001C95.2309 17.001 94.1379 16.7584 93.1992 16.2744C92.2606 15.7758 91.5271 15.0792 90.999 14.1846C90.4857 13.2753 90.2286 12.2192 90.2285 11.0166C90.2285 9.81383 90.4856 8.76486 90.999 7.87012C91.5271 6.9607 92.2605 6.26334 93.1992 5.7793C94.1379 5.28077 95.231 5.03125 96.4775 5.03125ZM131.994 5.03125C133.006 5.03128 133.923 5.21537 134.744 5.58203C135.58 5.93402 136.262 6.43971 136.79 7.09961C137.318 7.75967 137.641 8.53008 137.759 9.41016L134.722 9.80566C134.575 9.18985 134.246 8.69084 133.732 8.30957C133.234 7.91358 132.669 7.71587 132.038 7.71582C131.202 7.71582 130.505 8.02359 129.947 8.63965C129.405 9.2557 129.134 10.0485 129.134 11.0166C129.134 11.9844 129.405 12.7766 129.947 13.3926C130.49 14.0086 131.18 14.3163 132.016 14.3164C132.661 14.3164 133.234 14.1255 133.732 13.7441C134.231 13.3482 134.56 12.8493 134.722 12.248L137.78 12.6221C137.648 13.5021 137.311 14.2726 136.769 14.9326C136.241 15.5927 135.558 16.106 134.722 16.4727C133.9 16.8245 132.991 17.0009 131.994 17.001C130.806 17.001 129.749 16.7516 128.825 16.2529C127.901 15.7543 127.175 15.0499 126.647 14.1406C126.134 13.2313 125.877 12.1898 125.877 11.0166C125.877 9.8285 126.134 8.78635 126.647 7.8916C127.161 6.9823 127.88 6.27797 128.804 5.7793C129.728 5.28068 130.791 5.03125 131.994 5.03125ZM144.938 5.03125C146.169 5.03129 147.255 5.28071 148.193 5.7793C149.147 6.26334 149.88 6.9607 150.394 7.87012C150.922 8.76483 151.186 9.81389 151.186 11.0166C151.185 12.2192 150.922 13.2753 150.394 14.1846C149.88 15.0792 149.147 15.7757 148.193 16.2744C147.255 16.7584 146.169 17.0009 144.938 17.001C143.691 17.001 142.598 16.7584 141.659 16.2744C140.721 15.7757 139.987 15.0792 139.459 14.1846C138.946 13.2753 138.689 12.2192 138.688 11.0166C138.688 9.81386 138.946 8.76485 139.459 7.87012C139.987 6.9607 140.72 6.26334 141.659 5.7793C142.598 5.28072 143.691 5.03125 144.938 5.03125ZM123.423 13.2168C123.98 13.2168 124.435 13.3923 124.787 13.7441C125.139 14.0815 125.315 14.5218 125.315 15.0645C125.315 15.6071 125.139 16.0542 124.787 16.4062C124.435 16.7436 123.98 16.9131 123.423 16.9131C122.866 16.913 122.404 16.7435 122.037 16.4062C121.685 16.0542 121.509 15.6071 121.509 15.0645C121.509 14.5218 121.685 14.0815 122.037 13.7441C122.404 13.3923 122.866 13.2169 123.423 13.2168ZM57.4424 0.983398C58.5569 0.983439 59.5322 1.16658 60.3682 1.5332C61.2042 1.88523 61.85 2.38391 62.3047 3.0293C62.7593 3.67463 62.9863 4.42279 62.9863 5.27344C62.9863 6.03615 62.774 6.71115 62.3486 7.29785C61.9233 7.88445 61.3806 8.28776 60.7207 8.50781V8.72754C61.5126 8.94756 62.1576 9.388 62.6562 10.0479C63.1696 10.7079 63.4268 11.4783 63.4268 12.3584C63.4267 13.2236 63.1918 13.9787 62.7227 14.624C62.2534 15.2693 61.5859 15.7681 60.7207 16.1201C59.8553 16.4721 58.8501 16.6484 57.7061 16.6484H49.873V0.983398H57.4424ZM68.1064 16.6484H64.8506V5.38379H68.1064V16.6484ZM107.407 16.6484H104.151V5.38379H107.407V16.6484ZM116.108 5.05371C116.944 5.05371 117.686 5.25922 118.331 5.66992C118.976 6.06595 119.475 6.62313 119.827 7.3418C120.179 8.04586 120.355 8.84549 120.355 9.74023V16.6484H117.099V10.2021C117.099 9.49809 116.908 8.93318 116.526 8.50781C116.145 8.06797 115.632 7.84766 114.986 7.84766C114.327 7.84775 113.762 8.08266 113.293 8.55176C112.838 9.02113 112.61 9.60844 112.61 10.3125V16.6484H109.354V5.38379H112.61V6.96777H112.83C113.666 5.69179 114.759 5.05384 116.108 5.05371ZM159.189 5.03125C159.923 5.03125 160.606 5.22994 161.236 5.62598C161.882 6.00732 162.351 6.52076 162.645 7.16602H162.864C163.216 6.50609 163.693 5.99266 164.294 5.62598C164.91 5.24464 165.614 5.05374 166.406 5.05371C167.228 5.05371 167.961 5.25151 168.606 5.64746C169.252 6.02879 169.758 6.57144 170.125 7.27539C170.492 7.9794 170.675 8.77916 170.675 9.67383V16.6484H167.419V10.2236C167.419 9.53447 167.22 8.97021 166.824 8.53027C166.428 8.07564 165.923 7.84091 165.307 7.82617C164.676 7.82617 164.155 8.05312 163.744 8.50781C163.348 8.94776 163.15 9.51977 163.15 10.2236V16.6484H159.872V10.2236C159.872 9.49071 159.689 8.91157 159.322 8.48633C158.956 8.04629 158.464 7.82617 157.848 7.82617C157.202 7.82618 156.689 8.04629 156.308 8.48633C155.926 8.92625 155.735 9.50521 155.735 10.2236V16.6484H152.479V5.38379H155.714V7.05566H155.934C156.256 6.43979 156.704 5.94868 157.275 5.58203C157.847 5.21539 158.486 5.03131 159.189 5.03125ZM96.4775 7.82617C95.5977 7.82617 94.8786 8.12643 94.3213 8.72754C93.7639 9.31426 93.4844 10.0779 93.4844 11.0166C93.4845 11.9551 93.764 12.7249 94.3213 13.3262C94.8787 13.9275 95.5975 14.2285 96.4775 14.2285C97.3427 14.2284 98.054 13.9274 98.6113 13.3262C99.1685 12.7249 99.4472 11.9551 99.4473 11.0166C99.4473 10.0779 99.1687 9.31426 98.6113 8.72754C98.0541 8.12638 97.3426 7.82628 96.4775 7.82617ZM144.938 7.82617C144.058 7.82617 143.339 8.12638 142.781 8.72754C142.224 9.31426 141.945 10.0779 141.945 11.0166C141.945 11.9551 142.224 12.7249 142.781 13.3262C143.339 13.9275 144.057 14.2285 144.938 14.2285C145.803 14.2284 146.514 13.9275 147.071 13.3262C147.629 12.7249 147.907 11.9551 147.907 11.0166C147.907 10.0779 147.629 9.31426 147.071 8.72754C146.514 8.1264 145.803 7.82625 144.938 7.82617ZM53.5254 13.876H56.958C57.7501 13.876 58.4026 13.6929 58.916 13.3262C59.4294 12.9448 59.6865 12.4607 59.6865 11.874C59.6865 11.3021 59.4293 10.8325 58.916 10.4658C58.4027 10.0846 57.75 9.89356 56.958 9.89355H53.5254V13.876ZM53.5254 7.4082H56.8037C57.5224 7.4082 58.1097 7.23873 58.5645 6.90137C59.0188 6.56412 59.246 6.12441 59.2461 5.58203C59.2461 5.03944 59.019 4.59905 58.5645 4.26172C58.1097 3.92436 57.5224 3.75586 56.8037 3.75586H53.5254V7.4082ZM66.4785 -0.00683594C67.0505 -0.00678506 67.5201 0.176321 67.8867 0.542969C68.2534 0.894972 68.4365 1.34991 68.4365 1.90723C68.4365 2.46441 68.2532 2.92633 67.8867 3.29297C67.5201 3.64495 67.0505 3.82124 66.4785 3.82129C65.9065 3.82129 65.437 3.645 65.0703 3.29297C64.7037 2.9263 64.5205 2.46453 64.5205 1.90723C64.5205 1.34989 64.7036 0.894978 65.0703 0.542969C65.437 0.176404 65.9066 -0.00683594 66.4785 -0.00683594ZM105.779 -0.00683594C106.351 -0.00682375 106.821 0.176317 107.188 0.542969C107.554 0.894978 107.737 1.34989 107.737 1.90723C107.737 2.46445 107.554 2.92632 107.188 3.29297C106.821 3.64499 106.351 3.82128 105.779 3.82129C105.207 3.82129 104.738 3.645 104.371 3.29297C104.005 2.92631 103.821 2.46448 103.821 1.90723C103.821 1.34989 104.004 0.894978 104.371 0.542969C104.738 0.176345 105.207 -0.00683594 105.779 -0.00683594Z" fill="#1C1C1C"/>
</svg>
