<svg width="168" height="35" viewBox="0 0 168 35" fill="none" xmlns="http://www.w3.org/2000/svg">
<g clip-path="url(#clip0_247_1015)">
<path d="M4.42225 4.51032H8.07339C11.4104 4.51032 12.8809 5.56908 12.8809 7.71977C12.8809 9.58876 11.4104 10.8578 8.45866 10.8578H4.42225V4.51032ZM0 25.6574H8.94865C13.6515 25.6574 18.3543 23.9705 18.3543 18.5407C18.3543 15.3312 16.1132 12.8674 12.9901 12.5109V12.4367C15.5453 11.668 17.3076 9.79961 17.3076 6.97926C17.3076 2.43161 13.442 0.705994 9.68616 0.705994H0V25.6574ZM4.42225 14.6621H8.6681C12.2476 14.6621 13.9382 15.5798 13.9382 18.1898C13.9382 21.4628 10.772 21.853 8.4917 21.853H4.42225V14.6621Z" fill="#010101"/>
<path d="M25.4558 0.117249V25.6572H21.2559V0.117249H25.4558Z" fill="#010101"/>
<path d="M32.4862 17.2002C32.4862 14.557 34.3477 12.1274 37.4371 12.1274C40.5266 12.1274 42.3824 14.5575 42.3824 17.2002C42.3824 19.8429 40.5266 22.2736 37.4371 22.2736C34.3471 22.2736 32.4862 19.8434 32.4862 17.2002ZM28.2734 17.2002C28.2734 22.5221 32.3429 26.0779 37.4371 26.0779C42.5252 26.0779 46.6008 22.5227 46.6008 17.2002C46.6008 11.8777 42.5258 8.31744 37.4371 8.31744C32.3429 8.31688 28.2734 11.8783 28.2734 17.2002Z" fill="#010101"/>
<path d="M52.7128 17.2002C52.7128 14.557 54.5742 12.1274 57.6637 12.1274C60.7532 12.1274 62.609 14.5575 62.609 17.2002C62.609 19.8429 60.7532 22.2736 57.6637 22.2736C54.5742 22.2736 52.7128 19.8434 52.7128 17.2002ZM48.5 17.2002C48.5 22.5221 52.57 26.0779 57.6637 26.0779C62.7518 26.0779 66.8274 22.5227 66.8274 17.2002C66.8274 11.8777 62.7523 8.31744 57.6637 8.31744C52.5695 8.31688 48.5 11.8783 48.5 17.2002Z" fill="#010101"/>
<path d="M69.3926 8.74021H73.396V11.3863H73.462C74.2001 9.79953 75.8134 8.31458 78.6218 8.31458C81.2213 8.31458 83.0166 9.33454 83.8919 11.4526C85.1199 9.30698 86.9096 8.31458 89.4318 8.31458C93.9252 8.31458 95.5066 11.5268 95.5066 15.5802V25.6578H91.2938V16.0722C91.2938 13.9598 90.6661 12.1268 88.1713 12.1268C85.5393 12.1268 84.5532 14.3106 84.5532 16.4923V25.6573H80.346V15.5797C80.346 13.4948 79.5032 12.1268 77.466 12.1268C74.6957 12.1268 73.6054 14.1644 73.6054 16.4231V25.6573H69.3926V8.74021Z" fill="#010101"/>
<path d="M112.892 17.2002C112.892 19.8462 111.036 22.2736 107.941 22.2736C104.851 22.2736 102.99 19.8462 102.99 17.2002C102.99 14.5569 104.851 12.1212 107.941 12.1212C111.036 12.1212 112.892 14.5569 112.892 17.2002ZM98.9205 25.6573H102.924V23.1215H102.99C104.223 25.1591 106.432 26.0773 108.788 26.0773C113.976 26.0773 117.104 22.201 117.104 17.1996C117.104 12.1954 113.767 8.31686 108.959 8.31686C105.803 8.31686 104.113 9.79338 103.237 10.8937H103.133V0.117249H98.9199L98.9205 25.6573Z" fill="#010101"/>
<path d="M123.223 15.5083C123.537 13.0726 125.084 11.4887 127.573 11.4887C130.206 11.4887 131.819 13.04 131.858 15.5083H123.223ZM136.07 18.6795V17.5185C136.07 11.6298 132.877 8.31744 128.173 8.31744C123.074 8.31744 119.01 11.8783 119.01 17.2002C119.01 22.5221 123.074 26.0779 128.173 26.0779C130.833 26.0779 133.333 25.1271 135.294 22.6992L132.276 20.413C131.224 21.7102 129.853 22.6992 127.749 22.6992C125.398 22.6992 123.498 21.1817 123.223 18.6795H136.07Z" fill="#010101"/>
<path d="M138.813 8.74021H143.026V11.4194H143.098C144.011 9.48129 145.867 8.31458 148.081 8.31458C148.61 8.31458 149.1 8.42253 149.59 8.56591V12.6525C148.89 12.4782 148.219 12.3371 147.552 12.3371C143.587 12.3371 143.025 15.6876 143.025 16.6058V25.6578H138.812L138.813 8.74021Z" fill="#010101"/>
<path d="M159.013 12.1268C162.064 12.1268 163.996 14.1644 163.996 17.0973C163.996 19.912 162.102 22.0627 158.98 22.0627C156.138 22.0627 154.029 19.8428 154.029 17.1636C154.029 14.1644 156.061 12.1268 159.013 12.1268ZM163.996 8.74021V11.2783H163.93C162.697 9.2322 160.484 8.31458 158.132 8.31458C152.939 8.31458 149.816 12.1931 149.816 17.2002C149.816 21.9885 153.153 25.8676 158.204 25.8676C160.313 25.8676 162.488 25.0601 163.722 23.4043H163.782V24.6401C163.782 27.9851 162.527 30.3135 158.451 30.3135C156.1 30.3135 154.343 29.4284 152.658 27.8693L150.136 31.33C152.514 33.4532 155.361 34.1172 158.49 34.1172C165.054 34.1172 168 30.2359 168 24.142V8.74021H163.996Z" fill="#010101"/>
</g>
<defs>
<clipPath id="clip0_247_1015">
<rect width="168" height="34" fill="white" transform="translate(0 0.536621)"/>
</clipPath>
</defs>
</svg>
