<svg width="139" height="27" viewBox="0 0 139 27" fill="none" xmlns="http://www.w3.org/2000/svg">
<g clip-path="url(#clip0_247_980)">
<path d="M38.8814 18.6482C36.318 18.6482 34.7295 16.3475 34.7295 13.1643C34.7295 10.0127 36.0663 7.66468 38.8656 7.66468C40.7056 7.66468 41.9166 8.84657 42.137 10.4066H46.4148C46.1944 8.46835 45.3295 6.76648 43.8198 5.63188C42.593 4.68636 40.8945 4.10333 38.8814 4.10333C33.7229 4.10333 30.373 8.01137 30.373 13.1643C30.373 18.3488 33.833 22.1466 38.913 22.1466C41.3504 22.1466 43.1276 21.469 44.4488 20.1768C45.6282 19.0422 46.4148 17.4664 46.5247 15.7487H42.2469C42.0584 17.4349 40.8 18.6482 38.8814 18.6482Z" fill="#262626"/>
<path d="M54.4199 9.03577C50.4567 9.03577 47.7988 11.8723 47.7988 15.607C47.7988 19.3417 50.4567 22.1782 54.4199 22.1782C58.4144 22.1782 61.0252 19.3417 61.0252 15.607C61.0252 11.8723 58.4144 9.03577 54.4199 9.03577ZM54.4041 19.3575C52.6898 19.3575 51.7933 17.8604 51.7933 15.607C51.7933 13.3535 52.6898 11.825 54.4041 11.825C56.1185 11.825 57.0462 13.3535 57.0462 15.607C57.0307 17.8604 56.1185 19.3575 54.4041 19.3575Z" fill="#262626"/>
<path d="M66.6215 7.71672C67.4629 6.87362 67.4629 5.50672 66.6215 4.66363C65.7798 3.82054 64.4158 3.82054 63.5744 4.66363C62.733 5.50672 62.733 6.87362 63.5744 7.71672C64.4158 8.55981 65.7798 8.55981 66.6215 7.71672Z" fill="#262626"/>
<path d="M61.6699 12.1558H63.3211V21.7841H67.2531V9.36658H61.6699V12.1558Z" fill="#262626"/>
<path d="M76.9247 9.00409C75.2107 9.00409 74.0151 9.72896 73.1032 11.0684H73.0246V9.36654H69.2344V21.7683H73.1818V14.9134C73.1818 13.3849 74.0467 12.2976 75.3521 12.2976C76.6417 12.2976 77.2865 13.1958 77.2865 14.5037V21.7683H81.234V13.7001C81.234 10.9424 79.6299 9.00409 76.9247 9.00409Z" fill="#262626"/>
<path d="M90.4812 4.45001H83.1055V21.7684H90.2141C92.3844 21.7684 94.13 21.2169 95.4828 20.1926C97.4172 18.7113 98.4864 16.2688 98.4864 13.2116C98.4864 7.91683 95.2624 4.45001 90.4812 4.45001ZM89.8996 18.1755H87.3832V8.04292H89.9467C92.6361 8.04292 94.1616 10.0757 94.1616 13.2274C94.1458 16.3948 92.6989 18.1755 89.8996 18.1755Z" fill="#262626"/>
<path d="M110.172 10.643C109.103 9.68176 107.703 9.09869 105.942 9.09869C102.167 9.09869 99.5879 11.9352 99.5879 15.6384C99.5879 19.3889 102.104 22.2254 106.194 22.2254C107.766 22.2254 109.024 21.8156 110.062 21.0908C111.147 20.3344 111.871 19.2785 112.138 18.1597H108.301C107.955 18.9319 107.279 19.3889 106.241 19.3889C104.621 19.3889 103.708 18.3488 103.457 16.6784H112.358C112.374 14.1413 111.651 11.9982 110.172 10.643ZM103.473 14.3147C103.74 12.8334 104.51 11.8879 106.005 11.8879C107.279 11.8879 108.207 12.8334 108.348 14.3147H103.473Z" fill="#262626"/>
<path d="M120.127 14.0152C118.554 13.7316 117.154 13.6055 117.154 12.7388C117.154 11.9666 117.909 11.6042 118.868 11.6042C119.954 11.6042 120.709 11.9509 120.85 13.054H124.483C124.294 10.6114 122.407 9.08289 118.9 9.08289C115.975 9.08289 113.553 10.4381 113.553 13.054C113.553 15.9692 115.849 16.5366 118.004 16.899C119.655 17.1827 121.149 17.3087 121.149 18.4275C121.149 19.2312 120.394 19.6567 119.215 19.6567C117.909 19.6567 117.091 19.0579 116.934 17.813H113.207C113.333 20.5549 115.597 22.2253 119.23 22.2253C122.47 22.2253 124.861 20.8228 124.861 18.1124C124.876 14.945 122.313 14.3777 120.127 14.0152Z" fill="#262626"/>
<path d="M134.14 14.0311L138.497 9.36661H133.951L130.271 13.5583V4.45001H126.387V21.7842H130.271V17.9706L131.467 16.71L134.439 21.7842H139L134.14 14.0311Z" fill="#262626"/>
<path d="M13.041 14.3147C13.7011 14.3147 14.2362 13.7785 14.2362 13.117C14.2362 12.4556 13.7011 11.9194 13.041 11.9194C12.3809 11.9194 11.8457 12.4556 11.8457 13.117C11.8457 13.7785 12.3809 14.3147 13.041 14.3147Z" fill="#F8BF1E"/>
<path d="M22.5722 14.3147C23.2323 14.3147 23.7675 13.7785 23.7675 13.117C23.7675 12.4556 23.2323 11.9194 22.5722 11.9194C21.9121 11.9194 21.377 12.4556 21.377 13.117C21.377 13.7785 21.9121 14.3147 22.5722 14.3147Z" fill="#F8BF1E"/>
<path d="M22.5722 23.88C23.2323 23.88 23.7675 23.3438 23.7675 22.6824C23.7675 22.0209 23.2323 21.4847 22.5722 21.4847C21.9121 21.4847 21.377 22.0209 21.377 22.6824C21.377 23.3438 21.9121 23.88 22.5722 23.88Z" fill="#F8BF1E"/>
<path d="M26.0793 3.3312C25.9534 1.58203 24.5538 0.163781 22.808 0.0377149C21.6914 -0.0410768 20.6849 0.384397 19.9771 1.10928C19.4424 1.66082 18.719 1.99175 17.9483 1.99175H17.6653C16.8789 1.99175 16.1397 1.66082 15.5893 1.09352C14.9445 0.431671 14.048 0.0377149 13.0572 0.0377149C12.0664 0.0377149 11.1699 0.447431 10.5251 1.09352C9.97469 1.66082 9.23553 1.99175 8.44916 1.99175H8.1818C7.41119 1.99175 6.672 1.69234 6.13727 1.1408C6.02719 1.03049 5.91708 0.920182 5.80701 0.825631C4.47022 -0.261693 2.50431 -0.230177 1.21469 0.920182C-0.342294 2.29115 -0.405203 4.68643 1.04169 6.13617C1.05742 6.15193 1.07315 6.16769 1.08888 6.18345C1.65505 6.71923 1.95387 7.47566 1.95387 8.24781V8.5157C1.95387 9.30361 1.6236 10.0442 1.05742 10.5958C0.39688 11.2419 0.00370294 12.1401 0.00370294 13.1329C0.00370294 14.1256 0.412609 15.0239 1.05742 15.67C1.6236 16.2215 1.95387 16.9622 1.95387 17.7501V18.1125C1.95387 18.8847 1.6236 19.6095 1.07315 20.1453C0.381155 20.823 -0.0434783 21.7842 0.00370294 22.84C0.0823385 24.6995 1.59214 26.1965 3.43222 26.2596C4.50167 26.2911 5.46102 25.8656 6.13727 25.1565C6.672 24.6049 7.39543 24.2583 8.16607 24.2583H8.46489C9.23553 24.2583 9.95896 24.5892 10.4937 25.1565C11.2014 25.8971 12.2237 26.3226 13.3403 26.2438C15.086 26.1177 16.5014 24.6995 16.6273 22.9346C16.7688 20.8387 15.1332 19.1053 13.073 19.1053C12.0978 19.1053 11.2014 19.4992 10.5566 20.1453C10.0061 20.6969 9.26698 21.0278 8.49634 21.0278H8.16607C7.39543 21.0278 6.64055 20.7284 6.0901 20.1611C6.07437 20.1453 6.07437 20.1453 6.05864 20.1296C5.49247 19.578 5.1622 18.8374 5.1622 18.0495V17.7343C5.1622 16.9464 5.49247 16.2058 6.05864 15.6542C6.71918 15.0081 7.11238 14.1099 7.11238 13.1171C7.11238 12.1244 6.70345 11.2261 6.05864 10.58C5.49247 10.0285 5.1622 9.28785 5.1622 8.49994V8.21629C5.1622 7.42838 5.49247 6.68771 6.04292 6.13617C6.05864 6.12044 6.05865 6.12044 6.07437 6.10468C6.0901 6.08892 6.0901 6.08892 6.10582 6.07316C6.65628 5.52162 7.39543 5.19069 8.1818 5.19069H8.46489C9.25126 5.19069 9.99041 5.52162 10.5409 6.08892C11.1857 6.75075 12.0821 7.14472 13.073 7.14472C14.0637 7.14472 14.9602 6.73499 15.605 6.08892C16.1555 5.52162 16.8946 5.19069 17.681 5.19069H17.9326C18.719 5.19069 19.4581 5.52162 20.0086 6.08892C20.6534 6.75075 21.5498 7.14472 22.5407 7.14472C24.5852 7.16048 26.2208 5.42706 26.0793 3.3312Z" fill="#F8BF1E"/>
</g>
<defs>
<clipPath id="clip0_247_980">
<rect width="139" height="26.3258" fill="white" transform="translate(0 0.373718)"/>
</clipPath>
</defs>
</svg>
