<svg width="108" height="31" viewBox="0 0 108 31" fill="none" xmlns="http://www.w3.org/2000/svg">
<path d="M61.1811 10.2778C61.1811 7.05555 61.2351 4.05555 61.3971 1.27777L53.1351 2.88888V3.66666L53.9451 3.77777C54.5391 3.83333 54.9171 4.05555 55.1331 4.38888C55.3491 4.77777 55.5111 5.33333 55.6191 6.16666C55.7271 7.77777 55.8351 11.4444 55.7811 17.2222C55.7811 22.9444 55.7271 26.5555 55.6191 27.9444C58.5891 28.6111 60.9111 28.8889 62.6391 28.8889C65.8791 28.8889 68.4171 27.9444 70.2531 26C72.0891 24.1111 73.0611 21.4444 73.0611 18.1667C73.0611 15.5555 72.3591 13.3889 70.9551 11.6667C69.5511 9.94444 67.7691 9.1111 65.6631 9.1111C64.2591 9.1111 62.8011 9.49999 61.1811 10.2778ZM61.3431 27.3889C61.2351 25.6111 61.1271 20.2778 61.1271 11.5555C61.6131 11.3889 62.2611 11.2778 63.0711 11.2778C64.3671 11.2778 65.3931 11.9444 66.1491 13.3333C66.9051 14.7222 67.2831 16.3889 67.2831 18.5C67.2831 21.1111 66.8511 23.2222 65.9871 25C65.1231 26.7222 64.0431 27.6111 62.6931 27.6111C62.2611 27.5 61.8291 27.4444 61.3431 27.3889ZM22.1391 1.83333H0.539062V2.94444L1.67306 3.05555C2.53706 3.22222 3.13106 3.55555 3.50906 4.05555C3.88706 4.6111 4.10306 5.49999 4.15706 6.72222C4.58906 12.7222 4.58906 18.3333 4.15706 23.5C4.04906 24.7222 3.83306 25.6111 3.50906 26.1667C3.13106 26.7222 2.53706 27.0555 1.67306 27.1667L0.539062 27.3333V28.4444H14.4711V27.3333L13.0131 27.2222C12.6573 27.1916 12.3112 27.0872 11.9957 26.9153C11.6802 26.7435 11.4017 26.5077 11.1771 26.2222C10.7991 25.6667 10.5831 24.7778 10.5291 23.5555C10.3671 21.3333 10.2591 18.7778 10.2591 15.9444L13.1751 16C14.7411 16.0555 15.8211 17.2778 16.3611 19.7222H17.4411V10.6667H16.3611C15.8211 13.0555 14.7951 14.2778 13.1751 14.3333L10.2591 14.3889C10.2591 9.38888 10.3671 5.83333 10.5291 3.66666H14.7951C17.8191 3.66666 19.8711 5.66666 21.0591 9.66666L22.3551 9.27777L22.1391 1.83333ZM19.6011 18.9444C19.6011 21.8333 20.4111 24.2222 21.9771 26.1111C23.5431 28 25.8651 28.8889 28.7811 28.8889C31.6971 28.8889 34.0731 27.9444 35.8011 26C37.5291 24.1111 38.3391 21.7222 38.3391 18.8333C38.3391 15.9444 37.5291 13.5555 35.9631 11.6667C34.3971 9.77777 32.0751 8.88888 29.1591 8.88888C26.2431 8.88888 23.8671 9.83333 22.1391 11.7778C20.4111 13.6667 19.6011 16.0555 19.6011 18.9444ZM31.6431 12.6111C32.2911 14.2222 32.5611 16.3333 32.5611 18.8889C32.5611 24.7778 31.3731 27.6667 29.0511 27.6667C27.8631 27.6667 26.9451 26.8333 26.2971 25.1667C25.6491 23.5 25.3791 21.3889 25.3791 18.8889C25.3791 13.0555 26.5671 10.1667 28.8891 10.1667C30.0771 10.1111 30.9951 10.9444 31.6431 12.6111ZM77.2731 26.1111C79.0551 27.9444 81.3231 28.8889 84.0231 28.8889C85.6971 28.8889 87.1551 28.5555 88.4511 27.8333C89.7471 27.1667 90.7731 26.3333 91.4751 25.3333L90.9351 24.6667C89.7471 25.6111 88.3971 26.0555 86.8311 26.0555C84.6711 26.0555 82.9971 25.3333 81.8631 23.8333C80.6751 22.3333 80.1351 20.4444 80.2431 18H91.7991C91.7991 15.3333 91.1511 13.1667 89.8011 11.4444C88.4511 9.77777 86.5611 8.94444 84.1311 8.94444C81.1071 8.94444 78.7851 9.94444 77.1111 11.8889C75.4371 13.8333 74.6271 16.2222 74.6271 19.0555C74.6271 21.9444 75.4911 24.2778 77.2731 26.1111ZM81.2691 12.1667C81.8631 10.8333 82.6191 10.1667 83.6451 10.1667C85.2651 10.1667 86.0751 12.2778 86.0751 16.5555L80.3511 16.6667C80.4051 15 80.6751 13.5 81.2691 12.1667ZM106.325 9.94444C104.867 9.27777 103.031 8.88888 100.817 8.88888C98.5491 8.88888 96.7671 9.49999 95.4171 10.6667C94.0671 11.8333 93.3651 13.2778 93.3651 15C93.3651 16.5 93.7971 17.6667 94.6071 18.5C95.4171 19.3333 96.7131 20.0555 98.3871 20.6667C99.8991 21.2222 100.979 21.7778 101.519 22.2778C102.059 22.8333 102.383 23.4444 102.383 24.2778C102.383 25.0555 102.113 25.7778 101.519 26.3333C100.979 26.9444 100.223 27.2222 99.2511 27.2222C96.8751 27.2222 95.0931 25.4444 93.8511 21.8889L92.9331 22.1667L93.1491 27.7222C95.0931 28.5 97.2531 28.8889 99.6291 28.8889C102.113 28.8889 104.003 28.3333 105.407 27.1667C106.811 26.0555 107.513 24.4444 107.513 22.4444C107.513 21.1111 107.189 20 106.487 19.1667C105.785 18.3333 104.651 17.6111 103.031 16.9444C101.249 16.2778 100.007 15.6667 99.3591 15.1111C98.7111 14.5555 98.3871 13.8889 98.3871 13.0555C98.3871 12.2222 98.6031 11.5555 99.0891 11C99.5751 10.4444 100.169 10.2222 100.925 10.2222C103.085 10.2222 104.651 11.8333 105.623 15L106.541 14.7222L106.325 9.94444ZM54.3771 9.44444C53.6211 9.05555 52.8111 8.88888 51.8931 8.88888C50.9751 8.88888 50.0571 9.27777 49.0311 10.0555C48.0051 10.8333 47.2491 11.8889 46.6551 13.3333L46.7091 8.88888L38.5011 10.5555V11.3333L39.3111 11.3889C40.3371 11.5 40.9311 12.3333 41.0391 13.8333C41.3631 17.2778 41.3631 20.9444 41.0391 24.8333C40.9311 26.3333 40.3371 27.1111 39.3111 27.2778L38.5011 27.3889V28.4444H49.9491V27.3889L48.4911 27.2778C47.4651 27.1667 46.8711 26.3333 46.7631 24.8333C46.4391 21.6111 46.3851 18.1667 46.6551 14.6111C46.9791 14.0555 47.6811 13.7222 48.7611 13.6111C49.8411 13.5 51.0831 13.8333 52.3791 14.6111L54.3771 9.44444Z" fill="#33629A"/>
</svg>
