<svg width="103" height="53" viewBox="0 0 103 53" fill="none" xmlns="http://www.w3.org/2000/svg">
<g clip-path="url(#clip0_247_994)">
<path d="M16.9516 0.664429L13.2912 12.1225L9.4662 0.664429H4.65039V16.2944H7.49745V3.91895L11.6706 16.2944H14.68L18.6601 3.91895V16.2944H21.5821V0.664429H16.9516Z" fill="black"/>
<path d="M55.4839 51.3752H58.1479L60.181 44.0263H60.2241L62.1946 51.3752H64.8787L68.1977 40.1845H65.3366L63.4311 47.3509H63.388L61.4176 40.1907H58.9064L57.0435 47.3509H57.0009L55.1704 40.1907H52.2383L55.4839 51.3752Z" fill="black"/>
<path d="M47.5049 39.8669C44.2654 39.8669 42.0284 42.4452 42.0284 45.7675L42.0273 45.7576C42.0273 49.1104 44.1064 51.7122 47.787 51.7122C50.6441 51.7122 52.4033 50.0301 52.8097 48.0405H49.908C49.5822 48.8951 48.9116 49.4182 47.764 49.4182C46.097 49.4182 45.1435 48.347 44.9279 46.6197H52.9814C52.9814 42.6197 51.0763 39.8669 47.5049 39.8669ZM47.5497 42.162C48.8921 42.162 49.8207 43.1455 49.908 44.5664H44.9739C45.2342 43.1019 45.9902 42.162 47.5497 42.162Z" fill="black"/>
<path d="M38.4355 39.4022H41.38V36.7327H38.4355V39.4034V39.4022Z" fill="black"/>
<path d="M38.4355 51.386H41.38V40.1845H38.4355V51.386Z" fill="black"/>
<path d="M31.0739 51.3859H33.8885L38.0107 40.1703H35.0679L32.5265 47.7674H32.4834L29.9678 40.1844H26.9746L31.0739 51.3859Z" fill="black"/>
<path d="M22.3554 39.8781C19.1159 39.8781 16.88 42.4563 16.88 45.7786L16.8789 45.7687C16.8789 49.1215 18.9569 51.7233 22.6375 51.7233C25.4951 51.7233 27.2538 50.0412 27.6602 48.0516H24.7596C24.4338 48.9062 23.7631 49.4293 22.6156 49.4293C20.9486 49.4293 19.9939 48.3576 19.7784 46.6309H27.8329C27.8329 42.6302 25.9285 39.8781 22.3554 39.8781ZM22.4002 42.1731C23.7426 42.1731 24.6723 43.1566 24.7596 44.5775H19.8243C20.0846 43.1136 20.8406 42.1731 22.4002 42.1731Z" fill="black"/>
<path d="M4.65039 35.7692V51.3965H7.72373V45.3635H10.8025V45.3646L14.4018 51.3965H17.8589L13.995 44.9573C15.9436 44.3022 17.0574 42.8084 17.0574 40.621C17.0652 39.9911 16.9464 39.3661 16.7083 38.7838C16.4703 38.2015 16.1178 37.6739 15.6722 37.233C14.7637 36.2925 13.5963 35.7692 11.6236 35.7692H4.65039ZM7.72373 38.5224H11.5416C13.0956 38.5224 13.983 39.2221 13.983 40.6431C13.983 42.0211 13.1415 42.7847 11.4957 42.7847H7.72373V38.5224Z" fill="black"/>
<path d="M92.9729 37.5218H94.706C96.9569 37.5218 97.7803 36.6271 98.6245 34.1339L102.5 22.6357H99.5274L97.9678 27.6848C97.6219 28.7112 97.3185 30.1322 97.3185 30.1322H97.2782C97.2782 30.1322 96.9104 28.7112 96.5645 27.6848L94.9193 22.6357H91.8203L94.8073 30.6149C95.4359 32.319 95.6515 33.0419 95.6515 33.6535C95.6515 34.5714 95.1757 35.1835 94.0057 35.1835H92.9673L92.9729 37.5218Z" fill="black"/>
<path d="M85.4946 22.3231C82.68 22.3231 80.6895 24.4647 80.6895 27.8097C80.6895 31.1982 83.1134 33.1649 85.5821 33.1649C86.1331 33.1859 86.6815 33.0784 87.1847 32.8507C87.6879 32.6231 88.1325 32.2815 88.4838 31.8523H88.5483V33.0843C88.5483 34.6138 87.7477 35.4236 86.0795 35.4236C84.7092 35.4236 84.0805 34.8781 83.8426 34.1772H80.9289C81.2323 36.3556 83.0943 37.6679 86.1244 37.6679C87.7696 37.6679 89.1977 37.275 90.1292 36.4006C90.951 35.6347 91.4489 34.563 91.4489 32.9894V22.6289H88.6117V23.809H88.569C87.8979 22.8691 86.8795 22.3231 85.4946 22.3231ZM86.0511 24.7132C87.8284 24.7132 88.6948 26.1092 88.6948 27.7523L88.6937 27.7501C88.6937 29.4113 87.937 30.7892 86.0741 30.7892C84.5593 30.7892 83.5627 29.6521 83.5627 27.7733C83.5627 25.8945 84.5565 24.7132 86.0511 24.7132Z" fill="black"/>
<path d="M74.4496 22.3321C71.007 22.3321 68.6484 24.9103 68.6484 28.2547V28.2558C68.6484 31.594 71.007 34.1796 74.4496 34.1796C77.8928 34.1796 80.2519 31.5997 80.2519 28.2547C80.2519 24.9103 77.8923 22.3321 74.4496 22.3321ZM74.4496 24.5841C76.2476 24.5841 77.2638 26.0685 77.2638 28.2547C77.2638 30.4421 76.2678 31.9066 74.4496 31.9066C72.6314 31.9066 71.6354 30.4466 71.6354 28.2558C71.6354 26.0651 72.6522 24.5841 74.4496 24.5841Z" fill="black"/>
<path d="M65.0879 33.8507H68.0323V18.2168H65.098L65.0879 33.8507Z" fill="black"/>
<path d="M58.6879 22.3321C55.2452 22.3321 52.8867 24.9103 52.8867 28.2547V28.2558C52.8867 31.594 55.2452 34.1796 58.6879 34.1796C62.1311 34.1796 64.4902 31.5997 64.4902 28.2547C64.4902 24.9103 62.1306 22.3321 58.6879 22.3321ZM58.6879 24.5841C60.4859 24.5841 61.5032 26.0684 61.5032 28.2558L61.5021 28.2547C61.5021 30.4421 60.5061 31.9066 58.6879 31.9066C56.8697 31.9066 55.8737 30.4404 55.8737 28.2558C55.8737 26.0707 56.8904 24.5841 58.6879 24.5841Z" fill="black"/>
<path d="M45.1451 22.6248H42.2734V33.8387H45.2185V27.4721C45.2185 25.9426 46.1701 24.8935 47.4699 24.8935C48.7042 24.8935 49.3978 25.7453 49.3978 26.9464V33.8313H52.3361V26.5242C52.3361 24.0768 50.7989 22.3275 48.5049 22.3275C46.9896 22.3275 45.973 22.9616 45.2145 24.1627H45.1496L45.1451 22.6253V22.6248Z" fill="black"/>
<path d="M34.2488 18.2083H31.3145V33.8382H34.2589V27.4727C34.2589 25.9433 35.2105 24.8942 36.5104 24.8942C37.7447 24.8942 38.4382 25.746 38.4382 26.9471V33.832H41.3827V26.5243C41.3827 24.0769 39.8455 22.3276 37.5516 22.3276C36.0362 22.3276 35.1277 22.9165 34.3261 24.0973H34.2611L34.2488 18.2083Z" fill="black"/>
<path d="M20.0452 28.2408C20.0452 31.5858 22.2312 34.1643 25.7388 34.1643C28.7056 34.1643 30.5445 32.2635 30.7399 29.8799H27.9029C27.6991 31.1483 26.8634 31.7808 25.666 31.7808C23.868 31.7808 23.0222 30.3598 23.0222 28.2386C23.0222 26.0749 23.9312 24.6969 25.7063 24.6969C26.194 24.6906 26.6678 24.8616 27.0411 25.1785C27.4144 25.4955 27.6624 25.9374 27.74 26.4236H30.6201C30.2299 23.9966 28.4543 22.3168 25.5764 22.3168C22.1993 22.3168 20.0352 24.8959 20.0352 28.2408" fill="black"/>
<path d="M14.0155 22.3255C10.779 22.3255 8.54307 24.9003 8.53906 28.2183C8.53906 28.2198 8.53906 28.2213 8.53906 28.2227C8.53906 28.2242 8.53906 28.2257 8.53906 28.2272C8.54276 31.5763 10.6214 34.173 14.2987 34.173C17.1558 34.173 18.915 32.492 19.3214 30.5024H16.4198C16.094 31.3542 15.4233 31.879 14.2757 31.879C12.6081 31.879 11.6552 30.8072 11.4397 29.0805H19.492C19.492 25.0788 17.5886 22.3255 14.0155 22.3255ZM14.0604 24.6195C15.4027 24.6195 16.3313 25.6029 16.4187 27.0239H11.4834C11.7437 25.56 12.5008 24.6195 14.0604 24.6195Z" fill="black"/>
<path d="M26.3066 0.664415V3.33394H31.3217V16.2972H34.2662V3.33224H39.2807V0.66272L26.3066 0.664415Z" fill="black"/>
<path d="M0.00195312 18.2167V20.8856H4.65487V33.8483H7.61948V20.8839H12.2746V18.2144L0.00195312 18.2167Z" fill="black"/>
<path d="M22.5742 0.664429H25.5148V16.2944H22.5742V0.664429Z" fill="black"/>
</g>
<defs>
<clipPath id="clip0_247_994">
<rect width="103" height="52" fill="white" transform="translate(0 0.536621)"/>
</clipPath>
</defs>
</svg>
