<?xml version="1.0" encoding="UTF-8"?>
<svg xmlns="http://www.w3.org/2000/svg" width="131" height="35" viewBox="0 0 131 35" fill="none">
  <g clip-path="url(#clip0_751_3698)">
    <path d="M46.8995 20.779H55.6389V22.3898H48.647V27.1026H54.4328V28.7133H48.647V34.8763H46.8995V20.7769V20.779Z" fill="white"></path>
    <path d="M57.0464 21.8058C57.0464 21.1806 57.5077 20.7378 58.1118 20.7378C58.7159 20.7378 59.1772 21.1806 59.1772 21.8058C59.1772 22.431 58.7159 22.8739 58.1118 22.8739C57.5077 22.8739 57.0464 22.431 57.0464 21.8058ZM57.2673 24.6062H58.9151V34.8785H57.2673V24.6062Z" fill="white"></path>
    <path d="M70.3266 29.1581V34.8782H68.6787V29.258C68.6787 27.1241 67.6935 25.9953 65.9071 25.9953C63.9777 25.9953 62.8128 27.4258 62.8128 29.7421V34.8782H61.1649V24.6059H62.5919L62.8128 25.9953C63.4147 25.2094 64.4606 24.4844 66.1886 24.4844C68.499 24.4844 70.3266 25.7543 70.3266 29.1581Z" fill="white"></path>
    <path d="M73.1979 26.1171H71.3486V24.6063H73.1979V21.7256H74.8457V24.6063H77.4983V26.1171H74.8457V32.1802C74.8457 33.0464 75.1467 33.3677 76.0301 33.3677H77.6585V34.8785H75.8699C73.9016 34.8785 73.1979 34.0124 73.1979 32.1998V26.1171Z" fill="white"></path>
    <path d="M78.4619 29.7421C78.4619 26.6205 80.4302 24.4844 83.3253 24.4844C86.2203 24.4844 88.1064 26.3165 88.1887 29.36C88.1887 29.5814 88.1692 29.8224 88.1475 30.0655H80.192V30.2066C80.2526 32.1604 81.4782 33.5302 83.427 33.5302C84.8735 33.5302 85.9995 32.7639 86.3394 31.4353H88.0068C87.604 33.4889 85.9172 34.9998 83.5461 34.9998C80.4713 34.9998 78.4619 32.8854 78.4619 29.7421ZM86.4196 28.6936C86.2593 26.92 85.0532 25.9345 83.3447 25.9345C81.8376 25.9345 80.4518 27.0221 80.2916 28.6936H86.4196Z" fill="white"></path>
    <path d="M89.7131 29.7616C89.7131 26.6205 91.742 24.4844 94.7151 24.4844C97.2269 24.4844 98.8141 25.8954 99.2363 28.1509H97.5084C97.2074 26.7811 96.2027 25.9562 94.6956 25.9562C92.7273 25.9562 91.3999 27.5279 91.3999 29.7638C91.3999 31.9997 92.7251 33.5302 94.6956 33.5302C96.1615 33.5302 97.1662 32.6835 97.4889 31.3745H99.2363C98.8336 33.5909 97.1662 34.9998 94.6761 34.9998C91.6814 34.9998 89.7131 32.9657 89.7131 29.7638V29.7616Z" fill="white"></path>
    <path d="M110.228 29.1581V34.8782H108.58V29.258C108.58 27.1241 107.556 25.9953 105.787 25.9953C103.877 25.9953 102.692 27.4258 102.692 29.7421V34.8782H101.044V20.7788H102.692V26.297C103.294 25.3288 104.34 24.4844 106.068 24.4844C108.359 24.4844 110.228 25.7543 110.228 29.1581Z" fill="white"></path>
    <path d="M46.3777 7.17019C46.3777 2.9002 49.0108 0 53.0881 0C56.2019 0 58.4734 1.81263 58.9952 4.73454H57.146C56.6025 2.78081 55.1171 1.61291 53.008 1.61291C50.0545 1.61291 48.1663 3.90963 48.1663 7.17236C48.1663 10.4351 49.9743 12.7318 52.9279 12.7318C55.0976 12.7318 56.6047 11.5835 57.1265 9.61018H58.9758C58.4539 12.5299 56.1218 14.3447 52.9474 14.3447C48.909 14.3447 46.3777 11.4836 46.3777 7.17453V7.17019Z" fill="white"></path>
    <path d="M60.4807 9.08485C60.4807 5.96323 62.5703 3.82715 65.565 3.82715C68.5597 3.82715 70.6492 5.96323 70.6492 9.08485C70.6492 12.2065 68.5597 14.3426 65.565 14.3426C62.5703 14.3426 60.4807 12.2065 60.4807 9.08485ZM68.9603 9.08485C68.9603 6.89016 67.5939 5.29896 65.565 5.29896C63.536 5.29896 62.1697 6.89016 62.1697 9.08485C62.1697 11.2795 63.536 12.8708 65.565 12.8708C67.5939 12.8708 68.9603 11.2795 68.9603 9.08485Z" fill="white"></path>
    <path d="M72.5353 0.121582H74.1831V14.221H72.5353V0.121582Z" fill="white"></path>
    <path d="M76.0713 9.08485C76.0713 5.96323 78.1609 3.82715 81.1556 3.82715C84.1503 3.82715 86.2398 5.96323 86.2398 9.08485C86.2398 12.2065 84.1503 14.3426 81.1556 14.3426C78.1609 14.3426 76.0713 12.2065 76.0713 9.08485ZM84.5508 9.08485C84.5508 6.89016 83.1845 5.29896 81.1556 5.29896C79.1266 5.29896 77.7603 6.89016 77.7603 9.08485C77.7603 11.2795 79.1266 12.8708 81.1556 12.8708C83.1845 12.8708 84.5508 11.2795 84.5508 9.08485Z" fill="white"></path>
    <path d="M103.437 8.2988V14.2208H101.789V8.39866C101.789 6.38415 100.906 5.33782 99.3576 5.33782C97.6491 5.33782 96.6054 6.62728 96.6054 8.72211V14.2208H94.9576V8.39866C94.9576 6.38415 94.0546 5.33782 92.4869 5.33782C90.8001 5.33782 89.7737 6.74884 89.7737 8.80243V14.2208H88.1259V3.9485H89.5528L89.7737 5.35952C90.3172 4.61494 91.1812 3.8291 92.7684 3.8291C94.1954 3.8291 95.4209 4.47383 96.0034 5.78283C96.6271 4.67572 97.7314 3.8291 99.559 3.8291C101.688 3.8291 103.437 5.05778 103.437 8.30097V8.2988Z" fill="white"></path>
    <path d="M115.63 9.08486C115.63 12.2282 113.541 14.3426 110.708 14.3426C108.98 14.3426 107.815 13.6371 107.192 12.6515L106.971 14.2232H105.544V0.121582H107.192V5.60071C107.874 4.65424 108.98 3.82716 110.708 3.82716C113.541 3.82716 115.63 5.73964 115.63 9.08486ZM113.943 9.08486C113.943 6.84893 112.577 5.29897 110.548 5.29897C108.519 5.29897 107.172 6.8511 107.172 9.04579C107.172 11.2405 108.539 12.8729 110.548 12.8729C112.558 12.8729 113.943 11.323 113.943 9.08704V9.08486Z" fill="white"></path>
    <path d="M117.298 1.14812C117.298 0.522924 117.759 0.0800781 118.363 0.0800781C118.967 0.0800781 119.428 0.522924 119.428 1.14812C119.428 1.77331 118.967 2.21616 118.363 2.21616C117.759 2.21616 117.298 1.77331 117.298 1.14812ZM117.518 3.94846H119.166V14.2207H117.518V3.94846Z" fill="white"></path>
    <path d="M131 12.7101V14.221H130.095C128.729 14.221 128.267 13.637 128.246 12.6298C127.603 13.5567 126.578 14.3426 124.809 14.3426C122.559 14.3426 121.033 13.2137 121.033 11.3403C121.033 9.28674 122.46 8.13838 125.151 8.13838H128.166V7.43287C128.166 6.10433 127.221 5.29679 125.615 5.29679C124.168 5.29679 123.205 5.98059 123.003 7.0291H121.355C121.596 5.01458 123.224 3.82715 125.695 3.82715C128.306 3.82715 129.813 5.13615 129.813 7.53272V12.0241C129.813 12.5668 130.015 12.7079 130.476 12.7079H130.998L131 12.7101ZM128.168 9.5277H124.993C123.527 9.5277 122.702 10.0726 122.702 11.2405C122.702 12.2477 123.566 12.9315 124.933 12.9315C126.981 12.9315 128.168 11.7441 128.168 10.0313V9.5277Z" fill="white"></path>
    <path d="M0 16.1508C0 15.5018 0.498033 15.0003 1.14764 15.0003H3.94096C4.5884 15.0003 5.0886 14.501 5.0886 13.8498V11.1493C5.0886 10.5002 5.58663 9.99876 6.23624 9.99876H9.02956C9.677 9.99876 10.1772 9.49947 10.1772 8.84823V6.14774C10.1772 5.49867 10.6752 4.99721 11.3248 4.99721H14.1182C14.7656 4.99721 15.2658 4.49792 15.2658 3.84668V1.15053C15.2615 0.501458 15.7595 0 16.4091 0H19.2024C19.8499 0 20.3501 0.499287 20.3501 1.15053V3.85102C20.3501 4.50009 20.8481 5.00155 21.4977 5.00155H24.291C24.9385 5.00155 25.4387 5.50084 25.4387 6.15208V8.85257C25.4387 9.50164 25.9367 10.0031 26.5863 10.0031H29.3796C30.0271 10.0031 30.5273 10.5024 30.5273 11.1536V13.8541C30.5273 14.5032 31.0253 15.0047 31.6749 15.0047H34.4682C35.1157 15.0047 35.6159 15.5039 35.6159 16.1552V18.8557C35.6159 19.5047 35.1178 20.0062 34.4682 20.0062H31.6749C31.0275 20.0062 30.5273 20.5055 30.5273 21.1567V23.8572C30.5273 24.5063 30.0292 25.0078 29.3796 25.0078H26.5863C25.9389 25.0078 25.4387 25.507 25.4387 26.1583V28.8588C25.4387 29.5078 24.9406 30.0093 24.291 30.0093H21.4977C20.8503 30.0093 20.3501 30.5086 20.3501 31.1598V33.8603C20.3501 34.5094 19.852 35.0109 19.2024 35.0109H16.4091C15.7617 35.0109 15.2615 34.5116 15.2615 33.8603V31.1598C15.2615 30.5108 14.7634 30.0093 14.1138 30.0093H11.3205C10.6731 30.0093 10.1729 29.51 10.1729 28.8588V26.1583C10.1729 25.5092 9.67483 25.0078 9.02522 25.0078H6.23191C5.58447 25.0078 5.08427 24.5085 5.08427 23.8572V21.1567C5.08427 20.5077 4.58623 20.0062 3.93663 20.0062H1.14764C0.500198 20.0062 0 19.5069 0 18.8557V16.1552V16.1508ZM30.5229 18.8492V16.1487C30.5229 15.4996 30.0249 14.9981 29.3753 14.9981H26.582C25.9345 14.9981 25.4343 14.4989 25.4343 13.8476V11.1471C25.4343 10.498 24.9363 9.99659 24.2867 9.99659H21.4934C20.8459 9.99659 20.3457 9.4973 20.3457 8.84606V6.14557C20.3457 5.4965 19.8477 4.99504 19.1981 4.99504H16.4048C15.7573 4.99504 15.2571 5.49433 15.2571 6.14557V8.84606C15.2571 9.49513 14.7591 9.99659 14.1095 9.99659H11.3162C10.6687 9.99659 10.1685 10.4959 10.1685 11.1471V13.8476C10.1685 14.4967 9.6705 14.9981 9.02089 14.9981H6.22758C5.58013 14.9981 5.07994 15.4974 5.07994 16.1487V18.8492C5.07994 19.4982 5.57797 19.9997 6.22758 19.9997H9.02089C9.66834 19.9997 10.1685 20.499 10.1685 21.1502V23.8507C10.1685 24.4998 10.6666 25.0012 11.3162 25.0012H14.1095C14.7569 25.0012 15.2571 25.5005 15.2571 26.1518V28.8523C15.2571 29.5013 15.7552 30.0028 16.4048 30.0028H19.1981C19.8455 30.0028 20.3457 29.5035 20.3457 28.8523V26.1518C20.3457 25.5027 20.8438 25.0012 21.4934 25.0012H24.2867C24.9341 25.0012 25.4343 24.502 25.4343 23.8507V21.1502C25.4343 20.5011 25.9324 19.9997 26.582 19.9997H29.3753C30.0227 19.9997 30.5229 19.5004 30.5229 18.8492Z" fill="white"></path>
  </g>
  <defs>
    <clipPath id="clip0_751_3698">
      <rect width="131" height="35" fill="white"></rect>
    </clipPath>
  </defs>
</svg>
