<svg width="25" height="25" viewBox="0 0 25 25" fill="none" xmlns="http://www.w3.org/2000/svg">
<path d="M12.5 22.5361C6.97715 22.5361 2.5 18.0589 2.5 12.5361C2.5 7.01328 6.97715 2.53613 12.5 2.53613C18.0228 2.53613 22.5 7.01328 22.5 12.5361C22.5 18.0589 18.0228 22.5361 12.5 22.5361ZM10.21 20.2035C9.24743 18.162 8.65732 15.9103 8.52731 13.5361H4.56189C4.958 16.7126 7.21639 19.3108 10.21 20.2035ZM10.5307 13.5361C10.6811 15.9749 11.3778 18.2658 12.5 20.2881C13.6222 18.2658 14.3189 15.9749 14.4693 13.5361H10.5307ZM20.4381 13.5361H16.4727C16.3427 15.9103 15.7526 18.162 14.79 20.2035C17.7836 19.3108 20.042 16.7126 20.4381 13.5361ZM4.56189 11.5361H8.52731C8.65732 9.1619 9.24743 6.9102 10.21 4.86869C7.21639 5.76146 4.958 8.35963 4.56189 11.5361ZM10.5307 11.5361H14.4693C14.3189 9.09735 13.6222 6.80638 12.5 4.78412C11.3778 6.80638 10.6811 9.09735 10.5307 11.5361ZM14.79 4.86869C15.7526 6.9102 16.3427 9.1619 16.4727 11.5361H20.4381C20.042 8.35963 17.7836 5.76146 14.79 4.86869Z" fill="#121211"/>
</svg>
