<svg width="58" height="25" viewBox="0 0 58 25" fill="none" xmlns="http://www.w3.org/2000/svg">
<rect y="0.0366821" width="24" height="24" rx="12" fill="#009393"/>
<path fill-rule="evenodd" clip-rule="evenodd" d="M12.016 11.9903C14.2298 11.9903 16.08 11.6076 16.5322 11.0961C16.1482 10.6624 14.7596 10.3208 12.996 10.2273V11.3077C12.6803 11.3245 12.352 11.3328 12.0157 11.3328C11.6794 11.3328 11.3512 11.3245 11.0348 11.3077V10.2273C9.27186 10.3208 7.88256 10.6624 7.49862 11.0961C7.95143 11.6076 9.8019 11.9903 12.0157 11.9903H12.016ZM15.9493 6.90461V8.39251H12.996V9.42426C15.0704 9.53452 16.6271 9.98803 16.6387 10.5307V11.6622C16.6271 12.2049 15.0704 12.6574 12.996 12.768V15.3002H11.0351V12.768C8.96066 12.6577 7.40465 12.2049 7.39307 11.6622V10.5307C7.40465 9.98803 8.96066 9.53452 11.0351 9.42426V8.39251H8.08177V6.90461H15.9497H15.9493ZM6.92031 4.53668H17.2881C17.5359 4.53668 17.7641 4.66997 17.8877 4.88652L20.908 10.1904C21.0644 10.4656 21.018 10.8128 20.7947 11.0356L12.4807 19.335C12.2111 19.6039 11.7779 19.6039 11.5088 19.335L3.2052 11.0468C2.97703 10.8184 2.9339 10.4613 3.10222 10.1848L6.33106 4.87007C6.45689 4.66339 6.68023 4.53701 6.92063 4.53701L6.92031 4.53668Z" fill="white"/>
<rect x="34" y="0.0366821" width="24" height="24" rx="12" fill="#2775CA"/>
<path d="M49.2985 13.9363C49.2985 12.1863 48.2485 11.5863 46.1485 11.3364C44.6485 11.1363 44.3485 10.7364 44.3485 10.0363C44.3485 9.33621 44.8485 8.88633 45.8485 8.88633C46.7485 8.88633 47.2485 9.18633 47.4985 9.93633C47.5485 10.0863 47.6985 10.1863 47.8485 10.1863H48.6484C48.8485 10.1863 48.9985 10.0363 48.9985 9.83637V9.78633C48.7984 8.68629 47.8984 7.83633 46.7485 7.73637V6.53637C46.7485 6.33633 46.5985 6.18633 46.3485 6.13629H45.5985C45.3985 6.13629 45.2485 6.28629 45.1984 6.53637V7.68633C43.6984 7.88637 42.7485 8.88633 42.7485 10.1364C42.7485 11.7864 43.7485 12.4363 45.8485 12.6864C47.2485 12.9363 47.6985 13.2363 47.6985 14.0364C47.6985 14.8364 46.9984 15.3864 46.0485 15.3864C44.7484 15.3864 44.2984 14.8363 44.1484 14.0863C44.0985 13.8864 43.9485 13.7863 43.7985 13.7863H42.9484C42.7485 13.7863 42.5985 13.9363 42.5985 14.1363V14.1864C42.7984 15.4363 43.5985 16.3363 45.2485 16.5864V17.7864C45.2485 17.9863 45.3985 18.1363 45.6484 18.1863H46.3984C46.5985 18.1863 46.7485 18.0363 46.7985 17.7864V16.5864C48.2985 16.3363 49.2985 15.2863 49.2985 13.9363Z" fill="white"/>
<path d="M43.449 19.1861C39.549 17.7862 37.549 13.4362 38.9991 9.58611C39.7491 7.48611 41.3991 5.88615 43.449 5.13615C43.6491 5.03619 43.749 4.88619 43.749 4.63611V3.93615C43.749 3.73611 43.6491 3.58611 43.449 3.53619C43.399 3.53619 43.299 3.53619 43.249 3.58611C38.499 5.08611 35.899 10.1362 37.399 14.8862C38.299 17.6861 40.449 19.8362 43.249 20.7362C43.449 20.8361 43.6491 20.7362 43.699 20.5361C43.749 20.4862 43.749 20.4362 43.749 20.3362V19.6361C43.749 19.4861 43.599 19.2862 43.449 19.1861ZM48.7491 3.58611C48.549 3.48615 48.349 3.58611 48.2991 3.78615C48.249 3.83619 48.249 3.88611 48.249 3.98619V4.68615C48.249 4.88619 48.399 5.08611 48.549 5.18619C52.449 6.58611 54.4491 10.9361 52.999 14.7862C52.249 16.8862 50.599 18.4862 48.549 19.2362C48.349 19.3361 48.249 19.4861 48.249 19.7362V20.4362C48.249 20.6362 48.349 20.7862 48.549 20.8361C48.5991 20.8361 48.699 20.8361 48.7491 20.7862C53.499 19.2862 56.0991 14.2361 54.5991 9.48615C53.6991 6.63615 51.499 4.48611 48.7491 3.58611Z" fill="white"/>
</svg>
