<svg width="432" height="273" viewBox="0 0 432 273" fill="none" xmlns="http://www.w3.org/2000/svg">
<rect x="62.6273" y="0.490619" width="110.88" height="46.1182" rx="9.32176" stroke="#D9D9D9" stroke-width="0.981237"/>
<g clip-path="url(#clip0_2930_1989)">
<path d="M68.916 6.9165H117.978V39.6244H68.916V6.9165Z" fill="#009B3A"/>
<path d="M93.4476 8.76221L113.044 23.2417L93.4476 37.7116L73.7559 23.2417L93.4476 8.76221Z" fill="#FEDF00"/>
<path d="M93.447 30.96C97.6937 30.96 101.136 27.5174 101.136 23.2708C101.136 19.0241 97.6937 15.5815 93.447 15.5815C89.2004 15.5815 85.7578 19.0241 85.7578 23.2708C85.7578 27.5174 89.2004 30.96 93.447 30.96Z" fill="white"/>
<path d="M89.5655 22.7636C88.2362 22.7636 86.9451 22.9644 85.7305 23.3374C85.7879 27.5359 89.2021 30.9214 93.4101 30.9214C96.0115 30.9214 98.3163 29.6208 99.7031 27.6411C97.3217 24.6763 93.6588 22.7636 89.5655 22.7636ZM100.946 24.705C101.032 24.2268 101.09 23.7391 101.09 23.2322C101.09 18.9859 97.6469 15.543 93.4006 15.543C90.235 15.543 87.5189 17.4653 86.333 20.1909C87.3754 19.9805 88.4466 19.8658 89.5464 19.8658C94.0222 19.8753 98.0581 21.7307 100.946 24.705Z" fill="#002776"/>
</g>
<rect x="126.793" y="7.10693" width="32.7079" height="32.7079" rx="16.354" fill="#009393"/>
<path fill-rule="evenodd" clip-rule="evenodd" d="M143.168 24.0789C146.185 24.0789 148.707 23.5573 149.323 22.8603C148.8 22.2692 146.907 21.8036 144.504 21.6762V23.1487C144.073 23.1716 143.626 23.1828 143.168 23.1828C142.709 23.1828 142.262 23.1716 141.831 23.1487V21.6762C139.428 21.8036 137.535 22.2692 137.012 22.8603C137.629 23.5573 140.151 24.0789 143.168 24.0789H143.168ZM148.529 17.148V19.1757H144.504V20.5818C147.331 20.7321 149.452 21.3502 149.468 22.0898V23.6318C149.452 24.3714 147.331 24.9881 144.504 25.1388V28.5897H141.831V25.1388C139.004 24.9885 136.884 24.3714 136.868 23.6318V22.0898C136.884 21.3502 139.004 20.7321 141.831 20.5818V19.1757H137.806V17.148H148.529H148.529ZM136.224 13.9209H150.353C150.691 13.9209 151.002 14.1025 151.17 14.3977L155.286 21.626C155.5 22.001 155.436 22.4741 155.132 22.7778L143.802 34.0885C143.434 34.455 142.844 34.455 142.477 34.0885L131.161 22.793C130.85 22.4818 130.791 21.9951 131.02 21.6184L135.421 14.3752C135.592 14.0936 135.896 13.9213 136.224 13.9213L136.224 13.9209Z" fill="white"/>
<rect x="239.803" y="22.7123" width="110.88" height="46.1182" rx="9.32176" stroke="#D9D9D9" stroke-width="0.981237"/>
<g clip-path="url(#clip1_2930_1989)">
<path d="M245.41 29.7671H294.469V62.4723H245.41V29.7671Z" fill="white"/>
<path d="M245.41 29.7671H261.763V62.4734H245.41V29.7671ZM278.116 29.7671H294.469V62.4734H278.116V29.7671Z" fill="#D80027"/>
</g>
<rect x="303.969" y="29.7788" width="32.7079" height="32.7079" rx="16.354" fill="#009393"/>
<path fill-rule="evenodd" clip-rule="evenodd" d="M320.344 46.7508C323.361 46.7508 325.882 46.2292 326.499 45.5322C325.975 44.941 324.083 44.4755 321.679 44.3481V45.8206C321.249 45.8435 320.802 45.8547 320.344 45.8547C319.885 45.8547 319.438 45.8435 319.007 45.8206V44.3481C316.604 44.4755 314.711 44.941 314.188 45.5322C314.805 46.2292 317.326 46.7508 320.344 46.7508H320.344ZM325.704 39.8199V41.8476H321.679V43.2537C324.507 43.404 326.628 44.022 326.644 44.7616V46.3036C326.628 47.0432 324.507 47.66 321.679 47.8107V51.2616H319.007V47.8107C316.18 47.6604 314.059 47.0432 314.044 46.3036V44.7616C314.059 44.022 316.18 43.404 319.007 43.2537V41.8476H314.982V39.8199H325.705H325.704ZM313.399 36.5928H327.529C327.867 36.5928 328.178 36.7744 328.346 37.0695L332.462 44.2979C332.675 44.6728 332.612 45.146 332.308 45.4497L320.977 56.7604C320.61 57.1268 320.019 57.1268 319.653 56.7604L308.336 45.4649C308.025 45.1536 307.967 44.667 308.196 44.2902L312.596 37.0471C312.768 36.7655 313.072 36.5932 313.4 36.5932L313.399 36.5928Z" fill="white"/>
<g clip-path="url(#clip2_2930_1989)">
<path d="M170.52 109.485H219.578V120.387H170.52V109.485Z" fill="#D52B1E"/>
<path d="M170.52 120.387H219.578V131.289H170.52V120.387Z" fill="#F9E300"/>
<path d="M170.52 131.29H219.578V142.192H170.52V131.29Z" fill="#007934"/>
</g>
<rect x="228.396" y="109.549" width="32.7079" height="32.7079" rx="16.354" fill="#009393"/>
<path fill-rule="evenodd" clip-rule="evenodd" d="M244.772 126.521C247.789 126.521 250.31 126 250.926 125.303C250.403 124.712 248.511 124.246 246.107 124.119V125.591C245.677 125.614 245.23 125.625 244.771 125.625C244.313 125.625 243.866 125.614 243.434 125.591V124.119C241.032 124.246 239.138 124.712 238.615 125.303C239.232 126 241.754 126.521 244.771 126.521H244.772ZM250.132 119.59V121.618H246.107V123.024C248.934 123.174 251.056 123.793 251.072 124.532V126.074C251.056 126.814 248.934 127.43 246.107 127.581V131.032H243.435V127.581C240.608 127.431 238.487 126.814 238.471 126.074V124.532C238.487 123.793 240.608 123.174 243.435 123.024V121.618H239.41V119.59H250.133H250.132ZM237.827 116.363H251.957C252.294 116.363 252.605 116.545 252.774 116.84L256.89 124.068C257.103 124.443 257.04 124.917 256.736 125.22L245.405 136.531C245.037 136.897 244.447 136.897 244.08 136.531L232.764 125.235C232.453 124.924 232.394 124.438 232.624 124.061L237.024 116.818C237.196 116.536 237.5 116.364 237.828 116.364L237.827 116.363Z" fill="white"/>
<rect x="164.231" y="102.933" width="110.88" height="46.1182" rx="9.32176" stroke="#D9D9D9" stroke-width="0.981237"/>
<rect x="0.490619" y="143.627" width="110.88" height="46.1182" rx="9.32176" stroke="#D9D9D9" stroke-width="0.981237"/>
<g clip-path="url(#clip3_2930_1989)">
<path d="M6.7793 149.574H55.8382V182.279H6.7793V149.574Z" fill="#FFDA44"/>
<path d="M6.7793 174.272H55.8382V182.279H6.7793V174.272Z" fill="#D80027"/>
<path d="M6.7793 165.926H55.8382V174.272H6.7793V165.926Z" fill="#0052B4"/>
</g>
<rect x="64.6562" y="150.244" width="32.7079" height="32.7079" rx="16.354" fill="#009393"/>
<path fill-rule="evenodd" clip-rule="evenodd" d="M81.0315 167.216C84.0485 167.216 86.57 166.695 87.1862 165.998C86.6629 165.406 84.7704 164.941 82.367 164.813V166.286C81.9367 166.309 81.4894 166.32 81.031 166.32C80.5727 166.32 80.1253 166.309 79.6942 166.286V164.813C77.2916 164.941 75.3982 165.406 74.875 165.998C75.4921 166.695 78.014 167.216 81.031 167.216H81.0315ZM86.3919 160.285V162.313H82.367V163.719C85.1941 163.869 87.3156 164.487 87.3313 165.227V166.769C87.3156 167.509 85.1941 168.125 82.367 168.276V171.727H79.6946V168.276C76.8675 168.126 74.7469 167.509 74.7311 166.769V165.227C74.7469 164.487 76.8675 163.869 79.6946 163.719V162.313H75.6697V160.285H86.3923H86.3919ZM74.0869 157.058H88.2164C88.5541 157.058 88.8651 157.24 89.0335 157.535L93.1497 164.763C93.3628 165.138 93.2997 165.611 92.9953 165.915L81.6648 177.226C81.2973 177.592 80.7069 177.592 80.3403 177.226L69.0238 165.93C68.7128 165.619 68.6541 165.132 68.8834 164.756L73.2838 157.512C73.4553 157.231 73.7597 157.059 74.0873 157.059L74.0869 157.058Z" fill="white"/>
<rect x="320.412" y="120.116" width="110.88" height="46.1182" rx="9.32176" stroke="#D9D9D9" stroke-width="0.981237"/>
<g clip-path="url(#clip4_2930_1989)">
<path d="M326.068 127.175H375.032V159.881H326.068V127.175Z" fill="white"/>
<path d="M326.068 127.175H375.032V138.077H326.068V127.175ZM326.068 148.979H375.032V159.881H326.068V148.979Z" fill="#338AF3"/>
<path d="M350.599 147.353C352.711 147.353 354.424 145.64 354.424 143.527C354.424 141.415 352.711 139.702 350.599 139.702C348.486 139.702 346.773 141.415 346.773 143.527C346.773 145.64 348.486 147.353 350.599 147.353Z" fill="#FFDA44"/>
<path fill-rule="evenodd" clip-rule="evenodd" d="M350.598 139.942C348.617 139.942 347.011 141.547 347.011 143.528C347.011 145.508 348.617 147.114 350.598 147.114C352.578 147.114 354.184 145.508 354.184 143.528C354.184 141.547 352.578 139.942 350.598 139.942ZM346.533 143.528C346.533 141.283 348.353 139.463 350.598 139.463C352.842 139.463 354.662 141.283 354.662 143.528C354.662 145.772 352.842 147.592 350.598 147.592C348.353 147.592 346.533 145.772 346.533 143.528Z" fill="#D6AB00"/>
</g>
<rect x="384.578" y="127.183" width="32.7079" height="32.7079" rx="16.354" fill="#009393"/>
<path fill-rule="evenodd" clip-rule="evenodd" d="M400.953 144.155C403.97 144.155 406.492 143.633 407.108 142.936C406.585 142.345 404.692 141.879 402.289 141.752V143.224C401.859 143.247 401.411 143.258 400.953 143.258C400.495 143.258 400.047 143.247 399.616 143.224V141.752C397.213 141.879 395.32 142.345 394.797 142.936C395.414 143.633 397.936 144.155 400.953 144.155H400.953ZM406.314 137.224V139.251H402.289V140.658C405.116 140.808 407.237 141.426 407.253 142.165V143.707C407.237 144.447 405.116 145.064 402.289 145.214V148.665H399.617V145.214C396.789 145.064 394.669 144.447 394.653 143.707V142.165C394.669 141.426 396.789 140.808 399.617 140.658V139.251H395.592V137.224H406.314H406.314ZM394.009 133.997H408.138C408.476 133.997 408.787 134.178 408.955 134.473L413.072 141.702C413.285 142.077 413.222 142.55 412.917 142.853L401.587 154.164C401.219 154.531 400.629 154.531 400.262 154.164L388.946 142.869C388.635 142.557 388.576 142.071 388.805 141.694L393.206 134.451C393.377 134.169 393.682 133.997 394.009 133.997L394.009 133.997Z" fill="white"/>
<rect x="239.803" y="200.337" width="110.88" height="46.1182" rx="9.32176" stroke="#D9D9D9" stroke-width="0.981237"/>
<g clip-path="url(#clip5_2930_1989)">
<path d="M296.473 207.213H345.535V239.921H296.473V207.213Z" fill="#009B3A"/>
<path d="M321.004 209.059L340.6 223.538L321.004 238.008L301.312 223.538L321.004 209.059Z" fill="#FEDF00"/>
<path d="M321.004 231.256C325.25 231.256 328.693 227.814 328.693 223.567C328.693 219.321 325.25 215.878 321.004 215.878C316.757 215.878 313.314 219.321 313.314 223.567C313.314 227.814 316.757 231.256 321.004 231.256Z" fill="white"/>
<path d="M317.122 223.06C315.793 223.06 314.502 223.261 313.287 223.634C313.344 227.832 316.759 231.218 320.967 231.218C323.568 231.218 325.873 229.917 327.26 227.937C324.878 224.973 321.215 223.06 317.122 223.06ZM328.503 225.001C328.589 224.523 328.646 224.035 328.646 223.529C328.646 219.282 325.204 215.839 320.957 215.839C317.792 215.839 315.076 217.762 313.89 220.487C314.932 220.277 316.003 220.162 317.103 220.162C321.579 220.172 325.615 222.027 328.503 225.001Z" fill="#002776"/>
</g>
<g clip-path="url(#clip6_2930_1989)">
<path d="M246.092 207.339H295.151V218.241H246.092V207.339Z" fill="#D52B1E"/>
<path d="M246.092 218.241H295.151V229.143H246.092V218.241Z" fill="#F9E300"/>
<path d="M246.092 229.144H295.151V240.046H246.092V229.144Z" fill="#007934"/>
</g>
<rect x="82.7797" y="226.367" width="110.88" height="46.1182" rx="9.32176" stroke="#D9D9D9" stroke-width="0.981237"/>
<g clip-path="url(#clip7_2930_1989)">
<path d="M88.3887 233.435H137.448V266.14H88.3887V233.435Z" fill="white"/>
<path d="M88.3887 233.435H137.448V244.336H88.3887V233.435Z" fill="#D80027"/>
<path d="M88.3887 255.238H137.448V266.14H88.3887V255.238Z" fill="#0052B4"/>
<path d="M116.135 246.025L114.928 247.231C115.443 247.746 115.761 248.457 115.761 249.242C115.761 250.813 114.488 252.086 112.917 252.086C111.347 252.086 110.074 250.813 110.074 249.242C110.074 248.457 110.392 247.746 110.907 247.231L109.7 246.025C108.877 246.848 108.367 247.986 108.367 249.242C108.367 251.756 110.404 253.793 112.917 253.793C115.431 253.793 117.468 251.756 117.468 249.242C117.468 247.986 116.958 246.848 116.135 246.025Z" fill="#6DA544"/>
<path d="M112.917 247.536L113.341 248.84H114.711L113.603 249.645L114.026 250.949L112.917 250.143L111.808 250.949L112.232 249.645L111.123 248.84H112.494L112.917 247.536Z" fill="#FFDA44"/>
</g>
<rect x="146.945" y="233.434" width="32.7079" height="32.7079" rx="16.354" fill="#009393"/>
<path fill-rule="evenodd" clip-rule="evenodd" d="M163.321 250.406C166.338 250.406 168.859 249.884 169.475 249.187C168.952 248.596 167.059 248.131 164.656 248.003V249.476C164.226 249.499 163.778 249.51 163.32 249.51C162.862 249.51 162.414 249.499 161.983 249.476V248.003C159.581 248.131 157.687 248.596 157.164 249.187C157.781 249.884 160.303 250.406 163.32 250.406H163.321ZM168.681 243.475V245.503H164.656V246.909C167.483 247.059 169.605 247.677 169.62 248.417V249.959C169.605 250.699 167.483 251.315 164.656 251.466V254.917H161.984V251.466C159.157 251.316 157.036 250.699 157.02 249.959V248.417C157.036 247.677 159.157 247.059 161.984 246.909V245.503H157.959V243.475H168.681H168.681ZM156.376 240.248H170.505C170.843 240.248 171.154 240.43 171.323 240.725L175.439 247.953C175.652 248.328 175.589 248.801 175.284 249.105L163.954 260.416C163.586 260.782 162.996 260.782 162.629 260.416L151.313 249.12C151.002 248.809 150.943 248.322 151.173 247.946L155.573 240.702C155.744 240.421 156.049 240.248 156.376 240.248L156.376 240.248Z" fill="white"/>
<defs>
<clipPath id="clip0_2930_1989">
<rect x="76.4121" y="7.10693" width="32.7079" height="32.7079" rx="16.354" fill="white"/>
</clipPath>
<clipPath id="clip1_2930_1989">
<rect x="253.586" y="29.7788" width="32.7059" height="32.7059" rx="16.353" fill="white"/>
</clipPath>
<clipPath id="clip2_2930_1989">
<rect x="178.014" y="109.549" width="32.7059" height="32.7059" rx="16.353" fill="white"/>
</clipPath>
<clipPath id="clip3_2930_1989">
<rect x="14.2754" y="149.854" width="32.7059" height="32.7059" rx="16.353" fill="white"/>
</clipPath>
<clipPath id="clip4_2930_1989">
<rect x="334.197" y="127.183" width="32.7059" height="32.7059" rx="16.353" fill="white"/>
</clipPath>
<clipPath id="clip5_2930_1989">
<rect x="303.969" y="207.403" width="32.7079" height="32.7079" rx="16.354" fill="white"/>
</clipPath>
<clipPath id="clip6_2930_1989">
<rect x="253.586" y="207.403" width="32.7059" height="32.7059" rx="16.353" fill="white"/>
</clipPath>
<clipPath id="clip7_2930_1989">
<rect x="96.5645" y="233.434" width="32.7059" height="32.7059" rx="16.353" fill="white"/>
</clipPath>
</defs>
</svg>
