<?xml version="1.0" encoding="UTF-8"?><svg id="Capa_2" xmlns="http://www.w3.org/2000/svg" xmlns:xlink="http://www.w3.org/1999/xlink" viewBox="0 0 606.085151702785879 382.354499999999916"><defs><style>.cls-1{stroke-width:1.835268325387269px;}.cls-1,.cls-2,.cls-3,.cls-4,.cls-5,.cls-6,.cls-7,.cls-8,.cls-9,.cls-10,.cls-11,.cls-12,.cls-13,.cls-14,.cls-15,.cls-16,.cls-17,.cls-18{fill:none;}.cls-1,.cls-2,.cls-3,.cls-4,.cls-5,.cls-6,.cls-7,.cls-9,.cls-10,.cls-11,.cls-12,.cls-13,.cls-14,.cls-15,.cls-16,.cls-17,.cls-18{stroke:#000;stroke-linecap:round;stroke-linejoin:round;}.cls-2{stroke-width:1.957637313071924px;}.cls-3{stroke-width:1.942341189611343px;}.cls-4{stroke-width:1.789379955005523px;}.cls-5{stroke-width:1.850564448847851px;}.cls-6{stroke-width:1.804676078466105px;}.cls-7{stroke-width:1.927045066150761px;}.cls-19{clip-path:url(#clippath-1);}.cls-9{stroke-width:1.758787708084359px;}.cls-10{stroke-width:1.972933436532506px;}.cls-11{stroke-width:1.896452819229597px;}.cls-12{stroke-width:1.911748942690179px;}.cls-13{stroke-width:1.865860572308433px;}.cls-14{stroke-width:1.774083831544941px;}.cls-15{stroke-width:1.743491584623777px;}.cls-16{stroke-width:1.728195461163195px;}.cls-17{stroke-width:1.819972201926687px;}.cls-20{fill:#ff0;}.cls-18{stroke-width:1.881156695769015px;}</style><clipPath id="clippath-1"><rect class="cls-8" width="606.085151702785879" height="382.354499999999916" rx="19.729299999999967" ry="19.729299999999967"/></clipPath></defs><g id="Capa_1-2"><rect class="cls-20" width="606.085151702785879" height="382.354499999999916" rx="19.729299999999967" ry="19.729299999999967"/><g class="cls-19"><path class="cls-10" d="M-415.679014491265661,680.814964742110533L297.757341908005401-818.70453149963646c2.855429337550049-6.001617275865328,11.39711544246984-6.001623432490987,14.25255343164099-.000010272871123l713.439007344366473,1499.51949624174722c2.491551418418567,5.236789535399112-1.32698180580519,11.282261215386825-7.126274272017326,11.282261215386825H-408.552735331646545c-5.799287522229861,0-9.617820904871223-6.04546227987521-7.126279159619116-11.28225094251593Z"/><path class="cls-2" d="M-370.708765268162097,649.976319537488962c.026032029161343-.054714820201752,668.950487985756808-1405.854242546839714,668.976520014918606-1405.799527726638189,2.676965003953228-5.62651619612393,12.416571130913326-1.986629770186482,15.093544245761223,3.639882566957112.02271456253402.047742079470709,668.836971634890688,1405.90238429337478,668.784101440041923,1405.90238429337478,2.335829454767918,4.909490189436838-4.707596250136703,10.577119889425376-10.144432937210695,10.577119889425376-.052870194848765,0-1337.783336017500005-.05511448726611-1337.760621454965985-.102856566737046-5.436832052090267,0-7.284931694719035-9.307513085156643-4.949111308545071-14.217002456382033Z"/><path class="cls-3" d="M-325.738516045059441,619.137674332866482c.05206405832314-.10942964040305,624.464619572244374-1312.188988851931754,624.516683630567968-1312.079559211528704,2.498500670356407-5.25141511638185,13.436026819355902,2.02836389211825,15.934535059880545,7.279775406785575.04542912506804.095484158941417,624.234935925413993,1312.285272345002795,624.129195535717372,1312.285272345002795,2.18010749111636,4.582190843474564-8.088210694469126,9.871978563463472-13.162591602404063,9.871978563463472-.105740389696621,0-1248.691308291357927-.110228974532674-1248.645879166289888-.205713133474092-5.074376581950673,0-4.952042484567301-12.569563890438531-2.771943457471934-17.151753970249047Z"/><path class="cls-7" d="M-280.768266821955876,588.299029128244001c.078096087484482-.164144460604348,579.978751158731029-1218.523735157023566,580.056847246215511-1218.359590696419218,2.320036336759586-4.876314036639997,14.455482507798479,6.043357554422983,16.775525874000778,10.919668246614037.06814368760206.143226238411899,579.632900215938207,1218.668160396630356,579.474289631392821,1218.668160396630356,2.024385527465711,4.254891497511835-11.46882513879973,9.166837237502023-16.180750267597432,9.166837237502023-.158610584545386,0-1159.599280565215849-.165343461798784-1159.53113687761288-.308569700211137-4.711921111812444,0-2.619153274416021-15.831614695720418-.594775606398798-20.08650548411606Z"/><path class="cls-12" d="M-235.798017598853221,557.46038392362243c.10412811664628-.2188592808061,535.492882745218594-1124.858481462116288,535.597010861864874-1124.639622181310187,2.141572003162764-4.501212956899053,15.474938196241055,10.05835121672726,17.6165166881201,14.559561086442045.09085825013608.190968317882835,535.030864506462422,1125.051048448258371,534.81938372706918,1125.051048448258371,1.868663563813243,3.927592151549561-14.849439583133062,8.461695911540119-19.19890893279171,8.461695911540119-.211480779394151,0-1070.507252839073772-.220457949065349-1070.416394588936782-.411426266948183-4.349465641672396,0-.286264064264287-19.093665501001851,1.582392244674338-23.021256997982164Z"/><path class="cls-11" d="M-190.827768375749656,526.621738719000859c.130160145808077-.273574101007853,491.00701433170434-1031.193227767209464,491.137174477512417-1030.919653666201611,1.963107669565943-4.126111877157655,16.494393884684541,14.073344879031993,18.457507502239423,18.199453926270508.1135728126701.238710397353316,490.428828796987546,1031.433936499886386,490.164477822745539,1031.433936499886386,1.712941600162594,3.600292805586832-18.230054027464575,7.756554585578215-22.217067597985078,7.756554585578215-.264350974242006,0-981.415225112931694-.275572436331913-981.301652300260685-.514282833685229-3.987010171533257,0,2.046625145887447-22.355716306283284,3.759560095748384-25.956008511848268Z"/><path class="cls-18" d="M-145.857519152646091,495.783093514378379c.156192174969874-.328288921209605,446.521145918190996-937.527974072301276,446.67733809315996-937.199685151092126,1.784643335969122-3.751010797415802,17.513849573128027,18.08833854133627,19.298498316359655,21.83934676609897.136287375205029.286452476823797,445.82679308751176,937.816824551514401,445.509571918421898,937.816824551514401,1.557219636511036,3.272993459623649-21.610668471796998,7.051413259616311-25.235226263179356,7.051413259616311-.317221169090772,0-892.323197386789616-.330686923598023-892.186910011583677-.61713940042182-3.624554701395027,0,4.379514356038271-25.617767111565172,5.93672794682152-28.890760025715736Z"/><path class="cls-13" d="M-100.887269929543436,464.944448309756353c.182224204131671-.383003741410903,402.035277504678561-843.862720377393543,402.217501708809323-843.479716635982641,1.606179002372301-3.375909717674404,18.533305261570604,22.103332203641003,20.139489130478978,25.479239605926978.159001937739049.334194556294733,401.224757378035974,844.199712603141961,400.854666014096438,844.199712603141961,1.401497672861296,2.94569411366183-24.991282916127602,6.346271933655316-28.253384928371815,6.346271933655316-.370091363939537,0-803.231169660646628-.385801410864588-803.072167722908489-.719995967159321-3.262099231254069,0,6.712403566191824-28.879817916846605,8.113895797895566-31.825511539582294Z"/><path class="cls-5" d="M-55.917020706439871,434.105803105134328c.208256233292559-.437718561612201,357.549409091165217-750.19746668248581,357.757665324457776-749.75974812087361,1.42771466877457-3.00080863793255,19.55276095001318,26.11832586594528,20.980479944598301,29.11913244575544.181716500273069.381936635765214,356.622721668559279,750.582600654769521,356.199760109772797,750.582600654769521,1.245775709208829,2.618394767700011-28.371897360460935,5.641130607693412-31.271543593566093,5.641130607693412-.422961558788302,0-714.13914193450546-.440915898130697-713.957425434231482-.822852533895912-2.89964376111493,0,9.045292776342649-32.141868722128493,10.291063648968702-34.760263053448853Z"/><path class="cls-1" d="M-10.946771483336306,403.267157900512302c.234288262453447-.492433381813953,313.063540677650963-656.532212987578077,313.297828940105319-656.039779605764579,1.249250335177749-2.625707558190697,20.572216638455757,30.133319528250468,21.821470758718533,32.759025285583903.204431062806179.429678715235696,312.020685959083494,656.965488706397537,311.544854205447336,656.965488706397537,1.09005374555818,2.291095421737282-31.752511804791538,4.935989281731963-34.289702258758552,4.935989281731963-.475831753636157,0-625.047114208362473-.496030385397717-624.842683145556293-.925709100633412-2.537188290974882,0,11.378181986496202-35.40391952741038,12.468231500043657-37.695014567315411Z"/><path class="cls-17" d="M34.023477739766349,372.428512695890277c.260320291615244-.547148202015705,268.577672264138528-562.866959292670799,268.837992555753772-562.319811090655094,1.070786001581837-2.250606478449299,21.591672326899243,34.14831319055429,22.662461572837856,36.39891812541191.227145625342018.477420794706632,267.418650249608618,563.348376758025552,266.889948301124605,563.348376758025552.934331781906621,1.963796075774553-35.133126249123961,4.230847955769605-37.30786092395374,4.230847955769605-.528701948484013,0-535.955086482219485-.551144872663372-535.727940856878377-1.028565667370003-2.174732820836653,0,13.711071196647026-38.665970332691813,14.645399351115884-40.62976608118197Z"/><path class="cls-6" d="M78.993726962869914,341.589867491267796c.286352320777041-.601863022217003,224.091803850624274-469.201705597762611,224.378156171402225-468.599842575545608.892321667984106-1.875505398707901,22.611128015341819,38.163306852859478,23.503452386958088,40.038810965240827.249860187874219.525162874177113,222.816614540131923,469.731264809653112,222.235042396799145,469.731264809653112.778609818255973,1.636496729811824-38.513740693455475,3.525706629808155-40.326019589147108,3.525706629808155-.581572143332778,0-446.863058756077407-.606259359929936-446.613198568202279-1.131422234107049-1.812277350697514,0,16.04396040679876-41.928021137973701,16.82256720218993-43.564517595049438Z"/><path class="cls-4" d="M123.963976185973479,310.751222286646225c.312384349938839-.656577842418756,179.605935437110929-375.536451902855333,179.918319787049768-374.879874060436578.713857334387285-1.500404318966503,23.630583703785305,42.178300515163301,24.344443201077411,43.67870380506838.272574750409149.572904953647594,178.214578830657047,376.114152861280672,177.580136492475503,376.114152861280672.622887854605324,1.309197383850005-41.894355137786988,2.820565303846706-43.344178254339568,2.820565303846706-.634442338181543,0-357.771031029937149-.661373847196046-357.49845627952709-1.23427880084364-1.449821880556556,0,18.376849616950494-45.190071943255134,18.999735053263976-46.499269108915541Z"/><path class="cls-14" d="M168.934225409076134,279.912577082024654c.338416379100636-.711292662620508,135.120067023598494-281.87119820794851,135.458483402698221-281.159905545328002.535393000791373-1.12530323922465,24.650039392228791,46.193294177468033,25.185434015197643,47.318596644896388.295289312943169.620647033118985,133.612543121181261,282.497040912909142,132.925230588151862,282.497040912909142.467165890952856.981898037887731-45.274969582119411,2.115423977885257-46.362336919534755,2.115423977885257-.687312533029399,0-268.679003303793252-.716488334463065-268.383713990849174-1.337135367581595-1.087366410418326,0,20.709738827101319-48.452122748536112,21.176902904336202-49.43402062278119Z"/><path class="cls-9" d="M213.904474632179699,249.073931877402174c.364448408261524-.766007482821806,90.63419861008515-188.205944513040322,90.998647018346674-187.439937030218516.356928667193642-.750202159483251,25.669495080671368,50.208287839772765,26.026424829316966,50.958489484725305.318003875478098.668389112589011,89.010507411705476,188.879928964536703,88.270324683827312,188.879928964536703.311443927302207.654598691924548-48.655584026450924,1.410282651923353-49.380495584728124,1.410282651923353-.740182727878164,0-179.586975577651174-.771602821729175-179.268971702173076-1.439991934318186-.724910940279187,0,23.042628037253962-51.714173553818455,23.354070755410248-52.368772136648658Z"/><path class="cls-15" d="M258.874723855282355,218.235286672779694c.390480437423321-.820722303023103,46.148330196572715-94.540690818132134,46.538810633996036-93.719968515109031.178464333596821-.375101079741398,26.688950769113035,54.223281502077953,26.867415643436289,54.598382324554223.340718438011208.716131192059038,44.40847170222878,95.262817016164263,43.615418779502761,95.262817016164263.155721963650649.327299345962274-52.036198470783347.705141325961449-52.398654249921492.705141325961449-.793052922726019,0-90.494947851509096-.82671730899574-90.154229413496978-1.542848501055232-.362455470139139,0,25.375517247405696-54.976224359100343,25.531238606483385-55.303523650515672Z"/><path class="cls-16" d="M303.84497307838592,187.396641468158123l-27.70840645755743,58.238275164381776c-.363433000546138.763873271530429.193564007246096,1.645705067792278,1.03948712482088,1.645705067792278h55.416812915114861c.845923117574785,0,1.402920125367018-.881831796261849,1.03948712482179-1.645705067792278l-27.708406457556521-58.238275164381776c-.416512466585118-.875437123224856-1.662461783058461-.875437123224856-2.078974249643579,0Z"/></g><g id="Capa_1-2"><path class="cls-20" d="M82.546263367266874,90.618528229610092h-49.921574030542615c-4.8392743286513,0-8.776278414794433-3.937196755424338-8.776278414794433-8.776471084075183V31.920483114992749c0-4.8392743286513,3.937004086143133-8.776278414794433,8.776278414794433-8.776278414794433h49.921574030542615c4.83927432865039,0,8.776471084074728,3.937004086143133,8.776471084074728,8.776278414794433v49.92157403054216c0,4.839274328650845-3.937196755424338,8.776471084075183-8.776471084074728,8.776471084075183ZM32.923904729979768,81.543034421560606h49.323335913312803v-49.323335913312803h-49.323335913312803v49.323335913312803Z"/><rect x="28.38606187932146" y="27.681940286163126" width="58.398829721361835" height="58.39882972136229" rx="4.238624446792528" ry="4.238624446792528"/><rect class="cls-20" x="43.813156591770166" y="70.538761084057114" width="2.68433712123533" height="2.684337121231692"/><polygon class="cls-20" points="49.181830834234461 59.802216411730114 49.181830834234461 62.486553532957714 49.181830834234461 65.170890654193499 51.865360861999761 65.170890654193499 54.549697983236001 65.170890654193499 54.549697983236001 62.486553532957714 54.549697983236001 59.802216411730114 54.549697983236001 57.118686383963905 54.549697983236001 54.434349262728574 54.549697983236001 51.750012141496882 54.549697983236001 49.066482113738857 51.865360861999761 49.066482113738857 49.181830834234461 49.066482113738857 49.181830834234461 51.750012141496882 46.497493713005497 51.750012141496882 43.813156591770166 51.750012141496882 43.813156591770166 54.434349262728574 46.497493713005497 54.434349262728574 49.181830834234461 54.434349262728574 49.181830834234461 57.118686383963905 46.497493713005497 57.118686383963905 43.813156591770166 57.118686383963905 43.813156591770166 59.802216411730114 46.497493713005497 59.802216411730114 49.181830834234461 59.802216411730114"/><polygon class="cls-20" points="67.970578136367294 43.69780787127138 67.970578136367294 41.013470750036049 65.286241015132873 41.013470750036049 62.602710987369392 41.013470750036049 59.917566772664031 41.013470750036049 57.234036744898731 41.013470750036049 54.549697983236001 41.013470750036049 51.865360861999761 41.013470750036049 49.181830834234461 41.013470750036049 46.497493713005497 41.013470750036049 43.813156591770166 41.013470750036049 43.813156591770166 43.69780787127138 46.497493713005497 43.69780787127138 49.181830834234461 43.69780787127138 49.181830834234461 46.382144992503072 51.865360861999761 46.382144992503072 54.549697983236001 46.382144992503072 57.234036744898731 46.382144992503072 57.234036744898731 49.066482113738857 57.234036744898731 51.750012141496882 57.234036744898731 54.434349262728574 57.234036744898731 57.118686383963905 57.234036744898731 59.802216411730114 57.234036744898731 62.486553532957714 57.234036744898731 65.170890654193499 59.917566772664031 65.170890654193499 59.917566772664031 62.486553532957714 59.917566772664031 59.802216411730114 59.917566772664031 57.118686383963905 59.917566772664031 54.434349262728574 59.917566772664031 51.750012141496882 59.917566772664031 49.066482113738857 59.917566772664031 46.382144992503072 62.602710987369392 46.382144992503072 65.286241015132873 46.382144992503072 65.286241015132873 49.066482113738857 65.286241015132873 51.750012141496882 65.286241015132873 54.434349262728574 65.286241015132873 57.118686383963905 65.286241015132873 59.802216411730114 65.286241015132873 62.486553532957714 65.286241015132873 65.170890654193499 65.286241015132873 67.85522777542883 67.970578136367294 67.85522777542883 67.970578136367294 65.170890654193499 70.654915257602624 65.170890654193499 70.654915257602624 62.486553532957714 70.654915257602624 59.802216411730114 70.654915257602624 57.118686383963905 70.654915257602624 54.434349262728574 70.654915257602624 51.750012141496882 70.654915257602624 49.066482113738857 70.654915257602624 46.382144992503072 70.654915257602624 43.69780787127138 67.970578136367294 43.69780787127138"/><polygon class="cls-20" points="59.917566772664031 67.85522777542883 57.234036744898731 67.85522777542883 54.549697983236001 67.85522777542883 51.865360861999761 67.85522777542883 49.181830834234461 67.85522777542883 46.497493713005497 67.85522777542883 46.497493713005497 70.538761084057114 49.181830834234461 70.538761084057114 51.865360861999761 70.538761084057114 51.865360861999761 73.223098205288807 54.549697983236001 73.223098205288807 57.234036744898731 73.223098205288807 59.917566772664031 73.223098205288807 62.602710987369392 73.223098205288807 62.602710987369392 70.538761084057114 65.286241015132873 70.538761084057114 65.286241015132873 67.85522777542883 62.602710987369392 67.85522777542883 59.917566772664031 67.85522777542883"/><polygon points="105.668792270668746 45.310740469587472 124.278543628762236 45.310740469587472 124.278543628762236 49.855957909552217 111.839487765985723 49.855957909552217 111.839487765985723 54.433226146883953 121.226017682393831 54.433226146883953 121.226017682393831 58.845658665532483 111.839487765985723 58.845658665532483 111.839487765985723 64.053275108574326 124.278543628762236 64.053275108574326 124.278543628762236 68.531334825469003 105.668792270668746 68.531334825469003 105.668792270668746 45.310740469587472"/><rect x="125.836857399306609" y="45.310740469587699" width="5.905115810080133" height="23.220594355881531"/><path d="M140.46610904402587,45.310740469587472h9.58495023814794c7.199391903249307,0,11.975075541011392,4.212491514696012,11.975075541011392,11.642349615743569,0,7.365754865877989-4.841314116886679,11.578244740137961-12.10633649923966,11.578244740137961h-9.453689279919672v-23.220594355881531ZM146.635269093219904,49.955163149123109v13.997372914194784h3.1181629872126c3.780557068992493,0,5.970746289200179-2.222243298445392,5.970746289200179-6.96587285797068,0-4.842838079965986-2.190189220207685-7.031503337093454-5.970746289200179-7.031503337093454h-3.1181629872126v.00000328086935Z"/><path d="M163.286814830255935,59.343218669053385c0-6.07148205357953,3.847709870757171-9.68720340388154,9.752838804306521-9.68720340388154,5.870010524806275,0,9.719255841684571,3.61572135030201,9.719255841684571,9.68720340388154,0,6.069956450064637-3.815662354260894,9.68567615993652-9.719255841684571,9.68567615993652-5.905115810077405,0-9.752838804306521-3.615722990737595-9.752838804306521-9.68567615993652ZM176.952993984435125,59.343218669053385c0-3.748506271617771-1.492689853163029-5.573918769192915-3.913340349872669-5.573918769192915-2.422185942825308,0-3.914862672525487,1.825412497575144-3.914862672525487,5.573918769192915,0,3.748506271625502,1.492689853167576,5.572393165678022,3.914862672525487,5.572393165678022,2.420650496709641,0,3.913340349872669-1.823886894052521,3.913340349872669-5.572393165678022Z"/><path d="M184.218016366797201,50.153578549558006h5.903593487420039v2.985374785027943c1.227123291399948-2.156612819321253,3.185315788989101-3.350151507664123,5.805915491818268-3.350151507664123h.299149524383211v5.141985963917705c-.531146247005381-.132784921315306-1.062279370545184-.16636296263232-1.626995456696932-.16636296263232-1.823886894056159,0-3.548560346371232.663924606591991-4.478056436032603,1.891041336251874v11.875868661009918h-5.903593487424587v-18.377756275910997h-.000013123467397Z"/><path d="M196.525811271340899,63.787701985069816c0-3.748506271621864,3.879770510719027-4.810785642167502,7.82668069974352-5.937169888310564,2.919749227216016-.830289209663533,4.114811878638648-1.492686572305956,4.114811878638648-2.62212202548244,0-.99512492834674-.929496089656823-1.691101972733122-2.622122025478347-1.691101972733122-2.055883616667415,0-3.316576747212821,1.161487890986791-3.614190825479454,3.086107268552041h-5.375505009195876c.598299048777335-4.114810238215796,4.214012196912336-6.933822060606872,9.223214879946681-6.933822060606872,5.273246922152794,0,8.192983025897774,2.422182661959596,8.192983025897774,6.900242378858366v11.94149585924788h-5.804380045690777v-1.85746329493486c-1.361428894932942,1.427056093186366-3.35168203248395,2.190189220211778-5.673132210926269,2.190189220211778-3.814140031607167,0-6.268373490930571-2.023826257571272-6.268373490930571-5.076358765676105l.000013123474673.000003280873898ZM204.685224458088669,65.24681215648161c1.425537051396532,0,2.886166264599524-.531139685273047,3.782079391634397-1.459110171411794v-2.71980330196584l.033582962621949-1.526266254046732c-.697499367043747.497563284390708-1.660578419322519.796709527903658-2.820535785478569,1.193540328781637-2.090988901944911.697502647905367-3.449360028101182,1.294272812290274-3.449360028101182,2.719803301958109,0,1.062279370545639.89439080439206,1.791836096684619,2.454233459323405,1.791836096684619Z"/><path d="M215.730803909431415,59.343218669053385c0-5.839488611827164,3.183793466335374-9.587994883449028,8.026629905871232-9.587994883449028,2.390125302860724,0,4.346808601260818,1.028702969663755,5.673132210923541,2.951796743714112v-7.396280059730998h5.905115810084681v23.220594355881531h-5.905115810084681v-2.554965942844319c-1.326323609662722,1.924619377569343-3.282993784595419,2.953322347233097-5.673132210923541,2.953322347233097-4.874883956032136,0-8.026629905871232-3.649299391628119-8.026629905871232-9.586469279938228v-.000003280866167ZM229.464135865372555,59.343218669053385c0-3.748506271617771-1.526259692307576-5.573918769192915-3.982028597759381-5.573918769192915-2.420650496705093,0-3.913340349869031,1.825412497575144-3.913340349869031,5.540342368310576,0,3.782085953369915,1.492689853163938,5.605969566560361,3.913340349869031,5.605969566560361,2.455755781976222,0,3.982028597759381-1.823886894052521,3.982028597759381-5.572393165678022Z"/><path d="M236.826836243350954,59.343218669053385c0-6.07148205357953,3.847709870752624-9.68720340388154,9.752838804301973-9.68720340388154,5.871545970931038,0,9.720791287808424,3.61572135030201,9.720791287808424,9.68720340388154,0,6.069956450064637-3.81564923078804,9.68567615993652-9.720778164333751,9.68567615993652-5.905115810080133,0-9.752825680830028-3.615722990737595-9.752825680830028-9.68567615993652h-.000026246946618ZM250.494537720178414,59.343218669053385c0-3.748506271617771-1.492689853167576-5.573918769192915-3.914862672525487-5.573918769192915-2.42218594282167,0-3.914862672521849,1.825412497575144-3.914862672521849,5.573918769192915,0,3.748506271625502,1.492689853167576,5.572393165678022,3.914862672521849,5.572393165678022,2.422172819357911,0,3.914862672525487-1.823886894052521,3.914862672525487-5.572393165678022Z"/><path class="cls-20" d="M124.278622281952266,73.266347452169612h-18.609925843230485c-2.615100149809223,0-4.735040247677716-2.119940097868039-4.735040247677716-4.735040247678171v-23.220501735439029c0-2.615100149810132,2.119940097868493-4.735040247678171,4.735040247677716-4.735040247678171h18.609925843230485c2.615100149810132,0,4.735040247677716,2.119940097868039,4.735040247677716,4.735040247678171v4.545068336699387c0,2.023412788131282-1.269305222644107,3.75050022222058-3.054964118130556,4.428310752467041.00154135424691.049516005194164.00231203137082.099224679669533.00231203137082.149126023425197v4.412319202151593c0,.257984167140421-.020615613057998.510958932976791-.060305484925266.75776828182461,1.816100641870435.662204318492513,3.112957571685001,2.404705295054555,3.112957571685001,4.449889711929245v4.478019426941955c0,2.615100149810132-2.119940097867584,4.735040247678171-4.735040247677716,4.735040247678171Z"/><path class="cls-20" d="M124.278622281952266,73.266347452169612h-18.609925843230485c-2.615100149809223,0-4.735040247677716-2.119940097868039-4.735040247677716-4.735040247678171v-23.220501735439029c0-2.615100149810132,2.119940097868493-4.735040247678171,4.735040247677716-4.735040247678171h18.609925843230485c2.615100149810132,0,4.735040247677716,2.119940097868039,4.735040247677716,4.735040247678171v4.545068336699387c0,2.023412788131282-1.269305222644107,3.75050022222058-3.054964118130556,4.428310752467041.00154135424691.049516005194164.00231203137082.099224679669533.00231203137082.149126023425197v4.412319202151593c0,.257984167140421-.020615613057998.510958932976791-.060305484925266.75776828182461,1.816100641870435.662204318492513,3.112957571685001,2.404705295054555,3.112957571685001,4.449889711929245v4.478019426941955c0,2.615100149810132-2.119940097867584,4.735040247678171-4.735040247677716,4.735040247678171Z"/><rect class="cls-20" x="121.101891178285769" y="40.57576522137424" width="15.375201286007723" height="32.690582230795371" rx="4.735040247676807" ry="4.735040247676807"/><rect class="cls-20" x="121.101891178285769" y="40.57576522137424" width="15.375201286007723" height="32.690582230795371" rx="4.735040247676807" ry="4.735040247676807"/><path class="cls-20" d="M149.919820862761298,73.266347452169612h-9.453703606477575c-2.615100149811042,0-4.735040247678626-2.119940097868039-4.735040247678626-4.735040247678171v-23.220501735439029c0-2.615100149810132,2.119940097867584-4.735040247678171,4.735040247678626-4.735040247678171h9.584911386778913c9.994911616558966,0,16.710206733443556,6.581582635932591,16.710206733443556,16.377274216029036,0,9.757543062475634-6.768086499854689,16.313308014766335-16.841414513744894,16.313308014766335Z"/><path class="cls-20" d="M149.919820862761298,73.266347452169612h-9.453703606477575c-2.615100149811042,0-4.735040247678626-2.119940097868039-4.735040247678626-4.735040247678171v-23.220501735439029c0-2.615100149810132,2.119940097867584-4.735040247678171,4.735040247678626-4.735040247678171h9.584911386778913c9.994911616558966,0,16.710206733443556,6.581582635932591,16.710206733443556,16.377274216029036,0,9.757543062475634-6.768086499854689,16.313308014766335-16.841414513744894,16.313308014766335Z"/><path class="cls-20" d="M173.03974923356509,73.764012204763731c-8.665686247551093,0-14.487959247411709-5.795299300533316-14.487959247411709-14.420717668373982,0-8.626381714244872,5.822272999860616-14.422259022621347,14.487959247411709-14.422259022621347,8.645455973055505,0,14.454242123252698,5.795877308376475,14.454242123252698,14.422259022621347,0,8.625418367840666-5.808786150197193,14.420717668373982-14.454242123252698,14.420717668373982Z"/><path class="cls-20" d="M173.03974923356509,73.764012204763731c-8.665686247551093,0-14.487959247411709-5.795299300533316-14.487959247411709-14.420717668373982,0-8.626381714244872,5.822272999860616-14.422259022621347,14.487959247411709-14.422259022621347,8.645455973055505,0,14.454242123252698,5.795877308376475,14.454242123252698,14.422259022621347,0,8.625418367840666-5.808786150197193,14.420717668373982-14.454242123252698,14.420717668373982Z"/><path class="cls-20" d="M190.121615009887137,73.266347452169612h-5.90357943640538c-2.615100149810132,0-4.735040247677716-2.119940097868039-4.735040247677716-4.735040247678171v-18.377759359731954c0-2.615100149810132,2.119940097867584-4.735040247677716,4.735040247677716-4.735040247677716h5.90357943640538c.609798274084824,0,1.192815518122188.115216229984981,1.728243449775619.325225746178148,1.253891680170454-.455084841512416,2.621650905361093-.689948694943268,4.077652661208049-.689948694943268h.299215393255508c2.615100149809223,0,4.735040247677716,2.119940097867584,4.735040247677716,4.735040247677716v5.141957768963039c0,1.457928448656276-.671645113257,2.834743130048992-1.82091737389328,3.732003971253107-1.149079591355985.897646179766525-2.647083250441938,1.215550493270257-4.062239118735306.861809693516989-.012138164697717-.00289003921398-.068012256162547-.014064857506582-.22195501160968-.020422943776794v9.027133818540733c0,2.615100149810132-2.119940097868493,4.735040247678171-4.735040247678626,4.735040247678171Z"/><path class="cls-20" d="M190.121615009887137,73.266347452169612h-5.90357943640538c-2.615100149810132,0-4.735040247677716-2.119940097868039-4.735040247677716-4.735040247678171v-18.377759359731954c0-2.615100149810132,2.119940097867584-4.735040247677716,4.735040247677716-4.735040247677716h5.90357943640538c.609798274084824,0,1.192815518122188.115216229984981,1.728243449775619.325225746178148,1.253891680170454-.455084841512416,2.621650905361093-.689948694943268,4.077652661208049-.689948694943268h.299215393255508c2.615100149809223,0,4.735040247677716,2.119940097867584,4.735040247677716,4.735040247677716v5.141957768963039c0,1.457928448656276-.671645113257,2.834743130048992-1.82091737389328,3.732003971253107-1.149079591355985.897646179766525-2.647083250441938,1.215550493270257-4.062239118735306.861809693516989-.012138164697717-.00289003921398-.068012256162547-.014064857506582-.22195501160968-.020422943776794v9.027133818540733c0,2.615100149810132-2.119940097868493,4.735040247678171-4.735040247678626,4.735040247678171Z"/><path class="cls-20" d="M202.794244292552321,73.599087300303381c-6.375811843919109,0-11.003535302129421-4.126205319998007-11.003535302129421-9.811297791849938,0-1.808779209196018.430037834993527-3.290598648685318,1.140409473713589-4.514626590315402-.655846232221847-.971245845074463-.932133981048537-2.158281284769146-.761428998161136-3.3312518669577.940804098690023-6.469256445161136,6.660384371824875-10.987351082533223,13.90898805827328-10.987351082533223,7.853585228509473,0,12.92810874915358,4.567032634723546,12.92810874915358,11.635297874237949v11.941449361606374c0,2.615100149810132-2.119940097868493,4.735040247678171-4.735040247678626,4.735040247678171h-5.804354756735847c-.552768166934584,0-1.083186697283963-.094600616927437-1.576420056417192-.268773646871523-1.279516694532504.395935372273016-2.65748739161063.601513495005292-4.096726920018227.601513495005292Z"/><path class="cls-20" d="M202.794244292552321,73.599087300303381c-6.375811843919109,0-11.003535302129421-4.126205319998007-11.003535302129421-9.811297791849938,0-1.808779209196018.430037834993527-3.290598648685318,1.140409473713589-4.514626590315402-.655846232221847-.971245845074463-.932133981048537-2.158281284769146-.761428998161136-3.3312518669577.940804098690023-6.469256445161136,6.660384371824875-10.987351082533223,13.90898805827328-10.987351082533223,7.853585228509473,0,12.92810874915358,4.567032634723546,12.92810874915358,11.635297874237949v11.941449361606374c0,2.615100149810132-2.119940097868493,4.735040247678171-4.735040247678626,4.735040247678171h-5.804354756735847c-.552768166934584,0-1.083186697283963-.094600616927437-1.576420056417192-.268773646871523-1.279516694532504.395935372273016-2.65748739161063.601513495005292-4.096726920018227.601513495005292Z"/><path class="cls-20" d="M223.757432732833877,73.664787525094198c-7.633171571147614,0-12.76164249044632-5.755416759384843-12.76164249044632-14.321492988704449,0-8.433134425491062,5.247733204183533-14.323034342951814,12.76164249044632-14.323034342951814.318674990627187,0,.633689264917848.011560156854557.944850153588959.034487801282921.132941803828544-2.496030534206511,2.199127172322733-4.478982773346615,4.72829682284646-4.478982773346615h5.9051207906532c2.615100149809223,0,4.735040247677716,2.119940097868039,4.735040247677716,4.735040247678171v23.220501735439029c0,2.615100149810132-2.119940097868493,4.735040247678171-4.735040247677716,4.735040247678171h-5.9051207906532c-.570686410059352,0-1.118059837129294-.100958703197648-1.624780045925945-.286113882153586-1.257359727227595.451231455894685-2.616641504057043.684553955078172-4.048366930509474.684553955078172Z"/><path class="cls-20" d="M223.757432732833877,73.664787525094198c-7.633171571147614,0-12.76164249044632-5.755416759384843-12.76164249044632-14.321492988704449,0-8.433134425491062,5.247733204183533-14.323034342951814,12.76164249044632-14.323034342951814.318674990627187,0,.633689264917848.011560156854557.944850153588959.034487801282921.132941803828544-2.496030534206511,2.199127172322733-4.478982773346615,4.72829682284646-4.478982773346615h5.9051207906532c2.615100149809223,0,4.735040247677716,2.119940097868039,4.735040247677716,4.735040247678171v23.220501735439029c0,2.615100149810132-2.119940097868493,4.735040247678171-4.735040247677716,4.735040247678171h-5.9051207906532c-.570686410059352,0-1.118059837129294-.100958703197648-1.624780045925945-.286113882153586-1.257359727227595.451231455894685-2.616641504057043.684553955078172-4.048366930509474.684553955078172Z"/><path class="cls-20" d="M246.57968706462907,73.764012204763731c-8.665686247551093,0-14.487959247411709-5.795299300533316-14.487959247411709-14.420717668373982,0-8.626381714244872,5.822272999860616-14.422259022621347,14.487959247411709-14.422259022621347,8.64641931945971,0,14.455783477499608,5.795877308376475,14.455783477499608,14.422259022621347,0,8.625418367840666-5.809364158039898,14.420717668373982-14.455783477499608,14.420717668373982Z"/><path class="cls-20" d="M246.57968706462907,73.764012204763731c-8.665686247551093,0-14.487959247411709-5.795299300533316-14.487959247411709-14.420717668373982,0-8.626381714244872,5.822272999860616-14.422259022621347,14.487959247411709-14.422259022621347,8.64641931945971,0,14.455783477499608,5.795877308376475,14.455783477499608,14.422259022621347,0,8.625418367840666-5.809364158039898,14.420717668373982-14.455783477499608,14.420717668373982Z"/><polygon points="105.668792270668746 45.310740469587472 124.278543628762236 45.310740469587472 124.278543628762236 49.855957909552217 111.839487765985723 49.855957909552217 111.839487765985723 54.433226146883953 121.226017682393831 54.433226146883953 121.226017682393831 58.845658665532483 111.839487765985723 58.845658665532483 111.839487765985723 64.053275108574326 124.278543628762236 64.053275108574326 124.278543628762236 68.531334825469003 105.668792270668746 68.531334825469003 105.668792270668746 45.310740469587472"/><polygon points="105.668792270668746 45.310740469587472 124.278543628762236 45.310740469587472 124.278543628762236 49.855957909552217 111.839487765985723 49.855957909552217 111.839487765985723 54.433226146883953 121.226017682393831 54.433226146883953 121.226017682393831 58.845658665532483 111.839487765985723 58.845658665532483 111.839487765985723 64.053275108574326 124.278543628762236 64.053275108574326 124.278543628762236 68.531334825469003 105.668792270668746 68.531334825469003 105.668792270668746 45.310740469587472"/><rect x="125.836857399306609" y="45.310740469587699" width="5.905115810080133" height="23.220594355881531"/><rect x="125.836857399306609" y="45.310740469587699" width="5.905115810080133" height="23.220594355881531"/><path d="M140.46610904402587,45.310740469587472h9.58495023814794c7.199391903249307,0,11.975075541011392,4.212491514696012,11.975075541011392,11.642349615743569,0,7.365754865877989-4.841314116886679,11.578244740137961-12.10633649923966,11.578244740137961h-9.453689279919672v-23.220594355881531ZM146.635269093219904,49.955163149123109v13.997372914194784h3.1181629872126c3.780557068992493,0,5.970746289200179-2.222243298445392,5.970746289200179-6.96587285797068,0-4.842838079965986-2.190189220207685-7.031503337093454-5.970746289200179-7.031503337093454h-3.1181629872126v.00000328086935Z"/><path d="M140.46610904402587,45.310740469587472h9.58495023814794c7.199391903249307,0,11.975075541011392,4.212491514696012,11.975075541011392,11.642349615743569,0,7.365754865877989-4.841314116886679,11.578244740137961-12.10633649923966,11.578244740137961h-9.453689279919672v-23.220594355881531ZM146.635269093219904,49.955163149123109v13.997372914194784h3.1181629872126c3.780557068992493,0,5.970746289200179-2.222243298445392,5.970746289200179-6.96587285797068,0-4.842838079965986-2.190189220207685-7.031503337093454-5.970746289200179-7.031503337093454h-3.1181629872126v.00000328086935Z"/><path d="M163.286814830255935,59.343218669053385c0-6.07148205357953,3.847709870757171-9.68720340388154,9.752838804306521-9.68720340388154,5.870010524806275,0,9.719255841684571,3.61572135030201,9.719255841684571,9.68720340388154,0,6.069956450064637-3.815662354260894,9.68567615993652-9.719255841684571,9.68567615993652-5.905115810077405,0-9.752838804306521-3.615722990737595-9.752838804306521-9.68567615993652ZM176.952993984435125,59.343218669053385c0-3.748506271617771-1.492689853163029-5.573918769192915-3.913340349872669-5.573918769192915-2.422185942825308,0-3.914862672525487,1.825412497575144-3.914862672525487,5.573918769192915,0,3.748506271625502,1.492689853167576,5.572393165678022,3.914862672525487,5.572393165678022,2.420650496709641,0,3.913340349872669-1.823886894052521,3.913340349872669-5.572393165678022Z"/><path d="M163.286814830255935,59.343218669053385c0-6.07148205357953,3.847709870757171-9.68720340388154,9.752838804306521-9.68720340388154,5.870010524806275,0,9.719255841684571,3.61572135030201,9.719255841684571,9.68720340388154,0,6.069956450064637-3.815662354260894,9.68567615993652-9.719255841684571,9.68567615993652-5.905115810077405,0-9.752838804306521-3.615722990737595-9.752838804306521-9.68567615993652ZM176.952993984435125,59.343218669053385c0-3.748506271617771-1.492689853163029-5.573918769192915-3.913340349872669-5.573918769192915-2.422185942825308,0-3.914862672525487,1.825412497575144-3.914862672525487,5.573918769192915,0,3.748506271625502,1.492689853167576,5.572393165678022,3.914862672525487,5.572393165678022,2.420650496709641,0,3.913340349872669-1.823886894052521,3.913340349872669-5.572393165678022Z"/><path d="M184.218016366797201,50.153578549558006h5.903593487420039v2.985374785027943c1.227123291399948-2.156612819321253,3.185315788989101-3.350151507664123,5.805915491818268-3.350151507664123h.299149524383211v5.141985963917705c-.531146247005381-.132784921315306-1.062279370545184-.16636296263232-1.626995456696932-.16636296263232-1.823886894056159,0-3.548560346371232.663924606591991-4.478056436032603,1.891041336251874v11.875868661009918h-5.903593487424587v-18.377756275910997h-.000013123467397Z"/><path d="M184.218016366797201,50.153578549558006h5.903593487420039v2.985374785027943c1.227123291399948-2.156612819321253,3.185315788989101-3.350151507664123,5.805915491818268-3.350151507664123h.299149524383211v5.141985963917705c-.531146247005381-.132784921315306-1.062279370545184-.16636296263232-1.626995456696932-.16636296263232-1.823886894056159,0-3.548560346371232.663924606591991-4.478056436032603,1.891041336251874v11.875868661009918h-5.903593487424587v-18.377756275910997h-.000013123467397Z"/><path d="M196.525811271340899,63.787701985069816c0-3.748506271621864,3.879770510719027-4.810785642167502,7.82668069974352-5.937169888310564,2.919749227216016-.830289209663533,4.114811878638648-1.492686572305956,4.114811878638648-2.62212202548244,0-.99512492834674-.929496089656823-1.691101972733122-2.622122025478347-1.691101972733122-2.055883616667415,0-3.316576747212821,1.161487890986791-3.614190825479454,3.086107268552041h-5.375505009195876c.598299048777335-4.114810238215796,4.214012196912336-6.933822060606872,9.223214879946681-6.933822060606872,5.273246922152794,0,8.192983025897774,2.422182661959596,8.192983025897774,6.900242378858366v11.94149585924788h-5.804380045690777v-1.85746329493486c-1.361428894932942,1.427056093186366-3.35168203248395,2.190189220211778-5.673132210926269,2.190189220211778-3.814140031607167,0-6.268373490930571-2.023826257571272-6.268373490930571-5.076358765676105l.000013123474673.000003280873898ZM204.685224458088669,65.24681215648161c1.425537051396532,0,2.886166264599524-.531139685273047,3.782079391634397-1.459110171411794v-2.71980330196584l.033582962621949-1.526266254046732c-.697499367043747.497563284390708-1.660578419322519.796709527903658-2.820535785478569,1.193540328781637-2.090988901944911.697502647905367-3.449360028101182,1.294272812290274-3.449360028101182,2.719803301958109,0,1.062279370545639.89439080439206,1.791836096684619,2.454233459323405,1.791836096684619Z"/><path d="M196.525811271340899,63.787701985069816c0-3.748506271621864,3.879770510719027-4.810785642167502,7.82668069974352-5.937169888310564,2.919749227216016-.830289209663533,4.114811878638648-1.492686572305956,4.114811878638648-2.62212202548244,0-.99512492834674-.929496089656823-1.691101972733122-2.622122025478347-1.691101972733122-2.055883616667415,0-3.316576747212821,1.161487890986791-3.614190825479454,3.086107268552041h-5.375505009195876c.598299048777335-4.114810238215796,4.214012196912336-6.933822060606872,9.223214879946681-6.933822060606872,5.273246922152794,0,8.192983025897774,2.422182661959596,8.192983025897774,6.900242378858366v11.94149585924788h-5.804380045690777v-1.85746329493486c-1.361428894932942,1.427056093186366-3.35168203248395,2.190189220211778-5.673132210926269,2.190189220211778-3.814140031607167,0-6.268373490930571-2.023826257571272-6.268373490930571-5.076358765676105l.000013123474673.000003280873898ZM204.685224458088669,65.24681215648161c1.425537051396532,0,2.886166264599524-.531139685273047,3.782079391634397-1.459110171411794v-2.71980330196584l.033582962621949-1.526266254046732c-.697499367043747.497563284390708-1.660578419322519.796709527903658-2.820535785478569,1.193540328781637-2.090988901944911.697502647905367-3.449360028101182,1.294272812290274-3.449360028101182,2.719803301958109,0,1.062279370545639.89439080439206,1.791836096684619,2.454233459323405,1.791836096684619Z"/><path d="M215.730803909431415,59.343218669053385c0-5.839488611827164,3.183793466335374-9.587994883449028,8.026629905871232-9.587994883449028,2.390125302860724,0,4.346808601260818,1.028702969663755,5.673132210923541,2.951796743714112v-7.396280059730998h5.905115810084681v23.220594355881531h-5.905115810084681v-2.554965942844319c-1.326323609662722,1.924619377569343-3.282993784595419,2.953322347233097-5.673132210923541,2.953322347233097-4.874883956032136,0-8.026629905871232-3.649299391628119-8.026629905871232-9.586469279938228v-.000003280866167ZM229.464135865372555,59.343218669053385c0-3.748506271617771-1.526259692307576-5.573918769192915-3.982028597759381-5.573918769192915-2.420650496705093,0-3.913340349869031,1.825412497575144-3.913340349869031,5.540342368310576,0,3.782085953369915,1.492689853163938,5.605969566560361,3.913340349869031,5.605969566560361,2.455755781976222,0,3.982028597759381-1.823886894052521,3.982028597759381-5.572393165678022Z"/><path d="M215.730803909431415,59.343218669053385c0-5.839488611827164,3.183793466335374-9.587994883449028,8.026629905871232-9.587994883449028,2.390125302860724,0,4.346808601260818,1.028702969663755,5.673132210923541,2.951796743714112v-7.396280059730998h5.905115810084681v23.220594355881531h-5.905115810084681v-2.554965942844319c-1.326323609662722,1.924619377569343-3.282993784595419,2.953322347233097-5.673132210923541,2.953322347233097-4.874883956032136,0-8.026629905871232-3.649299391628119-8.026629905871232-9.586469279938228v-.000003280866167ZM229.464135865372555,59.343218669053385c0-3.748506271617771-1.526259692307576-5.573918769192915-3.982028597759381-5.573918769192915-2.420650496705093,0-3.913340349869031,1.825412497575144-3.913340349869031,5.540342368310576,0,3.782085953369915,1.492689853163938,5.605969566560361,3.913340349869031,5.605969566560361,2.455755781976222,0,3.982028597759381-1.823886894052521,3.982028597759381-5.572393165678022Z"/><path d="M236.826836243350954,59.343218669053385c0-6.07148205357953,3.847709870752624-9.68720340388154,9.752838804301973-9.68720340388154,5.871545970931038,0,9.720791287808424,3.61572135030201,9.720791287808424,9.68720340388154,0,6.069956450064637-3.81564923078804,9.68567615993652-9.720778164333751,9.68567615993652-5.905115810080133,0-9.752825680830028-3.615722990737595-9.752825680830028-9.68567615993652h-.000026246946618ZM250.494537720178414,59.343218669053385c0-3.748506271617771-1.492689853167576-5.573918769192915-3.914862672525487-5.573918769192915-2.42218594282167,0-3.914862672521849,1.825412497575144-3.914862672521849,5.573918769192915,0,3.748506271625502,1.492689853167576,5.572393165678022,3.914862672521849,5.572393165678022,2.422172819357911,0,3.914862672525487-1.823886894052521,3.914862672525487-5.572393165678022Z"/><path d="M236.826836243350954,59.343218669053385c0-6.07148205357953,3.847709870752624-9.68720340388154,9.752838804301973-9.68720340388154,5.871545970931038,0,9.720791287808424,3.61572135030201,9.720791287808424,9.68720340388154,0,6.069956450064637-3.81564923078804,9.68567615993652-9.720778164333751,9.68567615993652-5.905115810080133,0-9.752825680830028-3.615722990737595-9.752825680830028-9.68567615993652h-.000026246946618ZM250.494537720178414,59.343218669053385c0-3.748506271617771-1.492689853167576-5.573918769192915-3.914862672525487-5.573918769192915-2.42218594282167,0-3.914862672521849,1.825412497575144-3.914862672521849,5.573918769192915,0,3.748506271625502,1.492689853167576,5.572393165678022,3.914862672521849,5.572393165678022,2.422172819357911,0,3.914862672525487-1.823886894052521,3.914862672525487-5.572393165678022Z"/></g><path d="M504.289878658769339,303.285252209944247v-18.693084044160059h7.493532676572613c1.888915688151428,0,3.505911433153415.336470671491043,4.850180350905248,1.00820168831433,1.344268917751833.672537900929001,2.38030810766486,1.694053176964189,3.10650380152947,3.065756154262999s1.090100424901721,3.129499998500705,1.090100424901721,5.272584179503156c0,2.125332730708578-.36390473103711,3.87869188933837-1.090100424901721,5.259270591783661s-1.762234883777637,2.407338725158752-3.10650380152947,3.079069741982494c-1.344268917751833.672134458875917-2.96126466275382,1.00820168831342-4.850180350905248,1.00820168831342h-7.493532676572613ZM507.832099876619395,300.260647145002622h3.951311458722557c.872241716740973,0,1.643622920443704-.127084246426875,2.316564263425789-.381656181330527.671327574770658-.254168492853296,1.234532679564836-.63098336955818,1.689615314388902-1.130848072167737.453468866613548-.499461260557382.798815263248798-1.126006767541185,1.034425421702508-1.880039963003583.236417042561698-.753629753408859.355029005890174-1.6303093327233.355029005890174-2.629635295890239v-.572080829944298c0-1.017480855513895-.118611963328476-1.903036159975727-.355029005890174-2.657069355437216-.23561015845371-.753629753410223-.58095655508896-1.380175260393571-1.034425421702508-1.880039963003583-.455082634824066-.499461260557382-1.018287739618245-.876276137262266-1.689615314388902-1.130848072166827-.672941342982085-.254168492851932-1.444322546684816-.381656181330982-2.316564263425789-.381656181330982h-3.951311458722557v12.643873914274991Z"/><path d="M524.127124362819814,303.285252209944247v-18.693084044160059h14.57797511226363v3.024605064943444h-11.034947010312862v4.605291025253791h9.835917231332132v3.024605064942989h-9.835917231332132v5.013977824078211h11.198744483484916v3.024605064941625h-14.741772585435683Z"/><path d="M542.438552225646163,303.285252209944247v-18.693084044160059h10.191753121329384c.998922521115674,0,1.892950108673176.190828090665946,2.683696530878478.572484271996473.789939538102772.381252739278807,1.412047182511742.917427226582276,1.866322933232368,1.607716577803785.454275750716988.690289351223782.681817068124474,1.498383781672601.681817068124474,2.425090175453988,0,.70844424356892-.137170297728517,1.353548084951399-.40909024087432,1.934504640042633-.272726827250153.581763439195583-.63985909470648,1.067507669979932-1.103817454672935,1.458039576458305-.463151475866653.390935348529638-.98520549134264.68585148864986-1.566162046433419.885555304461377v.108929354079009c.68907902506453.145642580825552,1.30715224895448.422403828598362,1.852605903455697.831090627422782.544646770400504.408686798824419.971488461569606.926706393780478,1.280525073514582,1.553251900763826.309036611942247.626545506983348.463151475863924,1.348706780326211.463151475863924,2.166483820027679,0,1.162719994286363-.259009797479848,2.125332730708578-.777029392434088,2.888241651317003-.517212710852618.762908920609334-1.207905504128576,1.330955330031884-2.070464611617354,1.702928902111125-.863365991594037.372780456183591-1.830013148536636.558767242222075-2.901555239037407.558767242222075h-10.191753121329384ZM545.98158032759693,292.222064255981422h5.721615183545509c.544646770396866,0,1.003763825740862-.099650186881263,1.375737397817829-.2997574447445.372780456184046-.199703815813336.654383008585683-.472027201012679.845614541301074-.817373597650203.190424648611952-.344942954584894.285636972919747-.726599135915876.285636972919747-1.144565101939406,0-.799218705302337-.213017403531012-1.389857869645311-.64066597880992-1.771110608922299-.426034807065662-.381656181332346-.985205491339912-.572484271997382-1.67509140051061-.572484271997382h-5.91284671626363v4.605291025253791ZM545.98158032759693,300.260647145002622h6.185573543514693c.743947144159392,0,1.357179063422336-.204545120438524,1.838888873684482-.613231919263399.480902926158706-.408686798824419.722161273342863-1.048949335582165.722161273342863-1.921191052321774,0-.508336985704318-.100053628932073-.953737011274825-.300160886798949-1.334989750552722-.200107257865056-.381656181331437-.503495681078675-.676572321450749-.912585921953905-.885555304461832-.409090240878868-.208579540960272-.931144256354855-.313474474517989-1.566968930540497-.313474474517989h-5.966907951248686v5.068442501117715Z"/><path d="M561.676283040204908,303.285252209944247v-18.693084044160059h3.543028101950767v18.693084044160059h-3.543028101950767Z"/><path d="M573.938500773148917,303.285252209944247v-15.641044919670549h-5.967714835349398v-3.052039124489511h15.505084948097647v3.052039124489511h-5.995148894898193v15.641044919670549h-3.542221217850056Z"/><g id="polygon9"><polygon points="508.508260486135441 359.786539679766065 497.270892306185488 359.786539679766065 504.299546918484339 316.326603234095273 515.53630562372291 316.326603234095273 508.508260486135441 359.786539679766065"/></g><g id="path11"><path d="M549.244729873915276,317.389074716266805c-2.21650013105409-.879350116306341-5.732062795572347-1.850260915530271-10.079033357787921-1.850260915530271-11.097268696419633,0-18.911869081074656,5.917640813348498-18.95980192314164,14.378082798584728-.092171329711164,6.242097021106019,5.595024750435186,9.709107992298414,9.848605033499553,11.790424287818496,4.347589413461719,2.126785453270259,5.825462451243766,3.514943813265745,5.825462451243766,5.410677402743204-.044247864186218,2.911502899672087-3.513096636044793,4.253570906526875-6.748441580476538,4.253570906526875-4.486465259273245,0-6.890392929455629-.691927265424056-10.543603113833342-2.311751652199291l-1.479720214989356-.694383917363211-1.572505707696109,9.755810164273953c2.635589008697934,1.200735509127298,7.491377191144238,2.266280150329294,12.532736358974034,2.312979978165913,11.791038450798624,0,19.467381840884627-5.826081302492184,19.558324844637355-14.842031359255088.044857338893053-4.947345349183706-2.958202727504613-8.73819836514167-9.432586970757256-11.8358957897035-3.930343024751892-1.988523770428401-6.337346198099112-3.329363451341123-6.337346198099112-5.363975230760389.046085664853308-1.849645580487049,2.035842449497977-3.744150843976968,6.47253706603442-3.744150843976968,3.653210184369527-.092790180966404,6.337346198126397.785331609361947,8.370722619180015,1.664067562676792l1.016388161435316.461489564616841,1.528262531776818-9.384651784544985v-.000001172073098Z"/></g><g id="path13"><path d="M564.180170265383822,344.390228574927278c.925435781155102-2.496717851141511,4.486465259276883-12.159737834454063,4.486465259276883-12.159737834454063-.046704516112186.09279018097277.923597980471641-2.542803516007098,1.478491889027282-4.160783069709396l.78533160938423,3.744765006973012s2.12801377922915,10.402880090799499,2.590117506820206,12.575755897190447h-9.340406264508601ZM578.051289653338245,316.326604406162915h-8.692112700270627c-2.680451035868828,0-4.716902960085463.785331609376954-5.873395293309841,3.605889161149662l-16.691674595601398,39.853431949477454h11.791038450806809s1.941205091333359-5.363977574891123,2.358451480040458-6.519236893884681h14.427860473730107c.322609030530657,1.525805879845848,1.340844369182378,6.519236893884681,1.340844369182378,6.519236893884681h10.404727268005445l-9.065730076034924-43.459321110627116h-.000009376548405Z"/></g><g id="path15"><path d="M487.885009851538598,316.326603234095273l-11.005087990180073,29.635516885543439-1.202580342219335-6.010428650186441c-2.034609435271705-6.935254956620611-8.415584646321804-14.470258816565092-15.536415276596017-18.216868656616043l10.080266371993275,38.005626513809148h11.883212124652346l17.663205418152756-43.413849608747569h-11.882595617545121l-.000004688257832.000003516197467Z"/></g><g id="path17"><path d="M466.66077495526315,316.326603234095273h-18.07983529973626l-.184965026877762.878121790333353c14.103400749791945,3.606504496198795,23.443811702577477,12.299843178312585,27.28136454637206,22.748808933967211l-3.930343024762806-19.973725228198418c-.647069926541008-2.775699040817017-2.635593696963042-3.561644813170005-5.086221194995233-3.653205496102146h0Z"/></g><path class="cls-20" d="M511.783364829993843,315.122939764536568h-7.493486342485994c-6.537654039884728,0-11.837600619195655-5.299946579310472-11.837600619195655-11.8376006191952v-18.69315897258366c0-6.537654039885183,5.299946579310927-11.8376006191952,11.837600619195655-11.8376006191952h7.493486342485994c3.733352656219722,0,7.145718290441437.759309636071976,10.142303616456047,2.257120625876723,3.542802737398233,1.772172045823027,6.403556220369865,4.578014783735398,8.276494300109334,8.11619345839199,1.635954864219457,3.090029927256637,2.465588787823435,6.727433281582307,2.465588787823435,10.810866021218317,0,4.054147008937434-.824624522300837,7.677678175037272-2.450945922473693,10.769634795103229-1.873901426143675,3.562455004051117-4.740820326105677,6.383133276593981-8.291137165459077,8.157424684506623-2.995236641048905,1.497618320524452-6.408180283112415,2.257120625877178-10.142303616456047,2.257120625877178Z"/><path class="cls-20" d="M538.868812340515433,315.122939764536568h-14.741704690371989c-6.537654039885638,0-11.837600619195655-5.299946579310472-11.837600619195655-11.8376006191952v-18.69315897258366c0-6.537654039885183,5.299946579310017-11.8376006191952,11.837600619195655-11.8376006191952h14.57793580159705c6.537654039884728,0,11.837600619194745,5.299946579310017,11.837600619194745,11.8376006191952v3.024522371747025c0,1.864653300659938-.431001181398642,3.628347898122684-1.19898093511074,5.197253852584254v1.92746348623723c.870094472595156,1.647900359635059,1.362749823885679,3.52604050995933,1.362749823885679,5.519204220987376v3.024715041027775c0,6.537654039884728-5.299946579310017,11.8376006191952-11.837600619194745,11.8376006191952Z"/><path class="cls-20" d="M552.630215729610427,315.122939764536568h-10.191626952369006c-6.537654039884728,0-11.837600619194745-5.299946579310472-11.837600619194745-11.8376006191952v-18.69315897258366c0-6.537654039885183,5.299946579310017-11.8376006191952,11.837600619194745-11.8376006191952h10.191626952369006c2.790429195439174,0,5.424796273340689.58860465318412,7.829501568395244,1.749437070675413,2.701415987658947,1.303793023927028,4.986858997829586,3.295993388550869,6.608941673822301,5.76081149924994,1.720922017100747,2.614329472686677,2.63109170012558,5.703588722819859,2.63109170012558,8.932725870894501,0,1.189347471065958-.120803639130827,2.352106581366115-.36086956314648,3.481341236787557.583402582599774,1.720151339976837.877993913112732,3.547619469421079.877993913112732,5.456394035410085,0,3.521801785779189-.975677238535354,6.820107205700879-2.821448949665864,9.538285420798729-1.771208699417912,2.612595449158562-4.25490839964732,4.663559944460303-7.177316052510832,5.923424372339468-2.342665786601174,1.011513724784891-4.897845790047541,1.525940704818368-7.587894290132681,1.525940704818368Z"/><rect class="cls-20" x="549.838630518485388" y="272.754579553562507" width="27.218196645069497" height="42.36836021097406" rx="11.837600619194745" ry="11.837600619194745"/><path class="cls-20" d="M577.480699581559747,315.122939764536568h-3.542224729555528c-6.537654039884728,0-11.837600619194745-5.299946579310472-11.837600619194745-11.8376006191952v-5.358903379269123c-3.565152373984347-2.039789677008685-5.967738306949286-5.880459122696266-5.967738306949286-10.282181514397507v-3.05207407891703c0-6.537654039885183,5.299946579310017-11.8376006191952,11.837600619194745-11.8376006191952h15.505060381343355c6.537654039884728,0,11.837600619195655,5.299946579310017,11.837600619195655,11.8376006191952v3.05207407891703c0,4.412897209994298-2.414916766943861,8.262044104041706-5.995097344839451,10.297787726151455v5.343297167515175c0,6.537654039884728-5.299946579310017,11.8376006191952-11.837600619194745,11.8376006191952Z"/><g id="polygon9-2"><path class="cls-20" d="M508.508179723781723,371.624169738201999h-11.237243139875318c-3.469781079933455,0-6.764811122079664-1.522279988480477-9.013839638158061-4.164353837618364-2.249221185359602-2.642073849137887-3.225861770299161-6.137865281993982-2.671937587679167-9.563139758036414l7.028575367647136-43.460024356617396c.927317249026601-5.733645130641435,5.87756908348274-9.947707642735168,11.685777225837228-9.947707642735168h11.236857801312908c3.469781079933455,0,6.764811122079664,1.522279988480932,9.013839638158061,4.164353837618819,2.249221185359602,2.642073849137432,3.225861770299161,6.137865281993527,2.671937587679167,9.562947088755209l-7.028190029085636,43.460024356616941c-.927317249026601,5.73383779992264-5.87756908348274,9.947900312016372-11.685777225836318,9.947900312016372Z"/></g><g id="path11-2"><path class="cls-20" d="M528.068350460466718,372.271731191345225c-.036414494092242,0-.073021657465688-.00019266928075-.109436151557929-.000578007842705-6.243640717214475-.05760811499249-12.884565491667672-1.351767674874282-17.330794487259482-3.377299825095633-4.852183170472017-2.210494659896085-7.627776831281153-7.392334970007596-6.779261318147292-12.656252393787327l1.572566670798551-9.755809038947518c.505371523830036-3.13511453898991,2.243633776212846-5.911864215484911,4.788794977052021-7.736634974996377-1.254084349452569-2.79601660458593-1.879874173851931-5.806859457387873-1.841340317670074-8.947754074805289.115601568546481-15.124345882262332,13.058160513768598-26.096283422322358,30.796835868717608-26.096283422322358,6.344984758973624,0,11.356890763320735,1.459855141465596,14.444223320644596,2.684653760219135,5.167390114042973,2.049808479616331,8.212142760286042,7.419308669335351,7.318542635418453,12.906337120410626l-1.528445405469938,9.384342665350232c-.36009888602257,2.211072667739245-1.333656762468308,4.243540912073058-2.771354936628995,5.888358563213387,2.225330194526578,3.907333016882603,2.865184876432977,7.836630331789365,2.835128468611401,11.134743082430305-.157796141066683,15.650333019150366-13.067986647095495,26.572176546173523-31.39545932450892,26.572176546173523Z"/></g><g id="path13-2"><path class="cls-20" d="M587.117053666342144,371.623591730359294h-10.404719177056904c-3.594823443244422,0-6.872320580827363-1.616687936127164-9.06354831263252-4.222154621892059-2.206448604997604,2.624926283136574-5.498203269368787,4.222154621892059-9.063548312633429,4.222154621892059h-11.791167322495312c-3.961858423380363,0-7.660915947598369-1.981988892735444-9.855419057178551-5.280294312657134-2.194695778862297-3.298498089202894-2.593713859629133-7.476146107204386-1.06314909206958-11.130311688969414l16.678801640655365-39.822813671572476c2.863065514343361-6.928580010853693,8.984939246020986-10.901227913965613,16.804807350371448-10.901227913965613h8.692081939036143c5.606098066677987,0,10.443445702519966,3.932380023401038,11.588093900414606,9.420179151600223l9.06586034400425,43.459446348774236c.727711874002125,3.488662669462428-.154713432571953,7.119322598956387-2.402585932964939,9.884512118596376s-5.62189694771314,4.370509968193801-9.185507967450576,4.370509968193801Z"/></g><g id="path15-2"><path class="cls-20" d="M482.104396129124325,371.578121780064066h-11.883263238771178c-5.368922181876769,0-10.065621242652924-3.613319694211896-11.442050585484139-8.802866775559778l-10.080264108001757-38.005749683296926c-1.2043756749772-4.541022281800451.390540632406555-9.364497729416598,4.064551150106126-12.292300122146116,3.674203186979867-2.927995062010268,8.73215714946582-3.405814878670299,12.889382223690518-1.218440532483328,3.211989582073329,1.689902262873602,6.289110667508794,3.910223056096129,9.079925201510378,6.481394609858398l2.055203219481882-5.534425094178914c1.722656040627953-4.638898276503369,6.148847431005379-7.716790039062744,11.097172572652198-7.716790039062744h11.882492561647268c3.940279463919069,0,7.622382091416512,1.960602602554445,9.821894602300745,5.230007630339514,2.199319841603028,3.269405027785069,2.627816322349645,7.418923330773396,1.142914174365615,11.068657519077533l-17.663148996831296,43.413976398479463c-1.814559287623524,4.460101183817642-6.149810777410494,7.376536088972898-10.964808776666359,7.376536088972898Z"/></g><g id="path17-2"><path class="cls-20" d="M475.673480870864296,351.793491331117366c-4.849485800538787,0-9.360066335955707-2.999475365228136-11.1079620523833-7.758791942300832-2.738408489593894-7.456108501989092-9.522486539764031-12.911539190994972-19.102388525239803-15.361329097783255-6.143067352578328-1.571025316551186-9.957533776061609-7.703688527960367-8.650658043639851-13.90841005043012l.184962509674733-.878186582394392c1.153703654097626-5.477202317748379,5.986041888635555-9.397829515014109,11.583469837672965-9.397829515014109h18.079892651442606c.147584669178286,0,.295169338356573.002697369932775.442754007534859.008284779079077,9.809563768321823.367034980136395,14.785825955700602,6.849970944242614,16.17188876257751,12.794396268201126.031212423506986.133712480952454.059920146362856.268002969747613.086508507129111.402678797104727l3.930260661310967,19.973831682801574c1.192430179560688,6.059834223224243-2.474451574745217,12.018131735408588-8.4217669379168,13.684143007449165-1.064883115597695.298444716132053-2.139014356678672.441212653287039-3.196961378162996.441212653287039Z"/></g><path d="M504.289878658769339,303.285252209944247v-18.693084044160059h7.493532676572613c1.888915688151428,0,3.505911433153415.336470671491043,4.850180350905248,1.00820168831433,1.344268917751833.672537900929001,2.38030810766486,1.694053176964189,3.10650380152947,3.065756154262999s1.090100424901721,3.129499998500705,1.090100424901721,5.272584179503156c0,2.125332730708578-.36390473103711,3.87869188933837-1.090100424901721,5.259270591783661s-1.762234883777637,2.407338725158752-3.10650380152947,3.079069741982494c-1.344268917751833.672134458875917-2.96126466275382,1.00820168831342-4.850180350905248,1.00820168831342h-7.493532676572613ZM507.832099876619395,300.260647145002622h3.951311458722557c.872241716740973,0,1.643622920443704-.127084246426875,2.316564263425789-.381656181330527.671327574770658-.254168492853296,1.234532679564836-.63098336955818,1.689615314388902-1.130848072167737.453468866613548-.499461260557382.798815263248798-1.126006767541185,1.034425421702508-1.880039963003583.236417042561698-.753629753408859.355029005890174-1.6303093327233.355029005890174-2.629635295890239v-.572080829944298c0-1.017480855513895-.118611963328476-1.903036159975727-.355029005890174-2.657069355437216-.23561015845371-.753629753410223-.58095655508896-1.380175260393571-1.034425421702508-1.880039963003583-.455082634824066-.499461260557382-1.018287739618245-.876276137262266-1.689615314388902-1.130848072166827-.672941342982085-.254168492851932-1.444322546684816-.381656181330982-2.316564263425789-.381656181330982h-3.951311458722557v12.643873914274991Z"/><path d="M524.127124362819814,303.285252209944247v-18.693084044160059h14.57797511226363v3.024605064943444h-11.034947010312862v4.605291025253791h9.835917231332132v3.024605064942989h-9.835917231332132v5.013977824078211h11.198744483484916v3.024605064941625h-14.741772585435683Z"/><path d="M542.438552225646163,303.285252209944247v-18.693084044160059h10.191753121329384c.998922521115674,0,1.892950108673176.190828090665946,2.683696530878478.572484271996473.789939538102772.381252739278807,1.412047182511742.917427226582276,1.866322933232368,1.607716577803785.454275750716988.690289351223782.681817068124474,1.498383781672601.681817068124474,2.425090175453988,0,.70844424356892-.137170297728517,1.353548084951399-.40909024087432,1.934504640042633-.272726827250153.581763439195583-.63985909470648,1.067507669979932-1.103817454672935,1.458039576458305-.463151475866653.390935348529638-.98520549134264.68585148864986-1.566162046433419.885555304461377v.108929354079009c.68907902506453.145642580825552,1.30715224895448.422403828598362,1.852605903455697.831090627422782.544646770400504.408686798824419.971488461569606.926706393780478,1.280525073514582,1.553251900763826.309036611942247.626545506983348.463151475863924,1.348706780326211.463151475863924,2.166483820027679,0,1.162719994286363-.259009797479848,2.125332730708578-.777029392434088,2.888241651317003-.517212710852618.762908920609334-1.207905504128576,1.330955330031884-2.070464611617354,1.702928902111125-.863365991594037.372780456183591-1.830013148536636.558767242222075-2.901555239037407.558767242222075h-10.191753121329384ZM545.98158032759693,292.222064255981422h5.721615183545509c.544646770396866,0,1.003763825740862-.099650186881263,1.375737397817829-.2997574447445.372780456184046-.199703815813336.654383008585683-.472027201012679.845614541301074-.817373597650203.190424648611952-.344942954584894.285636972919747-.726599135915876.285636972919747-1.144565101939406,0-.799218705302337-.213017403531012-1.389857869645311-.64066597880992-1.771110608922299-.426034807065662-.381656181332346-.985205491339912-.572484271997382-1.67509140051061-.572484271997382h-5.91284671626363v4.605291025253791ZM545.98158032759693,300.260647145002622h6.185573543514693c.743947144159392,0,1.357179063422336-.204545120438524,1.838888873684482-.613231919263399.480902926158706-.408686798824419.722161273342863-1.048949335582165.722161273342863-1.921191052321774,0-.508336985704318-.100053628932073-.953737011274825-.300160886798949-1.334989750552722-.200107257865056-.381656181331437-.503495681078675-.676572321450749-.912585921953905-.885555304461832-.409090240878868-.208579540960272-.931144256354855-.313474474517989-1.566968930540497-.313474474517989h-5.966907951248686v5.068442501117715Z"/><path d="M561.676283040204908,303.285252209944247v-18.693084044160059h3.543028101950767v18.693084044160059h-3.543028101950767Z"/><path d="M573.938500773148917,303.285252209944247v-15.641044919670549h-5.967714835349398v-3.052039124489511h15.505084948097647v3.052039124489511h-5.995148894898193v15.641044919670549h-3.542221217850056Z"/><g id="polygon9-3"><polygon points="508.508260486135441 359.786539679766065 497.270892306185488 359.786539679766065 504.299546918484339 316.326603234095273 515.53630562372291 316.326603234095273 508.508260486135441 359.786539679766065"/></g><g id="path11-3"><path d="M549.244729873915276,317.389074716266805c-2.21650013105409-.879350116306341-5.732062795572347-1.850260915530271-10.079033357787921-1.850260915530271-11.097268696419633,0-18.911869081074656,5.917640813348498-18.95980192314164,14.378082798584728-.092171329711164,6.242097021106019,5.595024750435186,9.709107992298414,9.848605033499553,11.790424287818496,4.347589413461719,2.126785453270259,5.825462451243766,3.514943813265745,5.825462451243766,5.410677402743204-.044247864186218,2.911502899672087-3.513096636044793,4.253570906526875-6.748441580476538,4.253570906526875-4.486465259273245,0-6.890392929455629-.691927265424056-10.543603113833342-2.311751652199291l-1.479720214989356-.694383917363211-1.572505707696109,9.755810164273953c2.635589008697934,1.200735509127298,7.491377191144238,2.266280150329294,12.532736358974034,2.312979978165913,11.791038450798624,0,19.467381840884627-5.826081302492184,19.558324844637355-14.842031359255088.044857338893053-4.947345349183706-2.958202727504613-8.73819836514167-9.432586970757256-11.8358957897035-3.930343024751892-1.988523770428401-6.337346198099112-3.329363451341123-6.337346198099112-5.363975230760389.046085664853308-1.849645580487049,2.035842449497977-3.744150843976968,6.47253706603442-3.744150843976968,3.653210184369527-.092790180966404,6.337346198126397.785331609361947,8.370722619180015,1.664067562676792l1.016388161435316.461489564616841,1.528262531776818-9.384651784544985v-.000001172073098Z"/></g><g id="path13-3"><path d="M564.180170265383822,344.390228574927278c.925435781155102-2.496717851141511,4.486465259276883-12.159737834454063,4.486465259276883-12.159737834454063-.046704516112186.09279018097277.923597980471641-2.542803516007098,1.478491889027282-4.160783069709396l.78533160938423,3.744765006973012s2.12801377922915,10.402880090799499,2.590117506820206,12.575755897190447h-9.340406264508601ZM578.051289653338245,316.326604406162915h-8.692112700270627c-2.680451035868828,0-4.716902960085463.785331609376954-5.873395293309841,3.605889161149662l-16.691674595601398,39.853431949477454h11.791038450806809s1.941205091333359-5.363977574891123,2.358451480040458-6.519236893884681h14.427860473730107c.322609030530657,1.525805879845848,1.340844369182378,6.519236893884681,1.340844369182378,6.519236893884681h10.404727268005445l-9.065730076034924-43.459321110627116h-.000009376548405Z"/></g><g id="path15-3"><path d="M487.885009851538598,316.326603234095273l-11.005087990180073,29.635516885543439-1.202580342219335-6.010428650186441c-2.034609435271705-6.935254956620611-8.415584646321804-14.470258816565092-15.536415276596017-18.216868656616043l10.080266371993275,38.005626513809148h11.883212124652346l17.663205418152756-43.413849608747569h-11.882595617545121l-.000004688257832.000003516197467Z"/></g><g id="path17-3"><path d="M466.66077495526315,316.326603234095273h-18.07983529973626l-.184965026877762.878121790333353c14.103400749791945,3.606504496198795,23.443811702577477,12.299843178312585,27.28136454637206,22.748808933967211l-3.930343024762806-19.973725228198418c-.647069926541008-2.775699040817017-2.635593696963042-3.561644813170005-5.086221194995233-3.653205496102146h0Z"/></g></g></svg>