<svg width="222" height="26" viewBox="0 0 222 26" fill="none" xmlns="http://www.w3.org/2000/svg">
<g clip-path="url(#clip0_247_1069)">
<path d="M6.10371 9.9849C5.30137 9.9849 5.0718 10.1012 5.0718 10.7339V15.879C5.0718 16.1372 5.1576 17.7468 5.415 18.0352C5.73037 18.3795 6.64634 18.5819 7.56462 18.5819C9.74207 18.5819 11.3467 17.0862 11.3467 14.5858C11.3467 12.0853 9.22727 9.9849 6.10371 9.9849ZM7.04983 1.96713C5.1576 1.96713 5.0718 2.22532 5.0718 2.79985V9.03821C5.0718 9.49877 5.44515 9.44062 6.13154 9.44062C7.87999 9.44062 9.0835 9.61274 9.0835 9.61274C9.91367 8.98006 10.8598 8.43345 10.8598 6.16326C10.8598 4.72579 9.65627 1.96713 7.04751 1.96713M7.42085 19.1006C6.21734 19.1006 5.01383 18.8121 3.75235 18.8121C2.49087 18.8121 1.9181 18.9261 1.00213 18.9261C0.714587 18.9261 0.515162 18.8982 0.515162 18.6098C0.515162 18.3213 0.686761 18.2655 1.3175 18.2655C2.60681 18.2655 2.66478 18.2074 2.66478 17.7771V4.55366C2.66478 2.28347 2.20564 2.02528 1.4033 2.02528C0.113992 2.02528 -0.00195312 1.99737 -0.00195312 1.65079C-0.00195312 1.44843 0.0838463 1.42052 0.570815 1.42052C1.45895 1.42052 2.34709 1.44843 3.35118 1.44843C3.95177 1.44843 5.3292 1.27631 7.90782 1.27631C11.6343 1.27631 13.239 3.20225 13.239 5.24216C13.239 7.28207 12.0076 8.28924 11.0894 8.92191C10.5444 9.2964 9.91367 9.61274 9.91367 9.6988C9.91367 9.75695 10.4586 9.89884 11.0314 10.1873C12.3787 10.8781 14.0691 11.855 14.0691 14.3555C14.0691 17.5747 11.4047 19.0982 7.42085 19.0982" fill="#00234B"/>
<path d="M19.3666 8.96147C17.4721 8.96147 16.8738 11.8108 16.8738 12.1621C16.8738 12.2877 16.8738 12.3109 17.1729 12.3109C18.4692 12.3109 19.8142 11.9853 21.6832 11.6852C21.9568 11.6364 21.9823 11.5852 21.9823 11.4363C21.9823 10.8107 20.5121 8.96147 19.3643 8.96147M23.2021 11.962C22.5551 12.1132 20.0623 12.6622 17.2193 12.8366C16.8205 12.8622 16.7462 12.9878 16.7462 13.5623C16.7462 17.0118 19.413 17.9376 21.3075 17.9376C22.9516 17.9376 23.849 17.3374 23.9998 17.3374C24.125 17.3374 24.1992 17.4863 24.1992 17.5375C24.1992 17.6631 22.0797 19.2378 20.06 19.2378C18.0402 19.2378 14.9746 18.2376 14.9746 14.0624C14.9746 10.5362 17.3422 8.43579 19.6101 8.43579C20.9064 8.43579 22.5018 9.26153 23.3992 10.3106C23.8235 10.8107 24.2224 11.4108 24.2224 11.6108C24.2224 11.7108 23.8746 11.8108 23.1998 11.962" fill="#00234B"/>
<path d="M32.3302 11.2852C31.9823 11.2852 31.6832 10.2594 30.4356 10.2594C28.991 10.2594 28.4414 10.8595 28.4414 11.9085V17.0583C28.4414 18.2841 28.5156 18.2841 30.3614 18.2841C31.0084 18.2841 31.0339 18.3586 31.0339 18.5842C31.0339 18.8587 31.0084 18.8354 30.3614 18.8354C30.0113 18.8354 28.3417 18.7098 27.544 18.7098C26.6976 18.7098 25.8489 18.8354 25.501 18.8354C24.9282 18.8354 24.8772 18.8354 24.8772 18.5842C24.8772 18.333 24.9027 18.2841 25.501 18.2841C26.5237 18.2841 26.5979 18.2585 26.5979 17.9096V11.0595C26.5979 9.35921 26.6466 9.31037 25.2529 9.31037C24.803 9.31037 24.803 9.33595 24.803 9.05916C24.803 8.7591 24.7775 8.68467 25.2019 8.68467C26.0483 8.68467 26.5237 8.73352 27.0222 8.73352C27.4211 8.73352 27.8941 8.60791 28.293 8.60791C28.3927 8.60791 28.4924 8.68234 28.4924 8.88238C28.4924 9.00798 28.4414 9.55692 28.4414 9.63136C28.4414 9.85698 28.4669 10.0314 28.5666 10.0314C28.9399 10.0314 30.111 8.73119 31.282 8.73119C31.7319 8.73119 32.8774 9.28245 32.8774 9.93141C32.8774 10.1803 32.4786 11.2805 32.3302 11.2805" fill="#00234B"/>
<path d="M44.1196 18.9377C43.8205 18.9377 43.4959 18.9122 43.2732 18.9122C42.9741 18.9122 42.2251 18.9377 41.8773 18.9377C41.4274 18.9377 41.2025 18.312 40.1566 17.1118C39.1108 15.9116 38.0627 14.3369 37.9119 14.3369C37.8122 14.3369 37.4644 14.5881 37.04 14.8626C36.6412 15.1138 36.2934 15.2882 36.2934 15.5138V17.0886C36.2934 18.2632 36.2447 18.2632 37.789 18.2632C38.3618 18.2632 38.4615 18.3888 38.4615 18.5888C38.4615 18.84 38.3363 18.84 37.789 18.84C37.4157 18.84 36.2678 18.7912 35.4701 18.7912C34.6214 18.7912 33.7008 18.84 33.3507 18.84C32.7779 18.84 32.6272 18.8145 32.6272 18.5888C32.6272 18.3888 32.7524 18.2632 33.3507 18.2632C34.1971 18.2632 34.422 18.2632 34.422 17.8887C34.422 17.163 34.4962 9.76394 34.4962 4.48621C34.4962 2.71147 34.2968 2.48584 33.6243 2.48584C32.6017 2.48584 32.502 2.41141 32.502 2.23463C32.502 1.98575 32.5506 1.88573 32.8266 1.88573C34.6214 1.88573 36.0916 1.33679 36.3165 1.33679C36.4418 1.33679 36.4905 1.41122 36.4905 1.56242C36.4905 1.88806 36.4394 2.93709 36.4394 3.73724C36.4394 7.53795 36.2887 10.3385 36.2887 14.4136C36.2887 14.5137 36.3142 14.5881 36.3884 14.5881C37.0122 14.5881 39.6047 12.2877 40.4024 11.5364C41.3741 10.6106 41.599 10.1873 41.599 9.6616C41.599 9.26152 41.5248 9.21268 40.428 9.21268C40.0546 9.21268 39.9294 9.1615 39.9294 8.93821C39.9294 8.73817 40.0546 8.687 40.3793 8.687C40.6274 8.687 41.1028 8.76143 41.4019 8.76143C41.7265 8.76143 43.1712 8.687 43.4704 8.687C43.6698 8.687 43.7695 8.71258 43.7695 8.78702C43.7695 9.01264 42.9231 10.0873 42.1486 10.8386C40.901 12.0644 39.3566 13.1646 39.3566 13.339C39.3566 13.5646 39.8042 14.0392 41.5503 16.1395C42.399 17.1653 43.1967 18.3888 44.0431 18.3888C44.6414 18.3888 44.8408 18.5144 44.8408 18.7144C44.8408 18.8889 44.6669 18.9401 44.1173 18.9401" fill="#00234B"/>
<path d="M48.4319 8.96147C46.5374 8.96147 45.9391 11.8108 45.9391 12.1621C45.9391 12.2877 45.9391 12.3109 46.2382 12.3109C47.5345 12.3109 48.8795 11.9853 50.7508 11.6852C51.0244 11.6364 51.05 11.5852 51.05 11.4363C51.05 10.8107 49.5798 8.96147 48.4319 8.96147ZM52.272 11.962C51.6227 12.1132 49.1322 12.6622 46.2893 12.8366C45.8904 12.8622 45.8162 12.9878 45.8162 13.5623C45.8162 17.0118 48.4829 17.9376 50.3775 17.9376C52.0216 17.9376 52.9213 17.3374 53.0697 17.3374C53.1949 17.3374 53.2691 17.4863 53.2691 17.5375C53.2691 17.6631 51.1497 19.2378 49.1322 19.2378C47.1148 19.2378 44.0469 18.2376 44.0469 14.0624C44.0469 10.5362 46.4145 8.43579 48.6824 8.43579C49.9786 8.43579 51.574 9.26153 52.4714 10.3106C52.8958 10.8107 53.2947 11.4108 53.2947 11.6108C53.2947 11.7108 52.9468 11.8108 52.272 11.962Z" fill="#00234B"/>
<path d="M57.7606 18.8377C57.3873 18.8377 56.8377 18.7865 56.3902 18.7865C55.5438 18.7865 54.222 18.8377 53.8718 18.8377C53.2991 18.8377 53.248 18.7865 53.248 18.5888C53.248 18.4143 53.2736 18.2631 53.8718 18.2631C54.8945 18.2631 55.3165 18.2887 55.3165 17.8375V4.06051C55.3165 2.48579 55.1681 2.48579 54.0457 2.48579C53.5959 2.48579 53.3478 2.43695 53.3478 2.16015C53.3478 1.8601 53.5472 1.88568 53.9715 1.8601C55.9148 1.73449 56.8632 1.31116 57.0116 1.31116C57.1368 1.31116 57.2597 1.43676 57.2597 1.71123C57.2597 2.01129 57.1345 2.91145 57.1345 3.66276C57.1345 13.1901 57.0093 15.1649 57.0093 15.8883C57.0093 17.9631 57.1832 18.2376 57.6331 18.2376C58.8783 18.2376 58.8296 18.3864 58.8296 18.5888C58.8296 18.8377 58.6557 18.8377 57.7583 18.8377" fill="#00234B"/>
<path d="M62.8089 8.96147C60.9143 8.96147 60.316 11.8108 60.316 12.1621C60.316 12.2877 60.3161 12.3109 60.6152 12.3109C61.9115 12.3109 63.2587 11.9853 65.1278 11.6852C65.4014 11.6364 65.4269 11.5852 65.4269 11.4363C65.4269 10.8107 63.9544 8.96147 62.8089 8.96147ZM66.649 11.962C66.002 12.1132 63.5092 12.6622 60.6662 12.8366C60.2674 12.8622 60.1931 12.9878 60.1931 13.5623C60.1931 17.0118 62.8599 17.9376 64.7544 17.9376C66.4008 17.9376 67.2983 17.3374 67.4467 17.3374C67.5719 17.3374 67.6461 17.4863 67.6461 17.5375C67.6461 17.6631 65.5266 19.2378 63.5092 19.2378C61.4917 19.2378 58.4238 18.2376 58.4238 14.0624C58.4238 10.5362 60.7914 8.43579 63.0616 8.43579C64.3579 8.43579 65.9533 9.26153 66.8507 10.3106C67.2751 10.8107 67.6739 11.4108 67.6739 11.6108C67.6739 11.7108 67.3238 11.8108 66.6513 11.962" fill="#00234B"/>
<path d="M77.9404 9.28477C77.3908 9.28477 76.294 12.2853 74.3253 17.0862C72.753 20.9102 71.633 22.9362 70.8353 24.5876C70.5617 25.1389 70.2625 25.1621 69.713 25.2366C68.9663 25.3366 68.79 25.5366 68.2428 25.5366C67.8184 25.5366 67.5703 25.411 67.5703 25.2878C67.5703 25.1389 68.7413 24.9877 69.5901 23.9131C70.4875 22.7873 72.6301 19.8379 72.6301 19.0889C72.6301 18.8145 70.6359 14.188 69.2654 10.9386C68.6416 9.43829 68.4677 9.31269 68.0202 9.31269C67.5216 9.31269 67.4961 9.2871 67.4961 9.0638C67.4961 8.84051 67.5703 8.71258 68.0202 8.71258C68.7181 8.71258 68.8921 8.76142 69.4904 8.76142C70.1883 8.76142 71.0602 8.68699 71.8579 8.68699C72.382 8.68699 72.4817 8.78701 72.4817 9.06148C72.4817 9.2871 72.382 9.31036 71.8579 9.31036C71.2597 9.31036 71.1113 9.46155 71.1113 10.0361C71.1113 10.7618 71.7582 11.6364 73.2539 15.4859C73.4533 16.0116 73.7525 16.4349 73.8522 16.4349C74.0261 16.4349 74.1768 16.0837 74.5757 14.9091C75.174 13.1087 76.0714 10.5083 76.0714 10.1594C76.0714 9.41038 76.0714 9.25919 75.225 9.25919C74.4528 9.25919 74.3531 9.25919 74.3531 9.00798C74.3531 8.68234 74.4273 8.68234 74.8772 8.68234C75.5496 8.68234 75.9995 8.73118 76.672 8.73118C77.0453 8.73118 77.7178 8.63116 78.068 8.63116C78.4668 8.63116 78.592 8.65675 78.592 8.93122C78.592 9.15684 78.2419 9.28245 77.9451 9.28245" fill="#00234B"/>
<path d="M175.461 9.29408V10.7548H167.331V17.3537H176.396V18.7889H165.764V1.85083H176.029V3.24876L167.271 3.24179L167.283 9.29408H175.461Z" fill="#00234B"/>
<path d="M104.35 1.84852H105.878V9.3662L114.24 1.802L116.439 1.81596C116.439 1.81596 110.732 7.00064 107.873 9.5988C110.862 12.6482 116.905 18.8121 116.905 18.8121L114.574 18.7959L105.915 10.0989V18.8168H104.322L104.35 1.84852Z" fill="#00234B"/>
<path d="M198.097 5.02115C197.705 4.70016 197.369 4.39545 197.012 4.10237C195.045 2.48579 191.789 2.41601 189.431 3.93955C185.213 6.66564 185.132 13.8158 189.308 16.6094C192.07 18.4562 196.091 18.2538 198.247 15.3719C198.345 15.2556 198.414 15.1649 198.414 15.1649C198.894 15.5278 199.249 15.7952 199.694 16.1325C198.945 17.2513 197.983 18.0817 196.78 18.5725C191.813 20.6008 185.002 18.0771 184.675 10.8129C184.578 8.63345 185.025 6.58888 186.338 4.80948C188.144 2.36484 190.644 1.36698 193.617 1.40652C195.643 1.43444 197.42 2.06013 198.836 3.56506C198.929 3.66508 199.159 3.93025 199.242 4.03492L198.099 5.0165L198.097 5.02115Z" fill="#00234B"/>
<path d="M84.0879 16.6722C84.6885 16.2721 85.0711 16.0162 85.5766 15.6789C85.7459 15.8999 85.892 16.1023 86.0497 16.2953C87.3993 17.9212 90.0985 18.2771 91.8724 17.1234C93.5189 16.0534 94.0824 13.0622 91.5779 11.8922C90.7223 11.4921 89.7993 11.2409 88.9135 10.906C88.2086 10.6385 87.4828 10.4059 86.8219 10.05C84.009 8.54274 83.7053 4.50012 86.2375 2.54627C88.3477 0.918063 91.9722 1.04134 93.9548 2.81609C94.1821 3.01845 94.3722 3.26036 94.6157 3.5232C94.1357 3.86978 93.6997 4.18611 93.2429 4.51408C91.9513 2.84168 90.277 2.52534 88.3825 3.08358C86.9981 3.49063 86.2491 4.46058 86.1332 5.8748C86.0288 7.14946 86.6201 8.24268 87.8955 8.81953C88.9135 9.28008 90.0011 9.58712 91.0585 9.96161C91.3136 10.0523 91.5733 10.1291 91.8261 10.2291C94.2099 11.1758 95.1491 12.7831 94.7989 15.3068C94.516 17.3397 92.6539 19.0121 90.4417 19.1889C88.7698 19.3238 87.1326 19.1866 85.6995 18.2143C85.1013 17.8096 84.4427 17.149 84.0948 16.6722H84.0879Z" fill="#00234B"/>
<path d="M130.603 18.7888H129.008L129.033 11.6712L122.816 1.81824L124.699 1.7973L129.81 9.84764L135.042 1.7973L136.82 1.81591L130.62 11.7154L130.603 18.7888Z" fill="#00234B"/>
<path d="M209.446 1.7508H210.974V9.26848L219.336 1.70428L221.534 1.71824C221.534 1.71824 215.827 6.90293 212.968 9.50108C215.957 12.5505 222 18.7144 222 18.7144L219.67 18.6981L211.011 10.0012V18.7191H209.418L209.446 1.7508Z" fill="#00234B"/>
<path d="M145.959 0.536621C145.201 0.536621 144.463 0.622684 143.754 0.778527C143.886 0.773875 144.021 0.769223 144.155 0.769223C149.535 0.769223 153.894 5.03978 153.894 10.3059C153.894 15.572 149.535 19.8425 144.155 19.8425C144.021 19.8425 143.888 19.8379 143.754 19.8332C144.463 19.9891 145.201 20.0751 145.959 20.0751C151.467 20.0751 155.93 15.7022 155.93 10.3059C155.93 4.90953 151.467 0.536621 145.959 0.536621Z" fill="#00234B"/>
</g>
<defs>
<clipPath id="clip0_247_1069">
<rect width="222" height="25" fill="white" transform="translate(0 0.536621)"/>
</clipPath>
</defs>
</svg>
