<svg width="258" height="24" viewBox="0 0 258 24" fill="none" xmlns="http://www.w3.org/2000/svg">
<g clip-path="url(#clip0_247_1056)">
<path d="M143.229 23.1828L137.17 6.85413H139.516L144.39 20.6786H144.53L149.404 6.85413H151.656L145.69 23.1828H143.229Z" fill="black"/>
<path d="M154.129 6.85413H165.226V8.77894H156.357V13.8117H164.53V15.6912H156.357V21.258H165.226V23.1828H154.129V6.85413Z" fill="black"/>
<path d="M168.445 23.1828V6.85413H171.186L179.333 20.1219H179.426V6.85413H181.515V23.1828H178.916L170.674 9.63752H170.581V23.1828H168.445Z" fill="black"/>
<path d="M189.546 8.77894H184.068V6.85413H197.23V8.77894H191.751V23.1828H189.546V8.77894Z" fill="black"/>
<path d="M205.972 23.5301C204.966 23.5301 204.072 23.38 203.291 23.0781C202.508 22.7762 201.85 22.3591 201.317 21.8251C200.783 21.2929 200.372 20.6594 200.086 19.9247C199.799 19.1901 199.656 18.3891 199.656 17.5235V6.85413H201.862V17.4537C201.862 18.7224 202.222 19.731 202.941 20.4814C203.661 21.2301 204.671 21.6052 205.972 21.6052C207.287 21.6052 208.3 21.2301 209.012 20.4814C209.723 19.731 210.08 18.7224 210.08 17.4537V6.85413H212.285V17.5235C212.285 18.3891 212.146 19.1901 211.868 19.9247C211.589 20.6594 211.183 21.2929 210.649 21.8251C210.115 22.3591 209.453 22.7762 208.665 23.0781C207.875 23.38 206.978 23.5301 205.972 23.5301Z" fill="black"/>
<path d="M216.373 23.1828V6.85413H223.338C225.071 6.85413 226.405 7.2904 227.343 8.16468C228.279 9.03722 228.747 10.1855 228.747 11.6095C228.747 13.0317 228.286 14.1608 227.366 14.9949C226.445 15.8308 225.134 16.2479 223.431 16.2479H221.504L229.442 23.1828H226.332L218.649 16.2479H218.602V23.1828H216.373ZM226.494 11.7944V11.4925C226.494 10.6584 226.224 9.98828 225.682 9.4857C225.141 8.98486 224.336 8.73183 223.268 8.73183H218.602V14.5551H223.268C224.336 14.5551 225.141 14.3039 225.682 13.8013C226.224 13.2987 226.494 12.6286 226.494 11.7944Z" fill="black"/>
<path d="M232.02 6.85413H243.117V8.77894H234.248V13.8117H242.42V15.6912H234.248V21.258H243.117V23.1828H232.02V6.85413Z" fill="black"/>
<path d="M251.661 23.5074C249.649 23.5074 248.075 23.0432 246.937 22.1166C245.8 21.1882 245.208 20.005 245.162 18.5671H247.391C247.436 19.5723 247.838 20.3488 248.598 20.8985C249.356 21.4465 250.384 21.7222 251.684 21.7222C252.938 21.7222 253.928 21.443 254.656 20.8863C255.383 20.3296 255.748 19.6037 255.748 18.7067C255.748 17.9179 255.481 17.3263 254.946 16.932C254.412 16.5376 253.635 16.2636 252.613 16.1083L250.269 15.7366C248.907 15.5359 247.785 15.0839 246.902 14.3807C246.02 13.6774 245.58 12.6286 245.58 11.2378C245.58 10.5886 245.714 9.97259 245.985 9.39323C246.255 8.81386 246.647 8.31128 247.158 7.88548C247.668 7.46143 248.302 7.12463 249.062 6.87683C249.82 6.62903 250.686 6.50513 251.661 6.50513C252.651 6.50513 253.523 6.62903 254.272 6.87683C255.023 7.12463 255.65 7.46143 256.153 7.88548C256.656 8.31128 257.039 8.79816 257.302 9.34786C257.566 9.89581 257.713 10.4717 257.744 11.0755H255.516C255.453 10.271 255.105 9.60613 254.469 9.08086C253.835 8.55559 252.892 8.29208 251.638 8.29208C250.384 8.29208 249.432 8.56606 248.783 9.11576C248.133 9.66371 247.808 10.3251 247.808 11.0982C247.808 11.9026 248.086 12.4977 248.643 12.8851C249.2 13.2708 249.944 13.5413 250.872 13.6966L253.17 14.0665C254.578 14.2847 255.736 14.7401 256.64 15.4364C257.547 16.131 257.999 17.1832 257.999 18.5898C257.999 20.0748 257.414 21.265 256.246 22.1619C255.077 23.0589 253.549 23.5074 251.661 23.5074Z" fill="black"/>
<path d="M26.0086 6.95809C21.3276 6.95809 17.6697 10.5084 17.6697 15.2628C17.6697 20.0172 21.2347 23.5366 26.0086 23.5366C30.7825 23.5366 34.4094 19.9554 34.4094 15.2319C34.4094 10.5393 30.8445 6.95809 26.0086 6.95809ZM26.0396 20.1098C23.3736 20.1098 21.4206 18.0413 21.4206 15.2628C21.4206 12.4534 23.3426 10.3849 26.0086 10.3849C28.7055 10.3849 30.6585 12.4843 30.6585 15.2628C30.6585 18.0413 28.7055 20.1098 26.0396 20.1098ZM35.4324 10.5702H37.7574V23.2279H41.4773V7.26682H35.4324V10.5702ZM8.30784 10.3849C10.2608 10.3849 11.8108 11.589 12.3998 13.3796H16.3367C15.6237 9.55138 12.4618 6.95809 8.33885 6.95809C3.65791 6.95809 0 10.5084 0 15.2628C0 20.0172 3.56495 23.5366 8.33885 23.5366C12.3688 23.5366 15.5928 20.9433 16.3057 17.0843H12.3998C11.8418 18.8749 10.2918 20.1098 8.33885 20.1098C5.64191 20.1098 3.75092 18.0413 3.75092 15.2628C3.75092 12.4534 5.6109 10.3849 8.30784 10.3849ZM106.111 13.7192L103.383 13.3178C102.081 13.1326 101.151 12.7004 101.151 11.6816C101.151 10.5702 102.36 10.0145 104.003 10.0145C105.801 10.0145 106.948 10.7863 107.196 12.052H110.792C110.389 8.84131 107.909 6.95809 104.096 6.95809C100.159 6.95809 97.5554 8.96481 97.5554 11.8051C97.5554 14.5219 99.2604 16.0963 102.701 16.5903L105.429 16.9917C106.762 17.1769 107.506 17.7017 107.506 18.6896C107.506 19.9554 106.204 20.4802 104.406 20.4802C102.205 20.4802 100.965 19.5849 100.779 18.2266H97.1214C97.4624 21.3447 99.9114 23.5366 104.375 23.5366C108.436 23.5366 111.133 21.6843 111.133 18.5044C111.133 15.6641 109.18 14.1823 106.111 13.7192ZM39.6173 0.690986C38.2533 0.690986 37.2304 1.6789 37.2304 3.03729C37.2304 4.39568 38.2533 5.38359 39.6173 5.38359C40.9813 5.38359 42.0043 4.39568 42.0043 3.03729C42.0043 1.6789 40.9813 0.690986 39.6173 0.690986ZM94.2075 12.7312C94.2075 9.27352 92.0995 6.95809 87.6356 6.95809C83.4196 6.95809 81.0637 9.0883 80.5987 12.3608H84.2876C84.4736 11.095 85.4656 10.0453 87.5736 10.0453C89.4646 10.0453 90.3945 10.8789 90.3945 11.8977C90.3945 13.2252 88.6896 13.5648 86.5816 13.7809C83.7296 14.0896 80.1957 15.0776 80.1957 18.7823C80.1957 21.6534 82.3347 23.5057 85.7446 23.5057C88.4106 23.5057 90.0845 22.3943 90.9215 20.6346C91.0455 22.2091 92.2235 23.2279 93.8665 23.2279H96.0364V19.9245H94.2075V12.7312ZM90.5495 16.7447C90.5495 18.8749 88.6896 20.4494 86.4266 20.4494C85.0316 20.4494 83.8536 19.8628 83.8536 18.6279C83.8536 17.0534 85.7446 16.6212 87.4806 16.436C89.1545 16.2816 90.0845 15.9111 90.5495 15.2011V16.7447ZM70.8028 6.95809C68.7259 6.95809 66.9899 7.82253 65.7499 9.27353V0.536621H62.03V23.2279H65.6879V21.1286C66.9279 22.6413 68.6949 23.5366 70.8028 23.5366C75.2668 23.5366 78.6457 20.0172 78.6457 15.2628C78.6457 10.5084 75.2048 6.95809 70.8028 6.95809ZM70.2448 20.1098C67.5789 20.1098 65.6259 18.0413 65.6259 15.2628C65.6259 12.4843 67.6099 10.3849 70.2759 10.3849C72.9728 10.3849 74.8638 12.4534 74.8638 15.2628C74.8638 18.0413 72.9108 20.1098 70.2448 20.1098ZM53.1331 6.95809C50.7152 6.95809 49.1342 7.94602 48.2042 9.33528V7.26682H44.5153V23.2279H48.2352V14.5527C48.2352 12.1138 49.7852 10.3849 52.0791 10.3849C54.2181 10.3849 55.5511 11.8977 55.5511 14.0896V23.2279H59.271V13.8118C59.271 9.79836 57.1941 6.95809 53.1331 6.95809ZM128.865 14.738C128.865 10.1688 125.517 6.95809 121.022 6.95809C116.248 6.95809 112.745 10.5393 112.745 15.2628C112.745 20.2333 116.496 23.5366 121.084 23.5366C124.959 23.5366 127.997 21.2521 128.772 18.0105H124.897C124.339 19.4306 122.975 20.2333 121.146 20.2333C118.759 20.2333 116.961 18.7514 116.558 16.1581H128.865V14.738ZM116.775 13.5031C117.364 11.2802 119.038 10.1997 120.96 10.1997C123.068 10.1997 124.68 11.4037 125.052 13.5031H116.775Z" fill="#0052FF"/>
</g>
<defs>
<clipPath id="clip0_247_1056">
<rect width="258" height="23" fill="white" transform="translate(0 0.536621)"/>
</clipPath>
</defs>
</svg>
