<svg width="194" height="194" viewBox="0 0 194 194" fill="none" xmlns="http://www.w3.org/2000/svg">
<mask id="mask0_3030_2678" style="mask-type:luminance" maskUnits="userSpaceOnUse" x="0" y="0" width="194" height="195">
<path d="M66.8955 194.001H60.2061V180.623H53.5176V173.934H66.8955V194.001ZM73.5859 180.621H80.2764V187.312H86.9639V194.001H66.8965V187.312H73.5859V180.623H66.8965V173.934H73.5859V180.621ZM93.6543 194.001H86.9648V173.934H93.6543V194.001ZM100.345 194.001H93.6553V187.312H100.345V194.001ZM120.413 180.623H113.725V187.312H120.413V194.001H107.035V180.621H113.724V173.934H120.413V180.623ZM140.481 194.001H120.414V187.312H133.792V180.621H140.481V194.001ZM147.172 194.001H140.482V187.312H147.172V194.001ZM173.929 187.312H160.553V194.001H147.173V187.312H153.862V180.621H167.239V173.934H173.929V187.312ZM180.619 194.001H173.93V180.621H180.619V194.001ZM193.999 180.621V187.312H187.31V194.001H180.62V180.621H193.999ZM147.172 180.623H140.482V173.934H147.172V180.623ZM60.207 147.174H66.8955V173.933H60.2061V167.243H53.5176V153.863H60.2061V147.174H53.5176V140.484H60.207V147.174ZM73.5859 160.554H80.2744V153.863H86.9639V160.554H80.2764V167.243H86.9639V173.933H73.5859V167.243H66.8965V153.863H73.5859V160.554ZM100.345 147.174H107.033V160.554H100.345V167.243H107.033V173.933H100.343V167.243H93.6553V160.554H100.343V147.174H93.6553V140.484H100.345V147.174ZM120.413 173.933H113.724V160.554H120.413V173.933ZM140.481 173.933H120.414V160.554H133.792V140.484H140.481V173.933ZM167.24 153.863H173.929V160.554H167.24V167.243H160.553V173.933H153.862V167.243H147.173V160.554H160.551V140.484H167.24V153.863ZM193.999 173.933H180.62V167.243H187.31V160.554H193.999V173.933ZM93.6543 167.243H86.9648V160.554H93.6543V167.243ZM147.172 167.243H140.482V160.554H147.172V167.243ZM187.31 160.554H180.62V153.863H187.31V160.554ZM93.6543 153.863H86.9648V147.174H93.6543V153.863ZM113.725 147.174H120.413V153.863H113.724V147.174H107.035V140.484H113.725V147.174ZM153.862 153.863H147.173V147.174H153.862V153.863ZM193.999 153.863H187.31V140.484H193.999V153.863ZM80.2764 147.174H66.8965V140.484H80.2764V147.174ZM180.619 147.174H173.93V140.484H180.619V147.174ZM26.7578 133.795H20.0703V140.483H13.3799V127.104H20.0684V120.417H26.7578V133.795ZM46.8252 127.106H40.1387V133.794H46.8252V140.483H40.1357V133.795H33.4492V127.104H40.1357V120.417H46.8252V127.106ZM60.207 140.483H53.5176V133.794H60.207V140.483ZM86.9639 140.483H80.2744V133.794H86.9639V140.483ZM107.033 140.483H100.343V133.794H107.033V140.483ZM113.725 140.483H107.035V133.794H113.725V140.483ZM127.104 127.104H133.794V133.794H140.481V140.483H120.414V133.794H127.104V127.106H120.414V120.417H127.104V127.104ZM147.172 140.483H140.482V120.417H147.172V140.483ZM153.862 127.104H167.239V120.417H173.929V127.106H167.24V140.483H147.173V120.417H153.862V127.104ZM180.619 140.483H173.93V120.417H180.619V140.483ZM187.31 127.104H193.999V140.483H180.62V133.794H187.31V127.106H180.62V120.417H187.31V127.104ZM6.68945 127.104H13.3779V133.795H6.68848V127.106H0V120.417H6.68945V127.104ZM33.4482 127.106H26.7588V120.417H33.4482V127.106ZM53.5186 127.106H46.8291V120.417H53.5186V127.106ZM66.8955 127.106H60.2061V120.417H66.8955V127.106ZM86.9639 127.106H73.5859V120.417H86.9639V127.106ZM93.6543 127.106H86.9648V120.417H93.6543V127.106ZM107.033 127.106H93.6553V120.417H107.033V127.106ZM120.413 127.106H107.035V120.417H120.413V127.106ZM6.68945 100.346H13.3779V120.415H0V107.036H6.68848V100.348H0V93.6582H6.68945V100.346ZM26.7578 100.348H20.0703V120.415H13.3799V100.346H20.0684V93.6582H26.7578V100.348ZM33.4482 120.415H26.7588V113.726H33.4482V120.415ZM60.207 113.726H66.8955V120.415H46.8291V113.726H53.5176V107.036H60.207V113.726ZM80.2764 107.036H86.9639V120.415H73.5859V113.726H80.2744V107.036H73.5859V100.348H66.8965V93.6582H80.2764V107.036ZM107.033 120.415H93.6553V113.726H107.033V120.415ZM120.413 120.415H113.724V107.036H120.413V120.415ZM140.481 120.415H127.104V113.726H140.481V120.415ZM147.172 120.415H140.482V100.346H147.172V120.415ZM180.619 120.415H173.93V113.726H180.619V120.415ZM193.999 100.348H187.31V113.726H193.999V120.415H180.62V100.346H187.31V93.6582H193.999V100.348ZM46.8252 113.726H33.4492V107.036H46.8252V113.726ZM73.5859 113.726H66.8965V107.036H73.5859V113.726ZM127.104 113.726H120.414V107.036H127.104V113.726ZM173.929 100.348H167.24V113.726H160.551V107.036H153.862V113.726H147.173V100.346H160.551V93.6582H173.929V100.348ZM33.4482 107.036H26.7588V100.346H33.4482V107.036ZM93.6543 107.036H86.9648V100.346H93.6543V107.036ZM100.345 100.346H107.033V107.036H100.343V100.348H93.6553V93.6582H100.345V100.346ZM140.481 107.036H133.792V93.6582H140.481V107.036ZM180.619 107.036H173.93V93.6582H180.619V107.036ZM46.8252 100.348H33.4492V93.6582H46.8252V100.348ZM113.725 100.348H107.035V93.6582H113.725V100.348ZM127.104 100.348H120.414V93.6582H127.104V100.348ZM13.3779 86.9678H6.68945V93.6572H0V86.9678H6.68848V80.2783H13.3779V86.9678ZM33.4482 93.6572H26.7588V86.9678H33.4482V93.6572ZM60.207 93.6572H46.8291V86.9678H60.207V93.6572ZM73.5859 93.6572H66.8965V80.2783H73.5859V93.6572ZM93.6543 93.6572H86.9648V80.2783H93.6543V93.6572ZM107.033 86.9678H100.345V93.6572H93.6553V80.2783H107.033V86.9678ZM120.413 86.9678H113.725V93.6572H107.035V86.9678H113.724V80.2783H120.413V86.9678ZM140.481 93.6572H127.104V86.9678H133.792V80.2783H140.481V93.6572ZM173.929 93.6572H167.239V86.9678H160.553V93.6572H147.173V86.9678H160.551V80.2783H173.929V93.6572ZM46.8252 86.9678H40.1357V80.2783H46.8252V86.9678ZM127.104 86.9678H120.414V80.2783H127.104V86.9678ZM147.172 86.9678H140.482V80.2783H147.172V86.9678ZM180.619 86.9678H173.93V80.2783H180.619V86.9678ZM187.31 86.9678H180.62V80.2783H187.31V86.9678ZM13.3779 80.2773H0V73.5869H13.3779V80.2773ZM20.0703 66.8994H26.7578V80.2773H13.3799V73.5869H20.0684V66.8994H13.3799V60.21H20.0703V66.8994ZM40.1387 66.8994H46.8252V73.5889H40.1387V80.2773H33.4492V73.5869H40.1357V66.8994H33.4492V60.21H40.1387V66.8994ZM53.5186 73.5869H66.8955V80.2773H46.8291V66.8994H53.5186V73.5869ZM86.9639 73.5889H73.5859V80.2773H66.8965V66.8994H73.5859V60.21H86.9639V73.5889ZM120.413 80.2773H107.035V66.8994H113.724V60.21H120.413V80.2773ZM140.481 73.5889H133.794V80.2773H120.414V73.5869H127.104V66.8994H133.792V60.21H140.481V73.5889ZM147.172 80.2773H140.482V73.5869H147.172V80.2773ZM160.553 66.8994H167.24V73.5869H173.929V80.2773H160.551V73.5889H147.173V60.21H160.553V66.8994ZM180.619 80.2773H173.93V60.21H180.619V80.2773ZM193.999 80.2773H180.62V73.5869H193.999V80.2773ZM33.4482 73.5889H26.7588V60.21H33.4482V73.5889ZM6.68945 66.8994H0V60.21H6.68945V66.8994ZM66.8955 66.8994H60.2061V60.21H66.8955V66.8994ZM93.6543 66.8994H86.9648V60.21H93.6543V66.8994ZM107.033 66.8994H93.6553V60.21H107.033V66.8994ZM193.999 66.8994H180.62V60.21H193.999V66.8994ZM20.0703 60.209H13.3799V53.5195H20.0703V60.209ZM33.4482 60.209H26.7588V53.5195H33.4482V60.209ZM46.8252 60.209H33.4492V53.5195H46.8252V60.209ZM60.207 46.8301H66.8955V53.5195H60.207V60.209H53.5176V53.5195H60.2061V46.8301H53.5176V40.1406H60.207V46.8301ZM86.9639 60.209H73.5859V46.8301H80.2744V40.1406H86.9639V60.209ZM93.6543 60.209H86.9648V46.8301H93.6543V60.209ZM100.345 46.8301H107.033V60.209H100.343V53.5195H93.6553V40.1406H100.345V46.8301ZM120.413 60.209H113.724V53.5195H120.413V60.209ZM147.172 60.209H140.482V53.5195H147.172V60.209ZM167.24 60.209H160.551V53.5195H167.24V60.209ZM187.31 60.209H180.62V53.5195H187.31V60.209ZM140.481 46.8301H133.794V53.5195H127.104V46.8301H133.792V40.1406H140.481V46.8301ZM73.5859 46.8301H66.8965V40.1406H73.5859V46.8301ZM113.725 46.8301H107.035V40.1406H113.725V46.8301ZM127.104 46.8301H120.414V40.1406H127.104V46.8301ZM60.207 33.4502H66.8955V40.1396H60.2061V33.4502H53.5176V26.7607H60.207V33.4502ZM107.033 40.1396H100.343V33.4502H107.033V40.1396ZM120.413 40.1396H107.035V33.4502H120.413V40.1396ZM133.794 40.1396H127.104V33.4502H133.794V40.1396ZM73.5859 33.4502H66.8965V26.7607H73.5859V33.4502ZM86.9639 33.4502H80.2744V26.7607H86.9639V33.4502ZM93.6543 33.4502H86.9648V26.7607H93.6543V33.4502ZM66.8955 26.7598H60.2061V20.0703H66.8955V26.7598ZM73.5859 13.3818H86.9639V26.7598H66.8965V6.69238H73.5859V13.3818ZM120.413 26.7598H113.724V6.69238H120.413V26.7598ZM140.481 13.3818H133.794V26.7598H127.104V20.0723H120.414V13.3818H133.792V6.69238H140.481V13.3818ZM107.033 20.0723H100.343V13.3818H107.033V20.0723ZM60.207 13.3818H53.5176V6.69238H60.207V13.3818ZM93.6543 13.3818H86.9648V6.69238H93.6543V13.3818ZM80.2764 6.69141H66.8965V0.00195312H80.2764V6.69141ZM107.033 6.69141H93.6553V0.00195312H107.033V6.69141ZM120.413 6.69141H107.035V0.00195312H120.413V6.69141ZM140.481 6.69141H133.792V0.00195312H140.481V6.69141Z" fill="white"/>
</mask>
<g mask="url(#mask0_3030_2678)">
<path d="M201.523 -7.52539H-7.52734V201.525H201.523V-7.52539Z" fill="#FFFF00"/>
</g>
<mask id="mask1_3030_2678" style="mask-type:luminance" maskUnits="userSpaceOnUse" x="0" y="0" width="47" height="47">
<path fill-rule="evenodd" clip-rule="evenodd" d="M0 0V46.8273H46.8273V0H0ZM6.68961 6.68961H40.1377V40.1377H6.68961V6.68961Z" fill="white"/>
</mask>
<g mask="url(#mask1_3030_2678)">
<path d="M46.8273 0H0V46.8273H46.8273V0Z" fill="#FFFF00"/>
</g>
<mask id="mask2_3030_2678" style="mask-type:luminance" maskUnits="userSpaceOnUse" x="13" y="13" width="21" height="21">
<path d="M33.4497 13.3809H13.3809V33.4497H33.4497V13.3809Z" fill="white"/>
</mask>
<g mask="url(#mask2_3030_2678)">
<path d="M33.4497 13.3809H13.3809V33.4497H33.4497V13.3809Z" fill="#FFFF00"/>
</g>
<mask id="mask3_3030_2678" style="mask-type:luminance" maskUnits="userSpaceOnUse" x="147" y="0" width="48" height="47">
<path fill-rule="evenodd" clip-rule="evenodd" d="M194.002 0L147.175 0V46.8273H194.002V0ZM187.312 6.68961V40.1377H153.864V6.68961L187.312 6.68961Z" fill="white"/>
</mask>
<g mask="url(#mask3_3030_2678)">
<path d="M193.999 0H147.172V46.8273H193.999V0Z" fill="#FFFF00"/>
</g>
<mask id="mask4_3030_2678" style="mask-type:luminance" maskUnits="userSpaceOnUse" x="160" y="13" width="21" height="21">
<path d="M180.619 33.4497V13.3809L160.55 13.3809V33.4497H180.619Z" fill="white"/>
</mask>
<g mask="url(#mask4_3030_2678)">
<path d="M180.62 13.3809H160.551V33.4497H180.62V13.3809Z" fill="#FFFF00"/>
</g>
<mask id="mask5_3030_2678" style="mask-type:luminance" maskUnits="userSpaceOnUse" x="0" y="147" width="47" height="47">
<path fill-rule="evenodd" clip-rule="evenodd" d="M0 193.999H46.8273V147.172H0L0 193.999ZM6.68961 187.309L6.68961 153.861H40.1377V187.309H6.68961Z" fill="white"/>
</mask>
<g mask="url(#mask5_3030_2678)">
<path d="M46.8273 147.172H0V193.999H46.8273V147.172Z" fill="#FFFF00"/>
</g>
<mask id="mask6_3030_2678" style="mask-type:luminance" maskUnits="userSpaceOnUse" x="13" y="160" width="21" height="21">
<path d="M13.3809 160.551L13.3809 180.62H33.4497V160.551H13.3809Z" fill="white"/>
</mask>
<g mask="url(#mask6_3030_2678)">
<path d="M33.4497 160.552H13.3809V180.621H33.4497V160.552Z" fill="#FFFF00"/>
</g>
</svg>
